M48
;DRILL file {KiCad 5.0.2-bee76a0~70~ubuntu18.04.1} date Mi 09 Jan 2019 05:41:58 CET
;FORMAT={-:-/ absolute / inch / decimal}
FMAT,2
INCH,TZ
T1C0.0157
T2C0.0197
T3C0.0315
T4C0.0354
T5C0.0394
T6C0.0598
T7C0.1260
%
G90
G05
T1
X1.9882Y-2.5197
X1.9882Y-2.7165
X1.9882Y-2.9134
X1.9882Y-3.1102
X1.9882Y-3.7008
X1.9882Y-3.8976
X1.9882Y-4.0945
X2.1063Y-4.2126
X2.126Y-2.6772
X2.1654Y-3.7795
X2.1654Y-5.0787
X2.27Y-3.9075
X2.2835Y-2.815
X2.2835Y-3.0315
X2.3031Y-3.4252
X2.3031Y-4.7835
X2.305Y-3.936
X2.3228Y-4.1929
X2.3425Y-4.5866
X2.3622Y-2.2047
X2.3622Y-5.0787
X2.4213Y-3.2677
X2.4803Y-2.5197
X2.5197Y-4.0945
X2.5394Y-4.5669
X2.5591Y-2.2047
X2.5591Y-5.0787
X2.5787Y-4.9409
X2.5875Y-3.965
X2.6181Y-2.4213
X2.6181Y-3.7795
X2.6378Y-3.3071
X2.6575Y-2.5197
X2.6575Y-3.4252
X2.6575Y-4.1929
X2.7165Y-2.9134
X2.7165Y-4.0945
X2.7165Y-4.9016
X2.7559Y-5.0787
X2.7756Y-2.2047
X2.8543Y-4.6063
X2.9331Y-3.8976
X2.9528Y-3.2677
X2.9528Y-5.0787
X3.0118Y-2.2047
X3.0709Y-3.878
X3.1102Y-4.3307
X3.1496Y-5.0787
X3.1693Y-3.4252
X3.2087Y-2.7559
X3.2087Y-3.7795
X3.2087Y-4.0551
X3.2283Y-2.2047
X3.2283Y-2.4409
X3.3071Y-2.9134
X3.3071Y-3.8386
X3.3071Y-4.1339
X3.3307Y-4.4331
X3.3465Y-5.0787
X3.378Y-4.4567
X3.4449Y-3.3268
X3.4646Y-2.2047
X3.4843Y-2.7165
X3.4843Y-4.1142
X3.5039Y-4.9016
X3.5236Y-2.5394
X3.5433Y-5.0787
X3.5827Y-3.878
X3.622Y-3.4055
X3.6811Y-2.2047
X3.7205Y-4.3898
X3.7402Y-2.4409
X3.7402Y-3.9173
X3.7402Y-4.1929
X3.7402Y-5.0787
X3.7598Y-3.3071
X3.8976Y-2.9331
X3.8976Y-3.4646
X3.8976Y-4.3898
X3.9173Y-2.5197
X3.937Y-5.0787
X3.9764Y-4.7441
X3.9764Y-4.9409
X3.9961Y-2.2047
X4.0157Y-3.1102
X4.0354Y-3.8386
X4.0551Y-3.2283
X4.0748Y-2.9331
X4.0748Y-4.1535
X4.0748Y-4.3898
X4.252Y-4.7638
X4.252Y-4.9803
X4.311Y-2.5197
X4.311Y-2.7165
X4.311Y-2.9134
X4.311Y-3.1102
X4.311Y-3.3071
X4.311Y-3.5039
X4.311Y-4.4882
X4.311Y-4.685
X4.311Y-4.8819
X4.311Y-5.0787
T2
X2.0157Y-2.3228
X2.0434Y-2.256
X2.0434Y-2.3896
X2.1102Y-2.2283
X2.1102Y-2.4173
X2.177Y-2.256
X2.177Y-2.3896
X2.2047Y-2.3228
X4.0984Y-2.3228
X4.1261Y-2.256
X4.1261Y-2.3896
X4.1929Y-2.2283
X4.1929Y-2.4173
X4.2597Y-2.256
X4.2597Y-2.3896
X4.2874Y-2.3228
T3
X2.6417Y-2.6969
X2.7402Y-2.6969
X3.878Y-4.4882
X3.878Y-4.5866
T4
X2.7362Y-4.439
X2.8362Y-4.439
X2.8134Y-2.3228
X2.9134Y-2.3228
X3.3858Y-2.3228
X3.4858Y-2.3228
X2.372Y-4.439
X2.472Y-4.439
X2.4213Y-4.8409
X2.4213Y-4.9409
T5
X2.93Y-2.61
X2.93Y-2.71
X2.0079Y-4.311
X2.0079Y-4.5669
X2.185Y-4.311
X2.185Y-4.5669
X2.0472Y-2.8827
X2.0472Y-2.9827
X2.0472Y-3.0827
X2.0472Y-3.1827
X2.0472Y-3.2827
X2.0472Y-3.3827
X2.0472Y-3.4827
X2.0472Y-3.5827
X2.3374Y-3.6764
X2.3374Y-4.2764
X2.4374Y-3.6764
X2.4374Y-4.2764
X2.5374Y-3.6764
X2.5374Y-4.2764
X2.6374Y-3.6764
X2.6374Y-4.2764
X2.7374Y-3.6764
X2.7374Y-4.2764
X2.8374Y-3.6764
X2.8374Y-4.2764
X2.9374Y-3.6764
X2.9374Y-4.2764
X3.0374Y-3.6764
X3.0374Y-4.2764
X3.1374Y-3.6764
X3.1374Y-4.2764
X3.2374Y-3.6764
X3.2374Y-4.2764
X3.3374Y-3.6764
X3.3374Y-4.2764
X3.4374Y-3.6764
X3.4374Y-4.2764
X3.5374Y-3.6764
X3.5374Y-4.2764
X3.6374Y-3.6764
X3.6374Y-4.2764
X3.7374Y-3.6764
X3.7374Y-4.2764
X3.8374Y-3.6764
X3.8374Y-4.2764
X3.9374Y-3.6764
X3.9374Y-4.2764
X4.0374Y-3.6764
X4.0374Y-4.2764
X4.1374Y-3.6764
X4.1374Y-4.2764
X4.2374Y-3.6764
X4.2374Y-4.2764
X2.93Y-3.03
X2.93Y-3.13
X3.66Y-2.61
X3.66Y-2.71
X2.0079Y-4.7638
X2.0079Y-5.0197
X2.185Y-4.7638
X2.185Y-5.0197
X3.66Y-3.03
X3.66Y-3.13
X2.9315Y-4.685
X2.986Y-4.7969
X3.0406Y-4.685
X3.0951Y-4.7969
X3.1496Y-4.685
X3.2041Y-4.7969
X3.2587Y-4.685
X3.3132Y-4.7969
X3.3677Y-4.685
X4.1339Y-3.0825
X4.1339Y-3.1825
X4.1339Y-3.2825
X4.1339Y-3.3825
T6
X2.4378Y-2.3228
X2.6378Y-2.3228
X3.6583Y-2.3228
X3.8583Y-2.3228
T7
X2.1102Y-2.3228
X2.6575Y-4.7409
X3.6417Y-4.7409
X4.1929Y-2.3228
T5
X3.8386Y-4.9016G85X3.8386Y-4.8228
G05
X4.0748Y-4.8878G85X4.0748Y-4.8366
G05
X4.0846Y-4.685G85X4.1437Y-4.685
G05
X4.0846Y-5.0394G85X4.1437Y-5.0394
G05
T0
M30
