G04 #@! TF.GenerationSoftware,KiCad,Pcbnew,5.0.2-bee76a0~70~ubuntu18.04.1*
G04 #@! TF.CreationDate,2019-01-09T05:41:56+01:00*
G04 #@! TF.ProjectId,IGM400,49474d34-3030-42e6-9b69-6361645f7063,rev?*
G04 #@! TF.SameCoordinates,Original*
G04 #@! TF.FileFunction,Legend,Top*
G04 #@! TF.FilePolarity,Positive*
%FSLAX46Y46*%
G04 Gerber Fmt 4.6, Leading zero omitted, Abs format (unit mm)*
G04 Created by KiCad (PCBNEW 5.0.2-bee76a0~70~ubuntu18.04.1) date Mi 09 Jan 2019 05:41:56 CET*
%MOMM*%
%LPD*%
G01*
G04 APERTURE LIST*
%ADD10C,0.150000*%
%ADD11C,0.120000*%
G04 APERTURE END LIST*
D10*
G04 #@! TO.C,U1*
X109900000Y-97200000D02*
X105400000Y-97200000D01*
X105400000Y-97200000D02*
X105400000Y-104800000D01*
X105400000Y-104800000D02*
X109900000Y-104800000D01*
X110000000Y-89750000D02*
X110000000Y-112250000D01*
X110000000Y-112250000D02*
X57000000Y-112250000D01*
X57000000Y-112250000D02*
X57000000Y-89750000D01*
X57000000Y-89750000D02*
X110000000Y-89750000D01*
D11*
G04 #@! TO.C,C1*
X76579000Y-112113279D02*
X76579000Y-111787721D01*
X77599000Y-112113279D02*
X77599000Y-111787721D01*
G04 #@! TO.C,C3*
X91886500Y-112113279D02*
X91886500Y-111787721D01*
X90866500Y-112113279D02*
X90866500Y-111787721D01*
G04 #@! TO.C,C4*
X68010500Y-113311721D02*
X68010500Y-113637279D01*
X66990500Y-113311721D02*
X66990500Y-113637279D01*
G04 #@! TO.C,C7*
X57402000Y-102961221D02*
X57402000Y-103286779D01*
X58422000Y-102961221D02*
X58422000Y-103286779D01*
G04 #@! TO.C,C8*
X55056500Y-102961221D02*
X55056500Y-103286779D01*
X54036500Y-102961221D02*
X54036500Y-103286779D01*
G04 #@! TO.C,C9*
X92902500Y-90586779D02*
X92902500Y-90261221D01*
X91882500Y-90586779D02*
X91882500Y-90261221D01*
G04 #@! TO.C,C2*
X80008000Y-112049779D02*
X80008000Y-111724221D01*
X81028000Y-112049779D02*
X81028000Y-111724221D01*
G04 #@! TO.C,C5*
X96775000Y-117804775D02*
X97275000Y-117804775D01*
X97025000Y-118054775D02*
X97025000Y-117554775D01*
X98216000Y-112649000D02*
X98784000Y-112649000D01*
X97982000Y-112689000D02*
X99018000Y-112689000D01*
X97823000Y-112729000D02*
X99177000Y-112729000D01*
X97695000Y-112769000D02*
X99305000Y-112769000D01*
X97585000Y-112809000D02*
X99415000Y-112809000D01*
X97489000Y-112849000D02*
X99511000Y-112849000D01*
X97402000Y-112889000D02*
X99598000Y-112889000D01*
X97322000Y-112929000D02*
X99678000Y-112929000D01*
X99540000Y-112969000D02*
X99751000Y-112969000D01*
X97249000Y-112969000D02*
X97460000Y-112969000D01*
X99540000Y-113009000D02*
X99819000Y-113009000D01*
X97181000Y-113009000D02*
X97460000Y-113009000D01*
X99540000Y-113049000D02*
X99883000Y-113049000D01*
X97117000Y-113049000D02*
X97460000Y-113049000D01*
X99540000Y-113089000D02*
X99943000Y-113089000D01*
X97057000Y-113089000D02*
X97460000Y-113089000D01*
X99540000Y-113129000D02*
X100000000Y-113129000D01*
X97000000Y-113129000D02*
X97460000Y-113129000D01*
X99540000Y-113169000D02*
X100054000Y-113169000D01*
X96946000Y-113169000D02*
X97460000Y-113169000D01*
X99540000Y-113209000D02*
X100105000Y-113209000D01*
X96895000Y-113209000D02*
X97460000Y-113209000D01*
X99540000Y-113249000D02*
X100153000Y-113249000D01*
X96847000Y-113249000D02*
X97460000Y-113249000D01*
X99540000Y-113289000D02*
X100199000Y-113289000D01*
X96801000Y-113289000D02*
X97460000Y-113289000D01*
X99540000Y-113329000D02*
X100243000Y-113329000D01*
X96757000Y-113329000D02*
X97460000Y-113329000D01*
X99540000Y-113369000D02*
X100285000Y-113369000D01*
X96715000Y-113369000D02*
X97460000Y-113369000D01*
X99540000Y-113409000D02*
X100326000Y-113409000D01*
X96674000Y-113409000D02*
X97460000Y-113409000D01*
X99540000Y-113449000D02*
X100364000Y-113449000D01*
X96636000Y-113449000D02*
X97460000Y-113449000D01*
X99540000Y-113489000D02*
X100401000Y-113489000D01*
X96599000Y-113489000D02*
X97460000Y-113489000D01*
X99540000Y-113529000D02*
X100437000Y-113529000D01*
X96563000Y-113529000D02*
X97460000Y-113529000D01*
X99540000Y-113569000D02*
X100471000Y-113569000D01*
X96529000Y-113569000D02*
X97460000Y-113569000D01*
X99540000Y-113609000D02*
X100504000Y-113609000D01*
X96496000Y-113609000D02*
X97460000Y-113609000D01*
X99540000Y-113649000D02*
X100535000Y-113649000D01*
X96465000Y-113649000D02*
X97460000Y-113649000D01*
X99540000Y-113689000D02*
X100565000Y-113689000D01*
X96435000Y-113689000D02*
X97460000Y-113689000D01*
X99540000Y-113729000D02*
X100595000Y-113729000D01*
X96405000Y-113729000D02*
X97460000Y-113729000D01*
X99540000Y-113769000D02*
X100622000Y-113769000D01*
X96378000Y-113769000D02*
X97460000Y-113769000D01*
X99540000Y-113809000D02*
X100649000Y-113809000D01*
X96351000Y-113809000D02*
X97460000Y-113809000D01*
X99540000Y-113849000D02*
X100675000Y-113849000D01*
X96325000Y-113849000D02*
X97460000Y-113849000D01*
X99540000Y-113889000D02*
X100700000Y-113889000D01*
X96300000Y-113889000D02*
X97460000Y-113889000D01*
X99540000Y-113929000D02*
X100724000Y-113929000D01*
X96276000Y-113929000D02*
X97460000Y-113929000D01*
X99540000Y-113969000D02*
X100747000Y-113969000D01*
X96253000Y-113969000D02*
X97460000Y-113969000D01*
X99540000Y-114009000D02*
X100768000Y-114009000D01*
X96232000Y-114009000D02*
X97460000Y-114009000D01*
X99540000Y-114049000D02*
X100790000Y-114049000D01*
X96210000Y-114049000D02*
X97460000Y-114049000D01*
X99540000Y-114089000D02*
X100810000Y-114089000D01*
X96190000Y-114089000D02*
X97460000Y-114089000D01*
X99540000Y-114129000D02*
X100829000Y-114129000D01*
X96171000Y-114129000D02*
X97460000Y-114129000D01*
X99540000Y-114169000D02*
X100848000Y-114169000D01*
X96152000Y-114169000D02*
X97460000Y-114169000D01*
X99540000Y-114209000D02*
X100865000Y-114209000D01*
X96135000Y-114209000D02*
X97460000Y-114209000D01*
X99540000Y-114249000D02*
X100882000Y-114249000D01*
X96118000Y-114249000D02*
X97460000Y-114249000D01*
X99540000Y-114289000D02*
X100898000Y-114289000D01*
X96102000Y-114289000D02*
X97460000Y-114289000D01*
X99540000Y-114329000D02*
X100914000Y-114329000D01*
X96086000Y-114329000D02*
X97460000Y-114329000D01*
X99540000Y-114369000D02*
X100928000Y-114369000D01*
X96072000Y-114369000D02*
X97460000Y-114369000D01*
X99540000Y-114409000D02*
X100942000Y-114409000D01*
X96058000Y-114409000D02*
X97460000Y-114409000D01*
X99540000Y-114449000D02*
X100955000Y-114449000D01*
X96045000Y-114449000D02*
X97460000Y-114449000D01*
X99540000Y-114489000D02*
X100968000Y-114489000D01*
X96032000Y-114489000D02*
X97460000Y-114489000D01*
X99540000Y-114529000D02*
X100980000Y-114529000D01*
X96020000Y-114529000D02*
X97460000Y-114529000D01*
X99540000Y-114570000D02*
X100991000Y-114570000D01*
X96009000Y-114570000D02*
X97460000Y-114570000D01*
X99540000Y-114610000D02*
X101001000Y-114610000D01*
X95999000Y-114610000D02*
X97460000Y-114610000D01*
X99540000Y-114650000D02*
X101011000Y-114650000D01*
X95989000Y-114650000D02*
X97460000Y-114650000D01*
X99540000Y-114690000D02*
X101020000Y-114690000D01*
X95980000Y-114690000D02*
X97460000Y-114690000D01*
X99540000Y-114730000D02*
X101028000Y-114730000D01*
X95972000Y-114730000D02*
X97460000Y-114730000D01*
X99540000Y-114770000D02*
X101036000Y-114770000D01*
X95964000Y-114770000D02*
X97460000Y-114770000D01*
X99540000Y-114810000D02*
X101043000Y-114810000D01*
X95957000Y-114810000D02*
X97460000Y-114810000D01*
X99540000Y-114850000D02*
X101050000Y-114850000D01*
X95950000Y-114850000D02*
X97460000Y-114850000D01*
X99540000Y-114890000D02*
X101056000Y-114890000D01*
X95944000Y-114890000D02*
X97460000Y-114890000D01*
X99540000Y-114930000D02*
X101061000Y-114930000D01*
X95939000Y-114930000D02*
X97460000Y-114930000D01*
X99540000Y-114970000D02*
X101065000Y-114970000D01*
X95935000Y-114970000D02*
X97460000Y-114970000D01*
X99540000Y-115010000D02*
X101069000Y-115010000D01*
X95931000Y-115010000D02*
X97460000Y-115010000D01*
X95927000Y-115050000D02*
X101073000Y-115050000D01*
X95924000Y-115090000D02*
X101076000Y-115090000D01*
X95922000Y-115130000D02*
X101078000Y-115130000D01*
X95921000Y-115170000D02*
X101079000Y-115170000D01*
X95920000Y-115210000D02*
X101080000Y-115210000D01*
X95920000Y-115250000D02*
X101080000Y-115250000D01*
X101120000Y-115250000D02*
G75*
G03X101120000Y-115250000I-2620000J0D01*
G01*
G04 #@! TO.C,C6*
X70970000Y-68500000D02*
G75*
G03X70970000Y-68500000I-2620000J0D01*
G01*
X68350000Y-65920000D02*
X68350000Y-71080000D01*
X68390000Y-65920000D02*
X68390000Y-71080000D01*
X68430000Y-65921000D02*
X68430000Y-71079000D01*
X68470000Y-65922000D02*
X68470000Y-71078000D01*
X68510000Y-65924000D02*
X68510000Y-71076000D01*
X68550000Y-65927000D02*
X68550000Y-71073000D01*
X68590000Y-65931000D02*
X68590000Y-67460000D01*
X68590000Y-69540000D02*
X68590000Y-71069000D01*
X68630000Y-65935000D02*
X68630000Y-67460000D01*
X68630000Y-69540000D02*
X68630000Y-71065000D01*
X68670000Y-65939000D02*
X68670000Y-67460000D01*
X68670000Y-69540000D02*
X68670000Y-71061000D01*
X68710000Y-65944000D02*
X68710000Y-67460000D01*
X68710000Y-69540000D02*
X68710000Y-71056000D01*
X68750000Y-65950000D02*
X68750000Y-67460000D01*
X68750000Y-69540000D02*
X68750000Y-71050000D01*
X68790000Y-65957000D02*
X68790000Y-67460000D01*
X68790000Y-69540000D02*
X68790000Y-71043000D01*
X68830000Y-65964000D02*
X68830000Y-67460000D01*
X68830000Y-69540000D02*
X68830000Y-71036000D01*
X68870000Y-65972000D02*
X68870000Y-67460000D01*
X68870000Y-69540000D02*
X68870000Y-71028000D01*
X68910000Y-65980000D02*
X68910000Y-67460000D01*
X68910000Y-69540000D02*
X68910000Y-71020000D01*
X68950000Y-65989000D02*
X68950000Y-67460000D01*
X68950000Y-69540000D02*
X68950000Y-71011000D01*
X68990000Y-65999000D02*
X68990000Y-67460000D01*
X68990000Y-69540000D02*
X68990000Y-71001000D01*
X69030000Y-66009000D02*
X69030000Y-67460000D01*
X69030000Y-69540000D02*
X69030000Y-70991000D01*
X69071000Y-66020000D02*
X69071000Y-67460000D01*
X69071000Y-69540000D02*
X69071000Y-70980000D01*
X69111000Y-66032000D02*
X69111000Y-67460000D01*
X69111000Y-69540000D02*
X69111000Y-70968000D01*
X69151000Y-66045000D02*
X69151000Y-67460000D01*
X69151000Y-69540000D02*
X69151000Y-70955000D01*
X69191000Y-66058000D02*
X69191000Y-67460000D01*
X69191000Y-69540000D02*
X69191000Y-70942000D01*
X69231000Y-66072000D02*
X69231000Y-67460000D01*
X69231000Y-69540000D02*
X69231000Y-70928000D01*
X69271000Y-66086000D02*
X69271000Y-67460000D01*
X69271000Y-69540000D02*
X69271000Y-70914000D01*
X69311000Y-66102000D02*
X69311000Y-67460000D01*
X69311000Y-69540000D02*
X69311000Y-70898000D01*
X69351000Y-66118000D02*
X69351000Y-67460000D01*
X69351000Y-69540000D02*
X69351000Y-70882000D01*
X69391000Y-66135000D02*
X69391000Y-67460000D01*
X69391000Y-69540000D02*
X69391000Y-70865000D01*
X69431000Y-66152000D02*
X69431000Y-67460000D01*
X69431000Y-69540000D02*
X69431000Y-70848000D01*
X69471000Y-66171000D02*
X69471000Y-67460000D01*
X69471000Y-69540000D02*
X69471000Y-70829000D01*
X69511000Y-66190000D02*
X69511000Y-67460000D01*
X69511000Y-69540000D02*
X69511000Y-70810000D01*
X69551000Y-66210000D02*
X69551000Y-67460000D01*
X69551000Y-69540000D02*
X69551000Y-70790000D01*
X69591000Y-66232000D02*
X69591000Y-67460000D01*
X69591000Y-69540000D02*
X69591000Y-70768000D01*
X69631000Y-66253000D02*
X69631000Y-67460000D01*
X69631000Y-69540000D02*
X69631000Y-70747000D01*
X69671000Y-66276000D02*
X69671000Y-67460000D01*
X69671000Y-69540000D02*
X69671000Y-70724000D01*
X69711000Y-66300000D02*
X69711000Y-67460000D01*
X69711000Y-69540000D02*
X69711000Y-70700000D01*
X69751000Y-66325000D02*
X69751000Y-67460000D01*
X69751000Y-69540000D02*
X69751000Y-70675000D01*
X69791000Y-66351000D02*
X69791000Y-67460000D01*
X69791000Y-69540000D02*
X69791000Y-70649000D01*
X69831000Y-66378000D02*
X69831000Y-67460000D01*
X69831000Y-69540000D02*
X69831000Y-70622000D01*
X69871000Y-66405000D02*
X69871000Y-67460000D01*
X69871000Y-69540000D02*
X69871000Y-70595000D01*
X69911000Y-66435000D02*
X69911000Y-67460000D01*
X69911000Y-69540000D02*
X69911000Y-70565000D01*
X69951000Y-66465000D02*
X69951000Y-67460000D01*
X69951000Y-69540000D02*
X69951000Y-70535000D01*
X69991000Y-66496000D02*
X69991000Y-67460000D01*
X69991000Y-69540000D02*
X69991000Y-70504000D01*
X70031000Y-66529000D02*
X70031000Y-67460000D01*
X70031000Y-69540000D02*
X70031000Y-70471000D01*
X70071000Y-66563000D02*
X70071000Y-67460000D01*
X70071000Y-69540000D02*
X70071000Y-70437000D01*
X70111000Y-66599000D02*
X70111000Y-67460000D01*
X70111000Y-69540000D02*
X70111000Y-70401000D01*
X70151000Y-66636000D02*
X70151000Y-67460000D01*
X70151000Y-69540000D02*
X70151000Y-70364000D01*
X70191000Y-66674000D02*
X70191000Y-67460000D01*
X70191000Y-69540000D02*
X70191000Y-70326000D01*
X70231000Y-66715000D02*
X70231000Y-67460000D01*
X70231000Y-69540000D02*
X70231000Y-70285000D01*
X70271000Y-66757000D02*
X70271000Y-67460000D01*
X70271000Y-69540000D02*
X70271000Y-70243000D01*
X70311000Y-66801000D02*
X70311000Y-67460000D01*
X70311000Y-69540000D02*
X70311000Y-70199000D01*
X70351000Y-66847000D02*
X70351000Y-67460000D01*
X70351000Y-69540000D02*
X70351000Y-70153000D01*
X70391000Y-66895000D02*
X70391000Y-67460000D01*
X70391000Y-69540000D02*
X70391000Y-70105000D01*
X70431000Y-66946000D02*
X70431000Y-67460000D01*
X70431000Y-69540000D02*
X70431000Y-70054000D01*
X70471000Y-67000000D02*
X70471000Y-67460000D01*
X70471000Y-69540000D02*
X70471000Y-70000000D01*
X70511000Y-67057000D02*
X70511000Y-67460000D01*
X70511000Y-69540000D02*
X70511000Y-69943000D01*
X70551000Y-67117000D02*
X70551000Y-67460000D01*
X70551000Y-69540000D02*
X70551000Y-69883000D01*
X70591000Y-67181000D02*
X70591000Y-67460000D01*
X70591000Y-69540000D02*
X70591000Y-69819000D01*
X70631000Y-67249000D02*
X70631000Y-67460000D01*
X70631000Y-69540000D02*
X70631000Y-69751000D01*
X70671000Y-67322000D02*
X70671000Y-69678000D01*
X70711000Y-67402000D02*
X70711000Y-69598000D01*
X70751000Y-67489000D02*
X70751000Y-69511000D01*
X70791000Y-67585000D02*
X70791000Y-69415000D01*
X70831000Y-67695000D02*
X70831000Y-69305000D01*
X70871000Y-67823000D02*
X70871000Y-69177000D01*
X70911000Y-67982000D02*
X70911000Y-69018000D01*
X70951000Y-68216000D02*
X70951000Y-68784000D01*
X65545225Y-67025000D02*
X66045225Y-67025000D01*
X65795225Y-66775000D02*
X65795225Y-67275000D01*
G04 #@! TO.C,J7*
X92964000Y-70164000D02*
X91634000Y-70164000D01*
X91634000Y-70164000D02*
X91634000Y-68834000D01*
X91634000Y-67564000D02*
X91634000Y-64964000D01*
X94294000Y-64964000D02*
X91634000Y-64964000D01*
X94294000Y-67564000D02*
X94294000Y-64964000D01*
X94294000Y-67564000D02*
X91634000Y-67564000D01*
G04 #@! TO.C,J9*
X75752000Y-67564000D02*
X73092000Y-67564000D01*
X75752000Y-67564000D02*
X75752000Y-64964000D01*
X75752000Y-64964000D02*
X73092000Y-64964000D01*
X73092000Y-67564000D02*
X73092000Y-64964000D01*
X73092000Y-70164000D02*
X73092000Y-68834000D01*
X74422000Y-70164000D02*
X73092000Y-70164000D01*
G04 #@! TO.C,J10*
X92963999Y-80832000D02*
X91633999Y-80832000D01*
X91633999Y-80832000D02*
X91633999Y-79502000D01*
X91633999Y-78232000D02*
X91633999Y-75632000D01*
X94293999Y-75632000D02*
X91633999Y-75632000D01*
X94293999Y-78232000D02*
X94293999Y-75632000D01*
X94293999Y-78232000D02*
X91633999Y-78232000D01*
G04 #@! TO.C,J8*
X75752000Y-78231999D02*
X73092000Y-78231999D01*
X75752000Y-78231999D02*
X75752000Y-75631999D01*
X75752000Y-75631999D02*
X73092000Y-75631999D01*
X73092000Y-78231999D02*
X73092000Y-75631999D01*
X73092000Y-80831999D02*
X73092000Y-79501999D01*
X74422000Y-80831999D02*
X73092000Y-80831999D01*
G04 #@! TO.C,Q2*
X85663500Y-113037500D02*
X87123500Y-113037500D01*
X85663500Y-116197500D02*
X87823500Y-116197500D01*
X85663500Y-116197500D02*
X85663500Y-115267500D01*
X85663500Y-113037500D02*
X85663500Y-113967500D01*
G04 #@! TO.C,Q1*
X81599500Y-113037500D02*
X81599500Y-113967500D01*
X81599500Y-116197500D02*
X81599500Y-115267500D01*
X81599500Y-116197500D02*
X83759500Y-116197500D01*
X81599500Y-113037500D02*
X83059500Y-113037500D01*
G04 #@! TO.C,Q3*
X62222500Y-64454500D02*
X62222500Y-65914500D01*
X59062500Y-64454500D02*
X59062500Y-66614500D01*
X59062500Y-64454500D02*
X59992500Y-64454500D01*
X62222500Y-64454500D02*
X61292500Y-64454500D01*
G04 #@! TO.C,Q4*
X103942000Y-64518000D02*
X103012000Y-64518000D01*
X100782000Y-64518000D02*
X101712000Y-64518000D01*
X100782000Y-64518000D02*
X100782000Y-66678000D01*
X103942000Y-64518000D02*
X103942000Y-65978000D01*
G04 #@! TO.C,R7*
X89279000Y-111787721D02*
X89279000Y-112113279D01*
X90299000Y-111787721D02*
X90299000Y-112113279D01*
G04 #@! TO.C,R16*
X57211500Y-97635279D02*
X57211500Y-97309721D01*
X58231500Y-97635279D02*
X58231500Y-97309721D01*
G04 #@! TO.C,R1*
X74991500Y-114835721D02*
X74991500Y-115161279D01*
X76011500Y-114835721D02*
X76011500Y-115161279D01*
G04 #@! TO.C,R2*
X79440500Y-114772221D02*
X79440500Y-115097779D01*
X78420500Y-114772221D02*
X78420500Y-115097779D01*
G04 #@! TO.C,R3*
X89279000Y-114835721D02*
X89279000Y-115161279D01*
X90299000Y-114835721D02*
X90299000Y-115161279D01*
G04 #@! TO.C,R4*
X66901279Y-111698500D02*
X66575721Y-111698500D01*
X66901279Y-110678500D02*
X66575721Y-110678500D01*
G04 #@! TO.C,R5*
X74991500Y-111787721D02*
X74991500Y-112113279D01*
X76011500Y-111787721D02*
X76011500Y-112113279D01*
G04 #@! TO.C,R6*
X79440500Y-111749722D02*
X79440500Y-112075280D01*
X78420500Y-111749722D02*
X78420500Y-112075280D01*
G04 #@! TO.C,R15*
X94363000Y-115224779D02*
X94363000Y-114899221D01*
X93343000Y-115224779D02*
X93343000Y-114899221D01*
G04 #@! TO.C,R8*
X62232000Y-97309721D02*
X62232000Y-97635279D01*
X61212000Y-97309721D02*
X61212000Y-97635279D01*
G04 #@! TO.C,R10*
X71499000Y-97309721D02*
X71499000Y-97635279D01*
X72519000Y-97309721D02*
X72519000Y-97635279D01*
G04 #@! TO.C,R11*
X62799500Y-70838279D02*
X62799500Y-70512721D01*
X63819500Y-70838279D02*
X63819500Y-70512721D01*
G04 #@! TO.C,R12*
X101030500Y-69949279D02*
X101030500Y-69623721D01*
X100010500Y-69949279D02*
X100010500Y-69623721D01*
G04 #@! TO.C,R13*
X91755500Y-115224779D02*
X91755500Y-114899221D01*
X92775500Y-115224779D02*
X92775500Y-114899221D01*
G04 #@! TO.C,R14*
X60263500Y-97635279D02*
X60263500Y-97309721D01*
X59243500Y-97635279D02*
X59243500Y-97309721D01*
G04 #@! TO.C,R20*
X102618000Y-69623721D02*
X102618000Y-69949279D01*
X101598000Y-69623721D02*
X101598000Y-69949279D01*
G04 #@! TO.C,R19*
X61212000Y-70512721D02*
X61212000Y-70838279D01*
X62232000Y-70512721D02*
X62232000Y-70838279D01*
G04 #@! TO.C,R18*
X56098221Y-91438000D02*
X56423779Y-91438000D01*
X56098221Y-92458000D02*
X56423779Y-92458000D01*
G04 #@! TO.C,R17*
X64200500Y-97635279D02*
X64200500Y-97309721D01*
X63180500Y-97635279D02*
X63180500Y-97309721D01*
G04 #@! TO.C,R9*
X68425279Y-97855500D02*
X68099721Y-97855500D01*
X68425279Y-96835500D02*
X68099721Y-96835500D01*
G04 #@! TO.C,R22*
X96635500Y-67368922D02*
X96635500Y-67886078D01*
X98055500Y-67368922D02*
X98055500Y-67886078D01*
G04 #@! TO.C,R21*
X96699000Y-71696078D02*
X96699000Y-71178922D01*
X98119000Y-71696078D02*
X98119000Y-71178922D01*
G04 #@! TO.C,D5*
X85710000Y-60080000D02*
X85710000Y-60236000D01*
X85710000Y-57764000D02*
X85710000Y-57920000D01*
X88311130Y-60079837D02*
G75*
G02X86229039Y-60080000I-1041130J1079837D01*
G01*
X88311130Y-57920163D02*
G75*
G03X86229039Y-57920000I-1041130J-1079837D01*
G01*
X88942335Y-60078608D02*
G75*
G02X85710000Y-60235516I-1672335J1078608D01*
G01*
X88942335Y-57921392D02*
G75*
G03X85710000Y-57764484I-1672335J-1078608D01*
G01*
G04 #@! TO.C,D4*
X71057665Y-60078608D02*
G75*
G03X74290000Y-60235516I1672335J1078608D01*
G01*
X71057665Y-57921392D02*
G75*
G02X74290000Y-57764484I1672335J-1078608D01*
G01*
X71688870Y-60079837D02*
G75*
G03X73770961Y-60080000I1041130J1079837D01*
G01*
X71688870Y-57920163D02*
G75*
G02X73770961Y-57920000I1041130J-1079837D01*
G01*
X74290000Y-60236000D02*
X74290000Y-60080000D01*
X74290000Y-57920000D02*
X74290000Y-57764000D01*
G04 #@! TO.C,J6*
X100540000Y-55190000D02*
X90380000Y-55190000D01*
X100540000Y-62810000D02*
X100540000Y-55190000D01*
X90380000Y-62810000D02*
X100540000Y-62810000D01*
X90380000Y-55190000D02*
X90380000Y-62810000D01*
X90380000Y-56460000D02*
X100540000Y-56460000D01*
G04 #@! TO.C,J2*
X59380000Y-56460000D02*
X69540000Y-56460000D01*
X59380000Y-55190000D02*
X59380000Y-62810000D01*
X59380000Y-62810000D02*
X69540000Y-62810000D01*
X69540000Y-62810000D02*
X69540000Y-55190000D01*
X69540000Y-55190000D02*
X59380000Y-55190000D01*
G04 #@! TO.C,SW2*
X54664214Y-124250000D02*
G75*
G03X54664214Y-124250000I-1414214J0D01*
G01*
X50130000Y-121280000D02*
X50130000Y-127220000D01*
X56370000Y-121280000D02*
X56370000Y-127220000D01*
X51910000Y-121130000D02*
X54590000Y-121130000D01*
X54590000Y-127370000D02*
X51910000Y-127370000D01*
G04 #@! TO.C,D3*
X72442335Y-111671392D02*
G75*
G03X69210000Y-111514484I-1672335J-1078608D01*
G01*
X72442335Y-113828608D02*
G75*
G02X69210000Y-113985516I-1672335J1078608D01*
G01*
X71811130Y-111670163D02*
G75*
G03X69729039Y-111670000I-1041130J-1079837D01*
G01*
X71811130Y-113829837D02*
G75*
G02X69729039Y-113830000I-1041130J1079837D01*
G01*
X69210000Y-111514000D02*
X69210000Y-111670000D01*
X69210000Y-113830000D02*
X69210000Y-113986000D01*
G04 #@! TO.C,D2*
X59960000Y-113830000D02*
X59960000Y-113986000D01*
X59960000Y-111514000D02*
X59960000Y-111670000D01*
X62561130Y-113829837D02*
G75*
G02X60479039Y-113830000I-1041130J1079837D01*
G01*
X62561130Y-111670163D02*
G75*
G03X60479039Y-111670000I-1041130J-1079837D01*
G01*
X63192335Y-113828608D02*
G75*
G02X59960000Y-113985516I-1672335J1078608D01*
G01*
X63192335Y-111671392D02*
G75*
G03X59960000Y-111514484I-1672335J-1078608D01*
G01*
G04 #@! TO.C,D1*
X60421392Y-122557665D02*
G75*
G03X60264484Y-125790000I1078608J-1672335D01*
G01*
X62578608Y-122557665D02*
G75*
G02X62735516Y-125790000I-1078608J-1672335D01*
G01*
X60420163Y-123188870D02*
G75*
G03X60420000Y-125270961I1079837J-1041130D01*
G01*
X62579837Y-123188870D02*
G75*
G02X62580000Y-125270961I-1079837J-1041130D01*
G01*
X60264000Y-125790000D02*
X60420000Y-125790000D01*
X62580000Y-125790000D02*
X62736000Y-125790000D01*
G04 #@! TO.C,SW1*
X54664214Y-112750000D02*
G75*
G03X54664214Y-112750000I-1414214J0D01*
G01*
X50130000Y-109780000D02*
X50130000Y-115720000D01*
X56370000Y-109780000D02*
X56370000Y-115720000D01*
X51910000Y-109630000D02*
X54590000Y-109630000D01*
X54590000Y-115870000D02*
X51910000Y-115870000D01*
G04 #@! TO.C,J1*
X102450000Y-128610000D02*
X96390000Y-128610000D01*
X96390000Y-128610000D02*
X96390000Y-125800000D01*
X96390000Y-121200000D02*
X96390000Y-118390000D01*
X96390000Y-118390000D02*
X102450000Y-118390000D01*
X106550000Y-118390000D02*
X109610000Y-118390000D01*
X109610000Y-118390000D02*
X109610000Y-128610000D01*
X109610000Y-128610000D02*
X106550000Y-128610000D01*
X96200000Y-124500000D02*
X96200000Y-122500000D01*
G04 #@! TO.C,J3*
X64515000Y-129480000D02*
X64515000Y-117140000D01*
X64515000Y-117140000D02*
X95485000Y-117140000D01*
X95485000Y-117140000D02*
X95485000Y-129480000D01*
X85290000Y-116245662D02*
X85790000Y-116245662D01*
X85790000Y-116245662D02*
X85540000Y-116678675D01*
X85540000Y-116678675D02*
X85290000Y-116245662D01*
G04 #@! TO.C,J5*
X103670000Y-79565500D02*
X106330000Y-79565500D01*
X103670000Y-79565500D02*
X103670000Y-87245500D01*
X103670000Y-87245500D02*
X106330000Y-87245500D01*
X106330000Y-79565500D02*
X106330000Y-87245500D01*
X106330000Y-76965500D02*
X106330000Y-78295500D01*
X105000000Y-76965500D02*
X106330000Y-76965500D01*
G04 #@! TO.C,J4*
X53330000Y-89730000D02*
X50670000Y-89730000D01*
X53330000Y-89730000D02*
X53330000Y-71890000D01*
X53330000Y-71890000D02*
X50670000Y-71890000D01*
X50670000Y-89730000D02*
X50670000Y-71890000D01*
X50670000Y-92330000D02*
X50670000Y-91000000D01*
X52000000Y-92330000D02*
X50670000Y-92330000D01*
G04 #@! TO.C,C1*
D10*
X76989000Y-110259785D02*
X76960428Y-110288357D01*
X76874714Y-110316928D01*
X76817571Y-110316928D01*
X76731857Y-110288357D01*
X76674714Y-110231214D01*
X76646142Y-110174071D01*
X76617571Y-110059785D01*
X76617571Y-109974071D01*
X76646142Y-109859785D01*
X76674714Y-109802642D01*
X76731857Y-109745500D01*
X76817571Y-109716928D01*
X76874714Y-109716928D01*
X76960428Y-109745500D01*
X76989000Y-109774071D01*
X77560428Y-110316928D02*
X77217571Y-110316928D01*
X77389000Y-110316928D02*
X77389000Y-109716928D01*
X77331857Y-109802642D01*
X77274714Y-109859785D01*
X77217571Y-109888357D01*
G04 #@! TO.C,C3*
X91213000Y-110259785D02*
X91184428Y-110288357D01*
X91098714Y-110316928D01*
X91041571Y-110316928D01*
X90955857Y-110288357D01*
X90898714Y-110231214D01*
X90870142Y-110174071D01*
X90841571Y-110059785D01*
X90841571Y-109974071D01*
X90870142Y-109859785D01*
X90898714Y-109802642D01*
X90955857Y-109745500D01*
X91041571Y-109716928D01*
X91098714Y-109716928D01*
X91184428Y-109745500D01*
X91213000Y-109774071D01*
X91413000Y-109716928D02*
X91784428Y-109716928D01*
X91584428Y-109945500D01*
X91670142Y-109945500D01*
X91727285Y-109974071D01*
X91755857Y-110002642D01*
X91784428Y-110059785D01*
X91784428Y-110202642D01*
X91755857Y-110259785D01*
X91727285Y-110288357D01*
X91670142Y-110316928D01*
X91498714Y-110316928D01*
X91441571Y-110288357D01*
X91413000Y-110259785D01*
G04 #@! TO.C,C4*
X65940000Y-114641285D02*
X65911428Y-114669857D01*
X65825714Y-114698428D01*
X65768571Y-114698428D01*
X65682857Y-114669857D01*
X65625714Y-114612714D01*
X65597142Y-114555571D01*
X65568571Y-114441285D01*
X65568571Y-114355571D01*
X65597142Y-114241285D01*
X65625714Y-114184142D01*
X65682857Y-114127000D01*
X65768571Y-114098428D01*
X65825714Y-114098428D01*
X65911428Y-114127000D01*
X65940000Y-114155571D01*
X66454285Y-114298428D02*
X66454285Y-114698428D01*
X66311428Y-114069857D02*
X66168571Y-114498428D01*
X66540000Y-114498428D01*
G04 #@! TO.C,C7*
X59556285Y-103224000D02*
X59584857Y-103252571D01*
X59613428Y-103338285D01*
X59613428Y-103395428D01*
X59584857Y-103481142D01*
X59527714Y-103538285D01*
X59470571Y-103566857D01*
X59356285Y-103595428D01*
X59270571Y-103595428D01*
X59156285Y-103566857D01*
X59099142Y-103538285D01*
X59042000Y-103481142D01*
X59013428Y-103395428D01*
X59013428Y-103338285D01*
X59042000Y-103252571D01*
X59070571Y-103224000D01*
X59013428Y-103024000D02*
X59013428Y-102624000D01*
X59613428Y-102881142D01*
G04 #@! TO.C,C8*
X56190785Y-103224000D02*
X56219357Y-103252571D01*
X56247928Y-103338285D01*
X56247928Y-103395428D01*
X56219357Y-103481142D01*
X56162214Y-103538285D01*
X56105071Y-103566857D01*
X55990785Y-103595428D01*
X55905071Y-103595428D01*
X55790785Y-103566857D01*
X55733642Y-103538285D01*
X55676500Y-103481142D01*
X55647928Y-103395428D01*
X55647928Y-103338285D01*
X55676500Y-103252571D01*
X55705071Y-103224000D01*
X55905071Y-102881142D02*
X55876500Y-102938285D01*
X55847928Y-102966857D01*
X55790785Y-102995428D01*
X55762214Y-102995428D01*
X55705071Y-102966857D01*
X55676500Y-102938285D01*
X55647928Y-102881142D01*
X55647928Y-102766857D01*
X55676500Y-102709714D01*
X55705071Y-102681142D01*
X55762214Y-102652571D01*
X55790785Y-102652571D01*
X55847928Y-102681142D01*
X55876500Y-102709714D01*
X55905071Y-102766857D01*
X55905071Y-102881142D01*
X55933642Y-102938285D01*
X55962214Y-102966857D01*
X56019357Y-102995428D01*
X56133642Y-102995428D01*
X56190785Y-102966857D01*
X56219357Y-102938285D01*
X56247928Y-102881142D01*
X56247928Y-102766857D01*
X56219357Y-102709714D01*
X56190785Y-102681142D01*
X56133642Y-102652571D01*
X56019357Y-102652571D01*
X55962214Y-102681142D01*
X55933642Y-102709714D01*
X55905071Y-102766857D01*
G04 #@! TO.C,C9*
X91176785Y-90524000D02*
X91205357Y-90552571D01*
X91233928Y-90638285D01*
X91233928Y-90695428D01*
X91205357Y-90781142D01*
X91148214Y-90838285D01*
X91091071Y-90866857D01*
X90976785Y-90895428D01*
X90891071Y-90895428D01*
X90776785Y-90866857D01*
X90719642Y-90838285D01*
X90662500Y-90781142D01*
X90633928Y-90695428D01*
X90633928Y-90638285D01*
X90662500Y-90552571D01*
X90691071Y-90524000D01*
X91233928Y-90238285D02*
X91233928Y-90124000D01*
X91205357Y-90066857D01*
X91176785Y-90038285D01*
X91091071Y-89981142D01*
X90976785Y-89952571D01*
X90748214Y-89952571D01*
X90691071Y-89981142D01*
X90662500Y-90009714D01*
X90633928Y-90066857D01*
X90633928Y-90181142D01*
X90662500Y-90238285D01*
X90691071Y-90266857D01*
X90748214Y-90295428D01*
X90891071Y-90295428D01*
X90948214Y-90266857D01*
X90976785Y-90238285D01*
X91005357Y-90181142D01*
X91005357Y-90066857D01*
X90976785Y-90009714D01*
X90948214Y-89981142D01*
X90891071Y-89952571D01*
G04 #@! TO.C,C2*
X80354500Y-110196285D02*
X80325928Y-110224857D01*
X80240214Y-110253428D01*
X80183071Y-110253428D01*
X80097357Y-110224857D01*
X80040214Y-110167714D01*
X80011642Y-110110571D01*
X79983071Y-109996285D01*
X79983071Y-109910571D01*
X80011642Y-109796285D01*
X80040214Y-109739142D01*
X80097357Y-109682000D01*
X80183071Y-109653428D01*
X80240214Y-109653428D01*
X80325928Y-109682000D01*
X80354500Y-109710571D01*
X80583071Y-109710571D02*
X80611642Y-109682000D01*
X80668785Y-109653428D01*
X80811642Y-109653428D01*
X80868785Y-109682000D01*
X80897357Y-109710571D01*
X80925928Y-109767714D01*
X80925928Y-109824857D01*
X80897357Y-109910571D01*
X80554500Y-110253428D01*
X80925928Y-110253428D01*
G04 #@! TO.C,C5*
X101182500Y-117816285D02*
X101153928Y-117844857D01*
X101068214Y-117873428D01*
X101011071Y-117873428D01*
X100925357Y-117844857D01*
X100868214Y-117787714D01*
X100839642Y-117730571D01*
X100811071Y-117616285D01*
X100811071Y-117530571D01*
X100839642Y-117416285D01*
X100868214Y-117359142D01*
X100925357Y-117302000D01*
X101011071Y-117273428D01*
X101068214Y-117273428D01*
X101153928Y-117302000D01*
X101182500Y-117330571D01*
X101725357Y-117273428D02*
X101439642Y-117273428D01*
X101411071Y-117559142D01*
X101439642Y-117530571D01*
X101496785Y-117502000D01*
X101639642Y-117502000D01*
X101696785Y-117530571D01*
X101725357Y-117559142D01*
X101753928Y-117616285D01*
X101753928Y-117759142D01*
X101725357Y-117816285D01*
X101696785Y-117844857D01*
X101639642Y-117873428D01*
X101496785Y-117873428D01*
X101439642Y-117844857D01*
X101411071Y-117816285D01*
G04 #@! TO.C,C6*
X70632214Y-65733000D02*
X70603642Y-65704428D01*
X70575071Y-65618714D01*
X70575071Y-65561571D01*
X70603642Y-65475857D01*
X70660785Y-65418714D01*
X70717928Y-65390142D01*
X70832214Y-65361571D01*
X70917928Y-65361571D01*
X71032214Y-65390142D01*
X71089357Y-65418714D01*
X71146500Y-65475857D01*
X71175071Y-65561571D01*
X71175071Y-65618714D01*
X71146500Y-65704428D01*
X71117928Y-65733000D01*
X71175071Y-66247285D02*
X71175071Y-66133000D01*
X71146500Y-66075857D01*
X71117928Y-66047285D01*
X71032214Y-65990142D01*
X70917928Y-65961571D01*
X70689357Y-65961571D01*
X70632214Y-65990142D01*
X70603642Y-66018714D01*
X70575071Y-66075857D01*
X70575071Y-66190142D01*
X70603642Y-66247285D01*
X70632214Y-66275857D01*
X70689357Y-66304428D01*
X70832214Y-66304428D01*
X70889357Y-66275857D01*
X70917928Y-66247285D01*
X70946500Y-66190142D01*
X70946500Y-66075857D01*
X70917928Y-66018714D01*
X70889357Y-65990142D01*
X70832214Y-65961571D01*
G04 #@! TO.C,J7*
X92764000Y-71275428D02*
X92764000Y-71704000D01*
X92735428Y-71789714D01*
X92678285Y-71846857D01*
X92592571Y-71875428D01*
X92535428Y-71875428D01*
X92992571Y-71275428D02*
X93392571Y-71275428D01*
X93135428Y-71875428D01*
G04 #@! TO.C,J9*
X74222000Y-71275428D02*
X74222000Y-71704000D01*
X74193428Y-71789714D01*
X74136285Y-71846857D01*
X74050571Y-71875428D01*
X73993428Y-71875428D01*
X74536285Y-71875428D02*
X74650571Y-71875428D01*
X74707714Y-71846857D01*
X74736285Y-71818285D01*
X74793428Y-71732571D01*
X74822000Y-71618285D01*
X74822000Y-71389714D01*
X74793428Y-71332571D01*
X74764857Y-71304000D01*
X74707714Y-71275428D01*
X74593428Y-71275428D01*
X74536285Y-71304000D01*
X74507714Y-71332571D01*
X74479142Y-71389714D01*
X74479142Y-71532571D01*
X74507714Y-71589714D01*
X74536285Y-71618285D01*
X74593428Y-71646857D01*
X74707714Y-71646857D01*
X74764857Y-71618285D01*
X74793428Y-71589714D01*
X74822000Y-71532571D01*
G04 #@! TO.C,J10*
X92478284Y-81943428D02*
X92478284Y-82372000D01*
X92449713Y-82457714D01*
X92392570Y-82514857D01*
X92306856Y-82543428D01*
X92249713Y-82543428D01*
X93078284Y-82543428D02*
X92735427Y-82543428D01*
X92906856Y-82543428D02*
X92906856Y-81943428D01*
X92849713Y-82029142D01*
X92792570Y-82086285D01*
X92735427Y-82114857D01*
X93449713Y-81943428D02*
X93506856Y-81943428D01*
X93563999Y-81972000D01*
X93592570Y-82000571D01*
X93621141Y-82057714D01*
X93649713Y-82172000D01*
X93649713Y-82314857D01*
X93621141Y-82429142D01*
X93592570Y-82486285D01*
X93563999Y-82514857D01*
X93506856Y-82543428D01*
X93449713Y-82543428D01*
X93392570Y-82514857D01*
X93363999Y-82486285D01*
X93335427Y-82429142D01*
X93306856Y-82314857D01*
X93306856Y-82172000D01*
X93335427Y-82057714D01*
X93363999Y-82000571D01*
X93392570Y-81972000D01*
X93449713Y-81943428D01*
G04 #@! TO.C,J8*
X74222000Y-81943427D02*
X74222000Y-82371999D01*
X74193428Y-82457713D01*
X74136285Y-82514856D01*
X74050571Y-82543427D01*
X73993428Y-82543427D01*
X74593428Y-82200570D02*
X74536285Y-82171999D01*
X74507714Y-82143427D01*
X74479142Y-82086284D01*
X74479142Y-82057713D01*
X74507714Y-82000570D01*
X74536285Y-81971999D01*
X74593428Y-81943427D01*
X74707714Y-81943427D01*
X74764857Y-81971999D01*
X74793428Y-82000570D01*
X74822000Y-82057713D01*
X74822000Y-82086284D01*
X74793428Y-82143427D01*
X74764857Y-82171999D01*
X74707714Y-82200570D01*
X74593428Y-82200570D01*
X74536285Y-82229141D01*
X74507714Y-82257713D01*
X74479142Y-82314856D01*
X74479142Y-82429141D01*
X74507714Y-82486284D01*
X74536285Y-82514856D01*
X74593428Y-82543427D01*
X74707714Y-82543427D01*
X74764857Y-82514856D01*
X74793428Y-82486284D01*
X74822000Y-82429141D01*
X74822000Y-82314856D01*
X74793428Y-82257713D01*
X74764857Y-82229141D01*
X74707714Y-82200570D01*
G04 #@! TO.C,Q2*
X88271357Y-114946071D02*
X88214214Y-114917500D01*
X88157071Y-114860357D01*
X88071357Y-114774642D01*
X88014214Y-114746071D01*
X87957071Y-114746071D01*
X87985642Y-114888928D02*
X87928500Y-114860357D01*
X87871357Y-114803214D01*
X87842785Y-114688928D01*
X87842785Y-114488928D01*
X87871357Y-114374642D01*
X87928500Y-114317500D01*
X87985642Y-114288928D01*
X88099928Y-114288928D01*
X88157071Y-114317500D01*
X88214214Y-114374642D01*
X88242785Y-114488928D01*
X88242785Y-114688928D01*
X88214214Y-114803214D01*
X88157071Y-114860357D01*
X88099928Y-114888928D01*
X87985642Y-114888928D01*
X88471357Y-114346071D02*
X88499928Y-114317500D01*
X88557071Y-114288928D01*
X88699928Y-114288928D01*
X88757071Y-114317500D01*
X88785642Y-114346071D01*
X88814214Y-114403214D01*
X88814214Y-114460357D01*
X88785642Y-114546071D01*
X88442785Y-114888928D01*
X88814214Y-114888928D01*
G04 #@! TO.C,Q1*
X84524857Y-116216071D02*
X84467714Y-116187500D01*
X84410571Y-116130357D01*
X84324857Y-116044642D01*
X84267714Y-116016071D01*
X84210571Y-116016071D01*
X84239142Y-116158928D02*
X84182000Y-116130357D01*
X84124857Y-116073214D01*
X84096285Y-115958928D01*
X84096285Y-115758928D01*
X84124857Y-115644642D01*
X84182000Y-115587500D01*
X84239142Y-115558928D01*
X84353428Y-115558928D01*
X84410571Y-115587500D01*
X84467714Y-115644642D01*
X84496285Y-115758928D01*
X84496285Y-115958928D01*
X84467714Y-116073214D01*
X84410571Y-116130357D01*
X84353428Y-116158928D01*
X84239142Y-116158928D01*
X85067714Y-116158928D02*
X84724857Y-116158928D01*
X84896285Y-116158928D02*
X84896285Y-115558928D01*
X84839142Y-115644642D01*
X84782000Y-115701785D01*
X84724857Y-115730357D01*
G04 #@! TO.C,Q3*
X62871357Y-66940071D02*
X62814214Y-66911500D01*
X62757071Y-66854357D01*
X62671357Y-66768642D01*
X62614214Y-66740071D01*
X62557071Y-66740071D01*
X62585642Y-66882928D02*
X62528500Y-66854357D01*
X62471357Y-66797214D01*
X62442785Y-66682928D01*
X62442785Y-66482928D01*
X62471357Y-66368642D01*
X62528500Y-66311500D01*
X62585642Y-66282928D01*
X62699928Y-66282928D01*
X62757071Y-66311500D01*
X62814214Y-66368642D01*
X62842785Y-66482928D01*
X62842785Y-66682928D01*
X62814214Y-66797214D01*
X62757071Y-66854357D01*
X62699928Y-66882928D01*
X62585642Y-66882928D01*
X63042785Y-66282928D02*
X63414214Y-66282928D01*
X63214214Y-66511500D01*
X63299928Y-66511500D01*
X63357071Y-66540071D01*
X63385642Y-66568642D01*
X63414214Y-66625785D01*
X63414214Y-66768642D01*
X63385642Y-66825785D01*
X63357071Y-66854357D01*
X63299928Y-66882928D01*
X63128500Y-66882928D01*
X63071357Y-66854357D01*
X63042785Y-66825785D01*
G04 #@! TO.C,Q4*
X99764857Y-66813071D02*
X99707714Y-66784500D01*
X99650571Y-66727357D01*
X99564857Y-66641642D01*
X99507714Y-66613071D01*
X99450571Y-66613071D01*
X99479142Y-66755928D02*
X99422000Y-66727357D01*
X99364857Y-66670214D01*
X99336285Y-66555928D01*
X99336285Y-66355928D01*
X99364857Y-66241642D01*
X99422000Y-66184500D01*
X99479142Y-66155928D01*
X99593428Y-66155928D01*
X99650571Y-66184500D01*
X99707714Y-66241642D01*
X99736285Y-66355928D01*
X99736285Y-66555928D01*
X99707714Y-66670214D01*
X99650571Y-66727357D01*
X99593428Y-66755928D01*
X99479142Y-66755928D01*
X100250571Y-66355928D02*
X100250571Y-66755928D01*
X100107714Y-66127357D02*
X99964857Y-66555928D01*
X100336285Y-66555928D01*
G04 #@! TO.C,R7*
X89752500Y-110316928D02*
X89552500Y-110031214D01*
X89409642Y-110316928D02*
X89409642Y-109716928D01*
X89638214Y-109716928D01*
X89695357Y-109745500D01*
X89723928Y-109774071D01*
X89752500Y-109831214D01*
X89752500Y-109916928D01*
X89723928Y-109974071D01*
X89695357Y-110002642D01*
X89638214Y-110031214D01*
X89409642Y-110031214D01*
X89952500Y-109716928D02*
X90352500Y-109716928D01*
X90095357Y-110316928D01*
G04 #@! TO.C,R16*
X57589785Y-99775928D02*
X57389785Y-99490214D01*
X57246928Y-99775928D02*
X57246928Y-99175928D01*
X57475500Y-99175928D01*
X57532642Y-99204500D01*
X57561214Y-99233071D01*
X57589785Y-99290214D01*
X57589785Y-99375928D01*
X57561214Y-99433071D01*
X57532642Y-99461642D01*
X57475500Y-99490214D01*
X57246928Y-99490214D01*
X58161214Y-99775928D02*
X57818357Y-99775928D01*
X57989785Y-99775928D02*
X57989785Y-99175928D01*
X57932642Y-99261642D01*
X57875500Y-99318785D01*
X57818357Y-99347357D01*
X58675500Y-99175928D02*
X58561214Y-99175928D01*
X58504071Y-99204500D01*
X58475500Y-99233071D01*
X58418357Y-99318785D01*
X58389785Y-99433071D01*
X58389785Y-99661642D01*
X58418357Y-99718785D01*
X58446928Y-99747357D01*
X58504071Y-99775928D01*
X58618357Y-99775928D01*
X58675500Y-99747357D01*
X58704071Y-99718785D01*
X58732642Y-99661642D01*
X58732642Y-99518785D01*
X58704071Y-99461642D01*
X58675500Y-99433071D01*
X58618357Y-99404500D01*
X58504071Y-99404500D01*
X58446928Y-99433071D01*
X58418357Y-99461642D01*
X58389785Y-99518785D01*
G04 #@! TO.C,R1*
X76798500Y-116349428D02*
X76598500Y-116063714D01*
X76455642Y-116349428D02*
X76455642Y-115749428D01*
X76684214Y-115749428D01*
X76741357Y-115778000D01*
X76769928Y-115806571D01*
X76798500Y-115863714D01*
X76798500Y-115949428D01*
X76769928Y-116006571D01*
X76741357Y-116035142D01*
X76684214Y-116063714D01*
X76455642Y-116063714D01*
X77369928Y-116349428D02*
X77027071Y-116349428D01*
X77198500Y-116349428D02*
X77198500Y-115749428D01*
X77141357Y-115835142D01*
X77084214Y-115892285D01*
X77027071Y-115920857D01*
G04 #@! TO.C,R2*
X80164000Y-116349428D02*
X79964000Y-116063714D01*
X79821142Y-116349428D02*
X79821142Y-115749428D01*
X80049714Y-115749428D01*
X80106857Y-115778000D01*
X80135428Y-115806571D01*
X80164000Y-115863714D01*
X80164000Y-115949428D01*
X80135428Y-116006571D01*
X80106857Y-116035142D01*
X80049714Y-116063714D01*
X79821142Y-116063714D01*
X80392571Y-115806571D02*
X80421142Y-115778000D01*
X80478285Y-115749428D01*
X80621142Y-115749428D01*
X80678285Y-115778000D01*
X80706857Y-115806571D01*
X80735428Y-115863714D01*
X80735428Y-115920857D01*
X80706857Y-116006571D01*
X80364000Y-116349428D01*
X80735428Y-116349428D01*
G04 #@! TO.C,R3*
X91203428Y-115479500D02*
X90917714Y-115679500D01*
X91203428Y-115822357D02*
X90603428Y-115822357D01*
X90603428Y-115593785D01*
X90632000Y-115536642D01*
X90660571Y-115508071D01*
X90717714Y-115479500D01*
X90803428Y-115479500D01*
X90860571Y-115508071D01*
X90889142Y-115536642D01*
X90917714Y-115593785D01*
X90917714Y-115822357D01*
X90603428Y-115279500D02*
X90603428Y-114908071D01*
X90832000Y-115108071D01*
X90832000Y-115022357D01*
X90860571Y-114965214D01*
X90889142Y-114936642D01*
X90946285Y-114908071D01*
X91089142Y-114908071D01*
X91146285Y-114936642D01*
X91174857Y-114965214D01*
X91203428Y-115022357D01*
X91203428Y-115193785D01*
X91174857Y-115250928D01*
X91146285Y-115279500D01*
G04 #@! TO.C,R4*
X65813000Y-112729928D02*
X65613000Y-112444214D01*
X65470142Y-112729928D02*
X65470142Y-112129928D01*
X65698714Y-112129928D01*
X65755857Y-112158500D01*
X65784428Y-112187071D01*
X65813000Y-112244214D01*
X65813000Y-112329928D01*
X65784428Y-112387071D01*
X65755857Y-112415642D01*
X65698714Y-112444214D01*
X65470142Y-112444214D01*
X66327285Y-112329928D02*
X66327285Y-112729928D01*
X66184428Y-112101357D02*
X66041571Y-112529928D01*
X66413000Y-112529928D01*
G04 #@! TO.C,R5*
X75401500Y-110316928D02*
X75201500Y-110031214D01*
X75058642Y-110316928D02*
X75058642Y-109716928D01*
X75287214Y-109716928D01*
X75344357Y-109745500D01*
X75372928Y-109774071D01*
X75401500Y-109831214D01*
X75401500Y-109916928D01*
X75372928Y-109974071D01*
X75344357Y-110002642D01*
X75287214Y-110031214D01*
X75058642Y-110031214D01*
X75944357Y-109716928D02*
X75658642Y-109716928D01*
X75630071Y-110002642D01*
X75658642Y-109974071D01*
X75715785Y-109945500D01*
X75858642Y-109945500D01*
X75915785Y-109974071D01*
X75944357Y-110002642D01*
X75972928Y-110059785D01*
X75972928Y-110202642D01*
X75944357Y-110259785D01*
X75915785Y-110288357D01*
X75858642Y-110316928D01*
X75715785Y-110316928D01*
X75658642Y-110288357D01*
X75630071Y-110259785D01*
G04 #@! TO.C,R6*
X78767000Y-110316928D02*
X78567000Y-110031214D01*
X78424142Y-110316928D02*
X78424142Y-109716928D01*
X78652714Y-109716928D01*
X78709857Y-109745500D01*
X78738428Y-109774071D01*
X78767000Y-109831214D01*
X78767000Y-109916928D01*
X78738428Y-109974071D01*
X78709857Y-110002642D01*
X78652714Y-110031214D01*
X78424142Y-110031214D01*
X79281285Y-109716928D02*
X79167000Y-109716928D01*
X79109857Y-109745500D01*
X79081285Y-109774071D01*
X79024142Y-109859785D01*
X78995571Y-109974071D01*
X78995571Y-110202642D01*
X79024142Y-110259785D01*
X79052714Y-110288357D01*
X79109857Y-110316928D01*
X79224142Y-110316928D01*
X79281285Y-110288357D01*
X79309857Y-110259785D01*
X79338428Y-110202642D01*
X79338428Y-110059785D01*
X79309857Y-110002642D01*
X79281285Y-109974071D01*
X79224142Y-109945500D01*
X79109857Y-109945500D01*
X79052714Y-109974071D01*
X79024142Y-110002642D01*
X78995571Y-110059785D01*
G04 #@! TO.C,R15*
X94864285Y-113301428D02*
X94664285Y-113015714D01*
X94521428Y-113301428D02*
X94521428Y-112701428D01*
X94750000Y-112701428D01*
X94807142Y-112730000D01*
X94835714Y-112758571D01*
X94864285Y-112815714D01*
X94864285Y-112901428D01*
X94835714Y-112958571D01*
X94807142Y-112987142D01*
X94750000Y-113015714D01*
X94521428Y-113015714D01*
X95435714Y-113301428D02*
X95092857Y-113301428D01*
X95264285Y-113301428D02*
X95264285Y-112701428D01*
X95207142Y-112787142D01*
X95150000Y-112844285D01*
X95092857Y-112872857D01*
X95978571Y-112701428D02*
X95692857Y-112701428D01*
X95664285Y-112987142D01*
X95692857Y-112958571D01*
X95750000Y-112930000D01*
X95892857Y-112930000D01*
X95950000Y-112958571D01*
X95978571Y-112987142D01*
X96007142Y-113044285D01*
X96007142Y-113187142D01*
X95978571Y-113244285D01*
X95950000Y-113272857D01*
X95892857Y-113301428D01*
X95750000Y-113301428D01*
X95692857Y-113272857D01*
X95664285Y-113244285D01*
G04 #@! TO.C,R8*
X61622000Y-99775928D02*
X61422000Y-99490214D01*
X61279142Y-99775928D02*
X61279142Y-99175928D01*
X61507714Y-99175928D01*
X61564857Y-99204500D01*
X61593428Y-99233071D01*
X61622000Y-99290214D01*
X61622000Y-99375928D01*
X61593428Y-99433071D01*
X61564857Y-99461642D01*
X61507714Y-99490214D01*
X61279142Y-99490214D01*
X61964857Y-99433071D02*
X61907714Y-99404500D01*
X61879142Y-99375928D01*
X61850571Y-99318785D01*
X61850571Y-99290214D01*
X61879142Y-99233071D01*
X61907714Y-99204500D01*
X61964857Y-99175928D01*
X62079142Y-99175928D01*
X62136285Y-99204500D01*
X62164857Y-99233071D01*
X62193428Y-99290214D01*
X62193428Y-99318785D01*
X62164857Y-99375928D01*
X62136285Y-99404500D01*
X62079142Y-99433071D01*
X61964857Y-99433071D01*
X61907714Y-99461642D01*
X61879142Y-99490214D01*
X61850571Y-99547357D01*
X61850571Y-99661642D01*
X61879142Y-99718785D01*
X61907714Y-99747357D01*
X61964857Y-99775928D01*
X62079142Y-99775928D01*
X62136285Y-99747357D01*
X62164857Y-99718785D01*
X62193428Y-99661642D01*
X62193428Y-99547357D01*
X62164857Y-99490214D01*
X62136285Y-99461642D01*
X62079142Y-99433071D01*
G04 #@! TO.C,R10*
X73710428Y-97858214D02*
X73424714Y-98058214D01*
X73710428Y-98201071D02*
X73110428Y-98201071D01*
X73110428Y-97972500D01*
X73139000Y-97915357D01*
X73167571Y-97886785D01*
X73224714Y-97858214D01*
X73310428Y-97858214D01*
X73367571Y-97886785D01*
X73396142Y-97915357D01*
X73424714Y-97972500D01*
X73424714Y-98201071D01*
X73710428Y-97286785D02*
X73710428Y-97629642D01*
X73710428Y-97458214D02*
X73110428Y-97458214D01*
X73196142Y-97515357D01*
X73253285Y-97572500D01*
X73281857Y-97629642D01*
X73110428Y-96915357D02*
X73110428Y-96858214D01*
X73139000Y-96801071D01*
X73167571Y-96772500D01*
X73224714Y-96743928D01*
X73339000Y-96715357D01*
X73481857Y-96715357D01*
X73596142Y-96743928D01*
X73653285Y-96772500D01*
X73681857Y-96801071D01*
X73710428Y-96858214D01*
X73710428Y-96915357D01*
X73681857Y-96972500D01*
X73653285Y-97001071D01*
X73596142Y-97029642D01*
X73481857Y-97058214D01*
X73339000Y-97058214D01*
X73224714Y-97029642D01*
X73167571Y-97001071D01*
X73139000Y-96972500D01*
X73110428Y-96915357D01*
G04 #@! TO.C,R11*
X64787428Y-70997714D02*
X64501714Y-71197714D01*
X64787428Y-71340571D02*
X64187428Y-71340571D01*
X64187428Y-71112000D01*
X64216000Y-71054857D01*
X64244571Y-71026285D01*
X64301714Y-70997714D01*
X64387428Y-70997714D01*
X64444571Y-71026285D01*
X64473142Y-71054857D01*
X64501714Y-71112000D01*
X64501714Y-71340571D01*
X64787428Y-70426285D02*
X64787428Y-70769142D01*
X64787428Y-70597714D02*
X64187428Y-70597714D01*
X64273142Y-70654857D01*
X64330285Y-70712000D01*
X64358857Y-70769142D01*
X64787428Y-69854857D02*
X64787428Y-70197714D01*
X64787428Y-70026285D02*
X64187428Y-70026285D01*
X64273142Y-70083428D01*
X64330285Y-70140571D01*
X64358857Y-70197714D01*
G04 #@! TO.C,R12*
X99521928Y-70235714D02*
X99236214Y-70435714D01*
X99521928Y-70578571D02*
X98921928Y-70578571D01*
X98921928Y-70350000D01*
X98950500Y-70292857D01*
X98979071Y-70264285D01*
X99036214Y-70235714D01*
X99121928Y-70235714D01*
X99179071Y-70264285D01*
X99207642Y-70292857D01*
X99236214Y-70350000D01*
X99236214Y-70578571D01*
X99521928Y-69664285D02*
X99521928Y-70007142D01*
X99521928Y-69835714D02*
X98921928Y-69835714D01*
X99007642Y-69892857D01*
X99064785Y-69950000D01*
X99093357Y-70007142D01*
X98979071Y-69435714D02*
X98950500Y-69407142D01*
X98921928Y-69350000D01*
X98921928Y-69207142D01*
X98950500Y-69150000D01*
X98979071Y-69121428D01*
X99036214Y-69092857D01*
X99093357Y-69092857D01*
X99179071Y-69121428D01*
X99521928Y-69464285D01*
X99521928Y-69092857D01*
G04 #@! TO.C,R13*
X92959285Y-113301428D02*
X92759285Y-113015714D01*
X92616428Y-113301428D02*
X92616428Y-112701428D01*
X92845000Y-112701428D01*
X92902142Y-112730000D01*
X92930714Y-112758571D01*
X92959285Y-112815714D01*
X92959285Y-112901428D01*
X92930714Y-112958571D01*
X92902142Y-112987142D01*
X92845000Y-113015714D01*
X92616428Y-113015714D01*
X93530714Y-113301428D02*
X93187857Y-113301428D01*
X93359285Y-113301428D02*
X93359285Y-112701428D01*
X93302142Y-112787142D01*
X93245000Y-112844285D01*
X93187857Y-112872857D01*
X93730714Y-112701428D02*
X94102142Y-112701428D01*
X93902142Y-112930000D01*
X93987857Y-112930000D01*
X94045000Y-112958571D01*
X94073571Y-112987142D01*
X94102142Y-113044285D01*
X94102142Y-113187142D01*
X94073571Y-113244285D01*
X94045000Y-113272857D01*
X93987857Y-113301428D01*
X93816428Y-113301428D01*
X93759285Y-113272857D01*
X93730714Y-113244285D01*
G04 #@! TO.C,R14*
X59431285Y-99775928D02*
X59231285Y-99490214D01*
X59088428Y-99775928D02*
X59088428Y-99175928D01*
X59317000Y-99175928D01*
X59374142Y-99204500D01*
X59402714Y-99233071D01*
X59431285Y-99290214D01*
X59431285Y-99375928D01*
X59402714Y-99433071D01*
X59374142Y-99461642D01*
X59317000Y-99490214D01*
X59088428Y-99490214D01*
X60002714Y-99775928D02*
X59659857Y-99775928D01*
X59831285Y-99775928D02*
X59831285Y-99175928D01*
X59774142Y-99261642D01*
X59717000Y-99318785D01*
X59659857Y-99347357D01*
X60517000Y-99375928D02*
X60517000Y-99775928D01*
X60374142Y-99147357D02*
X60231285Y-99575928D01*
X60602714Y-99575928D01*
G04 #@! TO.C,R20*
X103776428Y-70172214D02*
X103490714Y-70372214D01*
X103776428Y-70515071D02*
X103176428Y-70515071D01*
X103176428Y-70286500D01*
X103205000Y-70229357D01*
X103233571Y-70200785D01*
X103290714Y-70172214D01*
X103376428Y-70172214D01*
X103433571Y-70200785D01*
X103462142Y-70229357D01*
X103490714Y-70286500D01*
X103490714Y-70515071D01*
X103233571Y-69943642D02*
X103205000Y-69915071D01*
X103176428Y-69857928D01*
X103176428Y-69715071D01*
X103205000Y-69657928D01*
X103233571Y-69629357D01*
X103290714Y-69600785D01*
X103347857Y-69600785D01*
X103433571Y-69629357D01*
X103776428Y-69972214D01*
X103776428Y-69600785D01*
X103176428Y-69229357D02*
X103176428Y-69172214D01*
X103205000Y-69115071D01*
X103233571Y-69086500D01*
X103290714Y-69057928D01*
X103405000Y-69029357D01*
X103547857Y-69029357D01*
X103662142Y-69057928D01*
X103719285Y-69086500D01*
X103747857Y-69115071D01*
X103776428Y-69172214D01*
X103776428Y-69229357D01*
X103747857Y-69286500D01*
X103719285Y-69315071D01*
X103662142Y-69343642D01*
X103547857Y-69372214D01*
X103405000Y-69372214D01*
X103290714Y-69343642D01*
X103233571Y-69315071D01*
X103205000Y-69286500D01*
X103176428Y-69229357D01*
G04 #@! TO.C,R19*
X60913928Y-70934214D02*
X60628214Y-71134214D01*
X60913928Y-71277071D02*
X60313928Y-71277071D01*
X60313928Y-71048500D01*
X60342500Y-70991357D01*
X60371071Y-70962785D01*
X60428214Y-70934214D01*
X60513928Y-70934214D01*
X60571071Y-70962785D01*
X60599642Y-70991357D01*
X60628214Y-71048500D01*
X60628214Y-71277071D01*
X60913928Y-70362785D02*
X60913928Y-70705642D01*
X60913928Y-70534214D02*
X60313928Y-70534214D01*
X60399642Y-70591357D01*
X60456785Y-70648500D01*
X60485357Y-70705642D01*
X60913928Y-70077071D02*
X60913928Y-69962785D01*
X60885357Y-69905642D01*
X60856785Y-69877071D01*
X60771071Y-69819928D01*
X60656785Y-69791357D01*
X60428214Y-69791357D01*
X60371071Y-69819928D01*
X60342500Y-69848500D01*
X60313928Y-69905642D01*
X60313928Y-70019928D01*
X60342500Y-70077071D01*
X60371071Y-70105642D01*
X60428214Y-70134214D01*
X60571071Y-70134214D01*
X60628214Y-70105642D01*
X60656785Y-70077071D01*
X60685357Y-70019928D01*
X60685357Y-69905642D01*
X60656785Y-69848500D01*
X60628214Y-69819928D01*
X60571071Y-69791357D01*
G04 #@! TO.C,R18*
X55303785Y-90885928D02*
X55103785Y-90600214D01*
X54960928Y-90885928D02*
X54960928Y-90285928D01*
X55189500Y-90285928D01*
X55246642Y-90314500D01*
X55275214Y-90343071D01*
X55303785Y-90400214D01*
X55303785Y-90485928D01*
X55275214Y-90543071D01*
X55246642Y-90571642D01*
X55189500Y-90600214D01*
X54960928Y-90600214D01*
X55875214Y-90885928D02*
X55532357Y-90885928D01*
X55703785Y-90885928D02*
X55703785Y-90285928D01*
X55646642Y-90371642D01*
X55589500Y-90428785D01*
X55532357Y-90457357D01*
X56218071Y-90543071D02*
X56160928Y-90514500D01*
X56132357Y-90485928D01*
X56103785Y-90428785D01*
X56103785Y-90400214D01*
X56132357Y-90343071D01*
X56160928Y-90314500D01*
X56218071Y-90285928D01*
X56332357Y-90285928D01*
X56389500Y-90314500D01*
X56418071Y-90343071D01*
X56446642Y-90400214D01*
X56446642Y-90428785D01*
X56418071Y-90485928D01*
X56389500Y-90514500D01*
X56332357Y-90543071D01*
X56218071Y-90543071D01*
X56160928Y-90571642D01*
X56132357Y-90600214D01*
X56103785Y-90657357D01*
X56103785Y-90771642D01*
X56132357Y-90828785D01*
X56160928Y-90857357D01*
X56218071Y-90885928D01*
X56332357Y-90885928D01*
X56389500Y-90857357D01*
X56418071Y-90828785D01*
X56446642Y-90771642D01*
X56446642Y-90657357D01*
X56418071Y-90600214D01*
X56389500Y-90571642D01*
X56332357Y-90543071D01*
G04 #@! TO.C,R17*
X63304785Y-99775928D02*
X63104785Y-99490214D01*
X62961928Y-99775928D02*
X62961928Y-99175928D01*
X63190500Y-99175928D01*
X63247642Y-99204500D01*
X63276214Y-99233071D01*
X63304785Y-99290214D01*
X63304785Y-99375928D01*
X63276214Y-99433071D01*
X63247642Y-99461642D01*
X63190500Y-99490214D01*
X62961928Y-99490214D01*
X63876214Y-99775928D02*
X63533357Y-99775928D01*
X63704785Y-99775928D02*
X63704785Y-99175928D01*
X63647642Y-99261642D01*
X63590500Y-99318785D01*
X63533357Y-99347357D01*
X64076214Y-99175928D02*
X64476214Y-99175928D01*
X64219071Y-99775928D01*
G04 #@! TO.C,R9*
X68162500Y-99046928D02*
X67962500Y-98761214D01*
X67819642Y-99046928D02*
X67819642Y-98446928D01*
X68048214Y-98446928D01*
X68105357Y-98475500D01*
X68133928Y-98504071D01*
X68162500Y-98561214D01*
X68162500Y-98646928D01*
X68133928Y-98704071D01*
X68105357Y-98732642D01*
X68048214Y-98761214D01*
X67819642Y-98761214D01*
X68448214Y-99046928D02*
X68562500Y-99046928D01*
X68619642Y-99018357D01*
X68648214Y-98989785D01*
X68705357Y-98904071D01*
X68733928Y-98789785D01*
X68733928Y-98561214D01*
X68705357Y-98504071D01*
X68676785Y-98475500D01*
X68619642Y-98446928D01*
X68505357Y-98446928D01*
X68448214Y-98475500D01*
X68419642Y-98504071D01*
X68391071Y-98561214D01*
X68391071Y-98704071D01*
X68419642Y-98761214D01*
X68448214Y-98789785D01*
X68505357Y-98818357D01*
X68619642Y-98818357D01*
X68676785Y-98789785D01*
X68705357Y-98761214D01*
X68733928Y-98704071D01*
G04 #@! TO.C,R22*
X96219928Y-68203714D02*
X95934214Y-68403714D01*
X96219928Y-68546571D02*
X95619928Y-68546571D01*
X95619928Y-68318000D01*
X95648500Y-68260857D01*
X95677071Y-68232285D01*
X95734214Y-68203714D01*
X95819928Y-68203714D01*
X95877071Y-68232285D01*
X95905642Y-68260857D01*
X95934214Y-68318000D01*
X95934214Y-68546571D01*
X95677071Y-67975142D02*
X95648500Y-67946571D01*
X95619928Y-67889428D01*
X95619928Y-67746571D01*
X95648500Y-67689428D01*
X95677071Y-67660857D01*
X95734214Y-67632285D01*
X95791357Y-67632285D01*
X95877071Y-67660857D01*
X96219928Y-68003714D01*
X96219928Y-67632285D01*
X95677071Y-67403714D02*
X95648500Y-67375142D01*
X95619928Y-67318000D01*
X95619928Y-67175142D01*
X95648500Y-67118000D01*
X95677071Y-67089428D01*
X95734214Y-67060857D01*
X95791357Y-67060857D01*
X95877071Y-67089428D01*
X96219928Y-67432285D01*
X96219928Y-67060857D01*
G04 #@! TO.C,R21*
X96283428Y-71823214D02*
X95997714Y-72023214D01*
X96283428Y-72166071D02*
X95683428Y-72166071D01*
X95683428Y-71937500D01*
X95712000Y-71880357D01*
X95740571Y-71851785D01*
X95797714Y-71823214D01*
X95883428Y-71823214D01*
X95940571Y-71851785D01*
X95969142Y-71880357D01*
X95997714Y-71937500D01*
X95997714Y-72166071D01*
X95740571Y-71594642D02*
X95712000Y-71566071D01*
X95683428Y-71508928D01*
X95683428Y-71366071D01*
X95712000Y-71308928D01*
X95740571Y-71280357D01*
X95797714Y-71251785D01*
X95854857Y-71251785D01*
X95940571Y-71280357D01*
X96283428Y-71623214D01*
X96283428Y-71251785D01*
X96283428Y-70680357D02*
X96283428Y-71023214D01*
X96283428Y-70851785D02*
X95683428Y-70851785D01*
X95769142Y-70908928D01*
X95826285Y-70966071D01*
X95854857Y-71023214D01*
G04 #@! TO.C,D5*
X86827142Y-62247428D02*
X86827142Y-61647428D01*
X86970000Y-61647428D01*
X87055714Y-61676000D01*
X87112857Y-61733142D01*
X87141428Y-61790285D01*
X87170000Y-61904571D01*
X87170000Y-61990285D01*
X87141428Y-62104571D01*
X87112857Y-62161714D01*
X87055714Y-62218857D01*
X86970000Y-62247428D01*
X86827142Y-62247428D01*
X87712857Y-61647428D02*
X87427142Y-61647428D01*
X87398571Y-61933142D01*
X87427142Y-61904571D01*
X87484285Y-61876000D01*
X87627142Y-61876000D01*
X87684285Y-61904571D01*
X87712857Y-61933142D01*
X87741428Y-61990285D01*
X87741428Y-62133142D01*
X87712857Y-62190285D01*
X87684285Y-62218857D01*
X87627142Y-62247428D01*
X87484285Y-62247428D01*
X87427142Y-62218857D01*
X87398571Y-62190285D01*
G04 #@! TO.C,D4*
X72287142Y-62231428D02*
X72287142Y-61631428D01*
X72430000Y-61631428D01*
X72515714Y-61660000D01*
X72572857Y-61717142D01*
X72601428Y-61774285D01*
X72630000Y-61888571D01*
X72630000Y-61974285D01*
X72601428Y-62088571D01*
X72572857Y-62145714D01*
X72515714Y-62202857D01*
X72430000Y-62231428D01*
X72287142Y-62231428D01*
X73144285Y-61831428D02*
X73144285Y-62231428D01*
X73001428Y-61602857D02*
X72858571Y-62031428D01*
X73230000Y-62031428D01*
G04 #@! TO.C,J6*
X95260000Y-63751428D02*
X95260000Y-64180000D01*
X95231428Y-64265714D01*
X95174285Y-64322857D01*
X95088571Y-64351428D01*
X95031428Y-64351428D01*
X95802857Y-63751428D02*
X95688571Y-63751428D01*
X95631428Y-63780000D01*
X95602857Y-63808571D01*
X95545714Y-63894285D01*
X95517142Y-64008571D01*
X95517142Y-64237142D01*
X95545714Y-64294285D01*
X95574285Y-64322857D01*
X95631428Y-64351428D01*
X95745714Y-64351428D01*
X95802857Y-64322857D01*
X95831428Y-64294285D01*
X95860000Y-64237142D01*
X95860000Y-64094285D01*
X95831428Y-64037142D01*
X95802857Y-64008571D01*
X95745714Y-63980000D01*
X95631428Y-63980000D01*
X95574285Y-64008571D01*
X95545714Y-64037142D01*
X95517142Y-64094285D01*
G04 #@! TO.C,J2*
X64260000Y-63751428D02*
X64260000Y-64180000D01*
X64231428Y-64265714D01*
X64174285Y-64322857D01*
X64088571Y-64351428D01*
X64031428Y-64351428D01*
X64517142Y-63808571D02*
X64545714Y-63780000D01*
X64602857Y-63751428D01*
X64745714Y-63751428D01*
X64802857Y-63780000D01*
X64831428Y-63808571D01*
X64860000Y-63865714D01*
X64860000Y-63922857D01*
X64831428Y-64008571D01*
X64488571Y-64351428D01*
X64860000Y-64351428D01*
G04 #@! TO.C,SW2*
X52413000Y-128385857D02*
X52498714Y-128414428D01*
X52641571Y-128414428D01*
X52698714Y-128385857D01*
X52727285Y-128357285D01*
X52755857Y-128300142D01*
X52755857Y-128243000D01*
X52727285Y-128185857D01*
X52698714Y-128157285D01*
X52641571Y-128128714D01*
X52527285Y-128100142D01*
X52470142Y-128071571D01*
X52441571Y-128043000D01*
X52413000Y-127985857D01*
X52413000Y-127928714D01*
X52441571Y-127871571D01*
X52470142Y-127843000D01*
X52527285Y-127814428D01*
X52670142Y-127814428D01*
X52755857Y-127843000D01*
X52955857Y-127814428D02*
X53098714Y-128414428D01*
X53213000Y-127985857D01*
X53327285Y-128414428D01*
X53470142Y-127814428D01*
X53670142Y-127871571D02*
X53698714Y-127843000D01*
X53755857Y-127814428D01*
X53898714Y-127814428D01*
X53955857Y-127843000D01*
X53984428Y-127871571D01*
X54013000Y-127928714D01*
X54013000Y-127985857D01*
X53984428Y-128071571D01*
X53641571Y-128414428D01*
X54013000Y-128414428D01*
G04 #@! TO.C,D3*
X72391642Y-115015928D02*
X72391642Y-114415928D01*
X72534500Y-114415928D01*
X72620214Y-114444500D01*
X72677357Y-114501642D01*
X72705928Y-114558785D01*
X72734500Y-114673071D01*
X72734500Y-114758785D01*
X72705928Y-114873071D01*
X72677357Y-114930214D01*
X72620214Y-114987357D01*
X72534500Y-115015928D01*
X72391642Y-115015928D01*
X72934500Y-114415928D02*
X73305928Y-114415928D01*
X73105928Y-114644500D01*
X73191642Y-114644500D01*
X73248785Y-114673071D01*
X73277357Y-114701642D01*
X73305928Y-114758785D01*
X73305928Y-114901642D01*
X73277357Y-114958785D01*
X73248785Y-114987357D01*
X73191642Y-115015928D01*
X73020214Y-115015928D01*
X72963071Y-114987357D01*
X72934500Y-114958785D01*
G04 #@! TO.C,D2*
X63057142Y-115015928D02*
X63057142Y-114415928D01*
X63200000Y-114415928D01*
X63285714Y-114444500D01*
X63342857Y-114501642D01*
X63371428Y-114558785D01*
X63400000Y-114673071D01*
X63400000Y-114758785D01*
X63371428Y-114873071D01*
X63342857Y-114930214D01*
X63285714Y-114987357D01*
X63200000Y-115015928D01*
X63057142Y-115015928D01*
X63628571Y-114473071D02*
X63657142Y-114444500D01*
X63714285Y-114415928D01*
X63857142Y-114415928D01*
X63914285Y-114444500D01*
X63942857Y-114473071D01*
X63971428Y-114530214D01*
X63971428Y-114587357D01*
X63942857Y-114673071D01*
X63600000Y-115015928D01*
X63971428Y-115015928D01*
G04 #@! TO.C,D1*
X63120642Y-122508928D02*
X63120642Y-121908928D01*
X63263500Y-121908928D01*
X63349214Y-121937500D01*
X63406357Y-121994642D01*
X63434928Y-122051785D01*
X63463500Y-122166071D01*
X63463500Y-122251785D01*
X63434928Y-122366071D01*
X63406357Y-122423214D01*
X63349214Y-122480357D01*
X63263500Y-122508928D01*
X63120642Y-122508928D01*
X64034928Y-122508928D02*
X63692071Y-122508928D01*
X63863500Y-122508928D02*
X63863500Y-121908928D01*
X63806357Y-121994642D01*
X63749214Y-122051785D01*
X63692071Y-122080357D01*
G04 #@! TO.C,SW1*
X52349500Y-116892357D02*
X52435214Y-116920928D01*
X52578071Y-116920928D01*
X52635214Y-116892357D01*
X52663785Y-116863785D01*
X52692357Y-116806642D01*
X52692357Y-116749500D01*
X52663785Y-116692357D01*
X52635214Y-116663785D01*
X52578071Y-116635214D01*
X52463785Y-116606642D01*
X52406642Y-116578071D01*
X52378071Y-116549500D01*
X52349500Y-116492357D01*
X52349500Y-116435214D01*
X52378071Y-116378071D01*
X52406642Y-116349500D01*
X52463785Y-116320928D01*
X52606642Y-116320928D01*
X52692357Y-116349500D01*
X52892357Y-116320928D02*
X53035214Y-116920928D01*
X53149500Y-116492357D01*
X53263785Y-116920928D01*
X53406642Y-116320928D01*
X53949500Y-116920928D02*
X53606642Y-116920928D01*
X53778071Y-116920928D02*
X53778071Y-116320928D01*
X53720928Y-116406642D01*
X53663785Y-116463785D01*
X53606642Y-116492357D01*
G04 #@! TO.C,J1*
X99812500Y-121527928D02*
X99812500Y-121956500D01*
X99783928Y-122042214D01*
X99726785Y-122099357D01*
X99641071Y-122127928D01*
X99583928Y-122127928D01*
X100412500Y-122127928D02*
X100069642Y-122127928D01*
X100241071Y-122127928D02*
X100241071Y-121527928D01*
X100183928Y-121613642D01*
X100126785Y-121670785D01*
X100069642Y-121699357D01*
G04 #@! TO.C,J3*
X88954000Y-120194428D02*
X88954000Y-120623000D01*
X88925428Y-120708714D01*
X88868285Y-120765857D01*
X88782571Y-120794428D01*
X88725428Y-120794428D01*
X89182571Y-120194428D02*
X89554000Y-120194428D01*
X89354000Y-120423000D01*
X89439714Y-120423000D01*
X89496857Y-120451571D01*
X89525428Y-120480142D01*
X89554000Y-120537285D01*
X89554000Y-120680142D01*
X89525428Y-120737285D01*
X89496857Y-120765857D01*
X89439714Y-120794428D01*
X89268285Y-120794428D01*
X89211142Y-120765857D01*
X89182571Y-120737285D01*
G04 #@! TO.C,J5*
X104800000Y-75196928D02*
X104800000Y-75625500D01*
X104771428Y-75711214D01*
X104714285Y-75768357D01*
X104628571Y-75796928D01*
X104571428Y-75796928D01*
X105371428Y-75196928D02*
X105085714Y-75196928D01*
X105057142Y-75482642D01*
X105085714Y-75454071D01*
X105142857Y-75425500D01*
X105285714Y-75425500D01*
X105342857Y-75454071D01*
X105371428Y-75482642D01*
X105400000Y-75539785D01*
X105400000Y-75682642D01*
X105371428Y-75739785D01*
X105342857Y-75768357D01*
X105285714Y-75796928D01*
X105142857Y-75796928D01*
X105085714Y-75768357D01*
X105057142Y-75739785D01*
G04 #@! TO.C,J4*
X51800000Y-93441428D02*
X51800000Y-93870000D01*
X51771428Y-93955714D01*
X51714285Y-94012857D01*
X51628571Y-94041428D01*
X51571428Y-94041428D01*
X52342857Y-93641428D02*
X52342857Y-94041428D01*
X52200000Y-93412857D02*
X52057142Y-93841428D01*
X52428571Y-93841428D01*
G04 #@! TD*
M02*
