G04 #@! TF.GenerationSoftware,KiCad,Pcbnew,5.0.2-bee76a0~70~ubuntu18.04.1*
G04 #@! TF.CreationDate,2019-01-09T05:41:56+01:00*
G04 #@! TF.ProjectId,IGM400,49474d34-3030-42e6-9b69-6361645f7063,rev?*
G04 #@! TF.SameCoordinates,Original*
G04 #@! TF.FileFunction,Paste,Top*
G04 #@! TF.FilePolarity,Positive*
%FSLAX46Y46*%
G04 Gerber Fmt 4.6, Leading zero omitted, Abs format (unit mm)*
G04 Created by KiCad (PCBNEW 5.0.2-bee76a0~70~ubuntu18.04.1) date Mi 09 Jan 2019 05:41:56 CET*
%MOMM*%
%LPD*%
G01*
G04 APERTURE LIST*
%ADD10C,0.100000*%
%ADD11C,0.875000*%
%ADD12R,0.900000X0.800000*%
%ADD13R,0.800000X0.900000*%
%ADD14C,0.975000*%
G04 APERTURE END LIST*
D10*
G04 #@! TO.C,C1*
G36*
X77366691Y-112301553D02*
X77387926Y-112304703D01*
X77408750Y-112309919D01*
X77428962Y-112317151D01*
X77448368Y-112326330D01*
X77466781Y-112337366D01*
X77484024Y-112350154D01*
X77499930Y-112364570D01*
X77514346Y-112380476D01*
X77527134Y-112397719D01*
X77538170Y-112416132D01*
X77547349Y-112435538D01*
X77554581Y-112455750D01*
X77559797Y-112476574D01*
X77562947Y-112497809D01*
X77564000Y-112519250D01*
X77564000Y-112956750D01*
X77562947Y-112978191D01*
X77559797Y-112999426D01*
X77554581Y-113020250D01*
X77547349Y-113040462D01*
X77538170Y-113059868D01*
X77527134Y-113078281D01*
X77514346Y-113095524D01*
X77499930Y-113111430D01*
X77484024Y-113125846D01*
X77466781Y-113138634D01*
X77448368Y-113149670D01*
X77428962Y-113158849D01*
X77408750Y-113166081D01*
X77387926Y-113171297D01*
X77366691Y-113174447D01*
X77345250Y-113175500D01*
X76832750Y-113175500D01*
X76811309Y-113174447D01*
X76790074Y-113171297D01*
X76769250Y-113166081D01*
X76749038Y-113158849D01*
X76729632Y-113149670D01*
X76711219Y-113138634D01*
X76693976Y-113125846D01*
X76678070Y-113111430D01*
X76663654Y-113095524D01*
X76650866Y-113078281D01*
X76639830Y-113059868D01*
X76630651Y-113040462D01*
X76623419Y-113020250D01*
X76618203Y-112999426D01*
X76615053Y-112978191D01*
X76614000Y-112956750D01*
X76614000Y-112519250D01*
X76615053Y-112497809D01*
X76618203Y-112476574D01*
X76623419Y-112455750D01*
X76630651Y-112435538D01*
X76639830Y-112416132D01*
X76650866Y-112397719D01*
X76663654Y-112380476D01*
X76678070Y-112364570D01*
X76693976Y-112350154D01*
X76711219Y-112337366D01*
X76729632Y-112326330D01*
X76749038Y-112317151D01*
X76769250Y-112309919D01*
X76790074Y-112304703D01*
X76811309Y-112301553D01*
X76832750Y-112300500D01*
X77345250Y-112300500D01*
X77366691Y-112301553D01*
X77366691Y-112301553D01*
G37*
D11*
X77089000Y-112738000D03*
D10*
G36*
X77366691Y-110726553D02*
X77387926Y-110729703D01*
X77408750Y-110734919D01*
X77428962Y-110742151D01*
X77448368Y-110751330D01*
X77466781Y-110762366D01*
X77484024Y-110775154D01*
X77499930Y-110789570D01*
X77514346Y-110805476D01*
X77527134Y-110822719D01*
X77538170Y-110841132D01*
X77547349Y-110860538D01*
X77554581Y-110880750D01*
X77559797Y-110901574D01*
X77562947Y-110922809D01*
X77564000Y-110944250D01*
X77564000Y-111381750D01*
X77562947Y-111403191D01*
X77559797Y-111424426D01*
X77554581Y-111445250D01*
X77547349Y-111465462D01*
X77538170Y-111484868D01*
X77527134Y-111503281D01*
X77514346Y-111520524D01*
X77499930Y-111536430D01*
X77484024Y-111550846D01*
X77466781Y-111563634D01*
X77448368Y-111574670D01*
X77428962Y-111583849D01*
X77408750Y-111591081D01*
X77387926Y-111596297D01*
X77366691Y-111599447D01*
X77345250Y-111600500D01*
X76832750Y-111600500D01*
X76811309Y-111599447D01*
X76790074Y-111596297D01*
X76769250Y-111591081D01*
X76749038Y-111583849D01*
X76729632Y-111574670D01*
X76711219Y-111563634D01*
X76693976Y-111550846D01*
X76678070Y-111536430D01*
X76663654Y-111520524D01*
X76650866Y-111503281D01*
X76639830Y-111484868D01*
X76630651Y-111465462D01*
X76623419Y-111445250D01*
X76618203Y-111424426D01*
X76615053Y-111403191D01*
X76614000Y-111381750D01*
X76614000Y-110944250D01*
X76615053Y-110922809D01*
X76618203Y-110901574D01*
X76623419Y-110880750D01*
X76630651Y-110860538D01*
X76639830Y-110841132D01*
X76650866Y-110822719D01*
X76663654Y-110805476D01*
X76678070Y-110789570D01*
X76693976Y-110775154D01*
X76711219Y-110762366D01*
X76729632Y-110751330D01*
X76749038Y-110742151D01*
X76769250Y-110734919D01*
X76790074Y-110729703D01*
X76811309Y-110726553D01*
X76832750Y-110725500D01*
X77345250Y-110725500D01*
X77366691Y-110726553D01*
X77366691Y-110726553D01*
G37*
D11*
X77089000Y-111163000D03*
G04 #@! TD*
D10*
G04 #@! TO.C,C3*
G36*
X91654191Y-110726553D02*
X91675426Y-110729703D01*
X91696250Y-110734919D01*
X91716462Y-110742151D01*
X91735868Y-110751330D01*
X91754281Y-110762366D01*
X91771524Y-110775154D01*
X91787430Y-110789570D01*
X91801846Y-110805476D01*
X91814634Y-110822719D01*
X91825670Y-110841132D01*
X91834849Y-110860538D01*
X91842081Y-110880750D01*
X91847297Y-110901574D01*
X91850447Y-110922809D01*
X91851500Y-110944250D01*
X91851500Y-111381750D01*
X91850447Y-111403191D01*
X91847297Y-111424426D01*
X91842081Y-111445250D01*
X91834849Y-111465462D01*
X91825670Y-111484868D01*
X91814634Y-111503281D01*
X91801846Y-111520524D01*
X91787430Y-111536430D01*
X91771524Y-111550846D01*
X91754281Y-111563634D01*
X91735868Y-111574670D01*
X91716462Y-111583849D01*
X91696250Y-111591081D01*
X91675426Y-111596297D01*
X91654191Y-111599447D01*
X91632750Y-111600500D01*
X91120250Y-111600500D01*
X91098809Y-111599447D01*
X91077574Y-111596297D01*
X91056750Y-111591081D01*
X91036538Y-111583849D01*
X91017132Y-111574670D01*
X90998719Y-111563634D01*
X90981476Y-111550846D01*
X90965570Y-111536430D01*
X90951154Y-111520524D01*
X90938366Y-111503281D01*
X90927330Y-111484868D01*
X90918151Y-111465462D01*
X90910919Y-111445250D01*
X90905703Y-111424426D01*
X90902553Y-111403191D01*
X90901500Y-111381750D01*
X90901500Y-110944250D01*
X90902553Y-110922809D01*
X90905703Y-110901574D01*
X90910919Y-110880750D01*
X90918151Y-110860538D01*
X90927330Y-110841132D01*
X90938366Y-110822719D01*
X90951154Y-110805476D01*
X90965570Y-110789570D01*
X90981476Y-110775154D01*
X90998719Y-110762366D01*
X91017132Y-110751330D01*
X91036538Y-110742151D01*
X91056750Y-110734919D01*
X91077574Y-110729703D01*
X91098809Y-110726553D01*
X91120250Y-110725500D01*
X91632750Y-110725500D01*
X91654191Y-110726553D01*
X91654191Y-110726553D01*
G37*
D11*
X91376500Y-111163000D03*
D10*
G36*
X91654191Y-112301553D02*
X91675426Y-112304703D01*
X91696250Y-112309919D01*
X91716462Y-112317151D01*
X91735868Y-112326330D01*
X91754281Y-112337366D01*
X91771524Y-112350154D01*
X91787430Y-112364570D01*
X91801846Y-112380476D01*
X91814634Y-112397719D01*
X91825670Y-112416132D01*
X91834849Y-112435538D01*
X91842081Y-112455750D01*
X91847297Y-112476574D01*
X91850447Y-112497809D01*
X91851500Y-112519250D01*
X91851500Y-112956750D01*
X91850447Y-112978191D01*
X91847297Y-112999426D01*
X91842081Y-113020250D01*
X91834849Y-113040462D01*
X91825670Y-113059868D01*
X91814634Y-113078281D01*
X91801846Y-113095524D01*
X91787430Y-113111430D01*
X91771524Y-113125846D01*
X91754281Y-113138634D01*
X91735868Y-113149670D01*
X91716462Y-113158849D01*
X91696250Y-113166081D01*
X91675426Y-113171297D01*
X91654191Y-113174447D01*
X91632750Y-113175500D01*
X91120250Y-113175500D01*
X91098809Y-113174447D01*
X91077574Y-113171297D01*
X91056750Y-113166081D01*
X91036538Y-113158849D01*
X91017132Y-113149670D01*
X90998719Y-113138634D01*
X90981476Y-113125846D01*
X90965570Y-113111430D01*
X90951154Y-113095524D01*
X90938366Y-113078281D01*
X90927330Y-113059868D01*
X90918151Y-113040462D01*
X90910919Y-113020250D01*
X90905703Y-112999426D01*
X90902553Y-112978191D01*
X90901500Y-112956750D01*
X90901500Y-112519250D01*
X90902553Y-112497809D01*
X90905703Y-112476574D01*
X90910919Y-112455750D01*
X90918151Y-112435538D01*
X90927330Y-112416132D01*
X90938366Y-112397719D01*
X90951154Y-112380476D01*
X90965570Y-112364570D01*
X90981476Y-112350154D01*
X90998719Y-112337366D01*
X91017132Y-112326330D01*
X91036538Y-112317151D01*
X91056750Y-112309919D01*
X91077574Y-112304703D01*
X91098809Y-112301553D01*
X91120250Y-112300500D01*
X91632750Y-112300500D01*
X91654191Y-112301553D01*
X91654191Y-112301553D01*
G37*
D11*
X91376500Y-112738000D03*
G04 #@! TD*
D10*
G04 #@! TO.C,C4*
G36*
X67778191Y-112250553D02*
X67799426Y-112253703D01*
X67820250Y-112258919D01*
X67840462Y-112266151D01*
X67859868Y-112275330D01*
X67878281Y-112286366D01*
X67895524Y-112299154D01*
X67911430Y-112313570D01*
X67925846Y-112329476D01*
X67938634Y-112346719D01*
X67949670Y-112365132D01*
X67958849Y-112384538D01*
X67966081Y-112404750D01*
X67971297Y-112425574D01*
X67974447Y-112446809D01*
X67975500Y-112468250D01*
X67975500Y-112905750D01*
X67974447Y-112927191D01*
X67971297Y-112948426D01*
X67966081Y-112969250D01*
X67958849Y-112989462D01*
X67949670Y-113008868D01*
X67938634Y-113027281D01*
X67925846Y-113044524D01*
X67911430Y-113060430D01*
X67895524Y-113074846D01*
X67878281Y-113087634D01*
X67859868Y-113098670D01*
X67840462Y-113107849D01*
X67820250Y-113115081D01*
X67799426Y-113120297D01*
X67778191Y-113123447D01*
X67756750Y-113124500D01*
X67244250Y-113124500D01*
X67222809Y-113123447D01*
X67201574Y-113120297D01*
X67180750Y-113115081D01*
X67160538Y-113107849D01*
X67141132Y-113098670D01*
X67122719Y-113087634D01*
X67105476Y-113074846D01*
X67089570Y-113060430D01*
X67075154Y-113044524D01*
X67062366Y-113027281D01*
X67051330Y-113008868D01*
X67042151Y-112989462D01*
X67034919Y-112969250D01*
X67029703Y-112948426D01*
X67026553Y-112927191D01*
X67025500Y-112905750D01*
X67025500Y-112468250D01*
X67026553Y-112446809D01*
X67029703Y-112425574D01*
X67034919Y-112404750D01*
X67042151Y-112384538D01*
X67051330Y-112365132D01*
X67062366Y-112346719D01*
X67075154Y-112329476D01*
X67089570Y-112313570D01*
X67105476Y-112299154D01*
X67122719Y-112286366D01*
X67141132Y-112275330D01*
X67160538Y-112266151D01*
X67180750Y-112258919D01*
X67201574Y-112253703D01*
X67222809Y-112250553D01*
X67244250Y-112249500D01*
X67756750Y-112249500D01*
X67778191Y-112250553D01*
X67778191Y-112250553D01*
G37*
D11*
X67500500Y-112687000D03*
D10*
G36*
X67778191Y-113825553D02*
X67799426Y-113828703D01*
X67820250Y-113833919D01*
X67840462Y-113841151D01*
X67859868Y-113850330D01*
X67878281Y-113861366D01*
X67895524Y-113874154D01*
X67911430Y-113888570D01*
X67925846Y-113904476D01*
X67938634Y-113921719D01*
X67949670Y-113940132D01*
X67958849Y-113959538D01*
X67966081Y-113979750D01*
X67971297Y-114000574D01*
X67974447Y-114021809D01*
X67975500Y-114043250D01*
X67975500Y-114480750D01*
X67974447Y-114502191D01*
X67971297Y-114523426D01*
X67966081Y-114544250D01*
X67958849Y-114564462D01*
X67949670Y-114583868D01*
X67938634Y-114602281D01*
X67925846Y-114619524D01*
X67911430Y-114635430D01*
X67895524Y-114649846D01*
X67878281Y-114662634D01*
X67859868Y-114673670D01*
X67840462Y-114682849D01*
X67820250Y-114690081D01*
X67799426Y-114695297D01*
X67778191Y-114698447D01*
X67756750Y-114699500D01*
X67244250Y-114699500D01*
X67222809Y-114698447D01*
X67201574Y-114695297D01*
X67180750Y-114690081D01*
X67160538Y-114682849D01*
X67141132Y-114673670D01*
X67122719Y-114662634D01*
X67105476Y-114649846D01*
X67089570Y-114635430D01*
X67075154Y-114619524D01*
X67062366Y-114602281D01*
X67051330Y-114583868D01*
X67042151Y-114564462D01*
X67034919Y-114544250D01*
X67029703Y-114523426D01*
X67026553Y-114502191D01*
X67025500Y-114480750D01*
X67025500Y-114043250D01*
X67026553Y-114021809D01*
X67029703Y-114000574D01*
X67034919Y-113979750D01*
X67042151Y-113959538D01*
X67051330Y-113940132D01*
X67062366Y-113921719D01*
X67075154Y-113904476D01*
X67089570Y-113888570D01*
X67105476Y-113874154D01*
X67122719Y-113861366D01*
X67141132Y-113850330D01*
X67160538Y-113841151D01*
X67180750Y-113833919D01*
X67201574Y-113828703D01*
X67222809Y-113825553D01*
X67244250Y-113824500D01*
X67756750Y-113824500D01*
X67778191Y-113825553D01*
X67778191Y-113825553D01*
G37*
D11*
X67500500Y-114262000D03*
G04 #@! TD*
D10*
G04 #@! TO.C,C7*
G36*
X58189691Y-103475053D02*
X58210926Y-103478203D01*
X58231750Y-103483419D01*
X58251962Y-103490651D01*
X58271368Y-103499830D01*
X58289781Y-103510866D01*
X58307024Y-103523654D01*
X58322930Y-103538070D01*
X58337346Y-103553976D01*
X58350134Y-103571219D01*
X58361170Y-103589632D01*
X58370349Y-103609038D01*
X58377581Y-103629250D01*
X58382797Y-103650074D01*
X58385947Y-103671309D01*
X58387000Y-103692750D01*
X58387000Y-104130250D01*
X58385947Y-104151691D01*
X58382797Y-104172926D01*
X58377581Y-104193750D01*
X58370349Y-104213962D01*
X58361170Y-104233368D01*
X58350134Y-104251781D01*
X58337346Y-104269024D01*
X58322930Y-104284930D01*
X58307024Y-104299346D01*
X58289781Y-104312134D01*
X58271368Y-104323170D01*
X58251962Y-104332349D01*
X58231750Y-104339581D01*
X58210926Y-104344797D01*
X58189691Y-104347947D01*
X58168250Y-104349000D01*
X57655750Y-104349000D01*
X57634309Y-104347947D01*
X57613074Y-104344797D01*
X57592250Y-104339581D01*
X57572038Y-104332349D01*
X57552632Y-104323170D01*
X57534219Y-104312134D01*
X57516976Y-104299346D01*
X57501070Y-104284930D01*
X57486654Y-104269024D01*
X57473866Y-104251781D01*
X57462830Y-104233368D01*
X57453651Y-104213962D01*
X57446419Y-104193750D01*
X57441203Y-104172926D01*
X57438053Y-104151691D01*
X57437000Y-104130250D01*
X57437000Y-103692750D01*
X57438053Y-103671309D01*
X57441203Y-103650074D01*
X57446419Y-103629250D01*
X57453651Y-103609038D01*
X57462830Y-103589632D01*
X57473866Y-103571219D01*
X57486654Y-103553976D01*
X57501070Y-103538070D01*
X57516976Y-103523654D01*
X57534219Y-103510866D01*
X57552632Y-103499830D01*
X57572038Y-103490651D01*
X57592250Y-103483419D01*
X57613074Y-103478203D01*
X57634309Y-103475053D01*
X57655750Y-103474000D01*
X58168250Y-103474000D01*
X58189691Y-103475053D01*
X58189691Y-103475053D01*
G37*
D11*
X57912000Y-103911500D03*
D10*
G36*
X58189691Y-101900053D02*
X58210926Y-101903203D01*
X58231750Y-101908419D01*
X58251962Y-101915651D01*
X58271368Y-101924830D01*
X58289781Y-101935866D01*
X58307024Y-101948654D01*
X58322930Y-101963070D01*
X58337346Y-101978976D01*
X58350134Y-101996219D01*
X58361170Y-102014632D01*
X58370349Y-102034038D01*
X58377581Y-102054250D01*
X58382797Y-102075074D01*
X58385947Y-102096309D01*
X58387000Y-102117750D01*
X58387000Y-102555250D01*
X58385947Y-102576691D01*
X58382797Y-102597926D01*
X58377581Y-102618750D01*
X58370349Y-102638962D01*
X58361170Y-102658368D01*
X58350134Y-102676781D01*
X58337346Y-102694024D01*
X58322930Y-102709930D01*
X58307024Y-102724346D01*
X58289781Y-102737134D01*
X58271368Y-102748170D01*
X58251962Y-102757349D01*
X58231750Y-102764581D01*
X58210926Y-102769797D01*
X58189691Y-102772947D01*
X58168250Y-102774000D01*
X57655750Y-102774000D01*
X57634309Y-102772947D01*
X57613074Y-102769797D01*
X57592250Y-102764581D01*
X57572038Y-102757349D01*
X57552632Y-102748170D01*
X57534219Y-102737134D01*
X57516976Y-102724346D01*
X57501070Y-102709930D01*
X57486654Y-102694024D01*
X57473866Y-102676781D01*
X57462830Y-102658368D01*
X57453651Y-102638962D01*
X57446419Y-102618750D01*
X57441203Y-102597926D01*
X57438053Y-102576691D01*
X57437000Y-102555250D01*
X57437000Y-102117750D01*
X57438053Y-102096309D01*
X57441203Y-102075074D01*
X57446419Y-102054250D01*
X57453651Y-102034038D01*
X57462830Y-102014632D01*
X57473866Y-101996219D01*
X57486654Y-101978976D01*
X57501070Y-101963070D01*
X57516976Y-101948654D01*
X57534219Y-101935866D01*
X57552632Y-101924830D01*
X57572038Y-101915651D01*
X57592250Y-101908419D01*
X57613074Y-101903203D01*
X57634309Y-101900053D01*
X57655750Y-101899000D01*
X58168250Y-101899000D01*
X58189691Y-101900053D01*
X58189691Y-101900053D01*
G37*
D11*
X57912000Y-102336500D03*
G04 #@! TD*
D10*
G04 #@! TO.C,C8*
G36*
X54824191Y-101900053D02*
X54845426Y-101903203D01*
X54866250Y-101908419D01*
X54886462Y-101915651D01*
X54905868Y-101924830D01*
X54924281Y-101935866D01*
X54941524Y-101948654D01*
X54957430Y-101963070D01*
X54971846Y-101978976D01*
X54984634Y-101996219D01*
X54995670Y-102014632D01*
X55004849Y-102034038D01*
X55012081Y-102054250D01*
X55017297Y-102075074D01*
X55020447Y-102096309D01*
X55021500Y-102117750D01*
X55021500Y-102555250D01*
X55020447Y-102576691D01*
X55017297Y-102597926D01*
X55012081Y-102618750D01*
X55004849Y-102638962D01*
X54995670Y-102658368D01*
X54984634Y-102676781D01*
X54971846Y-102694024D01*
X54957430Y-102709930D01*
X54941524Y-102724346D01*
X54924281Y-102737134D01*
X54905868Y-102748170D01*
X54886462Y-102757349D01*
X54866250Y-102764581D01*
X54845426Y-102769797D01*
X54824191Y-102772947D01*
X54802750Y-102774000D01*
X54290250Y-102774000D01*
X54268809Y-102772947D01*
X54247574Y-102769797D01*
X54226750Y-102764581D01*
X54206538Y-102757349D01*
X54187132Y-102748170D01*
X54168719Y-102737134D01*
X54151476Y-102724346D01*
X54135570Y-102709930D01*
X54121154Y-102694024D01*
X54108366Y-102676781D01*
X54097330Y-102658368D01*
X54088151Y-102638962D01*
X54080919Y-102618750D01*
X54075703Y-102597926D01*
X54072553Y-102576691D01*
X54071500Y-102555250D01*
X54071500Y-102117750D01*
X54072553Y-102096309D01*
X54075703Y-102075074D01*
X54080919Y-102054250D01*
X54088151Y-102034038D01*
X54097330Y-102014632D01*
X54108366Y-101996219D01*
X54121154Y-101978976D01*
X54135570Y-101963070D01*
X54151476Y-101948654D01*
X54168719Y-101935866D01*
X54187132Y-101924830D01*
X54206538Y-101915651D01*
X54226750Y-101908419D01*
X54247574Y-101903203D01*
X54268809Y-101900053D01*
X54290250Y-101899000D01*
X54802750Y-101899000D01*
X54824191Y-101900053D01*
X54824191Y-101900053D01*
G37*
D11*
X54546500Y-102336500D03*
D10*
G36*
X54824191Y-103475053D02*
X54845426Y-103478203D01*
X54866250Y-103483419D01*
X54886462Y-103490651D01*
X54905868Y-103499830D01*
X54924281Y-103510866D01*
X54941524Y-103523654D01*
X54957430Y-103538070D01*
X54971846Y-103553976D01*
X54984634Y-103571219D01*
X54995670Y-103589632D01*
X55004849Y-103609038D01*
X55012081Y-103629250D01*
X55017297Y-103650074D01*
X55020447Y-103671309D01*
X55021500Y-103692750D01*
X55021500Y-104130250D01*
X55020447Y-104151691D01*
X55017297Y-104172926D01*
X55012081Y-104193750D01*
X55004849Y-104213962D01*
X54995670Y-104233368D01*
X54984634Y-104251781D01*
X54971846Y-104269024D01*
X54957430Y-104284930D01*
X54941524Y-104299346D01*
X54924281Y-104312134D01*
X54905868Y-104323170D01*
X54886462Y-104332349D01*
X54866250Y-104339581D01*
X54845426Y-104344797D01*
X54824191Y-104347947D01*
X54802750Y-104349000D01*
X54290250Y-104349000D01*
X54268809Y-104347947D01*
X54247574Y-104344797D01*
X54226750Y-104339581D01*
X54206538Y-104332349D01*
X54187132Y-104323170D01*
X54168719Y-104312134D01*
X54151476Y-104299346D01*
X54135570Y-104284930D01*
X54121154Y-104269024D01*
X54108366Y-104251781D01*
X54097330Y-104233368D01*
X54088151Y-104213962D01*
X54080919Y-104193750D01*
X54075703Y-104172926D01*
X54072553Y-104151691D01*
X54071500Y-104130250D01*
X54071500Y-103692750D01*
X54072553Y-103671309D01*
X54075703Y-103650074D01*
X54080919Y-103629250D01*
X54088151Y-103609038D01*
X54097330Y-103589632D01*
X54108366Y-103571219D01*
X54121154Y-103553976D01*
X54135570Y-103538070D01*
X54151476Y-103523654D01*
X54168719Y-103510866D01*
X54187132Y-103499830D01*
X54206538Y-103490651D01*
X54226750Y-103483419D01*
X54247574Y-103478203D01*
X54268809Y-103475053D01*
X54290250Y-103474000D01*
X54802750Y-103474000D01*
X54824191Y-103475053D01*
X54824191Y-103475053D01*
G37*
D11*
X54546500Y-103911500D03*
G04 #@! TD*
D10*
G04 #@! TO.C,C9*
G36*
X92670191Y-89200053D02*
X92691426Y-89203203D01*
X92712250Y-89208419D01*
X92732462Y-89215651D01*
X92751868Y-89224830D01*
X92770281Y-89235866D01*
X92787524Y-89248654D01*
X92803430Y-89263070D01*
X92817846Y-89278976D01*
X92830634Y-89296219D01*
X92841670Y-89314632D01*
X92850849Y-89334038D01*
X92858081Y-89354250D01*
X92863297Y-89375074D01*
X92866447Y-89396309D01*
X92867500Y-89417750D01*
X92867500Y-89855250D01*
X92866447Y-89876691D01*
X92863297Y-89897926D01*
X92858081Y-89918750D01*
X92850849Y-89938962D01*
X92841670Y-89958368D01*
X92830634Y-89976781D01*
X92817846Y-89994024D01*
X92803430Y-90009930D01*
X92787524Y-90024346D01*
X92770281Y-90037134D01*
X92751868Y-90048170D01*
X92732462Y-90057349D01*
X92712250Y-90064581D01*
X92691426Y-90069797D01*
X92670191Y-90072947D01*
X92648750Y-90074000D01*
X92136250Y-90074000D01*
X92114809Y-90072947D01*
X92093574Y-90069797D01*
X92072750Y-90064581D01*
X92052538Y-90057349D01*
X92033132Y-90048170D01*
X92014719Y-90037134D01*
X91997476Y-90024346D01*
X91981570Y-90009930D01*
X91967154Y-89994024D01*
X91954366Y-89976781D01*
X91943330Y-89958368D01*
X91934151Y-89938962D01*
X91926919Y-89918750D01*
X91921703Y-89897926D01*
X91918553Y-89876691D01*
X91917500Y-89855250D01*
X91917500Y-89417750D01*
X91918553Y-89396309D01*
X91921703Y-89375074D01*
X91926919Y-89354250D01*
X91934151Y-89334038D01*
X91943330Y-89314632D01*
X91954366Y-89296219D01*
X91967154Y-89278976D01*
X91981570Y-89263070D01*
X91997476Y-89248654D01*
X92014719Y-89235866D01*
X92033132Y-89224830D01*
X92052538Y-89215651D01*
X92072750Y-89208419D01*
X92093574Y-89203203D01*
X92114809Y-89200053D01*
X92136250Y-89199000D01*
X92648750Y-89199000D01*
X92670191Y-89200053D01*
X92670191Y-89200053D01*
G37*
D11*
X92392500Y-89636500D03*
D10*
G36*
X92670191Y-90775053D02*
X92691426Y-90778203D01*
X92712250Y-90783419D01*
X92732462Y-90790651D01*
X92751868Y-90799830D01*
X92770281Y-90810866D01*
X92787524Y-90823654D01*
X92803430Y-90838070D01*
X92817846Y-90853976D01*
X92830634Y-90871219D01*
X92841670Y-90889632D01*
X92850849Y-90909038D01*
X92858081Y-90929250D01*
X92863297Y-90950074D01*
X92866447Y-90971309D01*
X92867500Y-90992750D01*
X92867500Y-91430250D01*
X92866447Y-91451691D01*
X92863297Y-91472926D01*
X92858081Y-91493750D01*
X92850849Y-91513962D01*
X92841670Y-91533368D01*
X92830634Y-91551781D01*
X92817846Y-91569024D01*
X92803430Y-91584930D01*
X92787524Y-91599346D01*
X92770281Y-91612134D01*
X92751868Y-91623170D01*
X92732462Y-91632349D01*
X92712250Y-91639581D01*
X92691426Y-91644797D01*
X92670191Y-91647947D01*
X92648750Y-91649000D01*
X92136250Y-91649000D01*
X92114809Y-91647947D01*
X92093574Y-91644797D01*
X92072750Y-91639581D01*
X92052538Y-91632349D01*
X92033132Y-91623170D01*
X92014719Y-91612134D01*
X91997476Y-91599346D01*
X91981570Y-91584930D01*
X91967154Y-91569024D01*
X91954366Y-91551781D01*
X91943330Y-91533368D01*
X91934151Y-91513962D01*
X91926919Y-91493750D01*
X91921703Y-91472926D01*
X91918553Y-91451691D01*
X91917500Y-91430250D01*
X91917500Y-90992750D01*
X91918553Y-90971309D01*
X91921703Y-90950074D01*
X91926919Y-90929250D01*
X91934151Y-90909038D01*
X91943330Y-90889632D01*
X91954366Y-90871219D01*
X91967154Y-90853976D01*
X91981570Y-90838070D01*
X91997476Y-90823654D01*
X92014719Y-90810866D01*
X92033132Y-90799830D01*
X92052538Y-90790651D01*
X92072750Y-90783419D01*
X92093574Y-90778203D01*
X92114809Y-90775053D01*
X92136250Y-90774000D01*
X92648750Y-90774000D01*
X92670191Y-90775053D01*
X92670191Y-90775053D01*
G37*
D11*
X92392500Y-91211500D03*
G04 #@! TD*
D10*
G04 #@! TO.C,C2*
G36*
X80795691Y-112238053D02*
X80816926Y-112241203D01*
X80837750Y-112246419D01*
X80857962Y-112253651D01*
X80877368Y-112262830D01*
X80895781Y-112273866D01*
X80913024Y-112286654D01*
X80928930Y-112301070D01*
X80943346Y-112316976D01*
X80956134Y-112334219D01*
X80967170Y-112352632D01*
X80976349Y-112372038D01*
X80983581Y-112392250D01*
X80988797Y-112413074D01*
X80991947Y-112434309D01*
X80993000Y-112455750D01*
X80993000Y-112893250D01*
X80991947Y-112914691D01*
X80988797Y-112935926D01*
X80983581Y-112956750D01*
X80976349Y-112976962D01*
X80967170Y-112996368D01*
X80956134Y-113014781D01*
X80943346Y-113032024D01*
X80928930Y-113047930D01*
X80913024Y-113062346D01*
X80895781Y-113075134D01*
X80877368Y-113086170D01*
X80857962Y-113095349D01*
X80837750Y-113102581D01*
X80816926Y-113107797D01*
X80795691Y-113110947D01*
X80774250Y-113112000D01*
X80261750Y-113112000D01*
X80240309Y-113110947D01*
X80219074Y-113107797D01*
X80198250Y-113102581D01*
X80178038Y-113095349D01*
X80158632Y-113086170D01*
X80140219Y-113075134D01*
X80122976Y-113062346D01*
X80107070Y-113047930D01*
X80092654Y-113032024D01*
X80079866Y-113014781D01*
X80068830Y-112996368D01*
X80059651Y-112976962D01*
X80052419Y-112956750D01*
X80047203Y-112935926D01*
X80044053Y-112914691D01*
X80043000Y-112893250D01*
X80043000Y-112455750D01*
X80044053Y-112434309D01*
X80047203Y-112413074D01*
X80052419Y-112392250D01*
X80059651Y-112372038D01*
X80068830Y-112352632D01*
X80079866Y-112334219D01*
X80092654Y-112316976D01*
X80107070Y-112301070D01*
X80122976Y-112286654D01*
X80140219Y-112273866D01*
X80158632Y-112262830D01*
X80178038Y-112253651D01*
X80198250Y-112246419D01*
X80219074Y-112241203D01*
X80240309Y-112238053D01*
X80261750Y-112237000D01*
X80774250Y-112237000D01*
X80795691Y-112238053D01*
X80795691Y-112238053D01*
G37*
D11*
X80518000Y-112674500D03*
D10*
G36*
X80795691Y-110663053D02*
X80816926Y-110666203D01*
X80837750Y-110671419D01*
X80857962Y-110678651D01*
X80877368Y-110687830D01*
X80895781Y-110698866D01*
X80913024Y-110711654D01*
X80928930Y-110726070D01*
X80943346Y-110741976D01*
X80956134Y-110759219D01*
X80967170Y-110777632D01*
X80976349Y-110797038D01*
X80983581Y-110817250D01*
X80988797Y-110838074D01*
X80991947Y-110859309D01*
X80993000Y-110880750D01*
X80993000Y-111318250D01*
X80991947Y-111339691D01*
X80988797Y-111360926D01*
X80983581Y-111381750D01*
X80976349Y-111401962D01*
X80967170Y-111421368D01*
X80956134Y-111439781D01*
X80943346Y-111457024D01*
X80928930Y-111472930D01*
X80913024Y-111487346D01*
X80895781Y-111500134D01*
X80877368Y-111511170D01*
X80857962Y-111520349D01*
X80837750Y-111527581D01*
X80816926Y-111532797D01*
X80795691Y-111535947D01*
X80774250Y-111537000D01*
X80261750Y-111537000D01*
X80240309Y-111535947D01*
X80219074Y-111532797D01*
X80198250Y-111527581D01*
X80178038Y-111520349D01*
X80158632Y-111511170D01*
X80140219Y-111500134D01*
X80122976Y-111487346D01*
X80107070Y-111472930D01*
X80092654Y-111457024D01*
X80079866Y-111439781D01*
X80068830Y-111421368D01*
X80059651Y-111401962D01*
X80052419Y-111381750D01*
X80047203Y-111360926D01*
X80044053Y-111339691D01*
X80043000Y-111318250D01*
X80043000Y-110880750D01*
X80044053Y-110859309D01*
X80047203Y-110838074D01*
X80052419Y-110817250D01*
X80059651Y-110797038D01*
X80068830Y-110777632D01*
X80079866Y-110759219D01*
X80092654Y-110741976D01*
X80107070Y-110726070D01*
X80122976Y-110711654D01*
X80140219Y-110698866D01*
X80158632Y-110687830D01*
X80178038Y-110678651D01*
X80198250Y-110671419D01*
X80219074Y-110666203D01*
X80240309Y-110663053D01*
X80261750Y-110662000D01*
X80774250Y-110662000D01*
X80795691Y-110663053D01*
X80795691Y-110663053D01*
G37*
D11*
X80518000Y-111099500D03*
G04 #@! TD*
D12*
G04 #@! TO.C,Q2*
X85423500Y-114617500D03*
X87423500Y-113667500D03*
X87423500Y-115567500D03*
G04 #@! TD*
G04 #@! TO.C,Q1*
X83359500Y-115567500D03*
X83359500Y-113667500D03*
X81359500Y-114617500D03*
G04 #@! TD*
D13*
G04 #@! TO.C,Q3*
X60642500Y-64214500D03*
X61592500Y-66214500D03*
X59692500Y-66214500D03*
G04 #@! TD*
G04 #@! TO.C,Q4*
X101412000Y-66278000D03*
X103312000Y-66278000D03*
X102362000Y-64278000D03*
G04 #@! TD*
D10*
G04 #@! TO.C,R7*
G36*
X90066691Y-112301553D02*
X90087926Y-112304703D01*
X90108750Y-112309919D01*
X90128962Y-112317151D01*
X90148368Y-112326330D01*
X90166781Y-112337366D01*
X90184024Y-112350154D01*
X90199930Y-112364570D01*
X90214346Y-112380476D01*
X90227134Y-112397719D01*
X90238170Y-112416132D01*
X90247349Y-112435538D01*
X90254581Y-112455750D01*
X90259797Y-112476574D01*
X90262947Y-112497809D01*
X90264000Y-112519250D01*
X90264000Y-112956750D01*
X90262947Y-112978191D01*
X90259797Y-112999426D01*
X90254581Y-113020250D01*
X90247349Y-113040462D01*
X90238170Y-113059868D01*
X90227134Y-113078281D01*
X90214346Y-113095524D01*
X90199930Y-113111430D01*
X90184024Y-113125846D01*
X90166781Y-113138634D01*
X90148368Y-113149670D01*
X90128962Y-113158849D01*
X90108750Y-113166081D01*
X90087926Y-113171297D01*
X90066691Y-113174447D01*
X90045250Y-113175500D01*
X89532750Y-113175500D01*
X89511309Y-113174447D01*
X89490074Y-113171297D01*
X89469250Y-113166081D01*
X89449038Y-113158849D01*
X89429632Y-113149670D01*
X89411219Y-113138634D01*
X89393976Y-113125846D01*
X89378070Y-113111430D01*
X89363654Y-113095524D01*
X89350866Y-113078281D01*
X89339830Y-113059868D01*
X89330651Y-113040462D01*
X89323419Y-113020250D01*
X89318203Y-112999426D01*
X89315053Y-112978191D01*
X89314000Y-112956750D01*
X89314000Y-112519250D01*
X89315053Y-112497809D01*
X89318203Y-112476574D01*
X89323419Y-112455750D01*
X89330651Y-112435538D01*
X89339830Y-112416132D01*
X89350866Y-112397719D01*
X89363654Y-112380476D01*
X89378070Y-112364570D01*
X89393976Y-112350154D01*
X89411219Y-112337366D01*
X89429632Y-112326330D01*
X89449038Y-112317151D01*
X89469250Y-112309919D01*
X89490074Y-112304703D01*
X89511309Y-112301553D01*
X89532750Y-112300500D01*
X90045250Y-112300500D01*
X90066691Y-112301553D01*
X90066691Y-112301553D01*
G37*
D11*
X89789000Y-112738000D03*
D10*
G36*
X90066691Y-110726553D02*
X90087926Y-110729703D01*
X90108750Y-110734919D01*
X90128962Y-110742151D01*
X90148368Y-110751330D01*
X90166781Y-110762366D01*
X90184024Y-110775154D01*
X90199930Y-110789570D01*
X90214346Y-110805476D01*
X90227134Y-110822719D01*
X90238170Y-110841132D01*
X90247349Y-110860538D01*
X90254581Y-110880750D01*
X90259797Y-110901574D01*
X90262947Y-110922809D01*
X90264000Y-110944250D01*
X90264000Y-111381750D01*
X90262947Y-111403191D01*
X90259797Y-111424426D01*
X90254581Y-111445250D01*
X90247349Y-111465462D01*
X90238170Y-111484868D01*
X90227134Y-111503281D01*
X90214346Y-111520524D01*
X90199930Y-111536430D01*
X90184024Y-111550846D01*
X90166781Y-111563634D01*
X90148368Y-111574670D01*
X90128962Y-111583849D01*
X90108750Y-111591081D01*
X90087926Y-111596297D01*
X90066691Y-111599447D01*
X90045250Y-111600500D01*
X89532750Y-111600500D01*
X89511309Y-111599447D01*
X89490074Y-111596297D01*
X89469250Y-111591081D01*
X89449038Y-111583849D01*
X89429632Y-111574670D01*
X89411219Y-111563634D01*
X89393976Y-111550846D01*
X89378070Y-111536430D01*
X89363654Y-111520524D01*
X89350866Y-111503281D01*
X89339830Y-111484868D01*
X89330651Y-111465462D01*
X89323419Y-111445250D01*
X89318203Y-111424426D01*
X89315053Y-111403191D01*
X89314000Y-111381750D01*
X89314000Y-110944250D01*
X89315053Y-110922809D01*
X89318203Y-110901574D01*
X89323419Y-110880750D01*
X89330651Y-110860538D01*
X89339830Y-110841132D01*
X89350866Y-110822719D01*
X89363654Y-110805476D01*
X89378070Y-110789570D01*
X89393976Y-110775154D01*
X89411219Y-110762366D01*
X89429632Y-110751330D01*
X89449038Y-110742151D01*
X89469250Y-110734919D01*
X89490074Y-110729703D01*
X89511309Y-110726553D01*
X89532750Y-110725500D01*
X90045250Y-110725500D01*
X90066691Y-110726553D01*
X90066691Y-110726553D01*
G37*
D11*
X89789000Y-111163000D03*
G04 #@! TD*
D10*
G04 #@! TO.C,R16*
G36*
X57999191Y-97823553D02*
X58020426Y-97826703D01*
X58041250Y-97831919D01*
X58061462Y-97839151D01*
X58080868Y-97848330D01*
X58099281Y-97859366D01*
X58116524Y-97872154D01*
X58132430Y-97886570D01*
X58146846Y-97902476D01*
X58159634Y-97919719D01*
X58170670Y-97938132D01*
X58179849Y-97957538D01*
X58187081Y-97977750D01*
X58192297Y-97998574D01*
X58195447Y-98019809D01*
X58196500Y-98041250D01*
X58196500Y-98478750D01*
X58195447Y-98500191D01*
X58192297Y-98521426D01*
X58187081Y-98542250D01*
X58179849Y-98562462D01*
X58170670Y-98581868D01*
X58159634Y-98600281D01*
X58146846Y-98617524D01*
X58132430Y-98633430D01*
X58116524Y-98647846D01*
X58099281Y-98660634D01*
X58080868Y-98671670D01*
X58061462Y-98680849D01*
X58041250Y-98688081D01*
X58020426Y-98693297D01*
X57999191Y-98696447D01*
X57977750Y-98697500D01*
X57465250Y-98697500D01*
X57443809Y-98696447D01*
X57422574Y-98693297D01*
X57401750Y-98688081D01*
X57381538Y-98680849D01*
X57362132Y-98671670D01*
X57343719Y-98660634D01*
X57326476Y-98647846D01*
X57310570Y-98633430D01*
X57296154Y-98617524D01*
X57283366Y-98600281D01*
X57272330Y-98581868D01*
X57263151Y-98562462D01*
X57255919Y-98542250D01*
X57250703Y-98521426D01*
X57247553Y-98500191D01*
X57246500Y-98478750D01*
X57246500Y-98041250D01*
X57247553Y-98019809D01*
X57250703Y-97998574D01*
X57255919Y-97977750D01*
X57263151Y-97957538D01*
X57272330Y-97938132D01*
X57283366Y-97919719D01*
X57296154Y-97902476D01*
X57310570Y-97886570D01*
X57326476Y-97872154D01*
X57343719Y-97859366D01*
X57362132Y-97848330D01*
X57381538Y-97839151D01*
X57401750Y-97831919D01*
X57422574Y-97826703D01*
X57443809Y-97823553D01*
X57465250Y-97822500D01*
X57977750Y-97822500D01*
X57999191Y-97823553D01*
X57999191Y-97823553D01*
G37*
D11*
X57721500Y-98260000D03*
D10*
G36*
X57999191Y-96248553D02*
X58020426Y-96251703D01*
X58041250Y-96256919D01*
X58061462Y-96264151D01*
X58080868Y-96273330D01*
X58099281Y-96284366D01*
X58116524Y-96297154D01*
X58132430Y-96311570D01*
X58146846Y-96327476D01*
X58159634Y-96344719D01*
X58170670Y-96363132D01*
X58179849Y-96382538D01*
X58187081Y-96402750D01*
X58192297Y-96423574D01*
X58195447Y-96444809D01*
X58196500Y-96466250D01*
X58196500Y-96903750D01*
X58195447Y-96925191D01*
X58192297Y-96946426D01*
X58187081Y-96967250D01*
X58179849Y-96987462D01*
X58170670Y-97006868D01*
X58159634Y-97025281D01*
X58146846Y-97042524D01*
X58132430Y-97058430D01*
X58116524Y-97072846D01*
X58099281Y-97085634D01*
X58080868Y-97096670D01*
X58061462Y-97105849D01*
X58041250Y-97113081D01*
X58020426Y-97118297D01*
X57999191Y-97121447D01*
X57977750Y-97122500D01*
X57465250Y-97122500D01*
X57443809Y-97121447D01*
X57422574Y-97118297D01*
X57401750Y-97113081D01*
X57381538Y-97105849D01*
X57362132Y-97096670D01*
X57343719Y-97085634D01*
X57326476Y-97072846D01*
X57310570Y-97058430D01*
X57296154Y-97042524D01*
X57283366Y-97025281D01*
X57272330Y-97006868D01*
X57263151Y-96987462D01*
X57255919Y-96967250D01*
X57250703Y-96946426D01*
X57247553Y-96925191D01*
X57246500Y-96903750D01*
X57246500Y-96466250D01*
X57247553Y-96444809D01*
X57250703Y-96423574D01*
X57255919Y-96402750D01*
X57263151Y-96382538D01*
X57272330Y-96363132D01*
X57283366Y-96344719D01*
X57296154Y-96327476D01*
X57310570Y-96311570D01*
X57326476Y-96297154D01*
X57343719Y-96284366D01*
X57362132Y-96273330D01*
X57381538Y-96264151D01*
X57401750Y-96256919D01*
X57422574Y-96251703D01*
X57443809Y-96248553D01*
X57465250Y-96247500D01*
X57977750Y-96247500D01*
X57999191Y-96248553D01*
X57999191Y-96248553D01*
G37*
D11*
X57721500Y-96685000D03*
G04 #@! TD*
D10*
G04 #@! TO.C,R1*
G36*
X75779191Y-115349553D02*
X75800426Y-115352703D01*
X75821250Y-115357919D01*
X75841462Y-115365151D01*
X75860868Y-115374330D01*
X75879281Y-115385366D01*
X75896524Y-115398154D01*
X75912430Y-115412570D01*
X75926846Y-115428476D01*
X75939634Y-115445719D01*
X75950670Y-115464132D01*
X75959849Y-115483538D01*
X75967081Y-115503750D01*
X75972297Y-115524574D01*
X75975447Y-115545809D01*
X75976500Y-115567250D01*
X75976500Y-116004750D01*
X75975447Y-116026191D01*
X75972297Y-116047426D01*
X75967081Y-116068250D01*
X75959849Y-116088462D01*
X75950670Y-116107868D01*
X75939634Y-116126281D01*
X75926846Y-116143524D01*
X75912430Y-116159430D01*
X75896524Y-116173846D01*
X75879281Y-116186634D01*
X75860868Y-116197670D01*
X75841462Y-116206849D01*
X75821250Y-116214081D01*
X75800426Y-116219297D01*
X75779191Y-116222447D01*
X75757750Y-116223500D01*
X75245250Y-116223500D01*
X75223809Y-116222447D01*
X75202574Y-116219297D01*
X75181750Y-116214081D01*
X75161538Y-116206849D01*
X75142132Y-116197670D01*
X75123719Y-116186634D01*
X75106476Y-116173846D01*
X75090570Y-116159430D01*
X75076154Y-116143524D01*
X75063366Y-116126281D01*
X75052330Y-116107868D01*
X75043151Y-116088462D01*
X75035919Y-116068250D01*
X75030703Y-116047426D01*
X75027553Y-116026191D01*
X75026500Y-116004750D01*
X75026500Y-115567250D01*
X75027553Y-115545809D01*
X75030703Y-115524574D01*
X75035919Y-115503750D01*
X75043151Y-115483538D01*
X75052330Y-115464132D01*
X75063366Y-115445719D01*
X75076154Y-115428476D01*
X75090570Y-115412570D01*
X75106476Y-115398154D01*
X75123719Y-115385366D01*
X75142132Y-115374330D01*
X75161538Y-115365151D01*
X75181750Y-115357919D01*
X75202574Y-115352703D01*
X75223809Y-115349553D01*
X75245250Y-115348500D01*
X75757750Y-115348500D01*
X75779191Y-115349553D01*
X75779191Y-115349553D01*
G37*
D11*
X75501500Y-115786000D03*
D10*
G36*
X75779191Y-113774553D02*
X75800426Y-113777703D01*
X75821250Y-113782919D01*
X75841462Y-113790151D01*
X75860868Y-113799330D01*
X75879281Y-113810366D01*
X75896524Y-113823154D01*
X75912430Y-113837570D01*
X75926846Y-113853476D01*
X75939634Y-113870719D01*
X75950670Y-113889132D01*
X75959849Y-113908538D01*
X75967081Y-113928750D01*
X75972297Y-113949574D01*
X75975447Y-113970809D01*
X75976500Y-113992250D01*
X75976500Y-114429750D01*
X75975447Y-114451191D01*
X75972297Y-114472426D01*
X75967081Y-114493250D01*
X75959849Y-114513462D01*
X75950670Y-114532868D01*
X75939634Y-114551281D01*
X75926846Y-114568524D01*
X75912430Y-114584430D01*
X75896524Y-114598846D01*
X75879281Y-114611634D01*
X75860868Y-114622670D01*
X75841462Y-114631849D01*
X75821250Y-114639081D01*
X75800426Y-114644297D01*
X75779191Y-114647447D01*
X75757750Y-114648500D01*
X75245250Y-114648500D01*
X75223809Y-114647447D01*
X75202574Y-114644297D01*
X75181750Y-114639081D01*
X75161538Y-114631849D01*
X75142132Y-114622670D01*
X75123719Y-114611634D01*
X75106476Y-114598846D01*
X75090570Y-114584430D01*
X75076154Y-114568524D01*
X75063366Y-114551281D01*
X75052330Y-114532868D01*
X75043151Y-114513462D01*
X75035919Y-114493250D01*
X75030703Y-114472426D01*
X75027553Y-114451191D01*
X75026500Y-114429750D01*
X75026500Y-113992250D01*
X75027553Y-113970809D01*
X75030703Y-113949574D01*
X75035919Y-113928750D01*
X75043151Y-113908538D01*
X75052330Y-113889132D01*
X75063366Y-113870719D01*
X75076154Y-113853476D01*
X75090570Y-113837570D01*
X75106476Y-113823154D01*
X75123719Y-113810366D01*
X75142132Y-113799330D01*
X75161538Y-113790151D01*
X75181750Y-113782919D01*
X75202574Y-113777703D01*
X75223809Y-113774553D01*
X75245250Y-113773500D01*
X75757750Y-113773500D01*
X75779191Y-113774553D01*
X75779191Y-113774553D01*
G37*
D11*
X75501500Y-114211000D03*
G04 #@! TD*
D10*
G04 #@! TO.C,R2*
G36*
X79208191Y-113711053D02*
X79229426Y-113714203D01*
X79250250Y-113719419D01*
X79270462Y-113726651D01*
X79289868Y-113735830D01*
X79308281Y-113746866D01*
X79325524Y-113759654D01*
X79341430Y-113774070D01*
X79355846Y-113789976D01*
X79368634Y-113807219D01*
X79379670Y-113825632D01*
X79388849Y-113845038D01*
X79396081Y-113865250D01*
X79401297Y-113886074D01*
X79404447Y-113907309D01*
X79405500Y-113928750D01*
X79405500Y-114366250D01*
X79404447Y-114387691D01*
X79401297Y-114408926D01*
X79396081Y-114429750D01*
X79388849Y-114449962D01*
X79379670Y-114469368D01*
X79368634Y-114487781D01*
X79355846Y-114505024D01*
X79341430Y-114520930D01*
X79325524Y-114535346D01*
X79308281Y-114548134D01*
X79289868Y-114559170D01*
X79270462Y-114568349D01*
X79250250Y-114575581D01*
X79229426Y-114580797D01*
X79208191Y-114583947D01*
X79186750Y-114585000D01*
X78674250Y-114585000D01*
X78652809Y-114583947D01*
X78631574Y-114580797D01*
X78610750Y-114575581D01*
X78590538Y-114568349D01*
X78571132Y-114559170D01*
X78552719Y-114548134D01*
X78535476Y-114535346D01*
X78519570Y-114520930D01*
X78505154Y-114505024D01*
X78492366Y-114487781D01*
X78481330Y-114469368D01*
X78472151Y-114449962D01*
X78464919Y-114429750D01*
X78459703Y-114408926D01*
X78456553Y-114387691D01*
X78455500Y-114366250D01*
X78455500Y-113928750D01*
X78456553Y-113907309D01*
X78459703Y-113886074D01*
X78464919Y-113865250D01*
X78472151Y-113845038D01*
X78481330Y-113825632D01*
X78492366Y-113807219D01*
X78505154Y-113789976D01*
X78519570Y-113774070D01*
X78535476Y-113759654D01*
X78552719Y-113746866D01*
X78571132Y-113735830D01*
X78590538Y-113726651D01*
X78610750Y-113719419D01*
X78631574Y-113714203D01*
X78652809Y-113711053D01*
X78674250Y-113710000D01*
X79186750Y-113710000D01*
X79208191Y-113711053D01*
X79208191Y-113711053D01*
G37*
D11*
X78930500Y-114147500D03*
D10*
G36*
X79208191Y-115286053D02*
X79229426Y-115289203D01*
X79250250Y-115294419D01*
X79270462Y-115301651D01*
X79289868Y-115310830D01*
X79308281Y-115321866D01*
X79325524Y-115334654D01*
X79341430Y-115349070D01*
X79355846Y-115364976D01*
X79368634Y-115382219D01*
X79379670Y-115400632D01*
X79388849Y-115420038D01*
X79396081Y-115440250D01*
X79401297Y-115461074D01*
X79404447Y-115482309D01*
X79405500Y-115503750D01*
X79405500Y-115941250D01*
X79404447Y-115962691D01*
X79401297Y-115983926D01*
X79396081Y-116004750D01*
X79388849Y-116024962D01*
X79379670Y-116044368D01*
X79368634Y-116062781D01*
X79355846Y-116080024D01*
X79341430Y-116095930D01*
X79325524Y-116110346D01*
X79308281Y-116123134D01*
X79289868Y-116134170D01*
X79270462Y-116143349D01*
X79250250Y-116150581D01*
X79229426Y-116155797D01*
X79208191Y-116158947D01*
X79186750Y-116160000D01*
X78674250Y-116160000D01*
X78652809Y-116158947D01*
X78631574Y-116155797D01*
X78610750Y-116150581D01*
X78590538Y-116143349D01*
X78571132Y-116134170D01*
X78552719Y-116123134D01*
X78535476Y-116110346D01*
X78519570Y-116095930D01*
X78505154Y-116080024D01*
X78492366Y-116062781D01*
X78481330Y-116044368D01*
X78472151Y-116024962D01*
X78464919Y-116004750D01*
X78459703Y-115983926D01*
X78456553Y-115962691D01*
X78455500Y-115941250D01*
X78455500Y-115503750D01*
X78456553Y-115482309D01*
X78459703Y-115461074D01*
X78464919Y-115440250D01*
X78472151Y-115420038D01*
X78481330Y-115400632D01*
X78492366Y-115382219D01*
X78505154Y-115364976D01*
X78519570Y-115349070D01*
X78535476Y-115334654D01*
X78552719Y-115321866D01*
X78571132Y-115310830D01*
X78590538Y-115301651D01*
X78610750Y-115294419D01*
X78631574Y-115289203D01*
X78652809Y-115286053D01*
X78674250Y-115285000D01*
X79186750Y-115285000D01*
X79208191Y-115286053D01*
X79208191Y-115286053D01*
G37*
D11*
X78930500Y-115722500D03*
G04 #@! TD*
D10*
G04 #@! TO.C,R3*
G36*
X90066691Y-115349553D02*
X90087926Y-115352703D01*
X90108750Y-115357919D01*
X90128962Y-115365151D01*
X90148368Y-115374330D01*
X90166781Y-115385366D01*
X90184024Y-115398154D01*
X90199930Y-115412570D01*
X90214346Y-115428476D01*
X90227134Y-115445719D01*
X90238170Y-115464132D01*
X90247349Y-115483538D01*
X90254581Y-115503750D01*
X90259797Y-115524574D01*
X90262947Y-115545809D01*
X90264000Y-115567250D01*
X90264000Y-116004750D01*
X90262947Y-116026191D01*
X90259797Y-116047426D01*
X90254581Y-116068250D01*
X90247349Y-116088462D01*
X90238170Y-116107868D01*
X90227134Y-116126281D01*
X90214346Y-116143524D01*
X90199930Y-116159430D01*
X90184024Y-116173846D01*
X90166781Y-116186634D01*
X90148368Y-116197670D01*
X90128962Y-116206849D01*
X90108750Y-116214081D01*
X90087926Y-116219297D01*
X90066691Y-116222447D01*
X90045250Y-116223500D01*
X89532750Y-116223500D01*
X89511309Y-116222447D01*
X89490074Y-116219297D01*
X89469250Y-116214081D01*
X89449038Y-116206849D01*
X89429632Y-116197670D01*
X89411219Y-116186634D01*
X89393976Y-116173846D01*
X89378070Y-116159430D01*
X89363654Y-116143524D01*
X89350866Y-116126281D01*
X89339830Y-116107868D01*
X89330651Y-116088462D01*
X89323419Y-116068250D01*
X89318203Y-116047426D01*
X89315053Y-116026191D01*
X89314000Y-116004750D01*
X89314000Y-115567250D01*
X89315053Y-115545809D01*
X89318203Y-115524574D01*
X89323419Y-115503750D01*
X89330651Y-115483538D01*
X89339830Y-115464132D01*
X89350866Y-115445719D01*
X89363654Y-115428476D01*
X89378070Y-115412570D01*
X89393976Y-115398154D01*
X89411219Y-115385366D01*
X89429632Y-115374330D01*
X89449038Y-115365151D01*
X89469250Y-115357919D01*
X89490074Y-115352703D01*
X89511309Y-115349553D01*
X89532750Y-115348500D01*
X90045250Y-115348500D01*
X90066691Y-115349553D01*
X90066691Y-115349553D01*
G37*
D11*
X89789000Y-115786000D03*
D10*
G36*
X90066691Y-113774553D02*
X90087926Y-113777703D01*
X90108750Y-113782919D01*
X90128962Y-113790151D01*
X90148368Y-113799330D01*
X90166781Y-113810366D01*
X90184024Y-113823154D01*
X90199930Y-113837570D01*
X90214346Y-113853476D01*
X90227134Y-113870719D01*
X90238170Y-113889132D01*
X90247349Y-113908538D01*
X90254581Y-113928750D01*
X90259797Y-113949574D01*
X90262947Y-113970809D01*
X90264000Y-113992250D01*
X90264000Y-114429750D01*
X90262947Y-114451191D01*
X90259797Y-114472426D01*
X90254581Y-114493250D01*
X90247349Y-114513462D01*
X90238170Y-114532868D01*
X90227134Y-114551281D01*
X90214346Y-114568524D01*
X90199930Y-114584430D01*
X90184024Y-114598846D01*
X90166781Y-114611634D01*
X90148368Y-114622670D01*
X90128962Y-114631849D01*
X90108750Y-114639081D01*
X90087926Y-114644297D01*
X90066691Y-114647447D01*
X90045250Y-114648500D01*
X89532750Y-114648500D01*
X89511309Y-114647447D01*
X89490074Y-114644297D01*
X89469250Y-114639081D01*
X89449038Y-114631849D01*
X89429632Y-114622670D01*
X89411219Y-114611634D01*
X89393976Y-114598846D01*
X89378070Y-114584430D01*
X89363654Y-114568524D01*
X89350866Y-114551281D01*
X89339830Y-114532868D01*
X89330651Y-114513462D01*
X89323419Y-114493250D01*
X89318203Y-114472426D01*
X89315053Y-114451191D01*
X89314000Y-114429750D01*
X89314000Y-113992250D01*
X89315053Y-113970809D01*
X89318203Y-113949574D01*
X89323419Y-113928750D01*
X89330651Y-113908538D01*
X89339830Y-113889132D01*
X89350866Y-113870719D01*
X89363654Y-113853476D01*
X89378070Y-113837570D01*
X89393976Y-113823154D01*
X89411219Y-113810366D01*
X89429632Y-113799330D01*
X89449038Y-113790151D01*
X89469250Y-113782919D01*
X89490074Y-113777703D01*
X89511309Y-113774553D01*
X89532750Y-113773500D01*
X90045250Y-113773500D01*
X90066691Y-113774553D01*
X90066691Y-113774553D01*
G37*
D11*
X89789000Y-114211000D03*
G04 #@! TD*
D10*
G04 #@! TO.C,R4*
G36*
X67766191Y-110714553D02*
X67787426Y-110717703D01*
X67808250Y-110722919D01*
X67828462Y-110730151D01*
X67847868Y-110739330D01*
X67866281Y-110750366D01*
X67883524Y-110763154D01*
X67899430Y-110777570D01*
X67913846Y-110793476D01*
X67926634Y-110810719D01*
X67937670Y-110829132D01*
X67946849Y-110848538D01*
X67954081Y-110868750D01*
X67959297Y-110889574D01*
X67962447Y-110910809D01*
X67963500Y-110932250D01*
X67963500Y-111444750D01*
X67962447Y-111466191D01*
X67959297Y-111487426D01*
X67954081Y-111508250D01*
X67946849Y-111528462D01*
X67937670Y-111547868D01*
X67926634Y-111566281D01*
X67913846Y-111583524D01*
X67899430Y-111599430D01*
X67883524Y-111613846D01*
X67866281Y-111626634D01*
X67847868Y-111637670D01*
X67828462Y-111646849D01*
X67808250Y-111654081D01*
X67787426Y-111659297D01*
X67766191Y-111662447D01*
X67744750Y-111663500D01*
X67307250Y-111663500D01*
X67285809Y-111662447D01*
X67264574Y-111659297D01*
X67243750Y-111654081D01*
X67223538Y-111646849D01*
X67204132Y-111637670D01*
X67185719Y-111626634D01*
X67168476Y-111613846D01*
X67152570Y-111599430D01*
X67138154Y-111583524D01*
X67125366Y-111566281D01*
X67114330Y-111547868D01*
X67105151Y-111528462D01*
X67097919Y-111508250D01*
X67092703Y-111487426D01*
X67089553Y-111466191D01*
X67088500Y-111444750D01*
X67088500Y-110932250D01*
X67089553Y-110910809D01*
X67092703Y-110889574D01*
X67097919Y-110868750D01*
X67105151Y-110848538D01*
X67114330Y-110829132D01*
X67125366Y-110810719D01*
X67138154Y-110793476D01*
X67152570Y-110777570D01*
X67168476Y-110763154D01*
X67185719Y-110750366D01*
X67204132Y-110739330D01*
X67223538Y-110730151D01*
X67243750Y-110722919D01*
X67264574Y-110717703D01*
X67285809Y-110714553D01*
X67307250Y-110713500D01*
X67744750Y-110713500D01*
X67766191Y-110714553D01*
X67766191Y-110714553D01*
G37*
D11*
X67526000Y-111188500D03*
D10*
G36*
X66191191Y-110714553D02*
X66212426Y-110717703D01*
X66233250Y-110722919D01*
X66253462Y-110730151D01*
X66272868Y-110739330D01*
X66291281Y-110750366D01*
X66308524Y-110763154D01*
X66324430Y-110777570D01*
X66338846Y-110793476D01*
X66351634Y-110810719D01*
X66362670Y-110829132D01*
X66371849Y-110848538D01*
X66379081Y-110868750D01*
X66384297Y-110889574D01*
X66387447Y-110910809D01*
X66388500Y-110932250D01*
X66388500Y-111444750D01*
X66387447Y-111466191D01*
X66384297Y-111487426D01*
X66379081Y-111508250D01*
X66371849Y-111528462D01*
X66362670Y-111547868D01*
X66351634Y-111566281D01*
X66338846Y-111583524D01*
X66324430Y-111599430D01*
X66308524Y-111613846D01*
X66291281Y-111626634D01*
X66272868Y-111637670D01*
X66253462Y-111646849D01*
X66233250Y-111654081D01*
X66212426Y-111659297D01*
X66191191Y-111662447D01*
X66169750Y-111663500D01*
X65732250Y-111663500D01*
X65710809Y-111662447D01*
X65689574Y-111659297D01*
X65668750Y-111654081D01*
X65648538Y-111646849D01*
X65629132Y-111637670D01*
X65610719Y-111626634D01*
X65593476Y-111613846D01*
X65577570Y-111599430D01*
X65563154Y-111583524D01*
X65550366Y-111566281D01*
X65539330Y-111547868D01*
X65530151Y-111528462D01*
X65522919Y-111508250D01*
X65517703Y-111487426D01*
X65514553Y-111466191D01*
X65513500Y-111444750D01*
X65513500Y-110932250D01*
X65514553Y-110910809D01*
X65517703Y-110889574D01*
X65522919Y-110868750D01*
X65530151Y-110848538D01*
X65539330Y-110829132D01*
X65550366Y-110810719D01*
X65563154Y-110793476D01*
X65577570Y-110777570D01*
X65593476Y-110763154D01*
X65610719Y-110750366D01*
X65629132Y-110739330D01*
X65648538Y-110730151D01*
X65668750Y-110722919D01*
X65689574Y-110717703D01*
X65710809Y-110714553D01*
X65732250Y-110713500D01*
X66169750Y-110713500D01*
X66191191Y-110714553D01*
X66191191Y-110714553D01*
G37*
D11*
X65951000Y-111188500D03*
G04 #@! TD*
D10*
G04 #@! TO.C,R5*
G36*
X75779191Y-112301553D02*
X75800426Y-112304703D01*
X75821250Y-112309919D01*
X75841462Y-112317151D01*
X75860868Y-112326330D01*
X75879281Y-112337366D01*
X75896524Y-112350154D01*
X75912430Y-112364570D01*
X75926846Y-112380476D01*
X75939634Y-112397719D01*
X75950670Y-112416132D01*
X75959849Y-112435538D01*
X75967081Y-112455750D01*
X75972297Y-112476574D01*
X75975447Y-112497809D01*
X75976500Y-112519250D01*
X75976500Y-112956750D01*
X75975447Y-112978191D01*
X75972297Y-112999426D01*
X75967081Y-113020250D01*
X75959849Y-113040462D01*
X75950670Y-113059868D01*
X75939634Y-113078281D01*
X75926846Y-113095524D01*
X75912430Y-113111430D01*
X75896524Y-113125846D01*
X75879281Y-113138634D01*
X75860868Y-113149670D01*
X75841462Y-113158849D01*
X75821250Y-113166081D01*
X75800426Y-113171297D01*
X75779191Y-113174447D01*
X75757750Y-113175500D01*
X75245250Y-113175500D01*
X75223809Y-113174447D01*
X75202574Y-113171297D01*
X75181750Y-113166081D01*
X75161538Y-113158849D01*
X75142132Y-113149670D01*
X75123719Y-113138634D01*
X75106476Y-113125846D01*
X75090570Y-113111430D01*
X75076154Y-113095524D01*
X75063366Y-113078281D01*
X75052330Y-113059868D01*
X75043151Y-113040462D01*
X75035919Y-113020250D01*
X75030703Y-112999426D01*
X75027553Y-112978191D01*
X75026500Y-112956750D01*
X75026500Y-112519250D01*
X75027553Y-112497809D01*
X75030703Y-112476574D01*
X75035919Y-112455750D01*
X75043151Y-112435538D01*
X75052330Y-112416132D01*
X75063366Y-112397719D01*
X75076154Y-112380476D01*
X75090570Y-112364570D01*
X75106476Y-112350154D01*
X75123719Y-112337366D01*
X75142132Y-112326330D01*
X75161538Y-112317151D01*
X75181750Y-112309919D01*
X75202574Y-112304703D01*
X75223809Y-112301553D01*
X75245250Y-112300500D01*
X75757750Y-112300500D01*
X75779191Y-112301553D01*
X75779191Y-112301553D01*
G37*
D11*
X75501500Y-112738000D03*
D10*
G36*
X75779191Y-110726553D02*
X75800426Y-110729703D01*
X75821250Y-110734919D01*
X75841462Y-110742151D01*
X75860868Y-110751330D01*
X75879281Y-110762366D01*
X75896524Y-110775154D01*
X75912430Y-110789570D01*
X75926846Y-110805476D01*
X75939634Y-110822719D01*
X75950670Y-110841132D01*
X75959849Y-110860538D01*
X75967081Y-110880750D01*
X75972297Y-110901574D01*
X75975447Y-110922809D01*
X75976500Y-110944250D01*
X75976500Y-111381750D01*
X75975447Y-111403191D01*
X75972297Y-111424426D01*
X75967081Y-111445250D01*
X75959849Y-111465462D01*
X75950670Y-111484868D01*
X75939634Y-111503281D01*
X75926846Y-111520524D01*
X75912430Y-111536430D01*
X75896524Y-111550846D01*
X75879281Y-111563634D01*
X75860868Y-111574670D01*
X75841462Y-111583849D01*
X75821250Y-111591081D01*
X75800426Y-111596297D01*
X75779191Y-111599447D01*
X75757750Y-111600500D01*
X75245250Y-111600500D01*
X75223809Y-111599447D01*
X75202574Y-111596297D01*
X75181750Y-111591081D01*
X75161538Y-111583849D01*
X75142132Y-111574670D01*
X75123719Y-111563634D01*
X75106476Y-111550846D01*
X75090570Y-111536430D01*
X75076154Y-111520524D01*
X75063366Y-111503281D01*
X75052330Y-111484868D01*
X75043151Y-111465462D01*
X75035919Y-111445250D01*
X75030703Y-111424426D01*
X75027553Y-111403191D01*
X75026500Y-111381750D01*
X75026500Y-110944250D01*
X75027553Y-110922809D01*
X75030703Y-110901574D01*
X75035919Y-110880750D01*
X75043151Y-110860538D01*
X75052330Y-110841132D01*
X75063366Y-110822719D01*
X75076154Y-110805476D01*
X75090570Y-110789570D01*
X75106476Y-110775154D01*
X75123719Y-110762366D01*
X75142132Y-110751330D01*
X75161538Y-110742151D01*
X75181750Y-110734919D01*
X75202574Y-110729703D01*
X75223809Y-110726553D01*
X75245250Y-110725500D01*
X75757750Y-110725500D01*
X75779191Y-110726553D01*
X75779191Y-110726553D01*
G37*
D11*
X75501500Y-111163000D03*
G04 #@! TD*
D10*
G04 #@! TO.C,R6*
G36*
X79208191Y-110688554D02*
X79229426Y-110691704D01*
X79250250Y-110696920D01*
X79270462Y-110704152D01*
X79289868Y-110713331D01*
X79308281Y-110724367D01*
X79325524Y-110737155D01*
X79341430Y-110751571D01*
X79355846Y-110767477D01*
X79368634Y-110784720D01*
X79379670Y-110803133D01*
X79388849Y-110822539D01*
X79396081Y-110842751D01*
X79401297Y-110863575D01*
X79404447Y-110884810D01*
X79405500Y-110906251D01*
X79405500Y-111343751D01*
X79404447Y-111365192D01*
X79401297Y-111386427D01*
X79396081Y-111407251D01*
X79388849Y-111427463D01*
X79379670Y-111446869D01*
X79368634Y-111465282D01*
X79355846Y-111482525D01*
X79341430Y-111498431D01*
X79325524Y-111512847D01*
X79308281Y-111525635D01*
X79289868Y-111536671D01*
X79270462Y-111545850D01*
X79250250Y-111553082D01*
X79229426Y-111558298D01*
X79208191Y-111561448D01*
X79186750Y-111562501D01*
X78674250Y-111562501D01*
X78652809Y-111561448D01*
X78631574Y-111558298D01*
X78610750Y-111553082D01*
X78590538Y-111545850D01*
X78571132Y-111536671D01*
X78552719Y-111525635D01*
X78535476Y-111512847D01*
X78519570Y-111498431D01*
X78505154Y-111482525D01*
X78492366Y-111465282D01*
X78481330Y-111446869D01*
X78472151Y-111427463D01*
X78464919Y-111407251D01*
X78459703Y-111386427D01*
X78456553Y-111365192D01*
X78455500Y-111343751D01*
X78455500Y-110906251D01*
X78456553Y-110884810D01*
X78459703Y-110863575D01*
X78464919Y-110842751D01*
X78472151Y-110822539D01*
X78481330Y-110803133D01*
X78492366Y-110784720D01*
X78505154Y-110767477D01*
X78519570Y-110751571D01*
X78535476Y-110737155D01*
X78552719Y-110724367D01*
X78571132Y-110713331D01*
X78590538Y-110704152D01*
X78610750Y-110696920D01*
X78631574Y-110691704D01*
X78652809Y-110688554D01*
X78674250Y-110687501D01*
X79186750Y-110687501D01*
X79208191Y-110688554D01*
X79208191Y-110688554D01*
G37*
D11*
X78930500Y-111125001D03*
D10*
G36*
X79208191Y-112263554D02*
X79229426Y-112266704D01*
X79250250Y-112271920D01*
X79270462Y-112279152D01*
X79289868Y-112288331D01*
X79308281Y-112299367D01*
X79325524Y-112312155D01*
X79341430Y-112326571D01*
X79355846Y-112342477D01*
X79368634Y-112359720D01*
X79379670Y-112378133D01*
X79388849Y-112397539D01*
X79396081Y-112417751D01*
X79401297Y-112438575D01*
X79404447Y-112459810D01*
X79405500Y-112481251D01*
X79405500Y-112918751D01*
X79404447Y-112940192D01*
X79401297Y-112961427D01*
X79396081Y-112982251D01*
X79388849Y-113002463D01*
X79379670Y-113021869D01*
X79368634Y-113040282D01*
X79355846Y-113057525D01*
X79341430Y-113073431D01*
X79325524Y-113087847D01*
X79308281Y-113100635D01*
X79289868Y-113111671D01*
X79270462Y-113120850D01*
X79250250Y-113128082D01*
X79229426Y-113133298D01*
X79208191Y-113136448D01*
X79186750Y-113137501D01*
X78674250Y-113137501D01*
X78652809Y-113136448D01*
X78631574Y-113133298D01*
X78610750Y-113128082D01*
X78590538Y-113120850D01*
X78571132Y-113111671D01*
X78552719Y-113100635D01*
X78535476Y-113087847D01*
X78519570Y-113073431D01*
X78505154Y-113057525D01*
X78492366Y-113040282D01*
X78481330Y-113021869D01*
X78472151Y-113002463D01*
X78464919Y-112982251D01*
X78459703Y-112961427D01*
X78456553Y-112940192D01*
X78455500Y-112918751D01*
X78455500Y-112481251D01*
X78456553Y-112459810D01*
X78459703Y-112438575D01*
X78464919Y-112417751D01*
X78472151Y-112397539D01*
X78481330Y-112378133D01*
X78492366Y-112359720D01*
X78505154Y-112342477D01*
X78519570Y-112326571D01*
X78535476Y-112312155D01*
X78552719Y-112299367D01*
X78571132Y-112288331D01*
X78590538Y-112279152D01*
X78610750Y-112271920D01*
X78631574Y-112266704D01*
X78652809Y-112263554D01*
X78674250Y-112262501D01*
X79186750Y-112262501D01*
X79208191Y-112263554D01*
X79208191Y-112263554D01*
G37*
D11*
X78930500Y-112700001D03*
G04 #@! TD*
D10*
G04 #@! TO.C,R15*
G36*
X94130691Y-113838053D02*
X94151926Y-113841203D01*
X94172750Y-113846419D01*
X94192962Y-113853651D01*
X94212368Y-113862830D01*
X94230781Y-113873866D01*
X94248024Y-113886654D01*
X94263930Y-113901070D01*
X94278346Y-113916976D01*
X94291134Y-113934219D01*
X94302170Y-113952632D01*
X94311349Y-113972038D01*
X94318581Y-113992250D01*
X94323797Y-114013074D01*
X94326947Y-114034309D01*
X94328000Y-114055750D01*
X94328000Y-114493250D01*
X94326947Y-114514691D01*
X94323797Y-114535926D01*
X94318581Y-114556750D01*
X94311349Y-114576962D01*
X94302170Y-114596368D01*
X94291134Y-114614781D01*
X94278346Y-114632024D01*
X94263930Y-114647930D01*
X94248024Y-114662346D01*
X94230781Y-114675134D01*
X94212368Y-114686170D01*
X94192962Y-114695349D01*
X94172750Y-114702581D01*
X94151926Y-114707797D01*
X94130691Y-114710947D01*
X94109250Y-114712000D01*
X93596750Y-114712000D01*
X93575309Y-114710947D01*
X93554074Y-114707797D01*
X93533250Y-114702581D01*
X93513038Y-114695349D01*
X93493632Y-114686170D01*
X93475219Y-114675134D01*
X93457976Y-114662346D01*
X93442070Y-114647930D01*
X93427654Y-114632024D01*
X93414866Y-114614781D01*
X93403830Y-114596368D01*
X93394651Y-114576962D01*
X93387419Y-114556750D01*
X93382203Y-114535926D01*
X93379053Y-114514691D01*
X93378000Y-114493250D01*
X93378000Y-114055750D01*
X93379053Y-114034309D01*
X93382203Y-114013074D01*
X93387419Y-113992250D01*
X93394651Y-113972038D01*
X93403830Y-113952632D01*
X93414866Y-113934219D01*
X93427654Y-113916976D01*
X93442070Y-113901070D01*
X93457976Y-113886654D01*
X93475219Y-113873866D01*
X93493632Y-113862830D01*
X93513038Y-113853651D01*
X93533250Y-113846419D01*
X93554074Y-113841203D01*
X93575309Y-113838053D01*
X93596750Y-113837000D01*
X94109250Y-113837000D01*
X94130691Y-113838053D01*
X94130691Y-113838053D01*
G37*
D11*
X93853000Y-114274500D03*
D10*
G36*
X94130691Y-115413053D02*
X94151926Y-115416203D01*
X94172750Y-115421419D01*
X94192962Y-115428651D01*
X94212368Y-115437830D01*
X94230781Y-115448866D01*
X94248024Y-115461654D01*
X94263930Y-115476070D01*
X94278346Y-115491976D01*
X94291134Y-115509219D01*
X94302170Y-115527632D01*
X94311349Y-115547038D01*
X94318581Y-115567250D01*
X94323797Y-115588074D01*
X94326947Y-115609309D01*
X94328000Y-115630750D01*
X94328000Y-116068250D01*
X94326947Y-116089691D01*
X94323797Y-116110926D01*
X94318581Y-116131750D01*
X94311349Y-116151962D01*
X94302170Y-116171368D01*
X94291134Y-116189781D01*
X94278346Y-116207024D01*
X94263930Y-116222930D01*
X94248024Y-116237346D01*
X94230781Y-116250134D01*
X94212368Y-116261170D01*
X94192962Y-116270349D01*
X94172750Y-116277581D01*
X94151926Y-116282797D01*
X94130691Y-116285947D01*
X94109250Y-116287000D01*
X93596750Y-116287000D01*
X93575309Y-116285947D01*
X93554074Y-116282797D01*
X93533250Y-116277581D01*
X93513038Y-116270349D01*
X93493632Y-116261170D01*
X93475219Y-116250134D01*
X93457976Y-116237346D01*
X93442070Y-116222930D01*
X93427654Y-116207024D01*
X93414866Y-116189781D01*
X93403830Y-116171368D01*
X93394651Y-116151962D01*
X93387419Y-116131750D01*
X93382203Y-116110926D01*
X93379053Y-116089691D01*
X93378000Y-116068250D01*
X93378000Y-115630750D01*
X93379053Y-115609309D01*
X93382203Y-115588074D01*
X93387419Y-115567250D01*
X93394651Y-115547038D01*
X93403830Y-115527632D01*
X93414866Y-115509219D01*
X93427654Y-115491976D01*
X93442070Y-115476070D01*
X93457976Y-115461654D01*
X93475219Y-115448866D01*
X93493632Y-115437830D01*
X93513038Y-115428651D01*
X93533250Y-115421419D01*
X93554074Y-115416203D01*
X93575309Y-115413053D01*
X93596750Y-115412000D01*
X94109250Y-115412000D01*
X94130691Y-115413053D01*
X94130691Y-115413053D01*
G37*
D11*
X93853000Y-115849500D03*
G04 #@! TD*
D10*
G04 #@! TO.C,R8*
G36*
X61999691Y-96248553D02*
X62020926Y-96251703D01*
X62041750Y-96256919D01*
X62061962Y-96264151D01*
X62081368Y-96273330D01*
X62099781Y-96284366D01*
X62117024Y-96297154D01*
X62132930Y-96311570D01*
X62147346Y-96327476D01*
X62160134Y-96344719D01*
X62171170Y-96363132D01*
X62180349Y-96382538D01*
X62187581Y-96402750D01*
X62192797Y-96423574D01*
X62195947Y-96444809D01*
X62197000Y-96466250D01*
X62197000Y-96903750D01*
X62195947Y-96925191D01*
X62192797Y-96946426D01*
X62187581Y-96967250D01*
X62180349Y-96987462D01*
X62171170Y-97006868D01*
X62160134Y-97025281D01*
X62147346Y-97042524D01*
X62132930Y-97058430D01*
X62117024Y-97072846D01*
X62099781Y-97085634D01*
X62081368Y-97096670D01*
X62061962Y-97105849D01*
X62041750Y-97113081D01*
X62020926Y-97118297D01*
X61999691Y-97121447D01*
X61978250Y-97122500D01*
X61465750Y-97122500D01*
X61444309Y-97121447D01*
X61423074Y-97118297D01*
X61402250Y-97113081D01*
X61382038Y-97105849D01*
X61362632Y-97096670D01*
X61344219Y-97085634D01*
X61326976Y-97072846D01*
X61311070Y-97058430D01*
X61296654Y-97042524D01*
X61283866Y-97025281D01*
X61272830Y-97006868D01*
X61263651Y-96987462D01*
X61256419Y-96967250D01*
X61251203Y-96946426D01*
X61248053Y-96925191D01*
X61247000Y-96903750D01*
X61247000Y-96466250D01*
X61248053Y-96444809D01*
X61251203Y-96423574D01*
X61256419Y-96402750D01*
X61263651Y-96382538D01*
X61272830Y-96363132D01*
X61283866Y-96344719D01*
X61296654Y-96327476D01*
X61311070Y-96311570D01*
X61326976Y-96297154D01*
X61344219Y-96284366D01*
X61362632Y-96273330D01*
X61382038Y-96264151D01*
X61402250Y-96256919D01*
X61423074Y-96251703D01*
X61444309Y-96248553D01*
X61465750Y-96247500D01*
X61978250Y-96247500D01*
X61999691Y-96248553D01*
X61999691Y-96248553D01*
G37*
D11*
X61722000Y-96685000D03*
D10*
G36*
X61999691Y-97823553D02*
X62020926Y-97826703D01*
X62041750Y-97831919D01*
X62061962Y-97839151D01*
X62081368Y-97848330D01*
X62099781Y-97859366D01*
X62117024Y-97872154D01*
X62132930Y-97886570D01*
X62147346Y-97902476D01*
X62160134Y-97919719D01*
X62171170Y-97938132D01*
X62180349Y-97957538D01*
X62187581Y-97977750D01*
X62192797Y-97998574D01*
X62195947Y-98019809D01*
X62197000Y-98041250D01*
X62197000Y-98478750D01*
X62195947Y-98500191D01*
X62192797Y-98521426D01*
X62187581Y-98542250D01*
X62180349Y-98562462D01*
X62171170Y-98581868D01*
X62160134Y-98600281D01*
X62147346Y-98617524D01*
X62132930Y-98633430D01*
X62117024Y-98647846D01*
X62099781Y-98660634D01*
X62081368Y-98671670D01*
X62061962Y-98680849D01*
X62041750Y-98688081D01*
X62020926Y-98693297D01*
X61999691Y-98696447D01*
X61978250Y-98697500D01*
X61465750Y-98697500D01*
X61444309Y-98696447D01*
X61423074Y-98693297D01*
X61402250Y-98688081D01*
X61382038Y-98680849D01*
X61362632Y-98671670D01*
X61344219Y-98660634D01*
X61326976Y-98647846D01*
X61311070Y-98633430D01*
X61296654Y-98617524D01*
X61283866Y-98600281D01*
X61272830Y-98581868D01*
X61263651Y-98562462D01*
X61256419Y-98542250D01*
X61251203Y-98521426D01*
X61248053Y-98500191D01*
X61247000Y-98478750D01*
X61247000Y-98041250D01*
X61248053Y-98019809D01*
X61251203Y-97998574D01*
X61256419Y-97977750D01*
X61263651Y-97957538D01*
X61272830Y-97938132D01*
X61283866Y-97919719D01*
X61296654Y-97902476D01*
X61311070Y-97886570D01*
X61326976Y-97872154D01*
X61344219Y-97859366D01*
X61362632Y-97848330D01*
X61382038Y-97839151D01*
X61402250Y-97831919D01*
X61423074Y-97826703D01*
X61444309Y-97823553D01*
X61465750Y-97822500D01*
X61978250Y-97822500D01*
X61999691Y-97823553D01*
X61999691Y-97823553D01*
G37*
D11*
X61722000Y-98260000D03*
G04 #@! TD*
D10*
G04 #@! TO.C,R10*
G36*
X72286691Y-97823553D02*
X72307926Y-97826703D01*
X72328750Y-97831919D01*
X72348962Y-97839151D01*
X72368368Y-97848330D01*
X72386781Y-97859366D01*
X72404024Y-97872154D01*
X72419930Y-97886570D01*
X72434346Y-97902476D01*
X72447134Y-97919719D01*
X72458170Y-97938132D01*
X72467349Y-97957538D01*
X72474581Y-97977750D01*
X72479797Y-97998574D01*
X72482947Y-98019809D01*
X72484000Y-98041250D01*
X72484000Y-98478750D01*
X72482947Y-98500191D01*
X72479797Y-98521426D01*
X72474581Y-98542250D01*
X72467349Y-98562462D01*
X72458170Y-98581868D01*
X72447134Y-98600281D01*
X72434346Y-98617524D01*
X72419930Y-98633430D01*
X72404024Y-98647846D01*
X72386781Y-98660634D01*
X72368368Y-98671670D01*
X72348962Y-98680849D01*
X72328750Y-98688081D01*
X72307926Y-98693297D01*
X72286691Y-98696447D01*
X72265250Y-98697500D01*
X71752750Y-98697500D01*
X71731309Y-98696447D01*
X71710074Y-98693297D01*
X71689250Y-98688081D01*
X71669038Y-98680849D01*
X71649632Y-98671670D01*
X71631219Y-98660634D01*
X71613976Y-98647846D01*
X71598070Y-98633430D01*
X71583654Y-98617524D01*
X71570866Y-98600281D01*
X71559830Y-98581868D01*
X71550651Y-98562462D01*
X71543419Y-98542250D01*
X71538203Y-98521426D01*
X71535053Y-98500191D01*
X71534000Y-98478750D01*
X71534000Y-98041250D01*
X71535053Y-98019809D01*
X71538203Y-97998574D01*
X71543419Y-97977750D01*
X71550651Y-97957538D01*
X71559830Y-97938132D01*
X71570866Y-97919719D01*
X71583654Y-97902476D01*
X71598070Y-97886570D01*
X71613976Y-97872154D01*
X71631219Y-97859366D01*
X71649632Y-97848330D01*
X71669038Y-97839151D01*
X71689250Y-97831919D01*
X71710074Y-97826703D01*
X71731309Y-97823553D01*
X71752750Y-97822500D01*
X72265250Y-97822500D01*
X72286691Y-97823553D01*
X72286691Y-97823553D01*
G37*
D11*
X72009000Y-98260000D03*
D10*
G36*
X72286691Y-96248553D02*
X72307926Y-96251703D01*
X72328750Y-96256919D01*
X72348962Y-96264151D01*
X72368368Y-96273330D01*
X72386781Y-96284366D01*
X72404024Y-96297154D01*
X72419930Y-96311570D01*
X72434346Y-96327476D01*
X72447134Y-96344719D01*
X72458170Y-96363132D01*
X72467349Y-96382538D01*
X72474581Y-96402750D01*
X72479797Y-96423574D01*
X72482947Y-96444809D01*
X72484000Y-96466250D01*
X72484000Y-96903750D01*
X72482947Y-96925191D01*
X72479797Y-96946426D01*
X72474581Y-96967250D01*
X72467349Y-96987462D01*
X72458170Y-97006868D01*
X72447134Y-97025281D01*
X72434346Y-97042524D01*
X72419930Y-97058430D01*
X72404024Y-97072846D01*
X72386781Y-97085634D01*
X72368368Y-97096670D01*
X72348962Y-97105849D01*
X72328750Y-97113081D01*
X72307926Y-97118297D01*
X72286691Y-97121447D01*
X72265250Y-97122500D01*
X71752750Y-97122500D01*
X71731309Y-97121447D01*
X71710074Y-97118297D01*
X71689250Y-97113081D01*
X71669038Y-97105849D01*
X71649632Y-97096670D01*
X71631219Y-97085634D01*
X71613976Y-97072846D01*
X71598070Y-97058430D01*
X71583654Y-97042524D01*
X71570866Y-97025281D01*
X71559830Y-97006868D01*
X71550651Y-96987462D01*
X71543419Y-96967250D01*
X71538203Y-96946426D01*
X71535053Y-96925191D01*
X71534000Y-96903750D01*
X71534000Y-96466250D01*
X71535053Y-96444809D01*
X71538203Y-96423574D01*
X71543419Y-96402750D01*
X71550651Y-96382538D01*
X71559830Y-96363132D01*
X71570866Y-96344719D01*
X71583654Y-96327476D01*
X71598070Y-96311570D01*
X71613976Y-96297154D01*
X71631219Y-96284366D01*
X71649632Y-96273330D01*
X71669038Y-96264151D01*
X71689250Y-96256919D01*
X71710074Y-96251703D01*
X71731309Y-96248553D01*
X71752750Y-96247500D01*
X72265250Y-96247500D01*
X72286691Y-96248553D01*
X72286691Y-96248553D01*
G37*
D11*
X72009000Y-96685000D03*
G04 #@! TD*
D10*
G04 #@! TO.C,R11*
G36*
X63587191Y-71026553D02*
X63608426Y-71029703D01*
X63629250Y-71034919D01*
X63649462Y-71042151D01*
X63668868Y-71051330D01*
X63687281Y-71062366D01*
X63704524Y-71075154D01*
X63720430Y-71089570D01*
X63734846Y-71105476D01*
X63747634Y-71122719D01*
X63758670Y-71141132D01*
X63767849Y-71160538D01*
X63775081Y-71180750D01*
X63780297Y-71201574D01*
X63783447Y-71222809D01*
X63784500Y-71244250D01*
X63784500Y-71681750D01*
X63783447Y-71703191D01*
X63780297Y-71724426D01*
X63775081Y-71745250D01*
X63767849Y-71765462D01*
X63758670Y-71784868D01*
X63747634Y-71803281D01*
X63734846Y-71820524D01*
X63720430Y-71836430D01*
X63704524Y-71850846D01*
X63687281Y-71863634D01*
X63668868Y-71874670D01*
X63649462Y-71883849D01*
X63629250Y-71891081D01*
X63608426Y-71896297D01*
X63587191Y-71899447D01*
X63565750Y-71900500D01*
X63053250Y-71900500D01*
X63031809Y-71899447D01*
X63010574Y-71896297D01*
X62989750Y-71891081D01*
X62969538Y-71883849D01*
X62950132Y-71874670D01*
X62931719Y-71863634D01*
X62914476Y-71850846D01*
X62898570Y-71836430D01*
X62884154Y-71820524D01*
X62871366Y-71803281D01*
X62860330Y-71784868D01*
X62851151Y-71765462D01*
X62843919Y-71745250D01*
X62838703Y-71724426D01*
X62835553Y-71703191D01*
X62834500Y-71681750D01*
X62834500Y-71244250D01*
X62835553Y-71222809D01*
X62838703Y-71201574D01*
X62843919Y-71180750D01*
X62851151Y-71160538D01*
X62860330Y-71141132D01*
X62871366Y-71122719D01*
X62884154Y-71105476D01*
X62898570Y-71089570D01*
X62914476Y-71075154D01*
X62931719Y-71062366D01*
X62950132Y-71051330D01*
X62969538Y-71042151D01*
X62989750Y-71034919D01*
X63010574Y-71029703D01*
X63031809Y-71026553D01*
X63053250Y-71025500D01*
X63565750Y-71025500D01*
X63587191Y-71026553D01*
X63587191Y-71026553D01*
G37*
D11*
X63309500Y-71463000D03*
D10*
G36*
X63587191Y-69451553D02*
X63608426Y-69454703D01*
X63629250Y-69459919D01*
X63649462Y-69467151D01*
X63668868Y-69476330D01*
X63687281Y-69487366D01*
X63704524Y-69500154D01*
X63720430Y-69514570D01*
X63734846Y-69530476D01*
X63747634Y-69547719D01*
X63758670Y-69566132D01*
X63767849Y-69585538D01*
X63775081Y-69605750D01*
X63780297Y-69626574D01*
X63783447Y-69647809D01*
X63784500Y-69669250D01*
X63784500Y-70106750D01*
X63783447Y-70128191D01*
X63780297Y-70149426D01*
X63775081Y-70170250D01*
X63767849Y-70190462D01*
X63758670Y-70209868D01*
X63747634Y-70228281D01*
X63734846Y-70245524D01*
X63720430Y-70261430D01*
X63704524Y-70275846D01*
X63687281Y-70288634D01*
X63668868Y-70299670D01*
X63649462Y-70308849D01*
X63629250Y-70316081D01*
X63608426Y-70321297D01*
X63587191Y-70324447D01*
X63565750Y-70325500D01*
X63053250Y-70325500D01*
X63031809Y-70324447D01*
X63010574Y-70321297D01*
X62989750Y-70316081D01*
X62969538Y-70308849D01*
X62950132Y-70299670D01*
X62931719Y-70288634D01*
X62914476Y-70275846D01*
X62898570Y-70261430D01*
X62884154Y-70245524D01*
X62871366Y-70228281D01*
X62860330Y-70209868D01*
X62851151Y-70190462D01*
X62843919Y-70170250D01*
X62838703Y-70149426D01*
X62835553Y-70128191D01*
X62834500Y-70106750D01*
X62834500Y-69669250D01*
X62835553Y-69647809D01*
X62838703Y-69626574D01*
X62843919Y-69605750D01*
X62851151Y-69585538D01*
X62860330Y-69566132D01*
X62871366Y-69547719D01*
X62884154Y-69530476D01*
X62898570Y-69514570D01*
X62914476Y-69500154D01*
X62931719Y-69487366D01*
X62950132Y-69476330D01*
X62969538Y-69467151D01*
X62989750Y-69459919D01*
X63010574Y-69454703D01*
X63031809Y-69451553D01*
X63053250Y-69450500D01*
X63565750Y-69450500D01*
X63587191Y-69451553D01*
X63587191Y-69451553D01*
G37*
D11*
X63309500Y-69888000D03*
G04 #@! TD*
D10*
G04 #@! TO.C,R12*
G36*
X100798191Y-68562553D02*
X100819426Y-68565703D01*
X100840250Y-68570919D01*
X100860462Y-68578151D01*
X100879868Y-68587330D01*
X100898281Y-68598366D01*
X100915524Y-68611154D01*
X100931430Y-68625570D01*
X100945846Y-68641476D01*
X100958634Y-68658719D01*
X100969670Y-68677132D01*
X100978849Y-68696538D01*
X100986081Y-68716750D01*
X100991297Y-68737574D01*
X100994447Y-68758809D01*
X100995500Y-68780250D01*
X100995500Y-69217750D01*
X100994447Y-69239191D01*
X100991297Y-69260426D01*
X100986081Y-69281250D01*
X100978849Y-69301462D01*
X100969670Y-69320868D01*
X100958634Y-69339281D01*
X100945846Y-69356524D01*
X100931430Y-69372430D01*
X100915524Y-69386846D01*
X100898281Y-69399634D01*
X100879868Y-69410670D01*
X100860462Y-69419849D01*
X100840250Y-69427081D01*
X100819426Y-69432297D01*
X100798191Y-69435447D01*
X100776750Y-69436500D01*
X100264250Y-69436500D01*
X100242809Y-69435447D01*
X100221574Y-69432297D01*
X100200750Y-69427081D01*
X100180538Y-69419849D01*
X100161132Y-69410670D01*
X100142719Y-69399634D01*
X100125476Y-69386846D01*
X100109570Y-69372430D01*
X100095154Y-69356524D01*
X100082366Y-69339281D01*
X100071330Y-69320868D01*
X100062151Y-69301462D01*
X100054919Y-69281250D01*
X100049703Y-69260426D01*
X100046553Y-69239191D01*
X100045500Y-69217750D01*
X100045500Y-68780250D01*
X100046553Y-68758809D01*
X100049703Y-68737574D01*
X100054919Y-68716750D01*
X100062151Y-68696538D01*
X100071330Y-68677132D01*
X100082366Y-68658719D01*
X100095154Y-68641476D01*
X100109570Y-68625570D01*
X100125476Y-68611154D01*
X100142719Y-68598366D01*
X100161132Y-68587330D01*
X100180538Y-68578151D01*
X100200750Y-68570919D01*
X100221574Y-68565703D01*
X100242809Y-68562553D01*
X100264250Y-68561500D01*
X100776750Y-68561500D01*
X100798191Y-68562553D01*
X100798191Y-68562553D01*
G37*
D11*
X100520500Y-68999000D03*
D10*
G36*
X100798191Y-70137553D02*
X100819426Y-70140703D01*
X100840250Y-70145919D01*
X100860462Y-70153151D01*
X100879868Y-70162330D01*
X100898281Y-70173366D01*
X100915524Y-70186154D01*
X100931430Y-70200570D01*
X100945846Y-70216476D01*
X100958634Y-70233719D01*
X100969670Y-70252132D01*
X100978849Y-70271538D01*
X100986081Y-70291750D01*
X100991297Y-70312574D01*
X100994447Y-70333809D01*
X100995500Y-70355250D01*
X100995500Y-70792750D01*
X100994447Y-70814191D01*
X100991297Y-70835426D01*
X100986081Y-70856250D01*
X100978849Y-70876462D01*
X100969670Y-70895868D01*
X100958634Y-70914281D01*
X100945846Y-70931524D01*
X100931430Y-70947430D01*
X100915524Y-70961846D01*
X100898281Y-70974634D01*
X100879868Y-70985670D01*
X100860462Y-70994849D01*
X100840250Y-71002081D01*
X100819426Y-71007297D01*
X100798191Y-71010447D01*
X100776750Y-71011500D01*
X100264250Y-71011500D01*
X100242809Y-71010447D01*
X100221574Y-71007297D01*
X100200750Y-71002081D01*
X100180538Y-70994849D01*
X100161132Y-70985670D01*
X100142719Y-70974634D01*
X100125476Y-70961846D01*
X100109570Y-70947430D01*
X100095154Y-70931524D01*
X100082366Y-70914281D01*
X100071330Y-70895868D01*
X100062151Y-70876462D01*
X100054919Y-70856250D01*
X100049703Y-70835426D01*
X100046553Y-70814191D01*
X100045500Y-70792750D01*
X100045500Y-70355250D01*
X100046553Y-70333809D01*
X100049703Y-70312574D01*
X100054919Y-70291750D01*
X100062151Y-70271538D01*
X100071330Y-70252132D01*
X100082366Y-70233719D01*
X100095154Y-70216476D01*
X100109570Y-70200570D01*
X100125476Y-70186154D01*
X100142719Y-70173366D01*
X100161132Y-70162330D01*
X100180538Y-70153151D01*
X100200750Y-70145919D01*
X100221574Y-70140703D01*
X100242809Y-70137553D01*
X100264250Y-70136500D01*
X100776750Y-70136500D01*
X100798191Y-70137553D01*
X100798191Y-70137553D01*
G37*
D11*
X100520500Y-70574000D03*
G04 #@! TD*
D10*
G04 #@! TO.C,R13*
G36*
X92543191Y-115413053D02*
X92564426Y-115416203D01*
X92585250Y-115421419D01*
X92605462Y-115428651D01*
X92624868Y-115437830D01*
X92643281Y-115448866D01*
X92660524Y-115461654D01*
X92676430Y-115476070D01*
X92690846Y-115491976D01*
X92703634Y-115509219D01*
X92714670Y-115527632D01*
X92723849Y-115547038D01*
X92731081Y-115567250D01*
X92736297Y-115588074D01*
X92739447Y-115609309D01*
X92740500Y-115630750D01*
X92740500Y-116068250D01*
X92739447Y-116089691D01*
X92736297Y-116110926D01*
X92731081Y-116131750D01*
X92723849Y-116151962D01*
X92714670Y-116171368D01*
X92703634Y-116189781D01*
X92690846Y-116207024D01*
X92676430Y-116222930D01*
X92660524Y-116237346D01*
X92643281Y-116250134D01*
X92624868Y-116261170D01*
X92605462Y-116270349D01*
X92585250Y-116277581D01*
X92564426Y-116282797D01*
X92543191Y-116285947D01*
X92521750Y-116287000D01*
X92009250Y-116287000D01*
X91987809Y-116285947D01*
X91966574Y-116282797D01*
X91945750Y-116277581D01*
X91925538Y-116270349D01*
X91906132Y-116261170D01*
X91887719Y-116250134D01*
X91870476Y-116237346D01*
X91854570Y-116222930D01*
X91840154Y-116207024D01*
X91827366Y-116189781D01*
X91816330Y-116171368D01*
X91807151Y-116151962D01*
X91799919Y-116131750D01*
X91794703Y-116110926D01*
X91791553Y-116089691D01*
X91790500Y-116068250D01*
X91790500Y-115630750D01*
X91791553Y-115609309D01*
X91794703Y-115588074D01*
X91799919Y-115567250D01*
X91807151Y-115547038D01*
X91816330Y-115527632D01*
X91827366Y-115509219D01*
X91840154Y-115491976D01*
X91854570Y-115476070D01*
X91870476Y-115461654D01*
X91887719Y-115448866D01*
X91906132Y-115437830D01*
X91925538Y-115428651D01*
X91945750Y-115421419D01*
X91966574Y-115416203D01*
X91987809Y-115413053D01*
X92009250Y-115412000D01*
X92521750Y-115412000D01*
X92543191Y-115413053D01*
X92543191Y-115413053D01*
G37*
D11*
X92265500Y-115849500D03*
D10*
G36*
X92543191Y-113838053D02*
X92564426Y-113841203D01*
X92585250Y-113846419D01*
X92605462Y-113853651D01*
X92624868Y-113862830D01*
X92643281Y-113873866D01*
X92660524Y-113886654D01*
X92676430Y-113901070D01*
X92690846Y-113916976D01*
X92703634Y-113934219D01*
X92714670Y-113952632D01*
X92723849Y-113972038D01*
X92731081Y-113992250D01*
X92736297Y-114013074D01*
X92739447Y-114034309D01*
X92740500Y-114055750D01*
X92740500Y-114493250D01*
X92739447Y-114514691D01*
X92736297Y-114535926D01*
X92731081Y-114556750D01*
X92723849Y-114576962D01*
X92714670Y-114596368D01*
X92703634Y-114614781D01*
X92690846Y-114632024D01*
X92676430Y-114647930D01*
X92660524Y-114662346D01*
X92643281Y-114675134D01*
X92624868Y-114686170D01*
X92605462Y-114695349D01*
X92585250Y-114702581D01*
X92564426Y-114707797D01*
X92543191Y-114710947D01*
X92521750Y-114712000D01*
X92009250Y-114712000D01*
X91987809Y-114710947D01*
X91966574Y-114707797D01*
X91945750Y-114702581D01*
X91925538Y-114695349D01*
X91906132Y-114686170D01*
X91887719Y-114675134D01*
X91870476Y-114662346D01*
X91854570Y-114647930D01*
X91840154Y-114632024D01*
X91827366Y-114614781D01*
X91816330Y-114596368D01*
X91807151Y-114576962D01*
X91799919Y-114556750D01*
X91794703Y-114535926D01*
X91791553Y-114514691D01*
X91790500Y-114493250D01*
X91790500Y-114055750D01*
X91791553Y-114034309D01*
X91794703Y-114013074D01*
X91799919Y-113992250D01*
X91807151Y-113972038D01*
X91816330Y-113952632D01*
X91827366Y-113934219D01*
X91840154Y-113916976D01*
X91854570Y-113901070D01*
X91870476Y-113886654D01*
X91887719Y-113873866D01*
X91906132Y-113862830D01*
X91925538Y-113853651D01*
X91945750Y-113846419D01*
X91966574Y-113841203D01*
X91987809Y-113838053D01*
X92009250Y-113837000D01*
X92521750Y-113837000D01*
X92543191Y-113838053D01*
X92543191Y-113838053D01*
G37*
D11*
X92265500Y-114274500D03*
G04 #@! TD*
D10*
G04 #@! TO.C,R14*
G36*
X60031191Y-96248553D02*
X60052426Y-96251703D01*
X60073250Y-96256919D01*
X60093462Y-96264151D01*
X60112868Y-96273330D01*
X60131281Y-96284366D01*
X60148524Y-96297154D01*
X60164430Y-96311570D01*
X60178846Y-96327476D01*
X60191634Y-96344719D01*
X60202670Y-96363132D01*
X60211849Y-96382538D01*
X60219081Y-96402750D01*
X60224297Y-96423574D01*
X60227447Y-96444809D01*
X60228500Y-96466250D01*
X60228500Y-96903750D01*
X60227447Y-96925191D01*
X60224297Y-96946426D01*
X60219081Y-96967250D01*
X60211849Y-96987462D01*
X60202670Y-97006868D01*
X60191634Y-97025281D01*
X60178846Y-97042524D01*
X60164430Y-97058430D01*
X60148524Y-97072846D01*
X60131281Y-97085634D01*
X60112868Y-97096670D01*
X60093462Y-97105849D01*
X60073250Y-97113081D01*
X60052426Y-97118297D01*
X60031191Y-97121447D01*
X60009750Y-97122500D01*
X59497250Y-97122500D01*
X59475809Y-97121447D01*
X59454574Y-97118297D01*
X59433750Y-97113081D01*
X59413538Y-97105849D01*
X59394132Y-97096670D01*
X59375719Y-97085634D01*
X59358476Y-97072846D01*
X59342570Y-97058430D01*
X59328154Y-97042524D01*
X59315366Y-97025281D01*
X59304330Y-97006868D01*
X59295151Y-96987462D01*
X59287919Y-96967250D01*
X59282703Y-96946426D01*
X59279553Y-96925191D01*
X59278500Y-96903750D01*
X59278500Y-96466250D01*
X59279553Y-96444809D01*
X59282703Y-96423574D01*
X59287919Y-96402750D01*
X59295151Y-96382538D01*
X59304330Y-96363132D01*
X59315366Y-96344719D01*
X59328154Y-96327476D01*
X59342570Y-96311570D01*
X59358476Y-96297154D01*
X59375719Y-96284366D01*
X59394132Y-96273330D01*
X59413538Y-96264151D01*
X59433750Y-96256919D01*
X59454574Y-96251703D01*
X59475809Y-96248553D01*
X59497250Y-96247500D01*
X60009750Y-96247500D01*
X60031191Y-96248553D01*
X60031191Y-96248553D01*
G37*
D11*
X59753500Y-96685000D03*
D10*
G36*
X60031191Y-97823553D02*
X60052426Y-97826703D01*
X60073250Y-97831919D01*
X60093462Y-97839151D01*
X60112868Y-97848330D01*
X60131281Y-97859366D01*
X60148524Y-97872154D01*
X60164430Y-97886570D01*
X60178846Y-97902476D01*
X60191634Y-97919719D01*
X60202670Y-97938132D01*
X60211849Y-97957538D01*
X60219081Y-97977750D01*
X60224297Y-97998574D01*
X60227447Y-98019809D01*
X60228500Y-98041250D01*
X60228500Y-98478750D01*
X60227447Y-98500191D01*
X60224297Y-98521426D01*
X60219081Y-98542250D01*
X60211849Y-98562462D01*
X60202670Y-98581868D01*
X60191634Y-98600281D01*
X60178846Y-98617524D01*
X60164430Y-98633430D01*
X60148524Y-98647846D01*
X60131281Y-98660634D01*
X60112868Y-98671670D01*
X60093462Y-98680849D01*
X60073250Y-98688081D01*
X60052426Y-98693297D01*
X60031191Y-98696447D01*
X60009750Y-98697500D01*
X59497250Y-98697500D01*
X59475809Y-98696447D01*
X59454574Y-98693297D01*
X59433750Y-98688081D01*
X59413538Y-98680849D01*
X59394132Y-98671670D01*
X59375719Y-98660634D01*
X59358476Y-98647846D01*
X59342570Y-98633430D01*
X59328154Y-98617524D01*
X59315366Y-98600281D01*
X59304330Y-98581868D01*
X59295151Y-98562462D01*
X59287919Y-98542250D01*
X59282703Y-98521426D01*
X59279553Y-98500191D01*
X59278500Y-98478750D01*
X59278500Y-98041250D01*
X59279553Y-98019809D01*
X59282703Y-97998574D01*
X59287919Y-97977750D01*
X59295151Y-97957538D01*
X59304330Y-97938132D01*
X59315366Y-97919719D01*
X59328154Y-97902476D01*
X59342570Y-97886570D01*
X59358476Y-97872154D01*
X59375719Y-97859366D01*
X59394132Y-97848330D01*
X59413538Y-97839151D01*
X59433750Y-97831919D01*
X59454574Y-97826703D01*
X59475809Y-97823553D01*
X59497250Y-97822500D01*
X60009750Y-97822500D01*
X60031191Y-97823553D01*
X60031191Y-97823553D01*
G37*
D11*
X59753500Y-98260000D03*
G04 #@! TD*
D10*
G04 #@! TO.C,R20*
G36*
X102385691Y-68562553D02*
X102406926Y-68565703D01*
X102427750Y-68570919D01*
X102447962Y-68578151D01*
X102467368Y-68587330D01*
X102485781Y-68598366D01*
X102503024Y-68611154D01*
X102518930Y-68625570D01*
X102533346Y-68641476D01*
X102546134Y-68658719D01*
X102557170Y-68677132D01*
X102566349Y-68696538D01*
X102573581Y-68716750D01*
X102578797Y-68737574D01*
X102581947Y-68758809D01*
X102583000Y-68780250D01*
X102583000Y-69217750D01*
X102581947Y-69239191D01*
X102578797Y-69260426D01*
X102573581Y-69281250D01*
X102566349Y-69301462D01*
X102557170Y-69320868D01*
X102546134Y-69339281D01*
X102533346Y-69356524D01*
X102518930Y-69372430D01*
X102503024Y-69386846D01*
X102485781Y-69399634D01*
X102467368Y-69410670D01*
X102447962Y-69419849D01*
X102427750Y-69427081D01*
X102406926Y-69432297D01*
X102385691Y-69435447D01*
X102364250Y-69436500D01*
X101851750Y-69436500D01*
X101830309Y-69435447D01*
X101809074Y-69432297D01*
X101788250Y-69427081D01*
X101768038Y-69419849D01*
X101748632Y-69410670D01*
X101730219Y-69399634D01*
X101712976Y-69386846D01*
X101697070Y-69372430D01*
X101682654Y-69356524D01*
X101669866Y-69339281D01*
X101658830Y-69320868D01*
X101649651Y-69301462D01*
X101642419Y-69281250D01*
X101637203Y-69260426D01*
X101634053Y-69239191D01*
X101633000Y-69217750D01*
X101633000Y-68780250D01*
X101634053Y-68758809D01*
X101637203Y-68737574D01*
X101642419Y-68716750D01*
X101649651Y-68696538D01*
X101658830Y-68677132D01*
X101669866Y-68658719D01*
X101682654Y-68641476D01*
X101697070Y-68625570D01*
X101712976Y-68611154D01*
X101730219Y-68598366D01*
X101748632Y-68587330D01*
X101768038Y-68578151D01*
X101788250Y-68570919D01*
X101809074Y-68565703D01*
X101830309Y-68562553D01*
X101851750Y-68561500D01*
X102364250Y-68561500D01*
X102385691Y-68562553D01*
X102385691Y-68562553D01*
G37*
D11*
X102108000Y-68999000D03*
D10*
G36*
X102385691Y-70137553D02*
X102406926Y-70140703D01*
X102427750Y-70145919D01*
X102447962Y-70153151D01*
X102467368Y-70162330D01*
X102485781Y-70173366D01*
X102503024Y-70186154D01*
X102518930Y-70200570D01*
X102533346Y-70216476D01*
X102546134Y-70233719D01*
X102557170Y-70252132D01*
X102566349Y-70271538D01*
X102573581Y-70291750D01*
X102578797Y-70312574D01*
X102581947Y-70333809D01*
X102583000Y-70355250D01*
X102583000Y-70792750D01*
X102581947Y-70814191D01*
X102578797Y-70835426D01*
X102573581Y-70856250D01*
X102566349Y-70876462D01*
X102557170Y-70895868D01*
X102546134Y-70914281D01*
X102533346Y-70931524D01*
X102518930Y-70947430D01*
X102503024Y-70961846D01*
X102485781Y-70974634D01*
X102467368Y-70985670D01*
X102447962Y-70994849D01*
X102427750Y-71002081D01*
X102406926Y-71007297D01*
X102385691Y-71010447D01*
X102364250Y-71011500D01*
X101851750Y-71011500D01*
X101830309Y-71010447D01*
X101809074Y-71007297D01*
X101788250Y-71002081D01*
X101768038Y-70994849D01*
X101748632Y-70985670D01*
X101730219Y-70974634D01*
X101712976Y-70961846D01*
X101697070Y-70947430D01*
X101682654Y-70931524D01*
X101669866Y-70914281D01*
X101658830Y-70895868D01*
X101649651Y-70876462D01*
X101642419Y-70856250D01*
X101637203Y-70835426D01*
X101634053Y-70814191D01*
X101633000Y-70792750D01*
X101633000Y-70355250D01*
X101634053Y-70333809D01*
X101637203Y-70312574D01*
X101642419Y-70291750D01*
X101649651Y-70271538D01*
X101658830Y-70252132D01*
X101669866Y-70233719D01*
X101682654Y-70216476D01*
X101697070Y-70200570D01*
X101712976Y-70186154D01*
X101730219Y-70173366D01*
X101748632Y-70162330D01*
X101768038Y-70153151D01*
X101788250Y-70145919D01*
X101809074Y-70140703D01*
X101830309Y-70137553D01*
X101851750Y-70136500D01*
X102364250Y-70136500D01*
X102385691Y-70137553D01*
X102385691Y-70137553D01*
G37*
D11*
X102108000Y-70574000D03*
G04 #@! TD*
D10*
G04 #@! TO.C,R19*
G36*
X61999691Y-71026553D02*
X62020926Y-71029703D01*
X62041750Y-71034919D01*
X62061962Y-71042151D01*
X62081368Y-71051330D01*
X62099781Y-71062366D01*
X62117024Y-71075154D01*
X62132930Y-71089570D01*
X62147346Y-71105476D01*
X62160134Y-71122719D01*
X62171170Y-71141132D01*
X62180349Y-71160538D01*
X62187581Y-71180750D01*
X62192797Y-71201574D01*
X62195947Y-71222809D01*
X62197000Y-71244250D01*
X62197000Y-71681750D01*
X62195947Y-71703191D01*
X62192797Y-71724426D01*
X62187581Y-71745250D01*
X62180349Y-71765462D01*
X62171170Y-71784868D01*
X62160134Y-71803281D01*
X62147346Y-71820524D01*
X62132930Y-71836430D01*
X62117024Y-71850846D01*
X62099781Y-71863634D01*
X62081368Y-71874670D01*
X62061962Y-71883849D01*
X62041750Y-71891081D01*
X62020926Y-71896297D01*
X61999691Y-71899447D01*
X61978250Y-71900500D01*
X61465750Y-71900500D01*
X61444309Y-71899447D01*
X61423074Y-71896297D01*
X61402250Y-71891081D01*
X61382038Y-71883849D01*
X61362632Y-71874670D01*
X61344219Y-71863634D01*
X61326976Y-71850846D01*
X61311070Y-71836430D01*
X61296654Y-71820524D01*
X61283866Y-71803281D01*
X61272830Y-71784868D01*
X61263651Y-71765462D01*
X61256419Y-71745250D01*
X61251203Y-71724426D01*
X61248053Y-71703191D01*
X61247000Y-71681750D01*
X61247000Y-71244250D01*
X61248053Y-71222809D01*
X61251203Y-71201574D01*
X61256419Y-71180750D01*
X61263651Y-71160538D01*
X61272830Y-71141132D01*
X61283866Y-71122719D01*
X61296654Y-71105476D01*
X61311070Y-71089570D01*
X61326976Y-71075154D01*
X61344219Y-71062366D01*
X61362632Y-71051330D01*
X61382038Y-71042151D01*
X61402250Y-71034919D01*
X61423074Y-71029703D01*
X61444309Y-71026553D01*
X61465750Y-71025500D01*
X61978250Y-71025500D01*
X61999691Y-71026553D01*
X61999691Y-71026553D01*
G37*
D11*
X61722000Y-71463000D03*
D10*
G36*
X61999691Y-69451553D02*
X62020926Y-69454703D01*
X62041750Y-69459919D01*
X62061962Y-69467151D01*
X62081368Y-69476330D01*
X62099781Y-69487366D01*
X62117024Y-69500154D01*
X62132930Y-69514570D01*
X62147346Y-69530476D01*
X62160134Y-69547719D01*
X62171170Y-69566132D01*
X62180349Y-69585538D01*
X62187581Y-69605750D01*
X62192797Y-69626574D01*
X62195947Y-69647809D01*
X62197000Y-69669250D01*
X62197000Y-70106750D01*
X62195947Y-70128191D01*
X62192797Y-70149426D01*
X62187581Y-70170250D01*
X62180349Y-70190462D01*
X62171170Y-70209868D01*
X62160134Y-70228281D01*
X62147346Y-70245524D01*
X62132930Y-70261430D01*
X62117024Y-70275846D01*
X62099781Y-70288634D01*
X62081368Y-70299670D01*
X62061962Y-70308849D01*
X62041750Y-70316081D01*
X62020926Y-70321297D01*
X61999691Y-70324447D01*
X61978250Y-70325500D01*
X61465750Y-70325500D01*
X61444309Y-70324447D01*
X61423074Y-70321297D01*
X61402250Y-70316081D01*
X61382038Y-70308849D01*
X61362632Y-70299670D01*
X61344219Y-70288634D01*
X61326976Y-70275846D01*
X61311070Y-70261430D01*
X61296654Y-70245524D01*
X61283866Y-70228281D01*
X61272830Y-70209868D01*
X61263651Y-70190462D01*
X61256419Y-70170250D01*
X61251203Y-70149426D01*
X61248053Y-70128191D01*
X61247000Y-70106750D01*
X61247000Y-69669250D01*
X61248053Y-69647809D01*
X61251203Y-69626574D01*
X61256419Y-69605750D01*
X61263651Y-69585538D01*
X61272830Y-69566132D01*
X61283866Y-69547719D01*
X61296654Y-69530476D01*
X61311070Y-69514570D01*
X61326976Y-69500154D01*
X61344219Y-69487366D01*
X61362632Y-69476330D01*
X61382038Y-69467151D01*
X61402250Y-69459919D01*
X61423074Y-69454703D01*
X61444309Y-69451553D01*
X61465750Y-69450500D01*
X61978250Y-69450500D01*
X61999691Y-69451553D01*
X61999691Y-69451553D01*
G37*
D11*
X61722000Y-69888000D03*
G04 #@! TD*
D10*
G04 #@! TO.C,R18*
G36*
X55713691Y-91474053D02*
X55734926Y-91477203D01*
X55755750Y-91482419D01*
X55775962Y-91489651D01*
X55795368Y-91498830D01*
X55813781Y-91509866D01*
X55831024Y-91522654D01*
X55846930Y-91537070D01*
X55861346Y-91552976D01*
X55874134Y-91570219D01*
X55885170Y-91588632D01*
X55894349Y-91608038D01*
X55901581Y-91628250D01*
X55906797Y-91649074D01*
X55909947Y-91670309D01*
X55911000Y-91691750D01*
X55911000Y-92204250D01*
X55909947Y-92225691D01*
X55906797Y-92246926D01*
X55901581Y-92267750D01*
X55894349Y-92287962D01*
X55885170Y-92307368D01*
X55874134Y-92325781D01*
X55861346Y-92343024D01*
X55846930Y-92358930D01*
X55831024Y-92373346D01*
X55813781Y-92386134D01*
X55795368Y-92397170D01*
X55775962Y-92406349D01*
X55755750Y-92413581D01*
X55734926Y-92418797D01*
X55713691Y-92421947D01*
X55692250Y-92423000D01*
X55254750Y-92423000D01*
X55233309Y-92421947D01*
X55212074Y-92418797D01*
X55191250Y-92413581D01*
X55171038Y-92406349D01*
X55151632Y-92397170D01*
X55133219Y-92386134D01*
X55115976Y-92373346D01*
X55100070Y-92358930D01*
X55085654Y-92343024D01*
X55072866Y-92325781D01*
X55061830Y-92307368D01*
X55052651Y-92287962D01*
X55045419Y-92267750D01*
X55040203Y-92246926D01*
X55037053Y-92225691D01*
X55036000Y-92204250D01*
X55036000Y-91691750D01*
X55037053Y-91670309D01*
X55040203Y-91649074D01*
X55045419Y-91628250D01*
X55052651Y-91608038D01*
X55061830Y-91588632D01*
X55072866Y-91570219D01*
X55085654Y-91552976D01*
X55100070Y-91537070D01*
X55115976Y-91522654D01*
X55133219Y-91509866D01*
X55151632Y-91498830D01*
X55171038Y-91489651D01*
X55191250Y-91482419D01*
X55212074Y-91477203D01*
X55233309Y-91474053D01*
X55254750Y-91473000D01*
X55692250Y-91473000D01*
X55713691Y-91474053D01*
X55713691Y-91474053D01*
G37*
D11*
X55473500Y-91948000D03*
D10*
G36*
X57288691Y-91474053D02*
X57309926Y-91477203D01*
X57330750Y-91482419D01*
X57350962Y-91489651D01*
X57370368Y-91498830D01*
X57388781Y-91509866D01*
X57406024Y-91522654D01*
X57421930Y-91537070D01*
X57436346Y-91552976D01*
X57449134Y-91570219D01*
X57460170Y-91588632D01*
X57469349Y-91608038D01*
X57476581Y-91628250D01*
X57481797Y-91649074D01*
X57484947Y-91670309D01*
X57486000Y-91691750D01*
X57486000Y-92204250D01*
X57484947Y-92225691D01*
X57481797Y-92246926D01*
X57476581Y-92267750D01*
X57469349Y-92287962D01*
X57460170Y-92307368D01*
X57449134Y-92325781D01*
X57436346Y-92343024D01*
X57421930Y-92358930D01*
X57406024Y-92373346D01*
X57388781Y-92386134D01*
X57370368Y-92397170D01*
X57350962Y-92406349D01*
X57330750Y-92413581D01*
X57309926Y-92418797D01*
X57288691Y-92421947D01*
X57267250Y-92423000D01*
X56829750Y-92423000D01*
X56808309Y-92421947D01*
X56787074Y-92418797D01*
X56766250Y-92413581D01*
X56746038Y-92406349D01*
X56726632Y-92397170D01*
X56708219Y-92386134D01*
X56690976Y-92373346D01*
X56675070Y-92358930D01*
X56660654Y-92343024D01*
X56647866Y-92325781D01*
X56636830Y-92307368D01*
X56627651Y-92287962D01*
X56620419Y-92267750D01*
X56615203Y-92246926D01*
X56612053Y-92225691D01*
X56611000Y-92204250D01*
X56611000Y-91691750D01*
X56612053Y-91670309D01*
X56615203Y-91649074D01*
X56620419Y-91628250D01*
X56627651Y-91608038D01*
X56636830Y-91588632D01*
X56647866Y-91570219D01*
X56660654Y-91552976D01*
X56675070Y-91537070D01*
X56690976Y-91522654D01*
X56708219Y-91509866D01*
X56726632Y-91498830D01*
X56746038Y-91489651D01*
X56766250Y-91482419D01*
X56787074Y-91477203D01*
X56808309Y-91474053D01*
X56829750Y-91473000D01*
X57267250Y-91473000D01*
X57288691Y-91474053D01*
X57288691Y-91474053D01*
G37*
D11*
X57048500Y-91948000D03*
G04 #@! TD*
D10*
G04 #@! TO.C,R17*
G36*
X63968191Y-96248553D02*
X63989426Y-96251703D01*
X64010250Y-96256919D01*
X64030462Y-96264151D01*
X64049868Y-96273330D01*
X64068281Y-96284366D01*
X64085524Y-96297154D01*
X64101430Y-96311570D01*
X64115846Y-96327476D01*
X64128634Y-96344719D01*
X64139670Y-96363132D01*
X64148849Y-96382538D01*
X64156081Y-96402750D01*
X64161297Y-96423574D01*
X64164447Y-96444809D01*
X64165500Y-96466250D01*
X64165500Y-96903750D01*
X64164447Y-96925191D01*
X64161297Y-96946426D01*
X64156081Y-96967250D01*
X64148849Y-96987462D01*
X64139670Y-97006868D01*
X64128634Y-97025281D01*
X64115846Y-97042524D01*
X64101430Y-97058430D01*
X64085524Y-97072846D01*
X64068281Y-97085634D01*
X64049868Y-97096670D01*
X64030462Y-97105849D01*
X64010250Y-97113081D01*
X63989426Y-97118297D01*
X63968191Y-97121447D01*
X63946750Y-97122500D01*
X63434250Y-97122500D01*
X63412809Y-97121447D01*
X63391574Y-97118297D01*
X63370750Y-97113081D01*
X63350538Y-97105849D01*
X63331132Y-97096670D01*
X63312719Y-97085634D01*
X63295476Y-97072846D01*
X63279570Y-97058430D01*
X63265154Y-97042524D01*
X63252366Y-97025281D01*
X63241330Y-97006868D01*
X63232151Y-96987462D01*
X63224919Y-96967250D01*
X63219703Y-96946426D01*
X63216553Y-96925191D01*
X63215500Y-96903750D01*
X63215500Y-96466250D01*
X63216553Y-96444809D01*
X63219703Y-96423574D01*
X63224919Y-96402750D01*
X63232151Y-96382538D01*
X63241330Y-96363132D01*
X63252366Y-96344719D01*
X63265154Y-96327476D01*
X63279570Y-96311570D01*
X63295476Y-96297154D01*
X63312719Y-96284366D01*
X63331132Y-96273330D01*
X63350538Y-96264151D01*
X63370750Y-96256919D01*
X63391574Y-96251703D01*
X63412809Y-96248553D01*
X63434250Y-96247500D01*
X63946750Y-96247500D01*
X63968191Y-96248553D01*
X63968191Y-96248553D01*
G37*
D11*
X63690500Y-96685000D03*
D10*
G36*
X63968191Y-97823553D02*
X63989426Y-97826703D01*
X64010250Y-97831919D01*
X64030462Y-97839151D01*
X64049868Y-97848330D01*
X64068281Y-97859366D01*
X64085524Y-97872154D01*
X64101430Y-97886570D01*
X64115846Y-97902476D01*
X64128634Y-97919719D01*
X64139670Y-97938132D01*
X64148849Y-97957538D01*
X64156081Y-97977750D01*
X64161297Y-97998574D01*
X64164447Y-98019809D01*
X64165500Y-98041250D01*
X64165500Y-98478750D01*
X64164447Y-98500191D01*
X64161297Y-98521426D01*
X64156081Y-98542250D01*
X64148849Y-98562462D01*
X64139670Y-98581868D01*
X64128634Y-98600281D01*
X64115846Y-98617524D01*
X64101430Y-98633430D01*
X64085524Y-98647846D01*
X64068281Y-98660634D01*
X64049868Y-98671670D01*
X64030462Y-98680849D01*
X64010250Y-98688081D01*
X63989426Y-98693297D01*
X63968191Y-98696447D01*
X63946750Y-98697500D01*
X63434250Y-98697500D01*
X63412809Y-98696447D01*
X63391574Y-98693297D01*
X63370750Y-98688081D01*
X63350538Y-98680849D01*
X63331132Y-98671670D01*
X63312719Y-98660634D01*
X63295476Y-98647846D01*
X63279570Y-98633430D01*
X63265154Y-98617524D01*
X63252366Y-98600281D01*
X63241330Y-98581868D01*
X63232151Y-98562462D01*
X63224919Y-98542250D01*
X63219703Y-98521426D01*
X63216553Y-98500191D01*
X63215500Y-98478750D01*
X63215500Y-98041250D01*
X63216553Y-98019809D01*
X63219703Y-97998574D01*
X63224919Y-97977750D01*
X63232151Y-97957538D01*
X63241330Y-97938132D01*
X63252366Y-97919719D01*
X63265154Y-97902476D01*
X63279570Y-97886570D01*
X63295476Y-97872154D01*
X63312719Y-97859366D01*
X63331132Y-97848330D01*
X63350538Y-97839151D01*
X63370750Y-97831919D01*
X63391574Y-97826703D01*
X63412809Y-97823553D01*
X63434250Y-97822500D01*
X63946750Y-97822500D01*
X63968191Y-97823553D01*
X63968191Y-97823553D01*
G37*
D11*
X63690500Y-98260000D03*
G04 #@! TD*
D10*
G04 #@! TO.C,R9*
G36*
X69290191Y-96871553D02*
X69311426Y-96874703D01*
X69332250Y-96879919D01*
X69352462Y-96887151D01*
X69371868Y-96896330D01*
X69390281Y-96907366D01*
X69407524Y-96920154D01*
X69423430Y-96934570D01*
X69437846Y-96950476D01*
X69450634Y-96967719D01*
X69461670Y-96986132D01*
X69470849Y-97005538D01*
X69478081Y-97025750D01*
X69483297Y-97046574D01*
X69486447Y-97067809D01*
X69487500Y-97089250D01*
X69487500Y-97601750D01*
X69486447Y-97623191D01*
X69483297Y-97644426D01*
X69478081Y-97665250D01*
X69470849Y-97685462D01*
X69461670Y-97704868D01*
X69450634Y-97723281D01*
X69437846Y-97740524D01*
X69423430Y-97756430D01*
X69407524Y-97770846D01*
X69390281Y-97783634D01*
X69371868Y-97794670D01*
X69352462Y-97803849D01*
X69332250Y-97811081D01*
X69311426Y-97816297D01*
X69290191Y-97819447D01*
X69268750Y-97820500D01*
X68831250Y-97820500D01*
X68809809Y-97819447D01*
X68788574Y-97816297D01*
X68767750Y-97811081D01*
X68747538Y-97803849D01*
X68728132Y-97794670D01*
X68709719Y-97783634D01*
X68692476Y-97770846D01*
X68676570Y-97756430D01*
X68662154Y-97740524D01*
X68649366Y-97723281D01*
X68638330Y-97704868D01*
X68629151Y-97685462D01*
X68621919Y-97665250D01*
X68616703Y-97644426D01*
X68613553Y-97623191D01*
X68612500Y-97601750D01*
X68612500Y-97089250D01*
X68613553Y-97067809D01*
X68616703Y-97046574D01*
X68621919Y-97025750D01*
X68629151Y-97005538D01*
X68638330Y-96986132D01*
X68649366Y-96967719D01*
X68662154Y-96950476D01*
X68676570Y-96934570D01*
X68692476Y-96920154D01*
X68709719Y-96907366D01*
X68728132Y-96896330D01*
X68747538Y-96887151D01*
X68767750Y-96879919D01*
X68788574Y-96874703D01*
X68809809Y-96871553D01*
X68831250Y-96870500D01*
X69268750Y-96870500D01*
X69290191Y-96871553D01*
X69290191Y-96871553D01*
G37*
D11*
X69050000Y-97345500D03*
D10*
G36*
X67715191Y-96871553D02*
X67736426Y-96874703D01*
X67757250Y-96879919D01*
X67777462Y-96887151D01*
X67796868Y-96896330D01*
X67815281Y-96907366D01*
X67832524Y-96920154D01*
X67848430Y-96934570D01*
X67862846Y-96950476D01*
X67875634Y-96967719D01*
X67886670Y-96986132D01*
X67895849Y-97005538D01*
X67903081Y-97025750D01*
X67908297Y-97046574D01*
X67911447Y-97067809D01*
X67912500Y-97089250D01*
X67912500Y-97601750D01*
X67911447Y-97623191D01*
X67908297Y-97644426D01*
X67903081Y-97665250D01*
X67895849Y-97685462D01*
X67886670Y-97704868D01*
X67875634Y-97723281D01*
X67862846Y-97740524D01*
X67848430Y-97756430D01*
X67832524Y-97770846D01*
X67815281Y-97783634D01*
X67796868Y-97794670D01*
X67777462Y-97803849D01*
X67757250Y-97811081D01*
X67736426Y-97816297D01*
X67715191Y-97819447D01*
X67693750Y-97820500D01*
X67256250Y-97820500D01*
X67234809Y-97819447D01*
X67213574Y-97816297D01*
X67192750Y-97811081D01*
X67172538Y-97803849D01*
X67153132Y-97794670D01*
X67134719Y-97783634D01*
X67117476Y-97770846D01*
X67101570Y-97756430D01*
X67087154Y-97740524D01*
X67074366Y-97723281D01*
X67063330Y-97704868D01*
X67054151Y-97685462D01*
X67046919Y-97665250D01*
X67041703Y-97644426D01*
X67038553Y-97623191D01*
X67037500Y-97601750D01*
X67037500Y-97089250D01*
X67038553Y-97067809D01*
X67041703Y-97046574D01*
X67046919Y-97025750D01*
X67054151Y-97005538D01*
X67063330Y-96986132D01*
X67074366Y-96967719D01*
X67087154Y-96950476D01*
X67101570Y-96934570D01*
X67117476Y-96920154D01*
X67134719Y-96907366D01*
X67153132Y-96896330D01*
X67172538Y-96887151D01*
X67192750Y-96879919D01*
X67213574Y-96874703D01*
X67234809Y-96871553D01*
X67256250Y-96870500D01*
X67693750Y-96870500D01*
X67715191Y-96871553D01*
X67715191Y-96871553D01*
G37*
D11*
X67475000Y-97345500D03*
G04 #@! TD*
D10*
G04 #@! TO.C,R22*
G36*
X97825642Y-68078674D02*
X97849303Y-68082184D01*
X97872507Y-68087996D01*
X97895029Y-68096054D01*
X97916653Y-68106282D01*
X97937170Y-68118579D01*
X97956383Y-68132829D01*
X97974107Y-68148893D01*
X97990171Y-68166617D01*
X98004421Y-68185830D01*
X98016718Y-68206347D01*
X98026946Y-68227971D01*
X98035004Y-68250493D01*
X98040816Y-68273697D01*
X98044326Y-68297358D01*
X98045500Y-68321250D01*
X98045500Y-68808750D01*
X98044326Y-68832642D01*
X98040816Y-68856303D01*
X98035004Y-68879507D01*
X98026946Y-68902029D01*
X98016718Y-68923653D01*
X98004421Y-68944170D01*
X97990171Y-68963383D01*
X97974107Y-68981107D01*
X97956383Y-68997171D01*
X97937170Y-69011421D01*
X97916653Y-69023718D01*
X97895029Y-69033946D01*
X97872507Y-69042004D01*
X97849303Y-69047816D01*
X97825642Y-69051326D01*
X97801750Y-69052500D01*
X96889250Y-69052500D01*
X96865358Y-69051326D01*
X96841697Y-69047816D01*
X96818493Y-69042004D01*
X96795971Y-69033946D01*
X96774347Y-69023718D01*
X96753830Y-69011421D01*
X96734617Y-68997171D01*
X96716893Y-68981107D01*
X96700829Y-68963383D01*
X96686579Y-68944170D01*
X96674282Y-68923653D01*
X96664054Y-68902029D01*
X96655996Y-68879507D01*
X96650184Y-68856303D01*
X96646674Y-68832642D01*
X96645500Y-68808750D01*
X96645500Y-68321250D01*
X96646674Y-68297358D01*
X96650184Y-68273697D01*
X96655996Y-68250493D01*
X96664054Y-68227971D01*
X96674282Y-68206347D01*
X96686579Y-68185830D01*
X96700829Y-68166617D01*
X96716893Y-68148893D01*
X96734617Y-68132829D01*
X96753830Y-68118579D01*
X96774347Y-68106282D01*
X96795971Y-68096054D01*
X96818493Y-68087996D01*
X96841697Y-68082184D01*
X96865358Y-68078674D01*
X96889250Y-68077500D01*
X97801750Y-68077500D01*
X97825642Y-68078674D01*
X97825642Y-68078674D01*
G37*
D14*
X97345500Y-68565000D03*
D10*
G36*
X97825642Y-66203674D02*
X97849303Y-66207184D01*
X97872507Y-66212996D01*
X97895029Y-66221054D01*
X97916653Y-66231282D01*
X97937170Y-66243579D01*
X97956383Y-66257829D01*
X97974107Y-66273893D01*
X97990171Y-66291617D01*
X98004421Y-66310830D01*
X98016718Y-66331347D01*
X98026946Y-66352971D01*
X98035004Y-66375493D01*
X98040816Y-66398697D01*
X98044326Y-66422358D01*
X98045500Y-66446250D01*
X98045500Y-66933750D01*
X98044326Y-66957642D01*
X98040816Y-66981303D01*
X98035004Y-67004507D01*
X98026946Y-67027029D01*
X98016718Y-67048653D01*
X98004421Y-67069170D01*
X97990171Y-67088383D01*
X97974107Y-67106107D01*
X97956383Y-67122171D01*
X97937170Y-67136421D01*
X97916653Y-67148718D01*
X97895029Y-67158946D01*
X97872507Y-67167004D01*
X97849303Y-67172816D01*
X97825642Y-67176326D01*
X97801750Y-67177500D01*
X96889250Y-67177500D01*
X96865358Y-67176326D01*
X96841697Y-67172816D01*
X96818493Y-67167004D01*
X96795971Y-67158946D01*
X96774347Y-67148718D01*
X96753830Y-67136421D01*
X96734617Y-67122171D01*
X96716893Y-67106107D01*
X96700829Y-67088383D01*
X96686579Y-67069170D01*
X96674282Y-67048653D01*
X96664054Y-67027029D01*
X96655996Y-67004507D01*
X96650184Y-66981303D01*
X96646674Y-66957642D01*
X96645500Y-66933750D01*
X96645500Y-66446250D01*
X96646674Y-66422358D01*
X96650184Y-66398697D01*
X96655996Y-66375493D01*
X96664054Y-66352971D01*
X96674282Y-66331347D01*
X96686579Y-66310830D01*
X96700829Y-66291617D01*
X96716893Y-66273893D01*
X96734617Y-66257829D01*
X96753830Y-66243579D01*
X96774347Y-66231282D01*
X96795971Y-66221054D01*
X96818493Y-66212996D01*
X96841697Y-66207184D01*
X96865358Y-66203674D01*
X96889250Y-66202500D01*
X97801750Y-66202500D01*
X97825642Y-66203674D01*
X97825642Y-66203674D01*
G37*
D14*
X97345500Y-66690000D03*
G04 #@! TD*
D10*
G04 #@! TO.C,R21*
G36*
X97889142Y-71888674D02*
X97912803Y-71892184D01*
X97936007Y-71897996D01*
X97958529Y-71906054D01*
X97980153Y-71916282D01*
X98000670Y-71928579D01*
X98019883Y-71942829D01*
X98037607Y-71958893D01*
X98053671Y-71976617D01*
X98067921Y-71995830D01*
X98080218Y-72016347D01*
X98090446Y-72037971D01*
X98098504Y-72060493D01*
X98104316Y-72083697D01*
X98107826Y-72107358D01*
X98109000Y-72131250D01*
X98109000Y-72618750D01*
X98107826Y-72642642D01*
X98104316Y-72666303D01*
X98098504Y-72689507D01*
X98090446Y-72712029D01*
X98080218Y-72733653D01*
X98067921Y-72754170D01*
X98053671Y-72773383D01*
X98037607Y-72791107D01*
X98019883Y-72807171D01*
X98000670Y-72821421D01*
X97980153Y-72833718D01*
X97958529Y-72843946D01*
X97936007Y-72852004D01*
X97912803Y-72857816D01*
X97889142Y-72861326D01*
X97865250Y-72862500D01*
X96952750Y-72862500D01*
X96928858Y-72861326D01*
X96905197Y-72857816D01*
X96881993Y-72852004D01*
X96859471Y-72843946D01*
X96837847Y-72833718D01*
X96817330Y-72821421D01*
X96798117Y-72807171D01*
X96780393Y-72791107D01*
X96764329Y-72773383D01*
X96750079Y-72754170D01*
X96737782Y-72733653D01*
X96727554Y-72712029D01*
X96719496Y-72689507D01*
X96713684Y-72666303D01*
X96710174Y-72642642D01*
X96709000Y-72618750D01*
X96709000Y-72131250D01*
X96710174Y-72107358D01*
X96713684Y-72083697D01*
X96719496Y-72060493D01*
X96727554Y-72037971D01*
X96737782Y-72016347D01*
X96750079Y-71995830D01*
X96764329Y-71976617D01*
X96780393Y-71958893D01*
X96798117Y-71942829D01*
X96817330Y-71928579D01*
X96837847Y-71916282D01*
X96859471Y-71906054D01*
X96881993Y-71897996D01*
X96905197Y-71892184D01*
X96928858Y-71888674D01*
X96952750Y-71887500D01*
X97865250Y-71887500D01*
X97889142Y-71888674D01*
X97889142Y-71888674D01*
G37*
D14*
X97409000Y-72375000D03*
D10*
G36*
X97889142Y-70013674D02*
X97912803Y-70017184D01*
X97936007Y-70022996D01*
X97958529Y-70031054D01*
X97980153Y-70041282D01*
X98000670Y-70053579D01*
X98019883Y-70067829D01*
X98037607Y-70083893D01*
X98053671Y-70101617D01*
X98067921Y-70120830D01*
X98080218Y-70141347D01*
X98090446Y-70162971D01*
X98098504Y-70185493D01*
X98104316Y-70208697D01*
X98107826Y-70232358D01*
X98109000Y-70256250D01*
X98109000Y-70743750D01*
X98107826Y-70767642D01*
X98104316Y-70791303D01*
X98098504Y-70814507D01*
X98090446Y-70837029D01*
X98080218Y-70858653D01*
X98067921Y-70879170D01*
X98053671Y-70898383D01*
X98037607Y-70916107D01*
X98019883Y-70932171D01*
X98000670Y-70946421D01*
X97980153Y-70958718D01*
X97958529Y-70968946D01*
X97936007Y-70977004D01*
X97912803Y-70982816D01*
X97889142Y-70986326D01*
X97865250Y-70987500D01*
X96952750Y-70987500D01*
X96928858Y-70986326D01*
X96905197Y-70982816D01*
X96881993Y-70977004D01*
X96859471Y-70968946D01*
X96837847Y-70958718D01*
X96817330Y-70946421D01*
X96798117Y-70932171D01*
X96780393Y-70916107D01*
X96764329Y-70898383D01*
X96750079Y-70879170D01*
X96737782Y-70858653D01*
X96727554Y-70837029D01*
X96719496Y-70814507D01*
X96713684Y-70791303D01*
X96710174Y-70767642D01*
X96709000Y-70743750D01*
X96709000Y-70256250D01*
X96710174Y-70232358D01*
X96713684Y-70208697D01*
X96719496Y-70185493D01*
X96727554Y-70162971D01*
X96737782Y-70141347D01*
X96750079Y-70120830D01*
X96764329Y-70101617D01*
X96780393Y-70083893D01*
X96798117Y-70067829D01*
X96817330Y-70053579D01*
X96837847Y-70041282D01*
X96859471Y-70031054D01*
X96881993Y-70022996D01*
X96905197Y-70017184D01*
X96928858Y-70013674D01*
X96952750Y-70012500D01*
X97865250Y-70012500D01*
X97889142Y-70013674D01*
X97889142Y-70013674D01*
G37*
D14*
X97409000Y-70500000D03*
G04 #@! TD*
M02*
