G04 #@! TF.GenerationSoftware,KiCad,Pcbnew,5.0.2-bee76a0~70~ubuntu18.04.1*
G04 #@! TF.CreationDate,2019-01-09T05:41:56+01:00*
G04 #@! TF.ProjectId,IGM400,49474d34-3030-42e6-9b69-6361645f7063,rev?*
G04 #@! TF.SameCoordinates,Original*
G04 #@! TF.FileFunction,Soldermask,Top*
G04 #@! TF.FilePolarity,Negative*
%FSLAX46Y46*%
G04 Gerber Fmt 4.6, Leading zero omitted, Abs format (unit mm)*
G04 Created by KiCad (PCBNEW 5.0.2-bee76a0~70~ubuntu18.04.1) date Mi 09 Jan 2019 05:41:56 CET*
%MOMM*%
%LPD*%
G01*
G04 APERTURE LIST*
%ADD10C,0.100000*%
G04 APERTURE END LIST*
D10*
G36*
X105332510Y-126952041D02*
X105456032Y-126964207D01*
X105654146Y-127024305D01*
X105836729Y-127121897D01*
X105996765Y-127253235D01*
X106128103Y-127413271D01*
X106225695Y-127595854D01*
X106285793Y-127793968D01*
X106306085Y-128000000D01*
X106285793Y-128206032D01*
X106225695Y-128404146D01*
X106128103Y-128586729D01*
X105996765Y-128746765D01*
X105836729Y-128878103D01*
X105654146Y-128975695D01*
X105456032Y-129035793D01*
X105332510Y-129047959D01*
X105301631Y-129051000D01*
X103698369Y-129051000D01*
X103667490Y-129047959D01*
X103543968Y-129035793D01*
X103345854Y-128975695D01*
X103163271Y-128878103D01*
X103003235Y-128746765D01*
X102871897Y-128586729D01*
X102774305Y-128404146D01*
X102714207Y-128206032D01*
X102693915Y-128000000D01*
X102714207Y-127793968D01*
X102774305Y-127595854D01*
X102871897Y-127413271D01*
X103003235Y-127253235D01*
X103163271Y-127121897D01*
X103345854Y-127024305D01*
X103543968Y-126964207D01*
X103667490Y-126952041D01*
X103698369Y-126949000D01*
X105301631Y-126949000D01*
X105332510Y-126952041D01*
X105332510Y-126952041D01*
G37*
G36*
X55762812Y-126633624D02*
X55926784Y-126701544D01*
X56074354Y-126800147D01*
X56199853Y-126925646D01*
X56298456Y-127073216D01*
X56366376Y-127237188D01*
X56401000Y-127411259D01*
X56401000Y-127588741D01*
X56366376Y-127762812D01*
X56298456Y-127926784D01*
X56199853Y-128074354D01*
X56074354Y-128199853D01*
X55926784Y-128298456D01*
X55762812Y-128366376D01*
X55588741Y-128401000D01*
X55411259Y-128401000D01*
X55237188Y-128366376D01*
X55073216Y-128298456D01*
X54925646Y-128199853D01*
X54800147Y-128074354D01*
X54701544Y-127926784D01*
X54633624Y-127762812D01*
X54599000Y-127588741D01*
X54599000Y-127411259D01*
X54633624Y-127237188D01*
X54701544Y-127073216D01*
X54800147Y-126925646D01*
X54925646Y-126800147D01*
X55073216Y-126701544D01*
X55237188Y-126633624D01*
X55411259Y-126599000D01*
X55588741Y-126599000D01*
X55762812Y-126633624D01*
X55762812Y-126633624D01*
G37*
G36*
X51262812Y-126633624D02*
X51426784Y-126701544D01*
X51574354Y-126800147D01*
X51699853Y-126925646D01*
X51798456Y-127073216D01*
X51866376Y-127237188D01*
X51901000Y-127411259D01*
X51901000Y-127588741D01*
X51866376Y-127762812D01*
X51798456Y-127926784D01*
X51699853Y-128074354D01*
X51574354Y-128199853D01*
X51426784Y-128298456D01*
X51262812Y-128366376D01*
X51088741Y-128401000D01*
X50911259Y-128401000D01*
X50737188Y-128366376D01*
X50573216Y-128298456D01*
X50425646Y-128199853D01*
X50300147Y-128074354D01*
X50201544Y-127926784D01*
X50133624Y-127762812D01*
X50099000Y-127588741D01*
X50099000Y-127411259D01*
X50133624Y-127237188D01*
X50201544Y-127073216D01*
X50300147Y-126925646D01*
X50425646Y-126800147D01*
X50573216Y-126701544D01*
X50737188Y-126633624D01*
X50911259Y-126599000D01*
X51088741Y-126599000D01*
X51262812Y-126633624D01*
X51262812Y-126633624D01*
G37*
G36*
X62451000Y-126451000D02*
X60549000Y-126451000D01*
X60549000Y-124549000D01*
X62451000Y-124549000D01*
X62451000Y-126451000D01*
X62451000Y-126451000D01*
G37*
G36*
X98551000Y-125551000D02*
X96449000Y-125551000D01*
X96449000Y-121449000D01*
X98551000Y-121449000D01*
X98551000Y-125551000D01*
X98551000Y-125551000D01*
G37*
G36*
X103706031Y-121814207D02*
X103904145Y-121874305D01*
X104086729Y-121971897D01*
X104246765Y-122103235D01*
X104246766Y-122103237D01*
X104246768Y-122103238D01*
X104325568Y-122199257D01*
X104378103Y-122263271D01*
X104475695Y-122445854D01*
X104535793Y-122643968D01*
X104551000Y-122798370D01*
X104551000Y-124201630D01*
X104535793Y-124356032D01*
X104475695Y-124554146D01*
X104378103Y-124736729D01*
X104246765Y-124896765D01*
X104086729Y-125028103D01*
X103904146Y-125125695D01*
X103706032Y-125185793D01*
X103500000Y-125206085D01*
X103293969Y-125185793D01*
X103095855Y-125125695D01*
X102913272Y-125028103D01*
X102753236Y-124896765D01*
X102621899Y-124736731D01*
X102524306Y-124554148D01*
X102464207Y-124356028D01*
X102449000Y-124201631D01*
X102449000Y-122798370D01*
X102454172Y-122745854D01*
X102464207Y-122643969D01*
X102524305Y-122445855D01*
X102621897Y-122263271D01*
X102753235Y-122103235D01*
X102753237Y-122103234D01*
X102753238Y-122103232D01*
X102849257Y-122024432D01*
X102913271Y-121971897D01*
X103095854Y-121874305D01*
X103293968Y-121814207D01*
X103500000Y-121793915D01*
X103706031Y-121814207D01*
X103706031Y-121814207D01*
G37*
G36*
X106748228Y-122681703D02*
X106903100Y-122745853D01*
X107042481Y-122838985D01*
X107161015Y-122957519D01*
X107254147Y-123096900D01*
X107318297Y-123251772D01*
X107351000Y-123416184D01*
X107351000Y-123583816D01*
X107318297Y-123748228D01*
X107254147Y-123903100D01*
X107161015Y-124042481D01*
X107042481Y-124161015D01*
X106903100Y-124254147D01*
X106748228Y-124318297D01*
X106583816Y-124351000D01*
X106416184Y-124351000D01*
X106251772Y-124318297D01*
X106096900Y-124254147D01*
X105957519Y-124161015D01*
X105838985Y-124042481D01*
X105745853Y-123903100D01*
X105681703Y-123748228D01*
X105649000Y-123583816D01*
X105649000Y-123416184D01*
X105681703Y-123251772D01*
X105745853Y-123096900D01*
X105838985Y-122957519D01*
X105957519Y-122838985D01*
X106096900Y-122745853D01*
X106251772Y-122681703D01*
X106416184Y-122649000D01*
X106583816Y-122649000D01*
X106748228Y-122681703D01*
X106748228Y-122681703D01*
G37*
G36*
X61777396Y-122045546D02*
X61950466Y-122117234D01*
X62106230Y-122221312D01*
X62238688Y-122353770D01*
X62342766Y-122509534D01*
X62414454Y-122682604D01*
X62451000Y-122866333D01*
X62451000Y-123053667D01*
X62414454Y-123237396D01*
X62342766Y-123410466D01*
X62238688Y-123566230D01*
X62106230Y-123698688D01*
X61950466Y-123802766D01*
X61777396Y-123874454D01*
X61593667Y-123911000D01*
X61406333Y-123911000D01*
X61222604Y-123874454D01*
X61049534Y-123802766D01*
X60893770Y-123698688D01*
X60761312Y-123566230D01*
X60657234Y-123410466D01*
X60585546Y-123237396D01*
X60549000Y-123053667D01*
X60549000Y-122866333D01*
X60585546Y-122682604D01*
X60657234Y-122509534D01*
X60761312Y-122353770D01*
X60893770Y-122221312D01*
X61049534Y-122117234D01*
X61222604Y-122045546D01*
X61406333Y-122009000D01*
X61593667Y-122009000D01*
X61777396Y-122045546D01*
X61777396Y-122045546D01*
G37*
G36*
X76093228Y-121021703D02*
X76248100Y-121085853D01*
X76387481Y-121178985D01*
X76506015Y-121297519D01*
X76599147Y-121436900D01*
X76663297Y-121591772D01*
X76696000Y-121756184D01*
X76696000Y-121923816D01*
X76663297Y-122088228D01*
X76599147Y-122243100D01*
X76506015Y-122382481D01*
X76387481Y-122501015D01*
X76248100Y-122594147D01*
X76093228Y-122658297D01*
X75928816Y-122691000D01*
X75761184Y-122691000D01*
X75596772Y-122658297D01*
X75441900Y-122594147D01*
X75302519Y-122501015D01*
X75183985Y-122382481D01*
X75090853Y-122243100D01*
X75026703Y-122088228D01*
X74994000Y-121923816D01*
X74994000Y-121756184D01*
X75026703Y-121591772D01*
X75090853Y-121436900D01*
X75183985Y-121297519D01*
X75302519Y-121178985D01*
X75441900Y-121085853D01*
X75596772Y-121021703D01*
X75761184Y-120989000D01*
X75928816Y-120989000D01*
X76093228Y-121021703D01*
X76093228Y-121021703D01*
G37*
G36*
X78863228Y-121021703D02*
X79018100Y-121085853D01*
X79157481Y-121178985D01*
X79276015Y-121297519D01*
X79369147Y-121436900D01*
X79433297Y-121591772D01*
X79466000Y-121756184D01*
X79466000Y-121923816D01*
X79433297Y-122088228D01*
X79369147Y-122243100D01*
X79276015Y-122382481D01*
X79157481Y-122501015D01*
X79018100Y-122594147D01*
X78863228Y-122658297D01*
X78698816Y-122691000D01*
X78531184Y-122691000D01*
X78366772Y-122658297D01*
X78211900Y-122594147D01*
X78072519Y-122501015D01*
X77953985Y-122382481D01*
X77860853Y-122243100D01*
X77796703Y-122088228D01*
X77764000Y-121923816D01*
X77764000Y-121756184D01*
X77796703Y-121591772D01*
X77860853Y-121436900D01*
X77953985Y-121297519D01*
X78072519Y-121178985D01*
X78211900Y-121085853D01*
X78366772Y-121021703D01*
X78531184Y-120989000D01*
X78698816Y-120989000D01*
X78863228Y-121021703D01*
X78863228Y-121021703D01*
G37*
G36*
X81633228Y-121021703D02*
X81788100Y-121085853D01*
X81927481Y-121178985D01*
X82046015Y-121297519D01*
X82139147Y-121436900D01*
X82203297Y-121591772D01*
X82236000Y-121756184D01*
X82236000Y-121923816D01*
X82203297Y-122088228D01*
X82139147Y-122243100D01*
X82046015Y-122382481D01*
X81927481Y-122501015D01*
X81788100Y-122594147D01*
X81633228Y-122658297D01*
X81468816Y-122691000D01*
X81301184Y-122691000D01*
X81136772Y-122658297D01*
X80981900Y-122594147D01*
X80842519Y-122501015D01*
X80723985Y-122382481D01*
X80630853Y-122243100D01*
X80566703Y-122088228D01*
X80534000Y-121923816D01*
X80534000Y-121756184D01*
X80566703Y-121591772D01*
X80630853Y-121436900D01*
X80723985Y-121297519D01*
X80842519Y-121178985D01*
X80981900Y-121085853D01*
X81136772Y-121021703D01*
X81301184Y-120989000D01*
X81468816Y-120989000D01*
X81633228Y-121021703D01*
X81633228Y-121021703D01*
G37*
G36*
X84403228Y-121021703D02*
X84558100Y-121085853D01*
X84697481Y-121178985D01*
X84816015Y-121297519D01*
X84909147Y-121436900D01*
X84973297Y-121591772D01*
X85006000Y-121756184D01*
X85006000Y-121923816D01*
X84973297Y-122088228D01*
X84909147Y-122243100D01*
X84816015Y-122382481D01*
X84697481Y-122501015D01*
X84558100Y-122594147D01*
X84403228Y-122658297D01*
X84238816Y-122691000D01*
X84071184Y-122691000D01*
X83906772Y-122658297D01*
X83751900Y-122594147D01*
X83612519Y-122501015D01*
X83493985Y-122382481D01*
X83400853Y-122243100D01*
X83336703Y-122088228D01*
X83304000Y-121923816D01*
X83304000Y-121756184D01*
X83336703Y-121591772D01*
X83400853Y-121436900D01*
X83493985Y-121297519D01*
X83612519Y-121178985D01*
X83751900Y-121085853D01*
X83906772Y-121021703D01*
X84071184Y-120989000D01*
X84238816Y-120989000D01*
X84403228Y-121021703D01*
X84403228Y-121021703D01*
G37*
G36*
X68098252Y-118447818D02*
X68098254Y-118447819D01*
X68098255Y-118447819D01*
X68471513Y-118602427D01*
X68471514Y-118602428D01*
X68807439Y-118826886D01*
X69093114Y-119112561D01*
X69093116Y-119112564D01*
X69317573Y-119448487D01*
X69444181Y-119754147D01*
X69472182Y-119821748D01*
X69551000Y-120217993D01*
X69551000Y-120622007D01*
X69478001Y-120989000D01*
X69472181Y-121018255D01*
X69317573Y-121391513D01*
X69287246Y-121436900D01*
X69093114Y-121727439D01*
X68807439Y-122013114D01*
X68807436Y-122013116D01*
X68471513Y-122237573D01*
X68098255Y-122392181D01*
X68098254Y-122392181D01*
X68098252Y-122392182D01*
X67702007Y-122471000D01*
X67297993Y-122471000D01*
X66901748Y-122392182D01*
X66901746Y-122392181D01*
X66901745Y-122392181D01*
X66528487Y-122237573D01*
X66192564Y-122013116D01*
X66192561Y-122013114D01*
X65906886Y-121727439D01*
X65712754Y-121436900D01*
X65682427Y-121391513D01*
X65527819Y-121018255D01*
X65522000Y-120989000D01*
X65449000Y-120622007D01*
X65449000Y-120217993D01*
X65527818Y-119821748D01*
X65555819Y-119754147D01*
X65682427Y-119448487D01*
X65906884Y-119112564D01*
X65906886Y-119112561D01*
X66192561Y-118826886D01*
X66528486Y-118602428D01*
X66528487Y-118602427D01*
X66901745Y-118447819D01*
X66901746Y-118447819D01*
X66901748Y-118447818D01*
X67297993Y-118369000D01*
X67702007Y-118369000D01*
X68098252Y-118447818D01*
X68098252Y-118447818D01*
G37*
G36*
X93098252Y-118447818D02*
X93098254Y-118447819D01*
X93098255Y-118447819D01*
X93471513Y-118602427D01*
X93471514Y-118602428D01*
X93807439Y-118826886D01*
X94093114Y-119112561D01*
X94093116Y-119112564D01*
X94317573Y-119448487D01*
X94444181Y-119754147D01*
X94472182Y-119821748D01*
X94551000Y-120217993D01*
X94551000Y-120622007D01*
X94478001Y-120989000D01*
X94472181Y-121018255D01*
X94317573Y-121391513D01*
X94287246Y-121436900D01*
X94093114Y-121727439D01*
X93807439Y-122013114D01*
X93807436Y-122013116D01*
X93471513Y-122237573D01*
X93098255Y-122392181D01*
X93098254Y-122392181D01*
X93098252Y-122392182D01*
X92702007Y-122471000D01*
X92297993Y-122471000D01*
X91901748Y-122392182D01*
X91901746Y-122392181D01*
X91901745Y-122392181D01*
X91528487Y-122237573D01*
X91192564Y-122013116D01*
X91192561Y-122013114D01*
X90906886Y-121727439D01*
X90712754Y-121436900D01*
X90682427Y-121391513D01*
X90527819Y-121018255D01*
X90522000Y-120989000D01*
X90449000Y-120622007D01*
X90449000Y-120217993D01*
X90527818Y-119821748D01*
X90555819Y-119754147D01*
X90682427Y-119448487D01*
X90906884Y-119112564D01*
X90906886Y-119112561D01*
X91192561Y-118826886D01*
X91528486Y-118602428D01*
X91528487Y-118602427D01*
X91901745Y-118447819D01*
X91901746Y-118447819D01*
X91901748Y-118447818D01*
X92297993Y-118369000D01*
X92702007Y-118369000D01*
X93098252Y-118447818D01*
X93098252Y-118447818D01*
G37*
G36*
X55762812Y-120133624D02*
X55926784Y-120201544D01*
X56074354Y-120300147D01*
X56199853Y-120425646D01*
X56298456Y-120573216D01*
X56366376Y-120737188D01*
X56401000Y-120911259D01*
X56401000Y-121088741D01*
X56366376Y-121262812D01*
X56298456Y-121426784D01*
X56199853Y-121574354D01*
X56074354Y-121699853D01*
X55926784Y-121798456D01*
X55762812Y-121866376D01*
X55588741Y-121901000D01*
X55411259Y-121901000D01*
X55237188Y-121866376D01*
X55073216Y-121798456D01*
X54925646Y-121699853D01*
X54800147Y-121574354D01*
X54701544Y-121426784D01*
X54633624Y-121262812D01*
X54599000Y-121088741D01*
X54599000Y-120911259D01*
X54633624Y-120737188D01*
X54701544Y-120573216D01*
X54800147Y-120425646D01*
X54925646Y-120300147D01*
X55073216Y-120201544D01*
X55237188Y-120133624D01*
X55411259Y-120099000D01*
X55588741Y-120099000D01*
X55762812Y-120133624D01*
X55762812Y-120133624D01*
G37*
G36*
X51262812Y-120133624D02*
X51426784Y-120201544D01*
X51574354Y-120300147D01*
X51699853Y-120425646D01*
X51798456Y-120573216D01*
X51866376Y-120737188D01*
X51901000Y-120911259D01*
X51901000Y-121088741D01*
X51866376Y-121262812D01*
X51798456Y-121426784D01*
X51699853Y-121574354D01*
X51574354Y-121699853D01*
X51426784Y-121798456D01*
X51262812Y-121866376D01*
X51088741Y-121901000D01*
X50911259Y-121901000D01*
X50737188Y-121866376D01*
X50573216Y-121798456D01*
X50425646Y-121699853D01*
X50300147Y-121574354D01*
X50201544Y-121426784D01*
X50133624Y-121262812D01*
X50099000Y-121088741D01*
X50099000Y-120911259D01*
X50133624Y-120737188D01*
X50201544Y-120573216D01*
X50300147Y-120425646D01*
X50425646Y-120300147D01*
X50573216Y-120201544D01*
X50737188Y-120133624D01*
X50911259Y-120099000D01*
X51088741Y-120099000D01*
X51262812Y-120133624D01*
X51262812Y-120133624D01*
G37*
G36*
X105332510Y-117952041D02*
X105456032Y-117964207D01*
X105654146Y-118024305D01*
X105836729Y-118121897D01*
X105996765Y-118253235D01*
X106128103Y-118413271D01*
X106225695Y-118595854D01*
X106285793Y-118793968D01*
X106306085Y-119000000D01*
X106285793Y-119206032D01*
X106225695Y-119404146D01*
X106128103Y-119586729D01*
X105996765Y-119746765D01*
X105836729Y-119878103D01*
X105654146Y-119975695D01*
X105456032Y-120035793D01*
X105332510Y-120047959D01*
X105301631Y-120051000D01*
X103698369Y-120051000D01*
X103667490Y-120047959D01*
X103543968Y-120035793D01*
X103345854Y-119975695D01*
X103163271Y-119878103D01*
X103003235Y-119746765D01*
X102871897Y-119586729D01*
X102774305Y-119404146D01*
X102714207Y-119206032D01*
X102693915Y-119000000D01*
X102714207Y-118793968D01*
X102774305Y-118595854D01*
X102871897Y-118413271D01*
X103003235Y-118253235D01*
X103163271Y-118121897D01*
X103345854Y-118024305D01*
X103543968Y-117964207D01*
X103667490Y-117952041D01*
X103698369Y-117949000D01*
X105301631Y-117949000D01*
X105332510Y-117952041D01*
X105332510Y-117952041D01*
G37*
G36*
X77478228Y-118181703D02*
X77633100Y-118245853D01*
X77772481Y-118338985D01*
X77891015Y-118457519D01*
X77984147Y-118596900D01*
X78048297Y-118751772D01*
X78081000Y-118916184D01*
X78081000Y-119083816D01*
X78048297Y-119248228D01*
X77984147Y-119403100D01*
X77891015Y-119542481D01*
X77772481Y-119661015D01*
X77633100Y-119754147D01*
X77478228Y-119818297D01*
X77313816Y-119851000D01*
X77146184Y-119851000D01*
X76981772Y-119818297D01*
X76826900Y-119754147D01*
X76687519Y-119661015D01*
X76568985Y-119542481D01*
X76475853Y-119403100D01*
X76411703Y-119248228D01*
X76379000Y-119083816D01*
X76379000Y-118916184D01*
X76411703Y-118751772D01*
X76475853Y-118596900D01*
X76568985Y-118457519D01*
X76687519Y-118338985D01*
X76826900Y-118245853D01*
X76981772Y-118181703D01*
X77146184Y-118149000D01*
X77313816Y-118149000D01*
X77478228Y-118181703D01*
X77478228Y-118181703D01*
G37*
G36*
X80248228Y-118181703D02*
X80403100Y-118245853D01*
X80542481Y-118338985D01*
X80661015Y-118457519D01*
X80754147Y-118596900D01*
X80818297Y-118751772D01*
X80851000Y-118916184D01*
X80851000Y-119083816D01*
X80818297Y-119248228D01*
X80754147Y-119403100D01*
X80661015Y-119542481D01*
X80542481Y-119661015D01*
X80403100Y-119754147D01*
X80248228Y-119818297D01*
X80083816Y-119851000D01*
X79916184Y-119851000D01*
X79751772Y-119818297D01*
X79596900Y-119754147D01*
X79457519Y-119661015D01*
X79338985Y-119542481D01*
X79245853Y-119403100D01*
X79181703Y-119248228D01*
X79149000Y-119083816D01*
X79149000Y-118916184D01*
X79181703Y-118751772D01*
X79245853Y-118596900D01*
X79338985Y-118457519D01*
X79457519Y-118338985D01*
X79596900Y-118245853D01*
X79751772Y-118181703D01*
X79916184Y-118149000D01*
X80083816Y-118149000D01*
X80248228Y-118181703D01*
X80248228Y-118181703D01*
G37*
G36*
X83018228Y-118181703D02*
X83173100Y-118245853D01*
X83312481Y-118338985D01*
X83431015Y-118457519D01*
X83524147Y-118596900D01*
X83588297Y-118751772D01*
X83621000Y-118916184D01*
X83621000Y-119083816D01*
X83588297Y-119248228D01*
X83524147Y-119403100D01*
X83431015Y-119542481D01*
X83312481Y-119661015D01*
X83173100Y-119754147D01*
X83018228Y-119818297D01*
X82853816Y-119851000D01*
X82686184Y-119851000D01*
X82521772Y-119818297D01*
X82366900Y-119754147D01*
X82227519Y-119661015D01*
X82108985Y-119542481D01*
X82015853Y-119403100D01*
X81951703Y-119248228D01*
X81919000Y-119083816D01*
X81919000Y-118916184D01*
X81951703Y-118751772D01*
X82015853Y-118596900D01*
X82108985Y-118457519D01*
X82227519Y-118338985D01*
X82366900Y-118245853D01*
X82521772Y-118181703D01*
X82686184Y-118149000D01*
X82853816Y-118149000D01*
X83018228Y-118181703D01*
X83018228Y-118181703D01*
G37*
G36*
X86391000Y-119851000D02*
X84689000Y-119851000D01*
X84689000Y-118149000D01*
X86391000Y-118149000D01*
X86391000Y-119851000D01*
X86391000Y-119851000D01*
G37*
G36*
X74708228Y-118181703D02*
X74863100Y-118245853D01*
X75002481Y-118338985D01*
X75121015Y-118457519D01*
X75214147Y-118596900D01*
X75278297Y-118751772D01*
X75311000Y-118916184D01*
X75311000Y-119083816D01*
X75278297Y-119248228D01*
X75214147Y-119403100D01*
X75121015Y-119542481D01*
X75002481Y-119661015D01*
X74863100Y-119754147D01*
X74708228Y-119818297D01*
X74543816Y-119851000D01*
X74376184Y-119851000D01*
X74211772Y-119818297D01*
X74056900Y-119754147D01*
X73917519Y-119661015D01*
X73798985Y-119542481D01*
X73705853Y-119403100D01*
X73641703Y-119248228D01*
X73609000Y-119083816D01*
X73609000Y-118916184D01*
X73641703Y-118751772D01*
X73705853Y-118596900D01*
X73798985Y-118457519D01*
X73917519Y-118338985D01*
X74056900Y-118245853D01*
X74211772Y-118181703D01*
X74376184Y-118149000D01*
X74543816Y-118149000D01*
X74708228Y-118181703D01*
X74708228Y-118181703D01*
G37*
G36*
X99351000Y-117351000D02*
X97649000Y-117351000D01*
X97649000Y-115649000D01*
X99351000Y-115649000D01*
X99351000Y-117351000D01*
X99351000Y-117351000D01*
G37*
G36*
X51262812Y-115133624D02*
X51426784Y-115201544D01*
X51574354Y-115300147D01*
X51699853Y-115425646D01*
X51798456Y-115573216D01*
X51866376Y-115737188D01*
X51901000Y-115911259D01*
X51901000Y-116088741D01*
X51866376Y-116262812D01*
X51798456Y-116426784D01*
X51699853Y-116574354D01*
X51574354Y-116699853D01*
X51426784Y-116798456D01*
X51262812Y-116866376D01*
X51088741Y-116901000D01*
X50911259Y-116901000D01*
X50737188Y-116866376D01*
X50573216Y-116798456D01*
X50425646Y-116699853D01*
X50300147Y-116574354D01*
X50201544Y-116426784D01*
X50133624Y-116262812D01*
X50099000Y-116088741D01*
X50099000Y-115911259D01*
X50133624Y-115737188D01*
X50201544Y-115573216D01*
X50300147Y-115425646D01*
X50425646Y-115300147D01*
X50573216Y-115201544D01*
X50737188Y-115133624D01*
X50911259Y-115099000D01*
X51088741Y-115099000D01*
X51262812Y-115133624D01*
X51262812Y-115133624D01*
G37*
G36*
X55762812Y-115133624D02*
X55926784Y-115201544D01*
X56074354Y-115300147D01*
X56199853Y-115425646D01*
X56298456Y-115573216D01*
X56366376Y-115737188D01*
X56401000Y-115911259D01*
X56401000Y-116088741D01*
X56366376Y-116262812D01*
X56298456Y-116426784D01*
X56199853Y-116574354D01*
X56074354Y-116699853D01*
X55926784Y-116798456D01*
X55762812Y-116866376D01*
X55588741Y-116901000D01*
X55411259Y-116901000D01*
X55237188Y-116866376D01*
X55073216Y-116798456D01*
X54925646Y-116699853D01*
X54800147Y-116574354D01*
X54701544Y-116426784D01*
X54633624Y-116262812D01*
X54599000Y-116088741D01*
X54599000Y-115911259D01*
X54633624Y-115737188D01*
X54701544Y-115573216D01*
X54800147Y-115425646D01*
X54925646Y-115300147D01*
X55073216Y-115201544D01*
X55237188Y-115133624D01*
X55411259Y-115099000D01*
X55588741Y-115099000D01*
X55762812Y-115133624D01*
X55762812Y-115133624D01*
G37*
G36*
X94232591Y-115365085D02*
X94266569Y-115375393D01*
X94297887Y-115392133D01*
X94325339Y-115414661D01*
X94347867Y-115442113D01*
X94364607Y-115473431D01*
X94374915Y-115507409D01*
X94379000Y-115548890D01*
X94379000Y-116150110D01*
X94374915Y-116191591D01*
X94364607Y-116225569D01*
X94347867Y-116256887D01*
X94325339Y-116284339D01*
X94297887Y-116306867D01*
X94266569Y-116323607D01*
X94232591Y-116333915D01*
X94191110Y-116338000D01*
X93514890Y-116338000D01*
X93473409Y-116333915D01*
X93439431Y-116323607D01*
X93408113Y-116306867D01*
X93380661Y-116284339D01*
X93358133Y-116256887D01*
X93341393Y-116225569D01*
X93331085Y-116191591D01*
X93327000Y-116150110D01*
X93327000Y-115548890D01*
X93331085Y-115507409D01*
X93341393Y-115473431D01*
X93358133Y-115442113D01*
X93380661Y-115414661D01*
X93408113Y-115392133D01*
X93439431Y-115375393D01*
X93473409Y-115365085D01*
X93514890Y-115361000D01*
X94191110Y-115361000D01*
X94232591Y-115365085D01*
X94232591Y-115365085D01*
G37*
G36*
X92645091Y-115365085D02*
X92679069Y-115375393D01*
X92710387Y-115392133D01*
X92737839Y-115414661D01*
X92760367Y-115442113D01*
X92777107Y-115473431D01*
X92787415Y-115507409D01*
X92791500Y-115548890D01*
X92791500Y-116150110D01*
X92787415Y-116191591D01*
X92777107Y-116225569D01*
X92760367Y-116256887D01*
X92737839Y-116284339D01*
X92710387Y-116306867D01*
X92679069Y-116323607D01*
X92645091Y-116333915D01*
X92603610Y-116338000D01*
X91927390Y-116338000D01*
X91885909Y-116333915D01*
X91851931Y-116323607D01*
X91820613Y-116306867D01*
X91793161Y-116284339D01*
X91770633Y-116256887D01*
X91753893Y-116225569D01*
X91743585Y-116191591D01*
X91739500Y-116150110D01*
X91739500Y-115548890D01*
X91743585Y-115507409D01*
X91753893Y-115473431D01*
X91770633Y-115442113D01*
X91793161Y-115414661D01*
X91820613Y-115392133D01*
X91851931Y-115375393D01*
X91885909Y-115365085D01*
X91927390Y-115361000D01*
X92603610Y-115361000D01*
X92645091Y-115365085D01*
X92645091Y-115365085D01*
G37*
G36*
X90168591Y-115301585D02*
X90202569Y-115311893D01*
X90233887Y-115328633D01*
X90261339Y-115351161D01*
X90283867Y-115378613D01*
X90300607Y-115409931D01*
X90310915Y-115443909D01*
X90315000Y-115485390D01*
X90315000Y-116086610D01*
X90310915Y-116128091D01*
X90300607Y-116162069D01*
X90283867Y-116193387D01*
X90261339Y-116220839D01*
X90233887Y-116243367D01*
X90202569Y-116260107D01*
X90168591Y-116270415D01*
X90127110Y-116274500D01*
X89450890Y-116274500D01*
X89409409Y-116270415D01*
X89375431Y-116260107D01*
X89344113Y-116243367D01*
X89316661Y-116220839D01*
X89294133Y-116193387D01*
X89277393Y-116162069D01*
X89267085Y-116128091D01*
X89263000Y-116086610D01*
X89263000Y-115485390D01*
X89267085Y-115443909D01*
X89277393Y-115409931D01*
X89294133Y-115378613D01*
X89316661Y-115351161D01*
X89344113Y-115328633D01*
X89375431Y-115311893D01*
X89409409Y-115301585D01*
X89450890Y-115297500D01*
X90127110Y-115297500D01*
X90168591Y-115301585D01*
X90168591Y-115301585D01*
G37*
G36*
X75881091Y-115301585D02*
X75915069Y-115311893D01*
X75946387Y-115328633D01*
X75973839Y-115351161D01*
X75996367Y-115378613D01*
X76013107Y-115409931D01*
X76023415Y-115443909D01*
X76027500Y-115485390D01*
X76027500Y-116086610D01*
X76023415Y-116128091D01*
X76013107Y-116162069D01*
X75996367Y-116193387D01*
X75973839Y-116220839D01*
X75946387Y-116243367D01*
X75915069Y-116260107D01*
X75881091Y-116270415D01*
X75839610Y-116274500D01*
X75163390Y-116274500D01*
X75121909Y-116270415D01*
X75087931Y-116260107D01*
X75056613Y-116243367D01*
X75029161Y-116220839D01*
X75006633Y-116193387D01*
X74989893Y-116162069D01*
X74979585Y-116128091D01*
X74975500Y-116086610D01*
X74975500Y-115485390D01*
X74979585Y-115443909D01*
X74989893Y-115409931D01*
X75006633Y-115378613D01*
X75029161Y-115351161D01*
X75056613Y-115328633D01*
X75087931Y-115311893D01*
X75121909Y-115301585D01*
X75163390Y-115297500D01*
X75839610Y-115297500D01*
X75881091Y-115301585D01*
X75881091Y-115301585D01*
G37*
G36*
X79310091Y-115238085D02*
X79344069Y-115248393D01*
X79375387Y-115265133D01*
X79402839Y-115287661D01*
X79425367Y-115315113D01*
X79442107Y-115346431D01*
X79452415Y-115380409D01*
X79456500Y-115421890D01*
X79456500Y-116023110D01*
X79452415Y-116064591D01*
X79442107Y-116098569D01*
X79425367Y-116129887D01*
X79402839Y-116157339D01*
X79375387Y-116179867D01*
X79344069Y-116196607D01*
X79310091Y-116206915D01*
X79268610Y-116211000D01*
X78592390Y-116211000D01*
X78550909Y-116206915D01*
X78516931Y-116196607D01*
X78485613Y-116179867D01*
X78458161Y-116157339D01*
X78435633Y-116129887D01*
X78418893Y-116098569D01*
X78408585Y-116064591D01*
X78404500Y-116023110D01*
X78404500Y-115421890D01*
X78408585Y-115380409D01*
X78418893Y-115346431D01*
X78435633Y-115315113D01*
X78458161Y-115287661D01*
X78485613Y-115265133D01*
X78516931Y-115248393D01*
X78550909Y-115238085D01*
X78592390Y-115234000D01*
X79268610Y-115234000D01*
X79310091Y-115238085D01*
X79310091Y-115238085D01*
G37*
G36*
X83860500Y-116018500D02*
X82858500Y-116018500D01*
X82858500Y-115116500D01*
X83860500Y-115116500D01*
X83860500Y-116018500D01*
X83860500Y-116018500D01*
G37*
G36*
X87924500Y-116018500D02*
X86922500Y-116018500D01*
X86922500Y-115116500D01*
X87924500Y-115116500D01*
X87924500Y-116018500D01*
X87924500Y-116018500D01*
G37*
G36*
X85924500Y-115068500D02*
X84922500Y-115068500D01*
X84922500Y-114166500D01*
X85924500Y-114166500D01*
X85924500Y-115068500D01*
X85924500Y-115068500D01*
G37*
G36*
X81860500Y-115068500D02*
X80858500Y-115068500D01*
X80858500Y-114166500D01*
X81860500Y-114166500D01*
X81860500Y-115068500D01*
X81860500Y-115068500D01*
G37*
G36*
X98748228Y-113181703D02*
X98903100Y-113245853D01*
X99042481Y-113338985D01*
X99161015Y-113457519D01*
X99254147Y-113596900D01*
X99318297Y-113751772D01*
X99351000Y-113916184D01*
X99351000Y-114083816D01*
X99318297Y-114248228D01*
X99254147Y-114403100D01*
X99161015Y-114542481D01*
X99042481Y-114661015D01*
X98903100Y-114754147D01*
X98748228Y-114818297D01*
X98583816Y-114851000D01*
X98416184Y-114851000D01*
X98251772Y-114818297D01*
X98096900Y-114754147D01*
X97957519Y-114661015D01*
X97838985Y-114542481D01*
X97745853Y-114403100D01*
X97681703Y-114248228D01*
X97649000Y-114083816D01*
X97649000Y-113916184D01*
X97681703Y-113751772D01*
X97745853Y-113596900D01*
X97838985Y-113457519D01*
X97957519Y-113338985D01*
X98096900Y-113245853D01*
X98251772Y-113181703D01*
X98416184Y-113149000D01*
X98583816Y-113149000D01*
X98748228Y-113181703D01*
X98748228Y-113181703D01*
G37*
G36*
X94232591Y-113790085D02*
X94266569Y-113800393D01*
X94297887Y-113817133D01*
X94325339Y-113839661D01*
X94347867Y-113867113D01*
X94364607Y-113898431D01*
X94374915Y-113932409D01*
X94379000Y-113973890D01*
X94379000Y-114575110D01*
X94374915Y-114616591D01*
X94364607Y-114650569D01*
X94347867Y-114681887D01*
X94325339Y-114709339D01*
X94297887Y-114731867D01*
X94266569Y-114748607D01*
X94232591Y-114758915D01*
X94191110Y-114763000D01*
X93514890Y-114763000D01*
X93473409Y-114758915D01*
X93439431Y-114748607D01*
X93408113Y-114731867D01*
X93380661Y-114709339D01*
X93358133Y-114681887D01*
X93341393Y-114650569D01*
X93331085Y-114616591D01*
X93327000Y-114575110D01*
X93327000Y-113973890D01*
X93331085Y-113932409D01*
X93341393Y-113898431D01*
X93358133Y-113867113D01*
X93380661Y-113839661D01*
X93408113Y-113817133D01*
X93439431Y-113800393D01*
X93473409Y-113790085D01*
X93514890Y-113786000D01*
X94191110Y-113786000D01*
X94232591Y-113790085D01*
X94232591Y-113790085D01*
G37*
G36*
X92645091Y-113790085D02*
X92679069Y-113800393D01*
X92710387Y-113817133D01*
X92737839Y-113839661D01*
X92760367Y-113867113D01*
X92777107Y-113898431D01*
X92787415Y-113932409D01*
X92791500Y-113973890D01*
X92791500Y-114575110D01*
X92787415Y-114616591D01*
X92777107Y-114650569D01*
X92760367Y-114681887D01*
X92737839Y-114709339D01*
X92710387Y-114731867D01*
X92679069Y-114748607D01*
X92645091Y-114758915D01*
X92603610Y-114763000D01*
X91927390Y-114763000D01*
X91885909Y-114758915D01*
X91851931Y-114748607D01*
X91820613Y-114731867D01*
X91793161Y-114709339D01*
X91770633Y-114681887D01*
X91753893Y-114650569D01*
X91743585Y-114616591D01*
X91739500Y-114575110D01*
X91739500Y-113973890D01*
X91743585Y-113932409D01*
X91753893Y-113898431D01*
X91770633Y-113867113D01*
X91793161Y-113839661D01*
X91820613Y-113817133D01*
X91851931Y-113800393D01*
X91885909Y-113790085D01*
X91927390Y-113786000D01*
X92603610Y-113786000D01*
X92645091Y-113790085D01*
X92645091Y-113790085D01*
G37*
G36*
X67880091Y-113777585D02*
X67914069Y-113787893D01*
X67945387Y-113804633D01*
X67972839Y-113827161D01*
X67995367Y-113854613D01*
X68012107Y-113885931D01*
X68022415Y-113919909D01*
X68026500Y-113961390D01*
X68026500Y-114562610D01*
X68022415Y-114604091D01*
X68012107Y-114638069D01*
X67995367Y-114669387D01*
X67972839Y-114696839D01*
X67945387Y-114719367D01*
X67914069Y-114736107D01*
X67880091Y-114746415D01*
X67838610Y-114750500D01*
X67162390Y-114750500D01*
X67120909Y-114746415D01*
X67086931Y-114736107D01*
X67055613Y-114719367D01*
X67028161Y-114696839D01*
X67005633Y-114669387D01*
X66988893Y-114638069D01*
X66978585Y-114604091D01*
X66974500Y-114562610D01*
X66974500Y-113961390D01*
X66978585Y-113919909D01*
X66988893Y-113885931D01*
X67005633Y-113854613D01*
X67028161Y-113827161D01*
X67055613Y-113804633D01*
X67086931Y-113787893D01*
X67120909Y-113777585D01*
X67162390Y-113773500D01*
X67838610Y-113773500D01*
X67880091Y-113777585D01*
X67880091Y-113777585D01*
G37*
G36*
X90168591Y-113726585D02*
X90202569Y-113736893D01*
X90233887Y-113753633D01*
X90261339Y-113776161D01*
X90283867Y-113803613D01*
X90300607Y-113834931D01*
X90310915Y-113868909D01*
X90315000Y-113910390D01*
X90315000Y-114511610D01*
X90310915Y-114553091D01*
X90300607Y-114587069D01*
X90283867Y-114618387D01*
X90261339Y-114645839D01*
X90233887Y-114668367D01*
X90202569Y-114685107D01*
X90168591Y-114695415D01*
X90127110Y-114699500D01*
X89450890Y-114699500D01*
X89409409Y-114695415D01*
X89375431Y-114685107D01*
X89344113Y-114668367D01*
X89316661Y-114645839D01*
X89294133Y-114618387D01*
X89277393Y-114587069D01*
X89267085Y-114553091D01*
X89263000Y-114511610D01*
X89263000Y-113910390D01*
X89267085Y-113868909D01*
X89277393Y-113834931D01*
X89294133Y-113803613D01*
X89316661Y-113776161D01*
X89344113Y-113753633D01*
X89375431Y-113736893D01*
X89409409Y-113726585D01*
X89450890Y-113722500D01*
X90127110Y-113722500D01*
X90168591Y-113726585D01*
X90168591Y-113726585D01*
G37*
G36*
X75881091Y-113726585D02*
X75915069Y-113736893D01*
X75946387Y-113753633D01*
X75973839Y-113776161D01*
X75996367Y-113803613D01*
X76013107Y-113834931D01*
X76023415Y-113868909D01*
X76027500Y-113910390D01*
X76027500Y-114511610D01*
X76023415Y-114553091D01*
X76013107Y-114587069D01*
X75996367Y-114618387D01*
X75973839Y-114645839D01*
X75946387Y-114668367D01*
X75915069Y-114685107D01*
X75881091Y-114695415D01*
X75839610Y-114699500D01*
X75163390Y-114699500D01*
X75121909Y-114695415D01*
X75087931Y-114685107D01*
X75056613Y-114668367D01*
X75029161Y-114645839D01*
X75006633Y-114618387D01*
X74989893Y-114587069D01*
X74979585Y-114553091D01*
X74975500Y-114511610D01*
X74975500Y-113910390D01*
X74979585Y-113868909D01*
X74989893Y-113834931D01*
X75006633Y-113803613D01*
X75029161Y-113776161D01*
X75056613Y-113753633D01*
X75087931Y-113736893D01*
X75121909Y-113726585D01*
X75163390Y-113722500D01*
X75839610Y-113722500D01*
X75881091Y-113726585D01*
X75881091Y-113726585D01*
G37*
G36*
X79310091Y-113663085D02*
X79344069Y-113673393D01*
X79375387Y-113690133D01*
X79402839Y-113712661D01*
X79425367Y-113740113D01*
X79442107Y-113771431D01*
X79452415Y-113805409D01*
X79456500Y-113846890D01*
X79456500Y-114448110D01*
X79452415Y-114489591D01*
X79442107Y-114523569D01*
X79425367Y-114554887D01*
X79402839Y-114582339D01*
X79375387Y-114604867D01*
X79344069Y-114621607D01*
X79310091Y-114631915D01*
X79268610Y-114636000D01*
X78592390Y-114636000D01*
X78550909Y-114631915D01*
X78516931Y-114621607D01*
X78485613Y-114604867D01*
X78458161Y-114582339D01*
X78435633Y-114554887D01*
X78418893Y-114523569D01*
X78408585Y-114489591D01*
X78404500Y-114448110D01*
X78404500Y-113846890D01*
X78408585Y-113805409D01*
X78418893Y-113771431D01*
X78435633Y-113740113D01*
X78458161Y-113712661D01*
X78485613Y-113690133D01*
X78516931Y-113673393D01*
X78550909Y-113663085D01*
X78592390Y-113659000D01*
X79268610Y-113659000D01*
X79310091Y-113663085D01*
X79310091Y-113663085D01*
G37*
G36*
X87924500Y-114118500D02*
X86922500Y-114118500D01*
X86922500Y-113216500D01*
X87924500Y-113216500D01*
X87924500Y-114118500D01*
X87924500Y-114118500D01*
G37*
G36*
X83860500Y-114118500D02*
X82858500Y-114118500D01*
X82858500Y-113216500D01*
X83860500Y-113216500D01*
X83860500Y-114118500D01*
X83860500Y-114118500D01*
G37*
G36*
X72317396Y-111835546D02*
X72490466Y-111907234D01*
X72646230Y-112011312D01*
X72778688Y-112143770D01*
X72882766Y-112299534D01*
X72954454Y-112472604D01*
X72991000Y-112656333D01*
X72991000Y-112843667D01*
X72954454Y-113027396D01*
X72882766Y-113200466D01*
X72778688Y-113356230D01*
X72646230Y-113488688D01*
X72490466Y-113592766D01*
X72317396Y-113664454D01*
X72133667Y-113701000D01*
X71946333Y-113701000D01*
X71762604Y-113664454D01*
X71589534Y-113592766D01*
X71433770Y-113488688D01*
X71301312Y-113356230D01*
X71197234Y-113200466D01*
X71125546Y-113027396D01*
X71089000Y-112843667D01*
X71089000Y-112656333D01*
X71125546Y-112472604D01*
X71197234Y-112299534D01*
X71301312Y-112143770D01*
X71433770Y-112011312D01*
X71589534Y-111907234D01*
X71762604Y-111835546D01*
X71946333Y-111799000D01*
X72133667Y-111799000D01*
X72317396Y-111835546D01*
X72317396Y-111835546D01*
G37*
G36*
X63067396Y-111835546D02*
X63240466Y-111907234D01*
X63396230Y-112011312D01*
X63528688Y-112143770D01*
X63632766Y-112299534D01*
X63704454Y-112472604D01*
X63741000Y-112656333D01*
X63741000Y-112843667D01*
X63704454Y-113027396D01*
X63632766Y-113200466D01*
X63528688Y-113356230D01*
X63396230Y-113488688D01*
X63240466Y-113592766D01*
X63067396Y-113664454D01*
X62883667Y-113701000D01*
X62696333Y-113701000D01*
X62512604Y-113664454D01*
X62339534Y-113592766D01*
X62183770Y-113488688D01*
X62051312Y-113356230D01*
X61947234Y-113200466D01*
X61875546Y-113027396D01*
X61839000Y-112843667D01*
X61839000Y-112656333D01*
X61875546Y-112472604D01*
X61947234Y-112299534D01*
X62051312Y-112143770D01*
X62183770Y-112011312D01*
X62339534Y-111907234D01*
X62512604Y-111835546D01*
X62696333Y-111799000D01*
X62883667Y-111799000D01*
X63067396Y-111835546D01*
X63067396Y-111835546D01*
G37*
G36*
X70451000Y-113701000D02*
X68549000Y-113701000D01*
X68549000Y-111799000D01*
X70451000Y-111799000D01*
X70451000Y-113701000D01*
X70451000Y-113701000D01*
G37*
G36*
X61201000Y-113701000D02*
X59299000Y-113701000D01*
X59299000Y-111799000D01*
X61201000Y-111799000D01*
X61201000Y-113701000D01*
X61201000Y-113701000D01*
G37*
G36*
X90168591Y-112253585D02*
X90202569Y-112263893D01*
X90233887Y-112280633D01*
X90261339Y-112303161D01*
X90283867Y-112330613D01*
X90300607Y-112361931D01*
X90310915Y-112395909D01*
X90315000Y-112437390D01*
X90315000Y-113038610D01*
X90310915Y-113080091D01*
X90300607Y-113114069D01*
X90283867Y-113145387D01*
X90261339Y-113172839D01*
X90233887Y-113195367D01*
X90202569Y-113212107D01*
X90168591Y-113222415D01*
X90127110Y-113226500D01*
X89450890Y-113226500D01*
X89409409Y-113222415D01*
X89375431Y-113212107D01*
X89344113Y-113195367D01*
X89316661Y-113172839D01*
X89294133Y-113145387D01*
X89277393Y-113114069D01*
X89267085Y-113080091D01*
X89263000Y-113038610D01*
X89263000Y-112437390D01*
X89267085Y-112395909D01*
X89277393Y-112361931D01*
X89294133Y-112330613D01*
X89316661Y-112303161D01*
X89344113Y-112280633D01*
X89375431Y-112263893D01*
X89409409Y-112253585D01*
X89450890Y-112249500D01*
X90127110Y-112249500D01*
X90168591Y-112253585D01*
X90168591Y-112253585D01*
G37*
G36*
X75881091Y-112253585D02*
X75915069Y-112263893D01*
X75946387Y-112280633D01*
X75973839Y-112303161D01*
X75996367Y-112330613D01*
X76013107Y-112361931D01*
X76023415Y-112395909D01*
X76027500Y-112437390D01*
X76027500Y-113038610D01*
X76023415Y-113080091D01*
X76013107Y-113114069D01*
X75996367Y-113145387D01*
X75973839Y-113172839D01*
X75946387Y-113195367D01*
X75915069Y-113212107D01*
X75881091Y-113222415D01*
X75839610Y-113226500D01*
X75163390Y-113226500D01*
X75121909Y-113222415D01*
X75087931Y-113212107D01*
X75056613Y-113195367D01*
X75029161Y-113172839D01*
X75006633Y-113145387D01*
X74989893Y-113114069D01*
X74979585Y-113080091D01*
X74975500Y-113038610D01*
X74975500Y-112437390D01*
X74979585Y-112395909D01*
X74989893Y-112361931D01*
X75006633Y-112330613D01*
X75029161Y-112303161D01*
X75056613Y-112280633D01*
X75087931Y-112263893D01*
X75121909Y-112253585D01*
X75163390Y-112249500D01*
X75839610Y-112249500D01*
X75881091Y-112253585D01*
X75881091Y-112253585D01*
G37*
G36*
X91756091Y-112253585D02*
X91790069Y-112263893D01*
X91821387Y-112280633D01*
X91848839Y-112303161D01*
X91871367Y-112330613D01*
X91888107Y-112361931D01*
X91898415Y-112395909D01*
X91902500Y-112437390D01*
X91902500Y-113038610D01*
X91898415Y-113080091D01*
X91888107Y-113114069D01*
X91871367Y-113145387D01*
X91848839Y-113172839D01*
X91821387Y-113195367D01*
X91790069Y-113212107D01*
X91756091Y-113222415D01*
X91714610Y-113226500D01*
X91038390Y-113226500D01*
X90996909Y-113222415D01*
X90962931Y-113212107D01*
X90931613Y-113195367D01*
X90904161Y-113172839D01*
X90881633Y-113145387D01*
X90864893Y-113114069D01*
X90854585Y-113080091D01*
X90850500Y-113038610D01*
X90850500Y-112437390D01*
X90854585Y-112395909D01*
X90864893Y-112361931D01*
X90881633Y-112330613D01*
X90904161Y-112303161D01*
X90931613Y-112280633D01*
X90962931Y-112263893D01*
X90996909Y-112253585D01*
X91038390Y-112249500D01*
X91714610Y-112249500D01*
X91756091Y-112253585D01*
X91756091Y-112253585D01*
G37*
G36*
X77468591Y-112253585D02*
X77502569Y-112263893D01*
X77533887Y-112280633D01*
X77561339Y-112303161D01*
X77583867Y-112330613D01*
X77600607Y-112361931D01*
X77610915Y-112395909D01*
X77615000Y-112437390D01*
X77615000Y-113038610D01*
X77610915Y-113080091D01*
X77600607Y-113114069D01*
X77583867Y-113145387D01*
X77561339Y-113172839D01*
X77533887Y-113195367D01*
X77502569Y-113212107D01*
X77468591Y-113222415D01*
X77427110Y-113226500D01*
X76750890Y-113226500D01*
X76709409Y-113222415D01*
X76675431Y-113212107D01*
X76644113Y-113195367D01*
X76616661Y-113172839D01*
X76594133Y-113145387D01*
X76577393Y-113114069D01*
X76567085Y-113080091D01*
X76563000Y-113038610D01*
X76563000Y-112437390D01*
X76567085Y-112395909D01*
X76577393Y-112361931D01*
X76594133Y-112330613D01*
X76616661Y-112303161D01*
X76644113Y-112280633D01*
X76675431Y-112263893D01*
X76709409Y-112253585D01*
X76750890Y-112249500D01*
X77427110Y-112249500D01*
X77468591Y-112253585D01*
X77468591Y-112253585D01*
G37*
G36*
X79310091Y-112215586D02*
X79344069Y-112225894D01*
X79375387Y-112242634D01*
X79402839Y-112265162D01*
X79425367Y-112292614D01*
X79442107Y-112323932D01*
X79452415Y-112357910D01*
X79456500Y-112399391D01*
X79456500Y-113000611D01*
X79452415Y-113042092D01*
X79442107Y-113076070D01*
X79425367Y-113107388D01*
X79402839Y-113134840D01*
X79375387Y-113157368D01*
X79344069Y-113174108D01*
X79310091Y-113184416D01*
X79268610Y-113188501D01*
X78592390Y-113188501D01*
X78550909Y-113184416D01*
X78516931Y-113174108D01*
X78485613Y-113157368D01*
X78458161Y-113134840D01*
X78435633Y-113107388D01*
X78418893Y-113076070D01*
X78408585Y-113042092D01*
X78404500Y-113000611D01*
X78404500Y-112399391D01*
X78408585Y-112357910D01*
X78418893Y-112323932D01*
X78435633Y-112292614D01*
X78458161Y-112265162D01*
X78485613Y-112242634D01*
X78516931Y-112225894D01*
X78550909Y-112215586D01*
X78592390Y-112211501D01*
X79268610Y-112211501D01*
X79310091Y-112215586D01*
X79310091Y-112215586D01*
G37*
G36*
X67880091Y-112202585D02*
X67914069Y-112212893D01*
X67945387Y-112229633D01*
X67972839Y-112252161D01*
X67995367Y-112279613D01*
X68012107Y-112310931D01*
X68022415Y-112344909D01*
X68026500Y-112386390D01*
X68026500Y-112987610D01*
X68022415Y-113029091D01*
X68012107Y-113063069D01*
X67995367Y-113094387D01*
X67972839Y-113121839D01*
X67945387Y-113144367D01*
X67914069Y-113161107D01*
X67880091Y-113171415D01*
X67838610Y-113175500D01*
X67162390Y-113175500D01*
X67120909Y-113171415D01*
X67086931Y-113161107D01*
X67055613Y-113144367D01*
X67028161Y-113121839D01*
X67005633Y-113094387D01*
X66988893Y-113063069D01*
X66978585Y-113029091D01*
X66974500Y-112987610D01*
X66974500Y-112386390D01*
X66978585Y-112344909D01*
X66988893Y-112310931D01*
X67005633Y-112279613D01*
X67028161Y-112252161D01*
X67055613Y-112229633D01*
X67086931Y-112212893D01*
X67120909Y-112202585D01*
X67162390Y-112198500D01*
X67838610Y-112198500D01*
X67880091Y-112202585D01*
X67880091Y-112202585D01*
G37*
G36*
X80897591Y-112190085D02*
X80931569Y-112200393D01*
X80962887Y-112217133D01*
X80990339Y-112239661D01*
X81012867Y-112267113D01*
X81029607Y-112298431D01*
X81039915Y-112332409D01*
X81044000Y-112373890D01*
X81044000Y-112975110D01*
X81039915Y-113016591D01*
X81029607Y-113050569D01*
X81012867Y-113081887D01*
X80990339Y-113109339D01*
X80962887Y-113131867D01*
X80931569Y-113148607D01*
X80897591Y-113158915D01*
X80856110Y-113163000D01*
X80179890Y-113163000D01*
X80138409Y-113158915D01*
X80104431Y-113148607D01*
X80073113Y-113131867D01*
X80045661Y-113109339D01*
X80023133Y-113081887D01*
X80006393Y-113050569D01*
X79996085Y-113016591D01*
X79992000Y-112975110D01*
X79992000Y-112373890D01*
X79996085Y-112332409D01*
X80006393Y-112298431D01*
X80023133Y-112267113D01*
X80045661Y-112239661D01*
X80073113Y-112217133D01*
X80104431Y-112200393D01*
X80138409Y-112190085D01*
X80179890Y-112186000D01*
X80856110Y-112186000D01*
X80897591Y-112190085D01*
X80897591Y-112190085D01*
G37*
G36*
X67868091Y-110666585D02*
X67902069Y-110676893D01*
X67933387Y-110693633D01*
X67960839Y-110716161D01*
X67983367Y-110743613D01*
X68000107Y-110774931D01*
X68010415Y-110808909D01*
X68014500Y-110850390D01*
X68014500Y-111526610D01*
X68010415Y-111568091D01*
X68000107Y-111602069D01*
X67983367Y-111633387D01*
X67960839Y-111660839D01*
X67933387Y-111683367D01*
X67902069Y-111700107D01*
X67868091Y-111710415D01*
X67826610Y-111714500D01*
X67225390Y-111714500D01*
X67183909Y-111710415D01*
X67149931Y-111700107D01*
X67118613Y-111683367D01*
X67091161Y-111660839D01*
X67068633Y-111633387D01*
X67051893Y-111602069D01*
X67041585Y-111568091D01*
X67037500Y-111526610D01*
X67037500Y-110850390D01*
X67041585Y-110808909D01*
X67051893Y-110774931D01*
X67068633Y-110743613D01*
X67091161Y-110716161D01*
X67118613Y-110693633D01*
X67149931Y-110676893D01*
X67183909Y-110666585D01*
X67225390Y-110662500D01*
X67826610Y-110662500D01*
X67868091Y-110666585D01*
X67868091Y-110666585D01*
G37*
G36*
X66293091Y-110666585D02*
X66327069Y-110676893D01*
X66358387Y-110693633D01*
X66385839Y-110716161D01*
X66408367Y-110743613D01*
X66425107Y-110774931D01*
X66435415Y-110808909D01*
X66439500Y-110850390D01*
X66439500Y-111526610D01*
X66435415Y-111568091D01*
X66425107Y-111602069D01*
X66408367Y-111633387D01*
X66385839Y-111660839D01*
X66358387Y-111683367D01*
X66327069Y-111700107D01*
X66293091Y-111710415D01*
X66251610Y-111714500D01*
X65650390Y-111714500D01*
X65608909Y-111710415D01*
X65574931Y-111700107D01*
X65543613Y-111683367D01*
X65516161Y-111660839D01*
X65493633Y-111633387D01*
X65476893Y-111602069D01*
X65466585Y-111568091D01*
X65462500Y-111526610D01*
X65462500Y-110850390D01*
X65466585Y-110808909D01*
X65476893Y-110774931D01*
X65493633Y-110743613D01*
X65516161Y-110716161D01*
X65543613Y-110693633D01*
X65574931Y-110676893D01*
X65608909Y-110666585D01*
X65650390Y-110662500D01*
X66251610Y-110662500D01*
X66293091Y-110666585D01*
X66293091Y-110666585D01*
G37*
G36*
X90168591Y-110678585D02*
X90202569Y-110688893D01*
X90233887Y-110705633D01*
X90261339Y-110728161D01*
X90283867Y-110755613D01*
X90300607Y-110786931D01*
X90310915Y-110820909D01*
X90315000Y-110862390D01*
X90315000Y-111463610D01*
X90310915Y-111505091D01*
X90300607Y-111539069D01*
X90283867Y-111570387D01*
X90261339Y-111597839D01*
X90233887Y-111620367D01*
X90202569Y-111637107D01*
X90168591Y-111647415D01*
X90127110Y-111651500D01*
X89450890Y-111651500D01*
X89409409Y-111647415D01*
X89375431Y-111637107D01*
X89344113Y-111620367D01*
X89316661Y-111597839D01*
X89294133Y-111570387D01*
X89277393Y-111539069D01*
X89267085Y-111505091D01*
X89263000Y-111463610D01*
X89263000Y-110862390D01*
X89267085Y-110820909D01*
X89277393Y-110786931D01*
X89294133Y-110755613D01*
X89316661Y-110728161D01*
X89344113Y-110705633D01*
X89375431Y-110688893D01*
X89409409Y-110678585D01*
X89450890Y-110674500D01*
X90127110Y-110674500D01*
X90168591Y-110678585D01*
X90168591Y-110678585D01*
G37*
G36*
X75881091Y-110678585D02*
X75915069Y-110688893D01*
X75946387Y-110705633D01*
X75973839Y-110728161D01*
X75996367Y-110755613D01*
X76013107Y-110786931D01*
X76023415Y-110820909D01*
X76027500Y-110862390D01*
X76027500Y-111463610D01*
X76023415Y-111505091D01*
X76013107Y-111539069D01*
X75996367Y-111570387D01*
X75973839Y-111597839D01*
X75946387Y-111620367D01*
X75915069Y-111637107D01*
X75881091Y-111647415D01*
X75839610Y-111651500D01*
X75163390Y-111651500D01*
X75121909Y-111647415D01*
X75087931Y-111637107D01*
X75056613Y-111620367D01*
X75029161Y-111597839D01*
X75006633Y-111570387D01*
X74989893Y-111539069D01*
X74979585Y-111505091D01*
X74975500Y-111463610D01*
X74975500Y-110862390D01*
X74979585Y-110820909D01*
X74989893Y-110786931D01*
X75006633Y-110755613D01*
X75029161Y-110728161D01*
X75056613Y-110705633D01*
X75087931Y-110688893D01*
X75121909Y-110678585D01*
X75163390Y-110674500D01*
X75839610Y-110674500D01*
X75881091Y-110678585D01*
X75881091Y-110678585D01*
G37*
G36*
X91756091Y-110678585D02*
X91790069Y-110688893D01*
X91821387Y-110705633D01*
X91848839Y-110728161D01*
X91871367Y-110755613D01*
X91888107Y-110786931D01*
X91898415Y-110820909D01*
X91902500Y-110862390D01*
X91902500Y-111463610D01*
X91898415Y-111505091D01*
X91888107Y-111539069D01*
X91871367Y-111570387D01*
X91848839Y-111597839D01*
X91821387Y-111620367D01*
X91790069Y-111637107D01*
X91756091Y-111647415D01*
X91714610Y-111651500D01*
X91038390Y-111651500D01*
X90996909Y-111647415D01*
X90962931Y-111637107D01*
X90931613Y-111620367D01*
X90904161Y-111597839D01*
X90881633Y-111570387D01*
X90864893Y-111539069D01*
X90854585Y-111505091D01*
X90850500Y-111463610D01*
X90850500Y-110862390D01*
X90854585Y-110820909D01*
X90864893Y-110786931D01*
X90881633Y-110755613D01*
X90904161Y-110728161D01*
X90931613Y-110705633D01*
X90962931Y-110688893D01*
X90996909Y-110678585D01*
X91038390Y-110674500D01*
X91714610Y-110674500D01*
X91756091Y-110678585D01*
X91756091Y-110678585D01*
G37*
G36*
X77468591Y-110678585D02*
X77502569Y-110688893D01*
X77533887Y-110705633D01*
X77561339Y-110728161D01*
X77583867Y-110755613D01*
X77600607Y-110786931D01*
X77610915Y-110820909D01*
X77615000Y-110862390D01*
X77615000Y-111463610D01*
X77610915Y-111505091D01*
X77600607Y-111539069D01*
X77583867Y-111570387D01*
X77561339Y-111597839D01*
X77533887Y-111620367D01*
X77502569Y-111637107D01*
X77468591Y-111647415D01*
X77427110Y-111651500D01*
X76750890Y-111651500D01*
X76709409Y-111647415D01*
X76675431Y-111637107D01*
X76644113Y-111620367D01*
X76616661Y-111597839D01*
X76594133Y-111570387D01*
X76577393Y-111539069D01*
X76567085Y-111505091D01*
X76563000Y-111463610D01*
X76563000Y-110862390D01*
X76567085Y-110820909D01*
X76577393Y-110786931D01*
X76594133Y-110755613D01*
X76616661Y-110728161D01*
X76644113Y-110705633D01*
X76675431Y-110688893D01*
X76709409Y-110678585D01*
X76750890Y-110674500D01*
X77427110Y-110674500D01*
X77468591Y-110678585D01*
X77468591Y-110678585D01*
G37*
G36*
X79310091Y-110640586D02*
X79344069Y-110650894D01*
X79375387Y-110667634D01*
X79402839Y-110690162D01*
X79425367Y-110717614D01*
X79442107Y-110748932D01*
X79452415Y-110782910D01*
X79456500Y-110824391D01*
X79456500Y-111425611D01*
X79452415Y-111467092D01*
X79442107Y-111501070D01*
X79425367Y-111532388D01*
X79402839Y-111559840D01*
X79375387Y-111582368D01*
X79344069Y-111599108D01*
X79310091Y-111609416D01*
X79268610Y-111613501D01*
X78592390Y-111613501D01*
X78550909Y-111609416D01*
X78516931Y-111599108D01*
X78485613Y-111582368D01*
X78458161Y-111559840D01*
X78435633Y-111532388D01*
X78418893Y-111501070D01*
X78408585Y-111467092D01*
X78404500Y-111425611D01*
X78404500Y-110824391D01*
X78408585Y-110782910D01*
X78418893Y-110748932D01*
X78435633Y-110717614D01*
X78458161Y-110690162D01*
X78485613Y-110667634D01*
X78516931Y-110650894D01*
X78550909Y-110640586D01*
X78592390Y-110636501D01*
X79268610Y-110636501D01*
X79310091Y-110640586D01*
X79310091Y-110640586D01*
G37*
G36*
X80897591Y-110615085D02*
X80931569Y-110625393D01*
X80962887Y-110642133D01*
X80990339Y-110664661D01*
X81012867Y-110692113D01*
X81029607Y-110723431D01*
X81039915Y-110757409D01*
X81044000Y-110798890D01*
X81044000Y-111400110D01*
X81039915Y-111441591D01*
X81029607Y-111475569D01*
X81012867Y-111506887D01*
X80990339Y-111534339D01*
X80962887Y-111556867D01*
X80931569Y-111573607D01*
X80897591Y-111583915D01*
X80856110Y-111588000D01*
X80179890Y-111588000D01*
X80138409Y-111583915D01*
X80104431Y-111573607D01*
X80073113Y-111556867D01*
X80045661Y-111534339D01*
X80023133Y-111506887D01*
X80006393Y-111475569D01*
X79996085Y-111441591D01*
X79992000Y-111400110D01*
X79992000Y-110798890D01*
X79996085Y-110757409D01*
X80006393Y-110723431D01*
X80023133Y-110692113D01*
X80045661Y-110664661D01*
X80073113Y-110642133D01*
X80104431Y-110625393D01*
X80138409Y-110615085D01*
X80179890Y-110611000D01*
X80856110Y-110611000D01*
X80897591Y-110615085D01*
X80897591Y-110615085D01*
G37*
G36*
X51262812Y-108633624D02*
X51426784Y-108701544D01*
X51574354Y-108800147D01*
X51699853Y-108925646D01*
X51798456Y-109073216D01*
X51866376Y-109237188D01*
X51901000Y-109411259D01*
X51901000Y-109588741D01*
X51866376Y-109762812D01*
X51798456Y-109926784D01*
X51699853Y-110074354D01*
X51574354Y-110199853D01*
X51426784Y-110298456D01*
X51262812Y-110366376D01*
X51088741Y-110401000D01*
X50911259Y-110401000D01*
X50737188Y-110366376D01*
X50573216Y-110298456D01*
X50425646Y-110199853D01*
X50300147Y-110074354D01*
X50201544Y-109926784D01*
X50133624Y-109762812D01*
X50099000Y-109588741D01*
X50099000Y-109411259D01*
X50133624Y-109237188D01*
X50201544Y-109073216D01*
X50300147Y-108925646D01*
X50425646Y-108800147D01*
X50573216Y-108701544D01*
X50737188Y-108633624D01*
X50911259Y-108599000D01*
X51088741Y-108599000D01*
X51262812Y-108633624D01*
X51262812Y-108633624D01*
G37*
G36*
X55762812Y-108633624D02*
X55926784Y-108701544D01*
X56074354Y-108800147D01*
X56199853Y-108925646D01*
X56298456Y-109073216D01*
X56366376Y-109237188D01*
X56401000Y-109411259D01*
X56401000Y-109588741D01*
X56366376Y-109762812D01*
X56298456Y-109926784D01*
X56199853Y-110074354D01*
X56074354Y-110199853D01*
X55926784Y-110298456D01*
X55762812Y-110366376D01*
X55588741Y-110401000D01*
X55411259Y-110401000D01*
X55237188Y-110366376D01*
X55073216Y-110298456D01*
X54925646Y-110199853D01*
X54800147Y-110074354D01*
X54701544Y-109926784D01*
X54633624Y-109762812D01*
X54599000Y-109588741D01*
X54599000Y-109411259D01*
X54633624Y-109237188D01*
X54701544Y-109073216D01*
X54800147Y-108925646D01*
X54925646Y-108800147D01*
X55073216Y-108701544D01*
X55237188Y-108633624D01*
X55411259Y-108599000D01*
X55588741Y-108599000D01*
X55762812Y-108633624D01*
X55762812Y-108633624D01*
G37*
G36*
X102827396Y-107705546D02*
X103000466Y-107777234D01*
X103156230Y-107881312D01*
X103288688Y-108013770D01*
X103392766Y-108169534D01*
X103464454Y-108342604D01*
X103501000Y-108526333D01*
X103501000Y-108713667D01*
X103464454Y-108897396D01*
X103392766Y-109070466D01*
X103288688Y-109226230D01*
X103156230Y-109358688D01*
X103000466Y-109462766D01*
X102827396Y-109534454D01*
X102643667Y-109571000D01*
X102456333Y-109571000D01*
X102272604Y-109534454D01*
X102099534Y-109462766D01*
X101943770Y-109358688D01*
X101811312Y-109226230D01*
X101707234Y-109070466D01*
X101635546Y-108897396D01*
X101599000Y-108713667D01*
X101599000Y-108526333D01*
X101635546Y-108342604D01*
X101707234Y-108169534D01*
X101811312Y-108013770D01*
X101943770Y-107881312D01*
X102099534Y-107777234D01*
X102272604Y-107705546D01*
X102456333Y-107669000D01*
X102643667Y-107669000D01*
X102827396Y-107705546D01*
X102827396Y-107705546D01*
G37*
G36*
X59647396Y-107705546D02*
X59820466Y-107777234D01*
X59976230Y-107881312D01*
X60108688Y-108013770D01*
X60212766Y-108169534D01*
X60284454Y-108342604D01*
X60321000Y-108526333D01*
X60321000Y-108713667D01*
X60284454Y-108897396D01*
X60212766Y-109070466D01*
X60108688Y-109226230D01*
X59976230Y-109358688D01*
X59820466Y-109462766D01*
X59647396Y-109534454D01*
X59463667Y-109571000D01*
X59276333Y-109571000D01*
X59092604Y-109534454D01*
X58919534Y-109462766D01*
X58763770Y-109358688D01*
X58631312Y-109226230D01*
X58527234Y-109070466D01*
X58455546Y-108897396D01*
X58419000Y-108713667D01*
X58419000Y-108526333D01*
X58455546Y-108342604D01*
X58527234Y-108169534D01*
X58631312Y-108013770D01*
X58763770Y-107881312D01*
X58919534Y-107777234D01*
X59092604Y-107705546D01*
X59276333Y-107669000D01*
X59463667Y-107669000D01*
X59647396Y-107705546D01*
X59647396Y-107705546D01*
G37*
G36*
X62187396Y-107705546D02*
X62360466Y-107777234D01*
X62516230Y-107881312D01*
X62648688Y-108013770D01*
X62752766Y-108169534D01*
X62824454Y-108342604D01*
X62861000Y-108526333D01*
X62861000Y-108713667D01*
X62824454Y-108897396D01*
X62752766Y-109070466D01*
X62648688Y-109226230D01*
X62516230Y-109358688D01*
X62360466Y-109462766D01*
X62187396Y-109534454D01*
X62003667Y-109571000D01*
X61816333Y-109571000D01*
X61632604Y-109534454D01*
X61459534Y-109462766D01*
X61303770Y-109358688D01*
X61171312Y-109226230D01*
X61067234Y-109070466D01*
X60995546Y-108897396D01*
X60959000Y-108713667D01*
X60959000Y-108526333D01*
X60995546Y-108342604D01*
X61067234Y-108169534D01*
X61171312Y-108013770D01*
X61303770Y-107881312D01*
X61459534Y-107777234D01*
X61632604Y-107705546D01*
X61816333Y-107669000D01*
X62003667Y-107669000D01*
X62187396Y-107705546D01*
X62187396Y-107705546D01*
G37*
G36*
X64727396Y-107705546D02*
X64900466Y-107777234D01*
X65056230Y-107881312D01*
X65188688Y-108013770D01*
X65292766Y-108169534D01*
X65364454Y-108342604D01*
X65401000Y-108526333D01*
X65401000Y-108713667D01*
X65364454Y-108897396D01*
X65292766Y-109070466D01*
X65188688Y-109226230D01*
X65056230Y-109358688D01*
X64900466Y-109462766D01*
X64727396Y-109534454D01*
X64543667Y-109571000D01*
X64356333Y-109571000D01*
X64172604Y-109534454D01*
X63999534Y-109462766D01*
X63843770Y-109358688D01*
X63711312Y-109226230D01*
X63607234Y-109070466D01*
X63535546Y-108897396D01*
X63499000Y-108713667D01*
X63499000Y-108526333D01*
X63535546Y-108342604D01*
X63607234Y-108169534D01*
X63711312Y-108013770D01*
X63843770Y-107881312D01*
X63999534Y-107777234D01*
X64172604Y-107705546D01*
X64356333Y-107669000D01*
X64543667Y-107669000D01*
X64727396Y-107705546D01*
X64727396Y-107705546D01*
G37*
G36*
X67267396Y-107705546D02*
X67440466Y-107777234D01*
X67596230Y-107881312D01*
X67728688Y-108013770D01*
X67832766Y-108169534D01*
X67904454Y-108342604D01*
X67941000Y-108526333D01*
X67941000Y-108713667D01*
X67904454Y-108897396D01*
X67832766Y-109070466D01*
X67728688Y-109226230D01*
X67596230Y-109358688D01*
X67440466Y-109462766D01*
X67267396Y-109534454D01*
X67083667Y-109571000D01*
X66896333Y-109571000D01*
X66712604Y-109534454D01*
X66539534Y-109462766D01*
X66383770Y-109358688D01*
X66251312Y-109226230D01*
X66147234Y-109070466D01*
X66075546Y-108897396D01*
X66039000Y-108713667D01*
X66039000Y-108526333D01*
X66075546Y-108342604D01*
X66147234Y-108169534D01*
X66251312Y-108013770D01*
X66383770Y-107881312D01*
X66539534Y-107777234D01*
X66712604Y-107705546D01*
X66896333Y-107669000D01*
X67083667Y-107669000D01*
X67267396Y-107705546D01*
X67267396Y-107705546D01*
G37*
G36*
X69807396Y-107705546D02*
X69980466Y-107777234D01*
X70136230Y-107881312D01*
X70268688Y-108013770D01*
X70372766Y-108169534D01*
X70444454Y-108342604D01*
X70481000Y-108526333D01*
X70481000Y-108713667D01*
X70444454Y-108897396D01*
X70372766Y-109070466D01*
X70268688Y-109226230D01*
X70136230Y-109358688D01*
X69980466Y-109462766D01*
X69807396Y-109534454D01*
X69623667Y-109571000D01*
X69436333Y-109571000D01*
X69252604Y-109534454D01*
X69079534Y-109462766D01*
X68923770Y-109358688D01*
X68791312Y-109226230D01*
X68687234Y-109070466D01*
X68615546Y-108897396D01*
X68579000Y-108713667D01*
X68579000Y-108526333D01*
X68615546Y-108342604D01*
X68687234Y-108169534D01*
X68791312Y-108013770D01*
X68923770Y-107881312D01*
X69079534Y-107777234D01*
X69252604Y-107705546D01*
X69436333Y-107669000D01*
X69623667Y-107669000D01*
X69807396Y-107705546D01*
X69807396Y-107705546D01*
G37*
G36*
X72347396Y-107705546D02*
X72520466Y-107777234D01*
X72676230Y-107881312D01*
X72808688Y-108013770D01*
X72912766Y-108169534D01*
X72984454Y-108342604D01*
X73021000Y-108526333D01*
X73021000Y-108713667D01*
X72984454Y-108897396D01*
X72912766Y-109070466D01*
X72808688Y-109226230D01*
X72676230Y-109358688D01*
X72520466Y-109462766D01*
X72347396Y-109534454D01*
X72163667Y-109571000D01*
X71976333Y-109571000D01*
X71792604Y-109534454D01*
X71619534Y-109462766D01*
X71463770Y-109358688D01*
X71331312Y-109226230D01*
X71227234Y-109070466D01*
X71155546Y-108897396D01*
X71119000Y-108713667D01*
X71119000Y-108526333D01*
X71155546Y-108342604D01*
X71227234Y-108169534D01*
X71331312Y-108013770D01*
X71463770Y-107881312D01*
X71619534Y-107777234D01*
X71792604Y-107705546D01*
X71976333Y-107669000D01*
X72163667Y-107669000D01*
X72347396Y-107705546D01*
X72347396Y-107705546D01*
G37*
G36*
X74887396Y-107705546D02*
X75060466Y-107777234D01*
X75216230Y-107881312D01*
X75348688Y-108013770D01*
X75452766Y-108169534D01*
X75524454Y-108342604D01*
X75561000Y-108526333D01*
X75561000Y-108713667D01*
X75524454Y-108897396D01*
X75452766Y-109070466D01*
X75348688Y-109226230D01*
X75216230Y-109358688D01*
X75060466Y-109462766D01*
X74887396Y-109534454D01*
X74703667Y-109571000D01*
X74516333Y-109571000D01*
X74332604Y-109534454D01*
X74159534Y-109462766D01*
X74003770Y-109358688D01*
X73871312Y-109226230D01*
X73767234Y-109070466D01*
X73695546Y-108897396D01*
X73659000Y-108713667D01*
X73659000Y-108526333D01*
X73695546Y-108342604D01*
X73767234Y-108169534D01*
X73871312Y-108013770D01*
X74003770Y-107881312D01*
X74159534Y-107777234D01*
X74332604Y-107705546D01*
X74516333Y-107669000D01*
X74703667Y-107669000D01*
X74887396Y-107705546D01*
X74887396Y-107705546D01*
G37*
G36*
X77427396Y-107705546D02*
X77600466Y-107777234D01*
X77756230Y-107881312D01*
X77888688Y-108013770D01*
X77992766Y-108169534D01*
X78064454Y-108342604D01*
X78101000Y-108526333D01*
X78101000Y-108713667D01*
X78064454Y-108897396D01*
X77992766Y-109070466D01*
X77888688Y-109226230D01*
X77756230Y-109358688D01*
X77600466Y-109462766D01*
X77427396Y-109534454D01*
X77243667Y-109571000D01*
X77056333Y-109571000D01*
X76872604Y-109534454D01*
X76699534Y-109462766D01*
X76543770Y-109358688D01*
X76411312Y-109226230D01*
X76307234Y-109070466D01*
X76235546Y-108897396D01*
X76199000Y-108713667D01*
X76199000Y-108526333D01*
X76235546Y-108342604D01*
X76307234Y-108169534D01*
X76411312Y-108013770D01*
X76543770Y-107881312D01*
X76699534Y-107777234D01*
X76872604Y-107705546D01*
X77056333Y-107669000D01*
X77243667Y-107669000D01*
X77427396Y-107705546D01*
X77427396Y-107705546D01*
G37*
G36*
X82507396Y-107705546D02*
X82680466Y-107777234D01*
X82836230Y-107881312D01*
X82968688Y-108013770D01*
X83072766Y-108169534D01*
X83144454Y-108342604D01*
X83181000Y-108526333D01*
X83181000Y-108713667D01*
X83144454Y-108897396D01*
X83072766Y-109070466D01*
X82968688Y-109226230D01*
X82836230Y-109358688D01*
X82680466Y-109462766D01*
X82507396Y-109534454D01*
X82323667Y-109571000D01*
X82136333Y-109571000D01*
X81952604Y-109534454D01*
X81779534Y-109462766D01*
X81623770Y-109358688D01*
X81491312Y-109226230D01*
X81387234Y-109070466D01*
X81315546Y-108897396D01*
X81279000Y-108713667D01*
X81279000Y-108526333D01*
X81315546Y-108342604D01*
X81387234Y-108169534D01*
X81491312Y-108013770D01*
X81623770Y-107881312D01*
X81779534Y-107777234D01*
X81952604Y-107705546D01*
X82136333Y-107669000D01*
X82323667Y-107669000D01*
X82507396Y-107705546D01*
X82507396Y-107705546D01*
G37*
G36*
X79967396Y-107705546D02*
X80140466Y-107777234D01*
X80296230Y-107881312D01*
X80428688Y-108013770D01*
X80532766Y-108169534D01*
X80604454Y-108342604D01*
X80641000Y-108526333D01*
X80641000Y-108713667D01*
X80604454Y-108897396D01*
X80532766Y-109070466D01*
X80428688Y-109226230D01*
X80296230Y-109358688D01*
X80140466Y-109462766D01*
X79967396Y-109534454D01*
X79783667Y-109571000D01*
X79596333Y-109571000D01*
X79412604Y-109534454D01*
X79239534Y-109462766D01*
X79083770Y-109358688D01*
X78951312Y-109226230D01*
X78847234Y-109070466D01*
X78775546Y-108897396D01*
X78739000Y-108713667D01*
X78739000Y-108526333D01*
X78775546Y-108342604D01*
X78847234Y-108169534D01*
X78951312Y-108013770D01*
X79083770Y-107881312D01*
X79239534Y-107777234D01*
X79412604Y-107705546D01*
X79596333Y-107669000D01*
X79783667Y-107669000D01*
X79967396Y-107705546D01*
X79967396Y-107705546D01*
G37*
G36*
X85047396Y-107705546D02*
X85220466Y-107777234D01*
X85376230Y-107881312D01*
X85508688Y-108013770D01*
X85612766Y-108169534D01*
X85684454Y-108342604D01*
X85721000Y-108526333D01*
X85721000Y-108713667D01*
X85684454Y-108897396D01*
X85612766Y-109070466D01*
X85508688Y-109226230D01*
X85376230Y-109358688D01*
X85220466Y-109462766D01*
X85047396Y-109534454D01*
X84863667Y-109571000D01*
X84676333Y-109571000D01*
X84492604Y-109534454D01*
X84319534Y-109462766D01*
X84163770Y-109358688D01*
X84031312Y-109226230D01*
X83927234Y-109070466D01*
X83855546Y-108897396D01*
X83819000Y-108713667D01*
X83819000Y-108526333D01*
X83855546Y-108342604D01*
X83927234Y-108169534D01*
X84031312Y-108013770D01*
X84163770Y-107881312D01*
X84319534Y-107777234D01*
X84492604Y-107705546D01*
X84676333Y-107669000D01*
X84863667Y-107669000D01*
X85047396Y-107705546D01*
X85047396Y-107705546D01*
G37*
G36*
X87587396Y-107705546D02*
X87760466Y-107777234D01*
X87916230Y-107881312D01*
X88048688Y-108013770D01*
X88152766Y-108169534D01*
X88224454Y-108342604D01*
X88261000Y-108526333D01*
X88261000Y-108713667D01*
X88224454Y-108897396D01*
X88152766Y-109070466D01*
X88048688Y-109226230D01*
X87916230Y-109358688D01*
X87760466Y-109462766D01*
X87587396Y-109534454D01*
X87403667Y-109571000D01*
X87216333Y-109571000D01*
X87032604Y-109534454D01*
X86859534Y-109462766D01*
X86703770Y-109358688D01*
X86571312Y-109226230D01*
X86467234Y-109070466D01*
X86395546Y-108897396D01*
X86359000Y-108713667D01*
X86359000Y-108526333D01*
X86395546Y-108342604D01*
X86467234Y-108169534D01*
X86571312Y-108013770D01*
X86703770Y-107881312D01*
X86859534Y-107777234D01*
X87032604Y-107705546D01*
X87216333Y-107669000D01*
X87403667Y-107669000D01*
X87587396Y-107705546D01*
X87587396Y-107705546D01*
G37*
G36*
X90127396Y-107705546D02*
X90300466Y-107777234D01*
X90456230Y-107881312D01*
X90588688Y-108013770D01*
X90692766Y-108169534D01*
X90764454Y-108342604D01*
X90801000Y-108526333D01*
X90801000Y-108713667D01*
X90764454Y-108897396D01*
X90692766Y-109070466D01*
X90588688Y-109226230D01*
X90456230Y-109358688D01*
X90300466Y-109462766D01*
X90127396Y-109534454D01*
X89943667Y-109571000D01*
X89756333Y-109571000D01*
X89572604Y-109534454D01*
X89399534Y-109462766D01*
X89243770Y-109358688D01*
X89111312Y-109226230D01*
X89007234Y-109070466D01*
X88935546Y-108897396D01*
X88899000Y-108713667D01*
X88899000Y-108526333D01*
X88935546Y-108342604D01*
X89007234Y-108169534D01*
X89111312Y-108013770D01*
X89243770Y-107881312D01*
X89399534Y-107777234D01*
X89572604Y-107705546D01*
X89756333Y-107669000D01*
X89943667Y-107669000D01*
X90127396Y-107705546D01*
X90127396Y-107705546D01*
G37*
G36*
X92667396Y-107705546D02*
X92840466Y-107777234D01*
X92996230Y-107881312D01*
X93128688Y-108013770D01*
X93232766Y-108169534D01*
X93304454Y-108342604D01*
X93341000Y-108526333D01*
X93341000Y-108713667D01*
X93304454Y-108897396D01*
X93232766Y-109070466D01*
X93128688Y-109226230D01*
X92996230Y-109358688D01*
X92840466Y-109462766D01*
X92667396Y-109534454D01*
X92483667Y-109571000D01*
X92296333Y-109571000D01*
X92112604Y-109534454D01*
X91939534Y-109462766D01*
X91783770Y-109358688D01*
X91651312Y-109226230D01*
X91547234Y-109070466D01*
X91475546Y-108897396D01*
X91439000Y-108713667D01*
X91439000Y-108526333D01*
X91475546Y-108342604D01*
X91547234Y-108169534D01*
X91651312Y-108013770D01*
X91783770Y-107881312D01*
X91939534Y-107777234D01*
X92112604Y-107705546D01*
X92296333Y-107669000D01*
X92483667Y-107669000D01*
X92667396Y-107705546D01*
X92667396Y-107705546D01*
G37*
G36*
X107907396Y-107705546D02*
X108080466Y-107777234D01*
X108236230Y-107881312D01*
X108368688Y-108013770D01*
X108472766Y-108169534D01*
X108544454Y-108342604D01*
X108581000Y-108526333D01*
X108581000Y-108713667D01*
X108544454Y-108897396D01*
X108472766Y-109070466D01*
X108368688Y-109226230D01*
X108236230Y-109358688D01*
X108080466Y-109462766D01*
X107907396Y-109534454D01*
X107723667Y-109571000D01*
X107536333Y-109571000D01*
X107352604Y-109534454D01*
X107179534Y-109462766D01*
X107023770Y-109358688D01*
X106891312Y-109226230D01*
X106787234Y-109070466D01*
X106715546Y-108897396D01*
X106679000Y-108713667D01*
X106679000Y-108526333D01*
X106715546Y-108342604D01*
X106787234Y-108169534D01*
X106891312Y-108013770D01*
X107023770Y-107881312D01*
X107179534Y-107777234D01*
X107352604Y-107705546D01*
X107536333Y-107669000D01*
X107723667Y-107669000D01*
X107907396Y-107705546D01*
X107907396Y-107705546D01*
G37*
G36*
X105367396Y-107705546D02*
X105540466Y-107777234D01*
X105696230Y-107881312D01*
X105828688Y-108013770D01*
X105932766Y-108169534D01*
X106004454Y-108342604D01*
X106041000Y-108526333D01*
X106041000Y-108713667D01*
X106004454Y-108897396D01*
X105932766Y-109070466D01*
X105828688Y-109226230D01*
X105696230Y-109358688D01*
X105540466Y-109462766D01*
X105367396Y-109534454D01*
X105183667Y-109571000D01*
X104996333Y-109571000D01*
X104812604Y-109534454D01*
X104639534Y-109462766D01*
X104483770Y-109358688D01*
X104351312Y-109226230D01*
X104247234Y-109070466D01*
X104175546Y-108897396D01*
X104139000Y-108713667D01*
X104139000Y-108526333D01*
X104175546Y-108342604D01*
X104247234Y-108169534D01*
X104351312Y-108013770D01*
X104483770Y-107881312D01*
X104639534Y-107777234D01*
X104812604Y-107705546D01*
X104996333Y-107669000D01*
X105183667Y-107669000D01*
X105367396Y-107705546D01*
X105367396Y-107705546D01*
G37*
G36*
X95207396Y-107705546D02*
X95380466Y-107777234D01*
X95536230Y-107881312D01*
X95668688Y-108013770D01*
X95772766Y-108169534D01*
X95844454Y-108342604D01*
X95881000Y-108526333D01*
X95881000Y-108713667D01*
X95844454Y-108897396D01*
X95772766Y-109070466D01*
X95668688Y-109226230D01*
X95536230Y-109358688D01*
X95380466Y-109462766D01*
X95207396Y-109534454D01*
X95023667Y-109571000D01*
X94836333Y-109571000D01*
X94652604Y-109534454D01*
X94479534Y-109462766D01*
X94323770Y-109358688D01*
X94191312Y-109226230D01*
X94087234Y-109070466D01*
X94015546Y-108897396D01*
X93979000Y-108713667D01*
X93979000Y-108526333D01*
X94015546Y-108342604D01*
X94087234Y-108169534D01*
X94191312Y-108013770D01*
X94323770Y-107881312D01*
X94479534Y-107777234D01*
X94652604Y-107705546D01*
X94836333Y-107669000D01*
X95023667Y-107669000D01*
X95207396Y-107705546D01*
X95207396Y-107705546D01*
G37*
G36*
X100287396Y-107705546D02*
X100460466Y-107777234D01*
X100616230Y-107881312D01*
X100748688Y-108013770D01*
X100852766Y-108169534D01*
X100924454Y-108342604D01*
X100961000Y-108526333D01*
X100961000Y-108713667D01*
X100924454Y-108897396D01*
X100852766Y-109070466D01*
X100748688Y-109226230D01*
X100616230Y-109358688D01*
X100460466Y-109462766D01*
X100287396Y-109534454D01*
X100103667Y-109571000D01*
X99916333Y-109571000D01*
X99732604Y-109534454D01*
X99559534Y-109462766D01*
X99403770Y-109358688D01*
X99271312Y-109226230D01*
X99167234Y-109070466D01*
X99095546Y-108897396D01*
X99059000Y-108713667D01*
X99059000Y-108526333D01*
X99095546Y-108342604D01*
X99167234Y-108169534D01*
X99271312Y-108013770D01*
X99403770Y-107881312D01*
X99559534Y-107777234D01*
X99732604Y-107705546D01*
X99916333Y-107669000D01*
X100103667Y-107669000D01*
X100287396Y-107705546D01*
X100287396Y-107705546D01*
G37*
G36*
X97747396Y-107705546D02*
X97920466Y-107777234D01*
X98076230Y-107881312D01*
X98208688Y-108013770D01*
X98312766Y-108169534D01*
X98384454Y-108342604D01*
X98421000Y-108526333D01*
X98421000Y-108713667D01*
X98384454Y-108897396D01*
X98312766Y-109070466D01*
X98208688Y-109226230D01*
X98076230Y-109358688D01*
X97920466Y-109462766D01*
X97747396Y-109534454D01*
X97563667Y-109571000D01*
X97376333Y-109571000D01*
X97192604Y-109534454D01*
X97019534Y-109462766D01*
X96863770Y-109358688D01*
X96731312Y-109226230D01*
X96627234Y-109070466D01*
X96555546Y-108897396D01*
X96519000Y-108713667D01*
X96519000Y-108526333D01*
X96555546Y-108342604D01*
X96627234Y-108169534D01*
X96731312Y-108013770D01*
X96863770Y-107881312D01*
X97019534Y-107777234D01*
X97192604Y-107705546D01*
X97376333Y-107669000D01*
X97563667Y-107669000D01*
X97747396Y-107705546D01*
X97747396Y-107705546D01*
G37*
G36*
X54926091Y-103427085D02*
X54960069Y-103437393D01*
X54991387Y-103454133D01*
X55018839Y-103476661D01*
X55041367Y-103504113D01*
X55058107Y-103535431D01*
X55068415Y-103569409D01*
X55072500Y-103610890D01*
X55072500Y-104212110D01*
X55068415Y-104253591D01*
X55058107Y-104287569D01*
X55041367Y-104318887D01*
X55018839Y-104346339D01*
X54991387Y-104368867D01*
X54960069Y-104385607D01*
X54926091Y-104395915D01*
X54884610Y-104400000D01*
X54208390Y-104400000D01*
X54166909Y-104395915D01*
X54132931Y-104385607D01*
X54101613Y-104368867D01*
X54074161Y-104346339D01*
X54051633Y-104318887D01*
X54034893Y-104287569D01*
X54024585Y-104253591D01*
X54020500Y-104212110D01*
X54020500Y-103610890D01*
X54024585Y-103569409D01*
X54034893Y-103535431D01*
X54051633Y-103504113D01*
X54074161Y-103476661D01*
X54101613Y-103454133D01*
X54132931Y-103437393D01*
X54166909Y-103427085D01*
X54208390Y-103423000D01*
X54884610Y-103423000D01*
X54926091Y-103427085D01*
X54926091Y-103427085D01*
G37*
G36*
X58291591Y-103427085D02*
X58325569Y-103437393D01*
X58356887Y-103454133D01*
X58384339Y-103476661D01*
X58406867Y-103504113D01*
X58423607Y-103535431D01*
X58433915Y-103569409D01*
X58438000Y-103610890D01*
X58438000Y-104212110D01*
X58433915Y-104253591D01*
X58423607Y-104287569D01*
X58406867Y-104318887D01*
X58384339Y-104346339D01*
X58356887Y-104368867D01*
X58325569Y-104385607D01*
X58291591Y-104395915D01*
X58250110Y-104400000D01*
X57573890Y-104400000D01*
X57532409Y-104395915D01*
X57498431Y-104385607D01*
X57467113Y-104368867D01*
X57439661Y-104346339D01*
X57417133Y-104318887D01*
X57400393Y-104287569D01*
X57390085Y-104253591D01*
X57386000Y-104212110D01*
X57386000Y-103610890D01*
X57390085Y-103569409D01*
X57400393Y-103535431D01*
X57417133Y-103504113D01*
X57439661Y-103476661D01*
X57467113Y-103454133D01*
X57498431Y-103437393D01*
X57532409Y-103427085D01*
X57573890Y-103423000D01*
X58250110Y-103423000D01*
X58291591Y-103427085D01*
X58291591Y-103427085D01*
G37*
G36*
X58291591Y-101852085D02*
X58325569Y-101862393D01*
X58356887Y-101879133D01*
X58384339Y-101901661D01*
X58406867Y-101929113D01*
X58423607Y-101960431D01*
X58433915Y-101994409D01*
X58438000Y-102035890D01*
X58438000Y-102637110D01*
X58433915Y-102678591D01*
X58423607Y-102712569D01*
X58406867Y-102743887D01*
X58384339Y-102771339D01*
X58356887Y-102793867D01*
X58325569Y-102810607D01*
X58291591Y-102820915D01*
X58250110Y-102825000D01*
X57573890Y-102825000D01*
X57532409Y-102820915D01*
X57498431Y-102810607D01*
X57467113Y-102793867D01*
X57439661Y-102771339D01*
X57417133Y-102743887D01*
X57400393Y-102712569D01*
X57390085Y-102678591D01*
X57386000Y-102637110D01*
X57386000Y-102035890D01*
X57390085Y-101994409D01*
X57400393Y-101960431D01*
X57417133Y-101929113D01*
X57439661Y-101901661D01*
X57467113Y-101879133D01*
X57498431Y-101862393D01*
X57532409Y-101852085D01*
X57573890Y-101848000D01*
X58250110Y-101848000D01*
X58291591Y-101852085D01*
X58291591Y-101852085D01*
G37*
G36*
X54926091Y-101852085D02*
X54960069Y-101862393D01*
X54991387Y-101879133D01*
X55018839Y-101901661D01*
X55041367Y-101929113D01*
X55058107Y-101960431D01*
X55068415Y-101994409D01*
X55072500Y-102035890D01*
X55072500Y-102637110D01*
X55068415Y-102678591D01*
X55058107Y-102712569D01*
X55041367Y-102743887D01*
X55018839Y-102771339D01*
X54991387Y-102793867D01*
X54960069Y-102810607D01*
X54926091Y-102820915D01*
X54884610Y-102825000D01*
X54208390Y-102825000D01*
X54166909Y-102820915D01*
X54132931Y-102810607D01*
X54101613Y-102793867D01*
X54074161Y-102771339D01*
X54051633Y-102743887D01*
X54034893Y-102712569D01*
X54024585Y-102678591D01*
X54020500Y-102637110D01*
X54020500Y-102035890D01*
X54024585Y-101994409D01*
X54034893Y-101960431D01*
X54051633Y-101929113D01*
X54074161Y-101901661D01*
X54101613Y-101879133D01*
X54132931Y-101862393D01*
X54166909Y-101852085D01*
X54208390Y-101848000D01*
X54884610Y-101848000D01*
X54926091Y-101852085D01*
X54926091Y-101852085D01*
G37*
G36*
X62101591Y-97775585D02*
X62135569Y-97785893D01*
X62166887Y-97802633D01*
X62194339Y-97825161D01*
X62216867Y-97852613D01*
X62233607Y-97883931D01*
X62243915Y-97917909D01*
X62248000Y-97959390D01*
X62248000Y-98560610D01*
X62243915Y-98602091D01*
X62233607Y-98636069D01*
X62216867Y-98667387D01*
X62194339Y-98694839D01*
X62166887Y-98717367D01*
X62135569Y-98734107D01*
X62101591Y-98744415D01*
X62060110Y-98748500D01*
X61383890Y-98748500D01*
X61342409Y-98744415D01*
X61308431Y-98734107D01*
X61277113Y-98717367D01*
X61249661Y-98694839D01*
X61227133Y-98667387D01*
X61210393Y-98636069D01*
X61200085Y-98602091D01*
X61196000Y-98560610D01*
X61196000Y-97959390D01*
X61200085Y-97917909D01*
X61210393Y-97883931D01*
X61227133Y-97852613D01*
X61249661Y-97825161D01*
X61277113Y-97802633D01*
X61308431Y-97785893D01*
X61342409Y-97775585D01*
X61383890Y-97771500D01*
X62060110Y-97771500D01*
X62101591Y-97775585D01*
X62101591Y-97775585D01*
G37*
G36*
X72388591Y-97775585D02*
X72422569Y-97785893D01*
X72453887Y-97802633D01*
X72481339Y-97825161D01*
X72503867Y-97852613D01*
X72520607Y-97883931D01*
X72530915Y-97917909D01*
X72535000Y-97959390D01*
X72535000Y-98560610D01*
X72530915Y-98602091D01*
X72520607Y-98636069D01*
X72503867Y-98667387D01*
X72481339Y-98694839D01*
X72453887Y-98717367D01*
X72422569Y-98734107D01*
X72388591Y-98744415D01*
X72347110Y-98748500D01*
X71670890Y-98748500D01*
X71629409Y-98744415D01*
X71595431Y-98734107D01*
X71564113Y-98717367D01*
X71536661Y-98694839D01*
X71514133Y-98667387D01*
X71497393Y-98636069D01*
X71487085Y-98602091D01*
X71483000Y-98560610D01*
X71483000Y-97959390D01*
X71487085Y-97917909D01*
X71497393Y-97883931D01*
X71514133Y-97852613D01*
X71536661Y-97825161D01*
X71564113Y-97802633D01*
X71595431Y-97785893D01*
X71629409Y-97775585D01*
X71670890Y-97771500D01*
X72347110Y-97771500D01*
X72388591Y-97775585D01*
X72388591Y-97775585D01*
G37*
G36*
X60133091Y-97775585D02*
X60167069Y-97785893D01*
X60198387Y-97802633D01*
X60225839Y-97825161D01*
X60248367Y-97852613D01*
X60265107Y-97883931D01*
X60275415Y-97917909D01*
X60279500Y-97959390D01*
X60279500Y-98560610D01*
X60275415Y-98602091D01*
X60265107Y-98636069D01*
X60248367Y-98667387D01*
X60225839Y-98694839D01*
X60198387Y-98717367D01*
X60167069Y-98734107D01*
X60133091Y-98744415D01*
X60091610Y-98748500D01*
X59415390Y-98748500D01*
X59373909Y-98744415D01*
X59339931Y-98734107D01*
X59308613Y-98717367D01*
X59281161Y-98694839D01*
X59258633Y-98667387D01*
X59241893Y-98636069D01*
X59231585Y-98602091D01*
X59227500Y-98560610D01*
X59227500Y-97959390D01*
X59231585Y-97917909D01*
X59241893Y-97883931D01*
X59258633Y-97852613D01*
X59281161Y-97825161D01*
X59308613Y-97802633D01*
X59339931Y-97785893D01*
X59373909Y-97775585D01*
X59415390Y-97771500D01*
X60091610Y-97771500D01*
X60133091Y-97775585D01*
X60133091Y-97775585D01*
G37*
G36*
X64070091Y-97775585D02*
X64104069Y-97785893D01*
X64135387Y-97802633D01*
X64162839Y-97825161D01*
X64185367Y-97852613D01*
X64202107Y-97883931D01*
X64212415Y-97917909D01*
X64216500Y-97959390D01*
X64216500Y-98560610D01*
X64212415Y-98602091D01*
X64202107Y-98636069D01*
X64185367Y-98667387D01*
X64162839Y-98694839D01*
X64135387Y-98717367D01*
X64104069Y-98734107D01*
X64070091Y-98744415D01*
X64028610Y-98748500D01*
X63352390Y-98748500D01*
X63310909Y-98744415D01*
X63276931Y-98734107D01*
X63245613Y-98717367D01*
X63218161Y-98694839D01*
X63195633Y-98667387D01*
X63178893Y-98636069D01*
X63168585Y-98602091D01*
X63164500Y-98560610D01*
X63164500Y-97959390D01*
X63168585Y-97917909D01*
X63178893Y-97883931D01*
X63195633Y-97852613D01*
X63218161Y-97825161D01*
X63245613Y-97802633D01*
X63276931Y-97785893D01*
X63310909Y-97775585D01*
X63352390Y-97771500D01*
X64028610Y-97771500D01*
X64070091Y-97775585D01*
X64070091Y-97775585D01*
G37*
G36*
X58101091Y-97775585D02*
X58135069Y-97785893D01*
X58166387Y-97802633D01*
X58193839Y-97825161D01*
X58216367Y-97852613D01*
X58233107Y-97883931D01*
X58243415Y-97917909D01*
X58247500Y-97959390D01*
X58247500Y-98560610D01*
X58243415Y-98602091D01*
X58233107Y-98636069D01*
X58216367Y-98667387D01*
X58193839Y-98694839D01*
X58166387Y-98717367D01*
X58135069Y-98734107D01*
X58101091Y-98744415D01*
X58059610Y-98748500D01*
X57383390Y-98748500D01*
X57341909Y-98744415D01*
X57307931Y-98734107D01*
X57276613Y-98717367D01*
X57249161Y-98694839D01*
X57226633Y-98667387D01*
X57209893Y-98636069D01*
X57199585Y-98602091D01*
X57195500Y-98560610D01*
X57195500Y-97959390D01*
X57199585Y-97917909D01*
X57209893Y-97883931D01*
X57226633Y-97852613D01*
X57249161Y-97825161D01*
X57276613Y-97802633D01*
X57307931Y-97785893D01*
X57341909Y-97775585D01*
X57383390Y-97771500D01*
X58059610Y-97771500D01*
X58101091Y-97775585D01*
X58101091Y-97775585D01*
G37*
G36*
X69392091Y-96823585D02*
X69426069Y-96833893D01*
X69457387Y-96850633D01*
X69484839Y-96873161D01*
X69507367Y-96900613D01*
X69524107Y-96931931D01*
X69534415Y-96965909D01*
X69538500Y-97007390D01*
X69538500Y-97683610D01*
X69534415Y-97725091D01*
X69524107Y-97759069D01*
X69507367Y-97790387D01*
X69484839Y-97817839D01*
X69457387Y-97840367D01*
X69426069Y-97857107D01*
X69392091Y-97867415D01*
X69350610Y-97871500D01*
X68749390Y-97871500D01*
X68707909Y-97867415D01*
X68673931Y-97857107D01*
X68642613Y-97840367D01*
X68615161Y-97817839D01*
X68592633Y-97790387D01*
X68575893Y-97759069D01*
X68565585Y-97725091D01*
X68561500Y-97683610D01*
X68561500Y-97007390D01*
X68565585Y-96965909D01*
X68575893Y-96931931D01*
X68592633Y-96900613D01*
X68615161Y-96873161D01*
X68642613Y-96850633D01*
X68673931Y-96833893D01*
X68707909Y-96823585D01*
X68749390Y-96819500D01*
X69350610Y-96819500D01*
X69392091Y-96823585D01*
X69392091Y-96823585D01*
G37*
G36*
X67817091Y-96823585D02*
X67851069Y-96833893D01*
X67882387Y-96850633D01*
X67909839Y-96873161D01*
X67932367Y-96900613D01*
X67949107Y-96931931D01*
X67959415Y-96965909D01*
X67963500Y-97007390D01*
X67963500Y-97683610D01*
X67959415Y-97725091D01*
X67949107Y-97759069D01*
X67932367Y-97790387D01*
X67909839Y-97817839D01*
X67882387Y-97840367D01*
X67851069Y-97857107D01*
X67817091Y-97867415D01*
X67775610Y-97871500D01*
X67174390Y-97871500D01*
X67132909Y-97867415D01*
X67098931Y-97857107D01*
X67067613Y-97840367D01*
X67040161Y-97817839D01*
X67017633Y-97790387D01*
X67000893Y-97759069D01*
X66990585Y-97725091D01*
X66986500Y-97683610D01*
X66986500Y-97007390D01*
X66990585Y-96965909D01*
X67000893Y-96931931D01*
X67017633Y-96900613D01*
X67040161Y-96873161D01*
X67067613Y-96850633D01*
X67098931Y-96833893D01*
X67132909Y-96823585D01*
X67174390Y-96819500D01*
X67775610Y-96819500D01*
X67817091Y-96823585D01*
X67817091Y-96823585D01*
G37*
G36*
X58101091Y-96200585D02*
X58135069Y-96210893D01*
X58166387Y-96227633D01*
X58193839Y-96250161D01*
X58216367Y-96277613D01*
X58233107Y-96308931D01*
X58243415Y-96342909D01*
X58247500Y-96384390D01*
X58247500Y-96985610D01*
X58243415Y-97027091D01*
X58233107Y-97061069D01*
X58216367Y-97092387D01*
X58193839Y-97119839D01*
X58166387Y-97142367D01*
X58135069Y-97159107D01*
X58101091Y-97169415D01*
X58059610Y-97173500D01*
X57383390Y-97173500D01*
X57341909Y-97169415D01*
X57307931Y-97159107D01*
X57276613Y-97142367D01*
X57249161Y-97119839D01*
X57226633Y-97092387D01*
X57209893Y-97061069D01*
X57199585Y-97027091D01*
X57195500Y-96985610D01*
X57195500Y-96384390D01*
X57199585Y-96342909D01*
X57209893Y-96308931D01*
X57226633Y-96277613D01*
X57249161Y-96250161D01*
X57276613Y-96227633D01*
X57307931Y-96210893D01*
X57341909Y-96200585D01*
X57383390Y-96196500D01*
X58059610Y-96196500D01*
X58101091Y-96200585D01*
X58101091Y-96200585D01*
G37*
G36*
X72388591Y-96200585D02*
X72422569Y-96210893D01*
X72453887Y-96227633D01*
X72481339Y-96250161D01*
X72503867Y-96277613D01*
X72520607Y-96308931D01*
X72530915Y-96342909D01*
X72535000Y-96384390D01*
X72535000Y-96985610D01*
X72530915Y-97027091D01*
X72520607Y-97061069D01*
X72503867Y-97092387D01*
X72481339Y-97119839D01*
X72453887Y-97142367D01*
X72422569Y-97159107D01*
X72388591Y-97169415D01*
X72347110Y-97173500D01*
X71670890Y-97173500D01*
X71629409Y-97169415D01*
X71595431Y-97159107D01*
X71564113Y-97142367D01*
X71536661Y-97119839D01*
X71514133Y-97092387D01*
X71497393Y-97061069D01*
X71487085Y-97027091D01*
X71483000Y-96985610D01*
X71483000Y-96384390D01*
X71487085Y-96342909D01*
X71497393Y-96308931D01*
X71514133Y-96277613D01*
X71536661Y-96250161D01*
X71564113Y-96227633D01*
X71595431Y-96210893D01*
X71629409Y-96200585D01*
X71670890Y-96196500D01*
X72347110Y-96196500D01*
X72388591Y-96200585D01*
X72388591Y-96200585D01*
G37*
G36*
X60133091Y-96200585D02*
X60167069Y-96210893D01*
X60198387Y-96227633D01*
X60225839Y-96250161D01*
X60248367Y-96277613D01*
X60265107Y-96308931D01*
X60275415Y-96342909D01*
X60279500Y-96384390D01*
X60279500Y-96985610D01*
X60275415Y-97027091D01*
X60265107Y-97061069D01*
X60248367Y-97092387D01*
X60225839Y-97119839D01*
X60198387Y-97142367D01*
X60167069Y-97159107D01*
X60133091Y-97169415D01*
X60091610Y-97173500D01*
X59415390Y-97173500D01*
X59373909Y-97169415D01*
X59339931Y-97159107D01*
X59308613Y-97142367D01*
X59281161Y-97119839D01*
X59258633Y-97092387D01*
X59241893Y-97061069D01*
X59231585Y-97027091D01*
X59227500Y-96985610D01*
X59227500Y-96384390D01*
X59231585Y-96342909D01*
X59241893Y-96308931D01*
X59258633Y-96277613D01*
X59281161Y-96250161D01*
X59308613Y-96227633D01*
X59339931Y-96210893D01*
X59373909Y-96200585D01*
X59415390Y-96196500D01*
X60091610Y-96196500D01*
X60133091Y-96200585D01*
X60133091Y-96200585D01*
G37*
G36*
X62101591Y-96200585D02*
X62135569Y-96210893D01*
X62166887Y-96227633D01*
X62194339Y-96250161D01*
X62216867Y-96277613D01*
X62233607Y-96308931D01*
X62243915Y-96342909D01*
X62248000Y-96384390D01*
X62248000Y-96985610D01*
X62243915Y-97027091D01*
X62233607Y-97061069D01*
X62216867Y-97092387D01*
X62194339Y-97119839D01*
X62166887Y-97142367D01*
X62135569Y-97159107D01*
X62101591Y-97169415D01*
X62060110Y-97173500D01*
X61383890Y-97173500D01*
X61342409Y-97169415D01*
X61308431Y-97159107D01*
X61277113Y-97142367D01*
X61249661Y-97119839D01*
X61227133Y-97092387D01*
X61210393Y-97061069D01*
X61200085Y-97027091D01*
X61196000Y-96985610D01*
X61196000Y-96384390D01*
X61200085Y-96342909D01*
X61210393Y-96308931D01*
X61227133Y-96277613D01*
X61249661Y-96250161D01*
X61277113Y-96227633D01*
X61308431Y-96210893D01*
X61342409Y-96200585D01*
X61383890Y-96196500D01*
X62060110Y-96196500D01*
X62101591Y-96200585D01*
X62101591Y-96200585D01*
G37*
G36*
X64070091Y-96200585D02*
X64104069Y-96210893D01*
X64135387Y-96227633D01*
X64162839Y-96250161D01*
X64185367Y-96277613D01*
X64202107Y-96308931D01*
X64212415Y-96342909D01*
X64216500Y-96384390D01*
X64216500Y-96985610D01*
X64212415Y-97027091D01*
X64202107Y-97061069D01*
X64185367Y-97092387D01*
X64162839Y-97119839D01*
X64135387Y-97142367D01*
X64104069Y-97159107D01*
X64070091Y-97169415D01*
X64028610Y-97173500D01*
X63352390Y-97173500D01*
X63310909Y-97169415D01*
X63276931Y-97159107D01*
X63245613Y-97142367D01*
X63218161Y-97119839D01*
X63195633Y-97092387D01*
X63178893Y-97061069D01*
X63168585Y-97027091D01*
X63164500Y-96985610D01*
X63164500Y-96384390D01*
X63168585Y-96342909D01*
X63178893Y-96308931D01*
X63195633Y-96277613D01*
X63218161Y-96250161D01*
X63245613Y-96227633D01*
X63276931Y-96210893D01*
X63310909Y-96200585D01*
X63352390Y-96196500D01*
X64028610Y-96196500D01*
X64070091Y-96200585D01*
X64070091Y-96200585D01*
G37*
G36*
X62187396Y-92465546D02*
X62360466Y-92537234D01*
X62516230Y-92641312D01*
X62648688Y-92773770D01*
X62752766Y-92929534D01*
X62824454Y-93102604D01*
X62861000Y-93286333D01*
X62861000Y-93473667D01*
X62824454Y-93657396D01*
X62752766Y-93830466D01*
X62648688Y-93986230D01*
X62516230Y-94118688D01*
X62360466Y-94222766D01*
X62187396Y-94294454D01*
X62003667Y-94331000D01*
X61816333Y-94331000D01*
X61632604Y-94294454D01*
X61459534Y-94222766D01*
X61303770Y-94118688D01*
X61171312Y-93986230D01*
X61067234Y-93830466D01*
X60995546Y-93657396D01*
X60959000Y-93473667D01*
X60959000Y-93286333D01*
X60995546Y-93102604D01*
X61067234Y-92929534D01*
X61171312Y-92773770D01*
X61303770Y-92641312D01*
X61459534Y-92537234D01*
X61632604Y-92465546D01*
X61816333Y-92429000D01*
X62003667Y-92429000D01*
X62187396Y-92465546D01*
X62187396Y-92465546D01*
G37*
G36*
X85047396Y-92465546D02*
X85220466Y-92537234D01*
X85376230Y-92641312D01*
X85508688Y-92773770D01*
X85612766Y-92929534D01*
X85684454Y-93102604D01*
X85721000Y-93286333D01*
X85721000Y-93473667D01*
X85684454Y-93657396D01*
X85612766Y-93830466D01*
X85508688Y-93986230D01*
X85376230Y-94118688D01*
X85220466Y-94222766D01*
X85047396Y-94294454D01*
X84863667Y-94331000D01*
X84676333Y-94331000D01*
X84492604Y-94294454D01*
X84319534Y-94222766D01*
X84163770Y-94118688D01*
X84031312Y-93986230D01*
X83927234Y-93830466D01*
X83855546Y-93657396D01*
X83819000Y-93473667D01*
X83819000Y-93286333D01*
X83855546Y-93102604D01*
X83927234Y-92929534D01*
X84031312Y-92773770D01*
X84163770Y-92641312D01*
X84319534Y-92537234D01*
X84492604Y-92465546D01*
X84676333Y-92429000D01*
X84863667Y-92429000D01*
X85047396Y-92465546D01*
X85047396Y-92465546D01*
G37*
G36*
X82507396Y-92465546D02*
X82680466Y-92537234D01*
X82836230Y-92641312D01*
X82968688Y-92773770D01*
X83072766Y-92929534D01*
X83144454Y-93102604D01*
X83181000Y-93286333D01*
X83181000Y-93473667D01*
X83144454Y-93657396D01*
X83072766Y-93830466D01*
X82968688Y-93986230D01*
X82836230Y-94118688D01*
X82680466Y-94222766D01*
X82507396Y-94294454D01*
X82323667Y-94331000D01*
X82136333Y-94331000D01*
X81952604Y-94294454D01*
X81779534Y-94222766D01*
X81623770Y-94118688D01*
X81491312Y-93986230D01*
X81387234Y-93830466D01*
X81315546Y-93657396D01*
X81279000Y-93473667D01*
X81279000Y-93286333D01*
X81315546Y-93102604D01*
X81387234Y-92929534D01*
X81491312Y-92773770D01*
X81623770Y-92641312D01*
X81779534Y-92537234D01*
X81952604Y-92465546D01*
X82136333Y-92429000D01*
X82323667Y-92429000D01*
X82507396Y-92465546D01*
X82507396Y-92465546D01*
G37*
G36*
X79967396Y-92465546D02*
X80140466Y-92537234D01*
X80296230Y-92641312D01*
X80428688Y-92773770D01*
X80532766Y-92929534D01*
X80604454Y-93102604D01*
X80641000Y-93286333D01*
X80641000Y-93473667D01*
X80604454Y-93657396D01*
X80532766Y-93830466D01*
X80428688Y-93986230D01*
X80296230Y-94118688D01*
X80140466Y-94222766D01*
X79967396Y-94294454D01*
X79783667Y-94331000D01*
X79596333Y-94331000D01*
X79412604Y-94294454D01*
X79239534Y-94222766D01*
X79083770Y-94118688D01*
X78951312Y-93986230D01*
X78847234Y-93830466D01*
X78775546Y-93657396D01*
X78739000Y-93473667D01*
X78739000Y-93286333D01*
X78775546Y-93102604D01*
X78847234Y-92929534D01*
X78951312Y-92773770D01*
X79083770Y-92641312D01*
X79239534Y-92537234D01*
X79412604Y-92465546D01*
X79596333Y-92429000D01*
X79783667Y-92429000D01*
X79967396Y-92465546D01*
X79967396Y-92465546D01*
G37*
G36*
X77427396Y-92465546D02*
X77600466Y-92537234D01*
X77756230Y-92641312D01*
X77888688Y-92773770D01*
X77992766Y-92929534D01*
X78064454Y-93102604D01*
X78101000Y-93286333D01*
X78101000Y-93473667D01*
X78064454Y-93657396D01*
X77992766Y-93830466D01*
X77888688Y-93986230D01*
X77756230Y-94118688D01*
X77600466Y-94222766D01*
X77427396Y-94294454D01*
X77243667Y-94331000D01*
X77056333Y-94331000D01*
X76872604Y-94294454D01*
X76699534Y-94222766D01*
X76543770Y-94118688D01*
X76411312Y-93986230D01*
X76307234Y-93830466D01*
X76235546Y-93657396D01*
X76199000Y-93473667D01*
X76199000Y-93286333D01*
X76235546Y-93102604D01*
X76307234Y-92929534D01*
X76411312Y-92773770D01*
X76543770Y-92641312D01*
X76699534Y-92537234D01*
X76872604Y-92465546D01*
X77056333Y-92429000D01*
X77243667Y-92429000D01*
X77427396Y-92465546D01*
X77427396Y-92465546D01*
G37*
G36*
X74887396Y-92465546D02*
X75060466Y-92537234D01*
X75216230Y-92641312D01*
X75348688Y-92773770D01*
X75452766Y-92929534D01*
X75524454Y-93102604D01*
X75561000Y-93286333D01*
X75561000Y-93473667D01*
X75524454Y-93657396D01*
X75452766Y-93830466D01*
X75348688Y-93986230D01*
X75216230Y-94118688D01*
X75060466Y-94222766D01*
X74887396Y-94294454D01*
X74703667Y-94331000D01*
X74516333Y-94331000D01*
X74332604Y-94294454D01*
X74159534Y-94222766D01*
X74003770Y-94118688D01*
X73871312Y-93986230D01*
X73767234Y-93830466D01*
X73695546Y-93657396D01*
X73659000Y-93473667D01*
X73659000Y-93286333D01*
X73695546Y-93102604D01*
X73767234Y-92929534D01*
X73871312Y-92773770D01*
X74003770Y-92641312D01*
X74159534Y-92537234D01*
X74332604Y-92465546D01*
X74516333Y-92429000D01*
X74703667Y-92429000D01*
X74887396Y-92465546D01*
X74887396Y-92465546D01*
G37*
G36*
X72347396Y-92465546D02*
X72520466Y-92537234D01*
X72676230Y-92641312D01*
X72808688Y-92773770D01*
X72912766Y-92929534D01*
X72984454Y-93102604D01*
X73021000Y-93286333D01*
X73021000Y-93473667D01*
X72984454Y-93657396D01*
X72912766Y-93830466D01*
X72808688Y-93986230D01*
X72676230Y-94118688D01*
X72520466Y-94222766D01*
X72347396Y-94294454D01*
X72163667Y-94331000D01*
X71976333Y-94331000D01*
X71792604Y-94294454D01*
X71619534Y-94222766D01*
X71463770Y-94118688D01*
X71331312Y-93986230D01*
X71227234Y-93830466D01*
X71155546Y-93657396D01*
X71119000Y-93473667D01*
X71119000Y-93286333D01*
X71155546Y-93102604D01*
X71227234Y-92929534D01*
X71331312Y-92773770D01*
X71463770Y-92641312D01*
X71619534Y-92537234D01*
X71792604Y-92465546D01*
X71976333Y-92429000D01*
X72163667Y-92429000D01*
X72347396Y-92465546D01*
X72347396Y-92465546D01*
G37*
G36*
X69807396Y-92465546D02*
X69980466Y-92537234D01*
X70136230Y-92641312D01*
X70268688Y-92773770D01*
X70372766Y-92929534D01*
X70444454Y-93102604D01*
X70481000Y-93286333D01*
X70481000Y-93473667D01*
X70444454Y-93657396D01*
X70372766Y-93830466D01*
X70268688Y-93986230D01*
X70136230Y-94118688D01*
X69980466Y-94222766D01*
X69807396Y-94294454D01*
X69623667Y-94331000D01*
X69436333Y-94331000D01*
X69252604Y-94294454D01*
X69079534Y-94222766D01*
X68923770Y-94118688D01*
X68791312Y-93986230D01*
X68687234Y-93830466D01*
X68615546Y-93657396D01*
X68579000Y-93473667D01*
X68579000Y-93286333D01*
X68615546Y-93102604D01*
X68687234Y-92929534D01*
X68791312Y-92773770D01*
X68923770Y-92641312D01*
X69079534Y-92537234D01*
X69252604Y-92465546D01*
X69436333Y-92429000D01*
X69623667Y-92429000D01*
X69807396Y-92465546D01*
X69807396Y-92465546D01*
G37*
G36*
X67267396Y-92465546D02*
X67440466Y-92537234D01*
X67596230Y-92641312D01*
X67728688Y-92773770D01*
X67832766Y-92929534D01*
X67904454Y-93102604D01*
X67941000Y-93286333D01*
X67941000Y-93473667D01*
X67904454Y-93657396D01*
X67832766Y-93830466D01*
X67728688Y-93986230D01*
X67596230Y-94118688D01*
X67440466Y-94222766D01*
X67267396Y-94294454D01*
X67083667Y-94331000D01*
X66896333Y-94331000D01*
X66712604Y-94294454D01*
X66539534Y-94222766D01*
X66383770Y-94118688D01*
X66251312Y-93986230D01*
X66147234Y-93830466D01*
X66075546Y-93657396D01*
X66039000Y-93473667D01*
X66039000Y-93286333D01*
X66075546Y-93102604D01*
X66147234Y-92929534D01*
X66251312Y-92773770D01*
X66383770Y-92641312D01*
X66539534Y-92537234D01*
X66712604Y-92465546D01*
X66896333Y-92429000D01*
X67083667Y-92429000D01*
X67267396Y-92465546D01*
X67267396Y-92465546D01*
G37*
G36*
X59647396Y-92465546D02*
X59820466Y-92537234D01*
X59976230Y-92641312D01*
X60108688Y-92773770D01*
X60212766Y-92929534D01*
X60284454Y-93102604D01*
X60321000Y-93286333D01*
X60321000Y-93473667D01*
X60284454Y-93657396D01*
X60212766Y-93830466D01*
X60108688Y-93986230D01*
X59976230Y-94118688D01*
X59820466Y-94222766D01*
X59647396Y-94294454D01*
X59463667Y-94331000D01*
X59276333Y-94331000D01*
X59092604Y-94294454D01*
X58919534Y-94222766D01*
X58763770Y-94118688D01*
X58631312Y-93986230D01*
X58527234Y-93830466D01*
X58455546Y-93657396D01*
X58419000Y-93473667D01*
X58419000Y-93286333D01*
X58455546Y-93102604D01*
X58527234Y-92929534D01*
X58631312Y-92773770D01*
X58763770Y-92641312D01*
X58919534Y-92537234D01*
X59092604Y-92465546D01*
X59276333Y-92429000D01*
X59463667Y-92429000D01*
X59647396Y-92465546D01*
X59647396Y-92465546D01*
G37*
G36*
X92667396Y-92465546D02*
X92840466Y-92537234D01*
X92996230Y-92641312D01*
X93128688Y-92773770D01*
X93232766Y-92929534D01*
X93304454Y-93102604D01*
X93341000Y-93286333D01*
X93341000Y-93473667D01*
X93304454Y-93657396D01*
X93232766Y-93830466D01*
X93128688Y-93986230D01*
X92996230Y-94118688D01*
X92840466Y-94222766D01*
X92667396Y-94294454D01*
X92483667Y-94331000D01*
X92296333Y-94331000D01*
X92112604Y-94294454D01*
X91939534Y-94222766D01*
X91783770Y-94118688D01*
X91651312Y-93986230D01*
X91547234Y-93830466D01*
X91475546Y-93657396D01*
X91439000Y-93473667D01*
X91439000Y-93286333D01*
X91475546Y-93102604D01*
X91547234Y-92929534D01*
X91651312Y-92773770D01*
X91783770Y-92641312D01*
X91939534Y-92537234D01*
X92112604Y-92465546D01*
X92296333Y-92429000D01*
X92483667Y-92429000D01*
X92667396Y-92465546D01*
X92667396Y-92465546D01*
G37*
G36*
X107907396Y-92465546D02*
X108080466Y-92537234D01*
X108236230Y-92641312D01*
X108368688Y-92773770D01*
X108472766Y-92929534D01*
X108544454Y-93102604D01*
X108581000Y-93286333D01*
X108581000Y-93473667D01*
X108544454Y-93657396D01*
X108472766Y-93830466D01*
X108368688Y-93986230D01*
X108236230Y-94118688D01*
X108080466Y-94222766D01*
X107907396Y-94294454D01*
X107723667Y-94331000D01*
X107536333Y-94331000D01*
X107352604Y-94294454D01*
X107179534Y-94222766D01*
X107023770Y-94118688D01*
X106891312Y-93986230D01*
X106787234Y-93830466D01*
X106715546Y-93657396D01*
X106679000Y-93473667D01*
X106679000Y-93286333D01*
X106715546Y-93102604D01*
X106787234Y-92929534D01*
X106891312Y-92773770D01*
X107023770Y-92641312D01*
X107179534Y-92537234D01*
X107352604Y-92465546D01*
X107536333Y-92429000D01*
X107723667Y-92429000D01*
X107907396Y-92465546D01*
X107907396Y-92465546D01*
G37*
G36*
X105367396Y-92465546D02*
X105540466Y-92537234D01*
X105696230Y-92641312D01*
X105828688Y-92773770D01*
X105932766Y-92929534D01*
X106004454Y-93102604D01*
X106041000Y-93286333D01*
X106041000Y-93473667D01*
X106004454Y-93657396D01*
X105932766Y-93830466D01*
X105828688Y-93986230D01*
X105696230Y-94118688D01*
X105540466Y-94222766D01*
X105367396Y-94294454D01*
X105183667Y-94331000D01*
X104996333Y-94331000D01*
X104812604Y-94294454D01*
X104639534Y-94222766D01*
X104483770Y-94118688D01*
X104351312Y-93986230D01*
X104247234Y-93830466D01*
X104175546Y-93657396D01*
X104139000Y-93473667D01*
X104139000Y-93286333D01*
X104175546Y-93102604D01*
X104247234Y-92929534D01*
X104351312Y-92773770D01*
X104483770Y-92641312D01*
X104639534Y-92537234D01*
X104812604Y-92465546D01*
X104996333Y-92429000D01*
X105183667Y-92429000D01*
X105367396Y-92465546D01*
X105367396Y-92465546D01*
G37*
G36*
X95207396Y-92465546D02*
X95380466Y-92537234D01*
X95536230Y-92641312D01*
X95668688Y-92773770D01*
X95772766Y-92929534D01*
X95844454Y-93102604D01*
X95881000Y-93286333D01*
X95881000Y-93473667D01*
X95844454Y-93657396D01*
X95772766Y-93830466D01*
X95668688Y-93986230D01*
X95536230Y-94118688D01*
X95380466Y-94222766D01*
X95207396Y-94294454D01*
X95023667Y-94331000D01*
X94836333Y-94331000D01*
X94652604Y-94294454D01*
X94479534Y-94222766D01*
X94323770Y-94118688D01*
X94191312Y-93986230D01*
X94087234Y-93830466D01*
X94015546Y-93657396D01*
X93979000Y-93473667D01*
X93979000Y-93286333D01*
X94015546Y-93102604D01*
X94087234Y-92929534D01*
X94191312Y-92773770D01*
X94323770Y-92641312D01*
X94479534Y-92537234D01*
X94652604Y-92465546D01*
X94836333Y-92429000D01*
X95023667Y-92429000D01*
X95207396Y-92465546D01*
X95207396Y-92465546D01*
G37*
G36*
X97747396Y-92465546D02*
X97920466Y-92537234D01*
X98076230Y-92641312D01*
X98208688Y-92773770D01*
X98312766Y-92929534D01*
X98384454Y-93102604D01*
X98421000Y-93286333D01*
X98421000Y-93473667D01*
X98384454Y-93657396D01*
X98312766Y-93830466D01*
X98208688Y-93986230D01*
X98076230Y-94118688D01*
X97920466Y-94222766D01*
X97747396Y-94294454D01*
X97563667Y-94331000D01*
X97376333Y-94331000D01*
X97192604Y-94294454D01*
X97019534Y-94222766D01*
X96863770Y-94118688D01*
X96731312Y-93986230D01*
X96627234Y-93830466D01*
X96555546Y-93657396D01*
X96519000Y-93473667D01*
X96519000Y-93286333D01*
X96555546Y-93102604D01*
X96627234Y-92929534D01*
X96731312Y-92773770D01*
X96863770Y-92641312D01*
X97019534Y-92537234D01*
X97192604Y-92465546D01*
X97376333Y-92429000D01*
X97563667Y-92429000D01*
X97747396Y-92465546D01*
X97747396Y-92465546D01*
G37*
G36*
X100287396Y-92465546D02*
X100460466Y-92537234D01*
X100616230Y-92641312D01*
X100748688Y-92773770D01*
X100852766Y-92929534D01*
X100924454Y-93102604D01*
X100961000Y-93286333D01*
X100961000Y-93473667D01*
X100924454Y-93657396D01*
X100852766Y-93830466D01*
X100748688Y-93986230D01*
X100616230Y-94118688D01*
X100460466Y-94222766D01*
X100287396Y-94294454D01*
X100103667Y-94331000D01*
X99916333Y-94331000D01*
X99732604Y-94294454D01*
X99559534Y-94222766D01*
X99403770Y-94118688D01*
X99271312Y-93986230D01*
X99167234Y-93830466D01*
X99095546Y-93657396D01*
X99059000Y-93473667D01*
X99059000Y-93286333D01*
X99095546Y-93102604D01*
X99167234Y-92929534D01*
X99271312Y-92773770D01*
X99403770Y-92641312D01*
X99559534Y-92537234D01*
X99732604Y-92465546D01*
X99916333Y-92429000D01*
X100103667Y-92429000D01*
X100287396Y-92465546D01*
X100287396Y-92465546D01*
G37*
G36*
X102827396Y-92465546D02*
X103000466Y-92537234D01*
X103156230Y-92641312D01*
X103288688Y-92773770D01*
X103392766Y-92929534D01*
X103464454Y-93102604D01*
X103501000Y-93286333D01*
X103501000Y-93473667D01*
X103464454Y-93657396D01*
X103392766Y-93830466D01*
X103288688Y-93986230D01*
X103156230Y-94118688D01*
X103000466Y-94222766D01*
X102827396Y-94294454D01*
X102643667Y-94331000D01*
X102456333Y-94331000D01*
X102272604Y-94294454D01*
X102099534Y-94222766D01*
X101943770Y-94118688D01*
X101811312Y-93986230D01*
X101707234Y-93830466D01*
X101635546Y-93657396D01*
X101599000Y-93473667D01*
X101599000Y-93286333D01*
X101635546Y-93102604D01*
X101707234Y-92929534D01*
X101811312Y-92773770D01*
X101943770Y-92641312D01*
X102099534Y-92537234D01*
X102272604Y-92465546D01*
X102456333Y-92429000D01*
X102643667Y-92429000D01*
X102827396Y-92465546D01*
X102827396Y-92465546D01*
G37*
G36*
X64727396Y-92465546D02*
X64900466Y-92537234D01*
X65056230Y-92641312D01*
X65188688Y-92773770D01*
X65292766Y-92929534D01*
X65364454Y-93102604D01*
X65401000Y-93286333D01*
X65401000Y-93473667D01*
X65364454Y-93657396D01*
X65292766Y-93830466D01*
X65188688Y-93986230D01*
X65056230Y-94118688D01*
X64900466Y-94222766D01*
X64727396Y-94294454D01*
X64543667Y-94331000D01*
X64356333Y-94331000D01*
X64172604Y-94294454D01*
X63999534Y-94222766D01*
X63843770Y-94118688D01*
X63711312Y-93986230D01*
X63607234Y-93830466D01*
X63535546Y-93657396D01*
X63499000Y-93473667D01*
X63499000Y-93286333D01*
X63535546Y-93102604D01*
X63607234Y-92929534D01*
X63711312Y-92773770D01*
X63843770Y-92641312D01*
X63999534Y-92537234D01*
X64172604Y-92465546D01*
X64356333Y-92429000D01*
X64543667Y-92429000D01*
X64727396Y-92465546D01*
X64727396Y-92465546D01*
G37*
G36*
X87587396Y-92465546D02*
X87760466Y-92537234D01*
X87916230Y-92641312D01*
X88048688Y-92773770D01*
X88152766Y-92929534D01*
X88224454Y-93102604D01*
X88261000Y-93286333D01*
X88261000Y-93473667D01*
X88224454Y-93657396D01*
X88152766Y-93830466D01*
X88048688Y-93986230D01*
X87916230Y-94118688D01*
X87760466Y-94222766D01*
X87587396Y-94294454D01*
X87403667Y-94331000D01*
X87216333Y-94331000D01*
X87032604Y-94294454D01*
X86859534Y-94222766D01*
X86703770Y-94118688D01*
X86571312Y-93986230D01*
X86467234Y-93830466D01*
X86395546Y-93657396D01*
X86359000Y-93473667D01*
X86359000Y-93286333D01*
X86395546Y-93102604D01*
X86467234Y-92929534D01*
X86571312Y-92773770D01*
X86703770Y-92641312D01*
X86859534Y-92537234D01*
X87032604Y-92465546D01*
X87216333Y-92429000D01*
X87403667Y-92429000D01*
X87587396Y-92465546D01*
X87587396Y-92465546D01*
G37*
G36*
X90127396Y-92465546D02*
X90300466Y-92537234D01*
X90456230Y-92641312D01*
X90588688Y-92773770D01*
X90692766Y-92929534D01*
X90764454Y-93102604D01*
X90801000Y-93286333D01*
X90801000Y-93473667D01*
X90764454Y-93657396D01*
X90692766Y-93830466D01*
X90588688Y-93986230D01*
X90456230Y-94118688D01*
X90300466Y-94222766D01*
X90127396Y-94294454D01*
X89943667Y-94331000D01*
X89756333Y-94331000D01*
X89572604Y-94294454D01*
X89399534Y-94222766D01*
X89243770Y-94118688D01*
X89111312Y-93986230D01*
X89007234Y-93830466D01*
X88935546Y-93657396D01*
X88899000Y-93473667D01*
X88899000Y-93286333D01*
X88935546Y-93102604D01*
X89007234Y-92929534D01*
X89111312Y-92773770D01*
X89243770Y-92641312D01*
X89399534Y-92537234D01*
X89572604Y-92465546D01*
X89756333Y-92429000D01*
X89943667Y-92429000D01*
X90127396Y-92465546D01*
X90127396Y-92465546D01*
G37*
G36*
X55815591Y-91426085D02*
X55849569Y-91436393D01*
X55880887Y-91453133D01*
X55908339Y-91475661D01*
X55930867Y-91503113D01*
X55947607Y-91534431D01*
X55957915Y-91568409D01*
X55962000Y-91609890D01*
X55962000Y-92286110D01*
X55957915Y-92327591D01*
X55947607Y-92361569D01*
X55930867Y-92392887D01*
X55908339Y-92420339D01*
X55880887Y-92442867D01*
X55849569Y-92459607D01*
X55815591Y-92469915D01*
X55774110Y-92474000D01*
X55172890Y-92474000D01*
X55131409Y-92469915D01*
X55097431Y-92459607D01*
X55066113Y-92442867D01*
X55038661Y-92420339D01*
X55016133Y-92392887D01*
X54999393Y-92361569D01*
X54989085Y-92327591D01*
X54985000Y-92286110D01*
X54985000Y-91609890D01*
X54989085Y-91568409D01*
X54999393Y-91534431D01*
X55016133Y-91503113D01*
X55038661Y-91475661D01*
X55066113Y-91453133D01*
X55097431Y-91436393D01*
X55131409Y-91426085D01*
X55172890Y-91422000D01*
X55774110Y-91422000D01*
X55815591Y-91426085D01*
X55815591Y-91426085D01*
G37*
G36*
X57390591Y-91426085D02*
X57424569Y-91436393D01*
X57455887Y-91453133D01*
X57483339Y-91475661D01*
X57505867Y-91503113D01*
X57522607Y-91534431D01*
X57532915Y-91568409D01*
X57537000Y-91609890D01*
X57537000Y-92286110D01*
X57532915Y-92327591D01*
X57522607Y-92361569D01*
X57505867Y-92392887D01*
X57483339Y-92420339D01*
X57455887Y-92442867D01*
X57424569Y-92459607D01*
X57390591Y-92469915D01*
X57349110Y-92474000D01*
X56747890Y-92474000D01*
X56706409Y-92469915D01*
X56672431Y-92459607D01*
X56641113Y-92442867D01*
X56613661Y-92420339D01*
X56591133Y-92392887D01*
X56574393Y-92361569D01*
X56564085Y-92327591D01*
X56560000Y-92286110D01*
X56560000Y-91609890D01*
X56564085Y-91568409D01*
X56574393Y-91534431D01*
X56591133Y-91503113D01*
X56613661Y-91475661D01*
X56641113Y-91453133D01*
X56672431Y-91436393D01*
X56706409Y-91426085D01*
X56747890Y-91422000D01*
X57349110Y-91422000D01*
X57390591Y-91426085D01*
X57390591Y-91426085D01*
G37*
G36*
X52901000Y-91901000D02*
X51099000Y-91901000D01*
X51099000Y-90099000D01*
X52901000Y-90099000D01*
X52901000Y-91901000D01*
X52901000Y-91901000D01*
G37*
G36*
X92772091Y-90727085D02*
X92806069Y-90737393D01*
X92837387Y-90754133D01*
X92864839Y-90776661D01*
X92887367Y-90804113D01*
X92904107Y-90835431D01*
X92914415Y-90869409D01*
X92918500Y-90910890D01*
X92918500Y-91512110D01*
X92914415Y-91553591D01*
X92904107Y-91587569D01*
X92887367Y-91618887D01*
X92864839Y-91646339D01*
X92837387Y-91668867D01*
X92806069Y-91685607D01*
X92772091Y-91695915D01*
X92730610Y-91700000D01*
X92054390Y-91700000D01*
X92012909Y-91695915D01*
X91978931Y-91685607D01*
X91947613Y-91668867D01*
X91920161Y-91646339D01*
X91897633Y-91618887D01*
X91880893Y-91587569D01*
X91870585Y-91553591D01*
X91866500Y-91512110D01*
X91866500Y-90910890D01*
X91870585Y-90869409D01*
X91880893Y-90835431D01*
X91897633Y-90804113D01*
X91920161Y-90776661D01*
X91947613Y-90754133D01*
X91978931Y-90737393D01*
X92012909Y-90727085D01*
X92054390Y-90723000D01*
X92730610Y-90723000D01*
X92772091Y-90727085D01*
X92772091Y-90727085D01*
G37*
G36*
X92772091Y-89152085D02*
X92806069Y-89162393D01*
X92837387Y-89179133D01*
X92864839Y-89201661D01*
X92887367Y-89229113D01*
X92904107Y-89260431D01*
X92914415Y-89294409D01*
X92918500Y-89335890D01*
X92918500Y-89937110D01*
X92914415Y-89978591D01*
X92904107Y-90012569D01*
X92887367Y-90043887D01*
X92864839Y-90071339D01*
X92837387Y-90093867D01*
X92806069Y-90110607D01*
X92772091Y-90120915D01*
X92730610Y-90125000D01*
X92054390Y-90125000D01*
X92012909Y-90120915D01*
X91978931Y-90110607D01*
X91947613Y-90093867D01*
X91920161Y-90071339D01*
X91897633Y-90043887D01*
X91880893Y-90012569D01*
X91870585Y-89978591D01*
X91866500Y-89937110D01*
X91866500Y-89335890D01*
X91870585Y-89294409D01*
X91880893Y-89260431D01*
X91897633Y-89229113D01*
X91920161Y-89201661D01*
X91947613Y-89179133D01*
X91978931Y-89162393D01*
X92012909Y-89152085D01*
X92054390Y-89148000D01*
X92730610Y-89148000D01*
X92772091Y-89152085D01*
X92772091Y-89152085D01*
G37*
G36*
X52110443Y-87565519D02*
X52176627Y-87572037D01*
X52289853Y-87606384D01*
X52346467Y-87623557D01*
X52485087Y-87697652D01*
X52502991Y-87707222D01*
X52538729Y-87736552D01*
X52640186Y-87819814D01*
X52723448Y-87921271D01*
X52752778Y-87957009D01*
X52752779Y-87957011D01*
X52836443Y-88113533D01*
X52836443Y-88113534D01*
X52887963Y-88283373D01*
X52905359Y-88460000D01*
X52887963Y-88636627D01*
X52853616Y-88749853D01*
X52836443Y-88806467D01*
X52762348Y-88945087D01*
X52752778Y-88962991D01*
X52723448Y-88998729D01*
X52640186Y-89100186D01*
X52543987Y-89179133D01*
X52502991Y-89212778D01*
X52502989Y-89212779D01*
X52346467Y-89296443D01*
X52289853Y-89313616D01*
X52176627Y-89347963D01*
X52110443Y-89354481D01*
X52044260Y-89361000D01*
X51955740Y-89361000D01*
X51889557Y-89354481D01*
X51823373Y-89347963D01*
X51710147Y-89313616D01*
X51653533Y-89296443D01*
X51497011Y-89212779D01*
X51497009Y-89212778D01*
X51456013Y-89179133D01*
X51359814Y-89100186D01*
X51276552Y-88998729D01*
X51247222Y-88962991D01*
X51237652Y-88945087D01*
X51163557Y-88806467D01*
X51146384Y-88749853D01*
X51112037Y-88636627D01*
X51094641Y-88460000D01*
X51112037Y-88283373D01*
X51163557Y-88113534D01*
X51163557Y-88113533D01*
X51247221Y-87957011D01*
X51247222Y-87957009D01*
X51276552Y-87921271D01*
X51359814Y-87819814D01*
X51461271Y-87736552D01*
X51497009Y-87707222D01*
X51514913Y-87697652D01*
X51653533Y-87623557D01*
X51710147Y-87606384D01*
X51823373Y-87572037D01*
X51889557Y-87565519D01*
X51955740Y-87559000D01*
X52044260Y-87559000D01*
X52110443Y-87565519D01*
X52110443Y-87565519D01*
G37*
G36*
X52110442Y-85025518D02*
X52176627Y-85032037D01*
X52289853Y-85066384D01*
X52346467Y-85083557D01*
X52485087Y-85157652D01*
X52502991Y-85167222D01*
X52538729Y-85196552D01*
X52640186Y-85279814D01*
X52723448Y-85381271D01*
X52752778Y-85417009D01*
X52752779Y-85417011D01*
X52836443Y-85573533D01*
X52836443Y-85573534D01*
X52887963Y-85743373D01*
X52905359Y-85920000D01*
X52887963Y-86096627D01*
X52853616Y-86209853D01*
X52836443Y-86266467D01*
X52762348Y-86405087D01*
X52752778Y-86422991D01*
X52723448Y-86458729D01*
X52640186Y-86560186D01*
X52538729Y-86643448D01*
X52502991Y-86672778D01*
X52502989Y-86672779D01*
X52346467Y-86756443D01*
X52289853Y-86773616D01*
X52176627Y-86807963D01*
X52110442Y-86814482D01*
X52044260Y-86821000D01*
X51955740Y-86821000D01*
X51889558Y-86814482D01*
X51823373Y-86807963D01*
X51710147Y-86773616D01*
X51653533Y-86756443D01*
X51497011Y-86672779D01*
X51497009Y-86672778D01*
X51461271Y-86643448D01*
X51359814Y-86560186D01*
X51276552Y-86458729D01*
X51247222Y-86422991D01*
X51237652Y-86405087D01*
X51163557Y-86266467D01*
X51146384Y-86209853D01*
X51112037Y-86096627D01*
X51094641Y-85920000D01*
X51112037Y-85743373D01*
X51163557Y-85573534D01*
X51163557Y-85573533D01*
X51247221Y-85417011D01*
X51247222Y-85417009D01*
X51276552Y-85381271D01*
X51359814Y-85279814D01*
X51461271Y-85196552D01*
X51497009Y-85167222D01*
X51514913Y-85157652D01*
X51653533Y-85083557D01*
X51710147Y-85066384D01*
X51823373Y-85032037D01*
X51889558Y-85025518D01*
X51955740Y-85019000D01*
X52044260Y-85019000D01*
X52110442Y-85025518D01*
X52110442Y-85025518D01*
G37*
G36*
X105110442Y-85021018D02*
X105176627Y-85027537D01*
X105289853Y-85061884D01*
X105346467Y-85079057D01*
X105485087Y-85153152D01*
X105502991Y-85162722D01*
X105508474Y-85167222D01*
X105640186Y-85275314D01*
X105723448Y-85376771D01*
X105752778Y-85412509D01*
X105752779Y-85412511D01*
X105836443Y-85569033D01*
X105836443Y-85569034D01*
X105887963Y-85738873D01*
X105905359Y-85915500D01*
X105887963Y-86092127D01*
X105853616Y-86205353D01*
X105836443Y-86261967D01*
X105762348Y-86400587D01*
X105752778Y-86418491D01*
X105723448Y-86454229D01*
X105640186Y-86555686D01*
X105538729Y-86638948D01*
X105502991Y-86668278D01*
X105502989Y-86668279D01*
X105346467Y-86751943D01*
X105289853Y-86769116D01*
X105176627Y-86803463D01*
X105110442Y-86809982D01*
X105044260Y-86816500D01*
X104955740Y-86816500D01*
X104889558Y-86809982D01*
X104823373Y-86803463D01*
X104710147Y-86769116D01*
X104653533Y-86751943D01*
X104497011Y-86668279D01*
X104497009Y-86668278D01*
X104461271Y-86638948D01*
X104359814Y-86555686D01*
X104276552Y-86454229D01*
X104247222Y-86418491D01*
X104237652Y-86400587D01*
X104163557Y-86261967D01*
X104146384Y-86205353D01*
X104112037Y-86092127D01*
X104094641Y-85915500D01*
X104112037Y-85738873D01*
X104163557Y-85569034D01*
X104163557Y-85569033D01*
X104247221Y-85412511D01*
X104247222Y-85412509D01*
X104276552Y-85376771D01*
X104359814Y-85275314D01*
X104491526Y-85167222D01*
X104497009Y-85162722D01*
X104514913Y-85153152D01*
X104653533Y-85079057D01*
X104710147Y-85061884D01*
X104823373Y-85027537D01*
X104889558Y-85021018D01*
X104955740Y-85014500D01*
X105044260Y-85014500D01*
X105110442Y-85021018D01*
X105110442Y-85021018D01*
G37*
G36*
X52110443Y-82485519D02*
X52176627Y-82492037D01*
X52289853Y-82526384D01*
X52346467Y-82543557D01*
X52485087Y-82617652D01*
X52502991Y-82627222D01*
X52538729Y-82656552D01*
X52640186Y-82739814D01*
X52723448Y-82841271D01*
X52752778Y-82877009D01*
X52752779Y-82877011D01*
X52836443Y-83033533D01*
X52836443Y-83033534D01*
X52887963Y-83203373D01*
X52905359Y-83380000D01*
X52887963Y-83556627D01*
X52853616Y-83669853D01*
X52836443Y-83726467D01*
X52762348Y-83865087D01*
X52752778Y-83882991D01*
X52723448Y-83918729D01*
X52640186Y-84020186D01*
X52538729Y-84103448D01*
X52502991Y-84132778D01*
X52502989Y-84132779D01*
X52346467Y-84216443D01*
X52289853Y-84233616D01*
X52176627Y-84267963D01*
X52110443Y-84274481D01*
X52044260Y-84281000D01*
X51955740Y-84281000D01*
X51889557Y-84274481D01*
X51823373Y-84267963D01*
X51710147Y-84233616D01*
X51653533Y-84216443D01*
X51497011Y-84132779D01*
X51497009Y-84132778D01*
X51461271Y-84103448D01*
X51359814Y-84020186D01*
X51276552Y-83918729D01*
X51247222Y-83882991D01*
X51237652Y-83865087D01*
X51163557Y-83726467D01*
X51146384Y-83669853D01*
X51112037Y-83556627D01*
X51094641Y-83380000D01*
X51112037Y-83203373D01*
X51163557Y-83033534D01*
X51163557Y-83033533D01*
X51247221Y-82877011D01*
X51247222Y-82877009D01*
X51276552Y-82841271D01*
X51359814Y-82739814D01*
X51461271Y-82656552D01*
X51497009Y-82627222D01*
X51514913Y-82617652D01*
X51653533Y-82543557D01*
X51710147Y-82526384D01*
X51823373Y-82492037D01*
X51889557Y-82485519D01*
X51955740Y-82479000D01*
X52044260Y-82479000D01*
X52110443Y-82485519D01*
X52110443Y-82485519D01*
G37*
G36*
X105110442Y-82481018D02*
X105176627Y-82487537D01*
X105289853Y-82521884D01*
X105346467Y-82539057D01*
X105485087Y-82613152D01*
X105502991Y-82622722D01*
X105508474Y-82627222D01*
X105640186Y-82735314D01*
X105723448Y-82836771D01*
X105752778Y-82872509D01*
X105752779Y-82872511D01*
X105836443Y-83029033D01*
X105836443Y-83029034D01*
X105887963Y-83198873D01*
X105905359Y-83375500D01*
X105887963Y-83552127D01*
X105853616Y-83665353D01*
X105836443Y-83721967D01*
X105762348Y-83860587D01*
X105752778Y-83878491D01*
X105723448Y-83914229D01*
X105640186Y-84015686D01*
X105538729Y-84098948D01*
X105502991Y-84128278D01*
X105502989Y-84128279D01*
X105346467Y-84211943D01*
X105289853Y-84229116D01*
X105176627Y-84263463D01*
X105110442Y-84269982D01*
X105044260Y-84276500D01*
X104955740Y-84276500D01*
X104889558Y-84269982D01*
X104823373Y-84263463D01*
X104710147Y-84229116D01*
X104653533Y-84211943D01*
X104497011Y-84128279D01*
X104497009Y-84128278D01*
X104461271Y-84098948D01*
X104359814Y-84015686D01*
X104276552Y-83914229D01*
X104247222Y-83878491D01*
X104237652Y-83860587D01*
X104163557Y-83721967D01*
X104146384Y-83665353D01*
X104112037Y-83552127D01*
X104094641Y-83375500D01*
X104112037Y-83198873D01*
X104163557Y-83029034D01*
X104163557Y-83029033D01*
X104247221Y-82872511D01*
X104247222Y-82872509D01*
X104276552Y-82836771D01*
X104359814Y-82735314D01*
X104491526Y-82627222D01*
X104497009Y-82622722D01*
X104514913Y-82613152D01*
X104653533Y-82539057D01*
X104710147Y-82521884D01*
X104823373Y-82487537D01*
X104889558Y-82481018D01*
X104955740Y-82474500D01*
X105044260Y-82474500D01*
X105110442Y-82481018D01*
X105110442Y-82481018D01*
G37*
G36*
X52110443Y-79945519D02*
X52176627Y-79952037D01*
X52289853Y-79986384D01*
X52346467Y-80003557D01*
X52485087Y-80077652D01*
X52502991Y-80087222D01*
X52538729Y-80116552D01*
X52640186Y-80199814D01*
X52723448Y-80301271D01*
X52752778Y-80337009D01*
X52752779Y-80337011D01*
X52836443Y-80493533D01*
X52836443Y-80493534D01*
X52887963Y-80663373D01*
X52905359Y-80840000D01*
X52887963Y-81016627D01*
X52853616Y-81129853D01*
X52836443Y-81186467D01*
X52762348Y-81325087D01*
X52752778Y-81342991D01*
X52723448Y-81378729D01*
X52640186Y-81480186D01*
X52538729Y-81563448D01*
X52502991Y-81592778D01*
X52502989Y-81592779D01*
X52346467Y-81676443D01*
X52289853Y-81693616D01*
X52176627Y-81727963D01*
X52110442Y-81734482D01*
X52044260Y-81741000D01*
X51955740Y-81741000D01*
X51889558Y-81734482D01*
X51823373Y-81727963D01*
X51710147Y-81693616D01*
X51653533Y-81676443D01*
X51497011Y-81592779D01*
X51497009Y-81592778D01*
X51461271Y-81563448D01*
X51359814Y-81480186D01*
X51276552Y-81378729D01*
X51247222Y-81342991D01*
X51237652Y-81325087D01*
X51163557Y-81186467D01*
X51146384Y-81129853D01*
X51112037Y-81016627D01*
X51094641Y-80840000D01*
X51112037Y-80663373D01*
X51163557Y-80493534D01*
X51163557Y-80493533D01*
X51247221Y-80337011D01*
X51247222Y-80337009D01*
X51276552Y-80301271D01*
X51359814Y-80199814D01*
X51461271Y-80116552D01*
X51497009Y-80087222D01*
X51514913Y-80077652D01*
X51653533Y-80003557D01*
X51710147Y-79986384D01*
X51823373Y-79952037D01*
X51889557Y-79945519D01*
X51955740Y-79939000D01*
X52044260Y-79939000D01*
X52110443Y-79945519D01*
X52110443Y-79945519D01*
G37*
G36*
X105110442Y-79941018D02*
X105176627Y-79947537D01*
X105289853Y-79981884D01*
X105346467Y-79999057D01*
X105485087Y-80073152D01*
X105502991Y-80082722D01*
X105508474Y-80087222D01*
X105640186Y-80195314D01*
X105723448Y-80296771D01*
X105752778Y-80332509D01*
X105752779Y-80332511D01*
X105836443Y-80489033D01*
X105836443Y-80489034D01*
X105887963Y-80658873D01*
X105905359Y-80835500D01*
X105887963Y-81012127D01*
X105853616Y-81125353D01*
X105836443Y-81181967D01*
X105762348Y-81320587D01*
X105752778Y-81338491D01*
X105723448Y-81374229D01*
X105640186Y-81475686D01*
X105538729Y-81558948D01*
X105502991Y-81588278D01*
X105502989Y-81588279D01*
X105346467Y-81671943D01*
X105289853Y-81689116D01*
X105176627Y-81723463D01*
X105110443Y-81729981D01*
X105044260Y-81736500D01*
X104955740Y-81736500D01*
X104889557Y-81729981D01*
X104823373Y-81723463D01*
X104710147Y-81689116D01*
X104653533Y-81671943D01*
X104497011Y-81588279D01*
X104497009Y-81588278D01*
X104461271Y-81558948D01*
X104359814Y-81475686D01*
X104276552Y-81374229D01*
X104247222Y-81338491D01*
X104237652Y-81320587D01*
X104163557Y-81181967D01*
X104146384Y-81125353D01*
X104112037Y-81012127D01*
X104094641Y-80835500D01*
X104112037Y-80658873D01*
X104163557Y-80489034D01*
X104163557Y-80489033D01*
X104247221Y-80332511D01*
X104247222Y-80332509D01*
X104276552Y-80296771D01*
X104359814Y-80195314D01*
X104491526Y-80087222D01*
X104497009Y-80082722D01*
X104514913Y-80073152D01*
X104653533Y-79999057D01*
X104710147Y-79981884D01*
X104823373Y-79947537D01*
X104889558Y-79941018D01*
X104955740Y-79934500D01*
X105044260Y-79934500D01*
X105110442Y-79941018D01*
X105110442Y-79941018D01*
G37*
G36*
X93864999Y-80403000D02*
X92062999Y-80403000D01*
X92062999Y-78601000D01*
X93864999Y-78601000D01*
X93864999Y-80403000D01*
X93864999Y-80403000D01*
G37*
G36*
X75323000Y-80402999D02*
X73521000Y-80402999D01*
X73521000Y-78600999D01*
X75323000Y-78600999D01*
X75323000Y-80402999D01*
X75323000Y-80402999D01*
G37*
G36*
X52110443Y-77405519D02*
X52176627Y-77412037D01*
X52289853Y-77446384D01*
X52346467Y-77463557D01*
X52485087Y-77537652D01*
X52502991Y-77547222D01*
X52538729Y-77576552D01*
X52640186Y-77659814D01*
X52723448Y-77761271D01*
X52752778Y-77797009D01*
X52752779Y-77797011D01*
X52836443Y-77953533D01*
X52836443Y-77953534D01*
X52887963Y-78123373D01*
X52905359Y-78300000D01*
X52887963Y-78476627D01*
X52853616Y-78589853D01*
X52836443Y-78646467D01*
X52762348Y-78785087D01*
X52752778Y-78802991D01*
X52723448Y-78838729D01*
X52640186Y-78940186D01*
X52538729Y-79023448D01*
X52502991Y-79052778D01*
X52502989Y-79052779D01*
X52346467Y-79136443D01*
X52289853Y-79153616D01*
X52176627Y-79187963D01*
X52110443Y-79194481D01*
X52044260Y-79201000D01*
X51955740Y-79201000D01*
X51889557Y-79194481D01*
X51823373Y-79187963D01*
X51710147Y-79153616D01*
X51653533Y-79136443D01*
X51497011Y-79052779D01*
X51497009Y-79052778D01*
X51461271Y-79023448D01*
X51359814Y-78940186D01*
X51276552Y-78838729D01*
X51247222Y-78802991D01*
X51237652Y-78785087D01*
X51163557Y-78646467D01*
X51146384Y-78589853D01*
X51112037Y-78476627D01*
X51094641Y-78300000D01*
X51112037Y-78123373D01*
X51163557Y-77953534D01*
X51163557Y-77953533D01*
X51247221Y-77797011D01*
X51247222Y-77797009D01*
X51276552Y-77761271D01*
X51359814Y-77659814D01*
X51461271Y-77576552D01*
X51497009Y-77547222D01*
X51514913Y-77537652D01*
X51653533Y-77463557D01*
X51710147Y-77446384D01*
X51823373Y-77412037D01*
X51889557Y-77405519D01*
X51955740Y-77399000D01*
X52044260Y-77399000D01*
X52110443Y-77405519D01*
X52110443Y-77405519D01*
G37*
G36*
X105901000Y-79196500D02*
X104099000Y-79196500D01*
X104099000Y-77394500D01*
X105901000Y-77394500D01*
X105901000Y-79196500D01*
X105901000Y-79196500D01*
G37*
G36*
X93074442Y-76067519D02*
X93140626Y-76074037D01*
X93253852Y-76108384D01*
X93310466Y-76125557D01*
X93449086Y-76199652D01*
X93466990Y-76209222D01*
X93502728Y-76238552D01*
X93604185Y-76321814D01*
X93668501Y-76400185D01*
X93716777Y-76459009D01*
X93716778Y-76459011D01*
X93800442Y-76615533D01*
X93800442Y-76615534D01*
X93851962Y-76785373D01*
X93869358Y-76962000D01*
X93851962Y-77138627D01*
X93817615Y-77251853D01*
X93800442Y-77308467D01*
X93754456Y-77394500D01*
X93716777Y-77464991D01*
X93687447Y-77500729D01*
X93604185Y-77602186D01*
X93502728Y-77685448D01*
X93466990Y-77714778D01*
X93466988Y-77714779D01*
X93310466Y-77798443D01*
X93253852Y-77815616D01*
X93140626Y-77849963D01*
X93074442Y-77856481D01*
X93008259Y-77863000D01*
X92919739Y-77863000D01*
X92853556Y-77856481D01*
X92787372Y-77849963D01*
X92674146Y-77815616D01*
X92617532Y-77798443D01*
X92461010Y-77714779D01*
X92461008Y-77714778D01*
X92425270Y-77685448D01*
X92323813Y-77602186D01*
X92240551Y-77500729D01*
X92211221Y-77464991D01*
X92173542Y-77394500D01*
X92127556Y-77308467D01*
X92110383Y-77251853D01*
X92076036Y-77138627D01*
X92058640Y-76962000D01*
X92076036Y-76785373D01*
X92127556Y-76615534D01*
X92127556Y-76615533D01*
X92211220Y-76459011D01*
X92211221Y-76459009D01*
X92259497Y-76400185D01*
X92323813Y-76321814D01*
X92425270Y-76238552D01*
X92461008Y-76209222D01*
X92478912Y-76199652D01*
X92617532Y-76125557D01*
X92674146Y-76108384D01*
X92787372Y-76074037D01*
X92853556Y-76067519D01*
X92919739Y-76061000D01*
X93008259Y-76061000D01*
X93074442Y-76067519D01*
X93074442Y-76067519D01*
G37*
G36*
X74532443Y-76067518D02*
X74598627Y-76074036D01*
X74705538Y-76106467D01*
X74768467Y-76125556D01*
X74907087Y-76199651D01*
X74924991Y-76209221D01*
X74960729Y-76238551D01*
X75062186Y-76321813D01*
X75126503Y-76400185D01*
X75174778Y-76459008D01*
X75174779Y-76459010D01*
X75258443Y-76615532D01*
X75268281Y-76647963D01*
X75309963Y-76785372D01*
X75327359Y-76961999D01*
X75309963Y-77138626D01*
X75275616Y-77251852D01*
X75258443Y-77308466D01*
X75258442Y-77308467D01*
X75174778Y-77464990D01*
X75174777Y-77464991D01*
X75062186Y-77602185D01*
X74960729Y-77685447D01*
X74924991Y-77714777D01*
X74924989Y-77714778D01*
X74768467Y-77798442D01*
X74711853Y-77815615D01*
X74598627Y-77849962D01*
X74532443Y-77856480D01*
X74466260Y-77862999D01*
X74377740Y-77862999D01*
X74311557Y-77856480D01*
X74245373Y-77849962D01*
X74132147Y-77815615D01*
X74075533Y-77798442D01*
X73919011Y-77714778D01*
X73919009Y-77714777D01*
X73883271Y-77685447D01*
X73781814Y-77602185D01*
X73669223Y-77464991D01*
X73669222Y-77464990D01*
X73585558Y-77308467D01*
X73585557Y-77308466D01*
X73568384Y-77251852D01*
X73534037Y-77138626D01*
X73516641Y-76961999D01*
X73534037Y-76785372D01*
X73575719Y-76647963D01*
X73585557Y-76615532D01*
X73669221Y-76459010D01*
X73669222Y-76459008D01*
X73717497Y-76400185D01*
X73781814Y-76321813D01*
X73883271Y-76238551D01*
X73919009Y-76209221D01*
X73936913Y-76199651D01*
X74075533Y-76125556D01*
X74138462Y-76106467D01*
X74245373Y-76074036D01*
X74311557Y-76067518D01*
X74377740Y-76060999D01*
X74466260Y-76060999D01*
X74532443Y-76067518D01*
X74532443Y-76067518D01*
G37*
G36*
X52110442Y-74865518D02*
X52176627Y-74872037D01*
X52289853Y-74906384D01*
X52346467Y-74923557D01*
X52485087Y-74997652D01*
X52502991Y-75007222D01*
X52538729Y-75036552D01*
X52640186Y-75119814D01*
X52723448Y-75221271D01*
X52752778Y-75257009D01*
X52752779Y-75257011D01*
X52836443Y-75413533D01*
X52836443Y-75413534D01*
X52887963Y-75583373D01*
X52905359Y-75760000D01*
X52887963Y-75936627D01*
X52853616Y-76049853D01*
X52836443Y-76106467D01*
X52781519Y-76209221D01*
X52752778Y-76262991D01*
X52723448Y-76298729D01*
X52640186Y-76400186D01*
X52568506Y-76459011D01*
X52502991Y-76512778D01*
X52502989Y-76512779D01*
X52346467Y-76596443D01*
X52289853Y-76613616D01*
X52176627Y-76647963D01*
X52110442Y-76654482D01*
X52044260Y-76661000D01*
X51955740Y-76661000D01*
X51889558Y-76654482D01*
X51823373Y-76647963D01*
X51710147Y-76613616D01*
X51653533Y-76596443D01*
X51497011Y-76512779D01*
X51497009Y-76512778D01*
X51431494Y-76459011D01*
X51359814Y-76400186D01*
X51276552Y-76298729D01*
X51247222Y-76262991D01*
X51218481Y-76209221D01*
X51163557Y-76106467D01*
X51146384Y-76049853D01*
X51112037Y-75936627D01*
X51094641Y-75760000D01*
X51112037Y-75583373D01*
X51163557Y-75413534D01*
X51163557Y-75413533D01*
X51247221Y-75257011D01*
X51247222Y-75257009D01*
X51276552Y-75221271D01*
X51359814Y-75119814D01*
X51461271Y-75036552D01*
X51497009Y-75007222D01*
X51514913Y-74997652D01*
X51653533Y-74923557D01*
X51710147Y-74906384D01*
X51823373Y-74872037D01*
X51889558Y-74865518D01*
X51955740Y-74859000D01*
X52044260Y-74859000D01*
X52110442Y-74865518D01*
X52110442Y-74865518D01*
G37*
G36*
X52110443Y-72325519D02*
X52176627Y-72332037D01*
X52289853Y-72366384D01*
X52346467Y-72383557D01*
X52485087Y-72457652D01*
X52502991Y-72467222D01*
X52538729Y-72496552D01*
X52640186Y-72579814D01*
X52693066Y-72644250D01*
X52752778Y-72717009D01*
X52752779Y-72717011D01*
X52836443Y-72873533D01*
X52843623Y-72897204D01*
X52887963Y-73043373D01*
X52905359Y-73220000D01*
X52887963Y-73396627D01*
X52853616Y-73509853D01*
X52836443Y-73566467D01*
X52762348Y-73705087D01*
X52752778Y-73722991D01*
X52723448Y-73758729D01*
X52640186Y-73860186D01*
X52538729Y-73943448D01*
X52502991Y-73972778D01*
X52502989Y-73972779D01*
X52346467Y-74056443D01*
X52289853Y-74073616D01*
X52176627Y-74107963D01*
X52110443Y-74114481D01*
X52044260Y-74121000D01*
X51955740Y-74121000D01*
X51889557Y-74114481D01*
X51823373Y-74107963D01*
X51710147Y-74073616D01*
X51653533Y-74056443D01*
X51497011Y-73972779D01*
X51497009Y-73972778D01*
X51461271Y-73943448D01*
X51359814Y-73860186D01*
X51276552Y-73758729D01*
X51247222Y-73722991D01*
X51237652Y-73705087D01*
X51163557Y-73566467D01*
X51146384Y-73509853D01*
X51112037Y-73396627D01*
X51094641Y-73220000D01*
X51112037Y-73043373D01*
X51156377Y-72897204D01*
X51163557Y-72873533D01*
X51247221Y-72717011D01*
X51247222Y-72717009D01*
X51306934Y-72644250D01*
X51359814Y-72579814D01*
X51461271Y-72496552D01*
X51497009Y-72467222D01*
X51514913Y-72457652D01*
X51653533Y-72383557D01*
X51710147Y-72366384D01*
X51823373Y-72332037D01*
X51889557Y-72325519D01*
X51955740Y-72319000D01*
X52044260Y-72319000D01*
X52110443Y-72325519D01*
X52110443Y-72325519D01*
G37*
G36*
X97993466Y-71841065D02*
X98032137Y-71852796D01*
X98067779Y-71871848D01*
X98099017Y-71897483D01*
X98124652Y-71928721D01*
X98143704Y-71964363D01*
X98155435Y-72003034D01*
X98160000Y-72049388D01*
X98160000Y-72700612D01*
X98155435Y-72746966D01*
X98143704Y-72785637D01*
X98124652Y-72821279D01*
X98099017Y-72852517D01*
X98067779Y-72878152D01*
X98032137Y-72897204D01*
X97993466Y-72908935D01*
X97947112Y-72913500D01*
X96870888Y-72913500D01*
X96824534Y-72908935D01*
X96785863Y-72897204D01*
X96750221Y-72878152D01*
X96718983Y-72852517D01*
X96693348Y-72821279D01*
X96674296Y-72785637D01*
X96662565Y-72746966D01*
X96658000Y-72700612D01*
X96658000Y-72049388D01*
X96662565Y-72003034D01*
X96674296Y-71964363D01*
X96693348Y-71928721D01*
X96718983Y-71897483D01*
X96750221Y-71871848D01*
X96785863Y-71852796D01*
X96824534Y-71841065D01*
X96870888Y-71836500D01*
X97947112Y-71836500D01*
X97993466Y-71841065D01*
X97993466Y-71841065D01*
G37*
G36*
X63689091Y-70978585D02*
X63723069Y-70988893D01*
X63754387Y-71005633D01*
X63781839Y-71028161D01*
X63804367Y-71055613D01*
X63821107Y-71086931D01*
X63831415Y-71120909D01*
X63835500Y-71162390D01*
X63835500Y-71763610D01*
X63831415Y-71805091D01*
X63821107Y-71839069D01*
X63804367Y-71870387D01*
X63781839Y-71897839D01*
X63754387Y-71920367D01*
X63723069Y-71937107D01*
X63689091Y-71947415D01*
X63647610Y-71951500D01*
X62971390Y-71951500D01*
X62929909Y-71947415D01*
X62895931Y-71937107D01*
X62864613Y-71920367D01*
X62837161Y-71897839D01*
X62814633Y-71870387D01*
X62797893Y-71839069D01*
X62787585Y-71805091D01*
X62783500Y-71763610D01*
X62783500Y-71162390D01*
X62787585Y-71120909D01*
X62797893Y-71086931D01*
X62814633Y-71055613D01*
X62837161Y-71028161D01*
X62864613Y-71005633D01*
X62895931Y-70988893D01*
X62929909Y-70978585D01*
X62971390Y-70974500D01*
X63647610Y-70974500D01*
X63689091Y-70978585D01*
X63689091Y-70978585D01*
G37*
G36*
X62101591Y-70978585D02*
X62135569Y-70988893D01*
X62166887Y-71005633D01*
X62194339Y-71028161D01*
X62216867Y-71055613D01*
X62233607Y-71086931D01*
X62243915Y-71120909D01*
X62248000Y-71162390D01*
X62248000Y-71763610D01*
X62243915Y-71805091D01*
X62233607Y-71839069D01*
X62216867Y-71870387D01*
X62194339Y-71897839D01*
X62166887Y-71920367D01*
X62135569Y-71937107D01*
X62101591Y-71947415D01*
X62060110Y-71951500D01*
X61383890Y-71951500D01*
X61342409Y-71947415D01*
X61308431Y-71937107D01*
X61277113Y-71920367D01*
X61249661Y-71897839D01*
X61227133Y-71870387D01*
X61210393Y-71839069D01*
X61200085Y-71805091D01*
X61196000Y-71763610D01*
X61196000Y-71162390D01*
X61200085Y-71120909D01*
X61210393Y-71086931D01*
X61227133Y-71055613D01*
X61249661Y-71028161D01*
X61277113Y-71005633D01*
X61308431Y-70988893D01*
X61342409Y-70978585D01*
X61383890Y-70974500D01*
X62060110Y-70974500D01*
X62101591Y-70978585D01*
X62101591Y-70978585D01*
G37*
G36*
X102487591Y-70089585D02*
X102521569Y-70099893D01*
X102552887Y-70116633D01*
X102580339Y-70139161D01*
X102602867Y-70166613D01*
X102619607Y-70197931D01*
X102629915Y-70231909D01*
X102634000Y-70273390D01*
X102634000Y-70874610D01*
X102629915Y-70916091D01*
X102619607Y-70950069D01*
X102602867Y-70981387D01*
X102580339Y-71008839D01*
X102552887Y-71031367D01*
X102521569Y-71048107D01*
X102487591Y-71058415D01*
X102446110Y-71062500D01*
X101769890Y-71062500D01*
X101728409Y-71058415D01*
X101694431Y-71048107D01*
X101663113Y-71031367D01*
X101635661Y-71008839D01*
X101613133Y-70981387D01*
X101596393Y-70950069D01*
X101586085Y-70916091D01*
X101582000Y-70874610D01*
X101582000Y-70273390D01*
X101586085Y-70231909D01*
X101596393Y-70197931D01*
X101613133Y-70166613D01*
X101635661Y-70139161D01*
X101663113Y-70116633D01*
X101694431Y-70099893D01*
X101728409Y-70089585D01*
X101769890Y-70085500D01*
X102446110Y-70085500D01*
X102487591Y-70089585D01*
X102487591Y-70089585D01*
G37*
G36*
X100900091Y-70089585D02*
X100934069Y-70099893D01*
X100965387Y-70116633D01*
X100992839Y-70139161D01*
X101015367Y-70166613D01*
X101032107Y-70197931D01*
X101042415Y-70231909D01*
X101046500Y-70273390D01*
X101046500Y-70874610D01*
X101042415Y-70916091D01*
X101032107Y-70950069D01*
X101015367Y-70981387D01*
X100992839Y-71008839D01*
X100965387Y-71031367D01*
X100934069Y-71048107D01*
X100900091Y-71058415D01*
X100858610Y-71062500D01*
X100182390Y-71062500D01*
X100140909Y-71058415D01*
X100106931Y-71048107D01*
X100075613Y-71031367D01*
X100048161Y-71008839D01*
X100025633Y-70981387D01*
X100008893Y-70950069D01*
X99998585Y-70916091D01*
X99994500Y-70874610D01*
X99994500Y-70273390D01*
X99998585Y-70231909D01*
X100008893Y-70197931D01*
X100025633Y-70166613D01*
X100048161Y-70139161D01*
X100075613Y-70116633D01*
X100106931Y-70099893D01*
X100140909Y-70089585D01*
X100182390Y-70085500D01*
X100858610Y-70085500D01*
X100900091Y-70089585D01*
X100900091Y-70089585D01*
G37*
G36*
X97993466Y-69966065D02*
X98032137Y-69977796D01*
X98067779Y-69996848D01*
X98099017Y-70022483D01*
X98124652Y-70053721D01*
X98143704Y-70089363D01*
X98155435Y-70128034D01*
X98160000Y-70174388D01*
X98160000Y-70825612D01*
X98155435Y-70871966D01*
X98143704Y-70910637D01*
X98124652Y-70946279D01*
X98099017Y-70977517D01*
X98067779Y-71003152D01*
X98032137Y-71022204D01*
X97993466Y-71033935D01*
X97947112Y-71038500D01*
X96870888Y-71038500D01*
X96824534Y-71033935D01*
X96785863Y-71022204D01*
X96750221Y-71003152D01*
X96718983Y-70977517D01*
X96693348Y-70946279D01*
X96674296Y-70910637D01*
X96662565Y-70871966D01*
X96658000Y-70825612D01*
X96658000Y-70174388D01*
X96662565Y-70128034D01*
X96674296Y-70089363D01*
X96693348Y-70053721D01*
X96718983Y-70022483D01*
X96750221Y-69996848D01*
X96785863Y-69977796D01*
X96824534Y-69966065D01*
X96870888Y-69961500D01*
X97947112Y-69961500D01*
X97993466Y-69966065D01*
X97993466Y-69966065D01*
G37*
G36*
X63689091Y-69403585D02*
X63723069Y-69413893D01*
X63754387Y-69430633D01*
X63781839Y-69453161D01*
X63804367Y-69480613D01*
X63821107Y-69511931D01*
X63831415Y-69545909D01*
X63835500Y-69587390D01*
X63835500Y-70188610D01*
X63831415Y-70230091D01*
X63821107Y-70264069D01*
X63804367Y-70295387D01*
X63781839Y-70322839D01*
X63754387Y-70345367D01*
X63723069Y-70362107D01*
X63689091Y-70372415D01*
X63647610Y-70376500D01*
X62971390Y-70376500D01*
X62929909Y-70372415D01*
X62895931Y-70362107D01*
X62864613Y-70345367D01*
X62837161Y-70322839D01*
X62814633Y-70295387D01*
X62797893Y-70264069D01*
X62787585Y-70230091D01*
X62783500Y-70188610D01*
X62783500Y-69587390D01*
X62787585Y-69545909D01*
X62797893Y-69511931D01*
X62814633Y-69480613D01*
X62837161Y-69453161D01*
X62864613Y-69430633D01*
X62895931Y-69413893D01*
X62929909Y-69403585D01*
X62971390Y-69399500D01*
X63647610Y-69399500D01*
X63689091Y-69403585D01*
X63689091Y-69403585D01*
G37*
G36*
X62101591Y-69403585D02*
X62135569Y-69413893D01*
X62166887Y-69430633D01*
X62194339Y-69453161D01*
X62216867Y-69480613D01*
X62233607Y-69511931D01*
X62243915Y-69545909D01*
X62248000Y-69587390D01*
X62248000Y-70188610D01*
X62243915Y-70230091D01*
X62233607Y-70264069D01*
X62216867Y-70295387D01*
X62194339Y-70322839D01*
X62166887Y-70345367D01*
X62135569Y-70362107D01*
X62101591Y-70372415D01*
X62060110Y-70376500D01*
X61383890Y-70376500D01*
X61342409Y-70372415D01*
X61308431Y-70362107D01*
X61277113Y-70345367D01*
X61249661Y-70322839D01*
X61227133Y-70295387D01*
X61210393Y-70264069D01*
X61200085Y-70230091D01*
X61196000Y-70188610D01*
X61196000Y-69587390D01*
X61200085Y-69545909D01*
X61210393Y-69511931D01*
X61227133Y-69480613D01*
X61249661Y-69453161D01*
X61277113Y-69430633D01*
X61308431Y-69413893D01*
X61342409Y-69403585D01*
X61383890Y-69399500D01*
X62060110Y-69399500D01*
X62101591Y-69403585D01*
X62101591Y-69403585D01*
G37*
G36*
X75323000Y-69735000D02*
X73521000Y-69735000D01*
X73521000Y-67933000D01*
X75323000Y-67933000D01*
X75323000Y-69735000D01*
X75323000Y-69735000D01*
G37*
G36*
X93865000Y-69735000D02*
X92063000Y-69735000D01*
X92063000Y-67933000D01*
X93865000Y-67933000D01*
X93865000Y-69735000D01*
X93865000Y-69735000D01*
G37*
G36*
X102487591Y-68514585D02*
X102521569Y-68524893D01*
X102552887Y-68541633D01*
X102580339Y-68564161D01*
X102602867Y-68591613D01*
X102619607Y-68622931D01*
X102629915Y-68656909D01*
X102634000Y-68698390D01*
X102634000Y-69299610D01*
X102629915Y-69341091D01*
X102619607Y-69375069D01*
X102602867Y-69406387D01*
X102580339Y-69433839D01*
X102552887Y-69456367D01*
X102521569Y-69473107D01*
X102487591Y-69483415D01*
X102446110Y-69487500D01*
X101769890Y-69487500D01*
X101728409Y-69483415D01*
X101694431Y-69473107D01*
X101663113Y-69456367D01*
X101635661Y-69433839D01*
X101613133Y-69406387D01*
X101596393Y-69375069D01*
X101586085Y-69341091D01*
X101582000Y-69299610D01*
X101582000Y-68698390D01*
X101586085Y-68656909D01*
X101596393Y-68622931D01*
X101613133Y-68591613D01*
X101635661Y-68564161D01*
X101663113Y-68541633D01*
X101694431Y-68524893D01*
X101728409Y-68514585D01*
X101769890Y-68510500D01*
X102446110Y-68510500D01*
X102487591Y-68514585D01*
X102487591Y-68514585D01*
G37*
G36*
X100900091Y-68514585D02*
X100934069Y-68524893D01*
X100965387Y-68541633D01*
X100992839Y-68564161D01*
X101015367Y-68591613D01*
X101032107Y-68622931D01*
X101042415Y-68656909D01*
X101046500Y-68698390D01*
X101046500Y-69299610D01*
X101042415Y-69341091D01*
X101032107Y-69375069D01*
X101015367Y-69406387D01*
X100992839Y-69433839D01*
X100965387Y-69456367D01*
X100934069Y-69473107D01*
X100900091Y-69483415D01*
X100858610Y-69487500D01*
X100182390Y-69487500D01*
X100140909Y-69483415D01*
X100106931Y-69473107D01*
X100075613Y-69456367D01*
X100048161Y-69433839D01*
X100025633Y-69406387D01*
X100008893Y-69375069D01*
X99998585Y-69341091D01*
X99994500Y-69299610D01*
X99994500Y-68698390D01*
X99998585Y-68656909D01*
X100008893Y-68622931D01*
X100025633Y-68591613D01*
X100048161Y-68564161D01*
X100075613Y-68541633D01*
X100106931Y-68524893D01*
X100140909Y-68514585D01*
X100182390Y-68510500D01*
X100858610Y-68510500D01*
X100900091Y-68514585D01*
X100900091Y-68514585D01*
G37*
G36*
X67951000Y-69351000D02*
X66249000Y-69351000D01*
X66249000Y-67649000D01*
X67951000Y-67649000D01*
X67951000Y-69351000D01*
X67951000Y-69351000D01*
G37*
G36*
X69848228Y-67681703D02*
X70003100Y-67745853D01*
X70142481Y-67838985D01*
X70261015Y-67957519D01*
X70354147Y-68096900D01*
X70418297Y-68251772D01*
X70451000Y-68416184D01*
X70451000Y-68583816D01*
X70418297Y-68748228D01*
X70354147Y-68903100D01*
X70261015Y-69042481D01*
X70142481Y-69161015D01*
X70003100Y-69254147D01*
X69848228Y-69318297D01*
X69683816Y-69351000D01*
X69516184Y-69351000D01*
X69351772Y-69318297D01*
X69196900Y-69254147D01*
X69057519Y-69161015D01*
X68938985Y-69042481D01*
X68845853Y-68903100D01*
X68781703Y-68748228D01*
X68749000Y-68583816D01*
X68749000Y-68416184D01*
X68781703Y-68251772D01*
X68845853Y-68096900D01*
X68938985Y-67957519D01*
X69057519Y-67838985D01*
X69196900Y-67745853D01*
X69351772Y-67681703D01*
X69516184Y-67649000D01*
X69683816Y-67649000D01*
X69848228Y-67681703D01*
X69848228Y-67681703D01*
G37*
G36*
X97929966Y-68031065D02*
X97968637Y-68042796D01*
X98004279Y-68061848D01*
X98035517Y-68087483D01*
X98061152Y-68118721D01*
X98080204Y-68154363D01*
X98091935Y-68193034D01*
X98096500Y-68239388D01*
X98096500Y-68890612D01*
X98091935Y-68936966D01*
X98080204Y-68975637D01*
X98061152Y-69011279D01*
X98035517Y-69042517D01*
X98004279Y-69068152D01*
X97968637Y-69087204D01*
X97929966Y-69098935D01*
X97883612Y-69103500D01*
X96807388Y-69103500D01*
X96761034Y-69098935D01*
X96722363Y-69087204D01*
X96686721Y-69068152D01*
X96655483Y-69042517D01*
X96629848Y-69011279D01*
X96610796Y-68975637D01*
X96599065Y-68936966D01*
X96594500Y-68890612D01*
X96594500Y-68239388D01*
X96599065Y-68193034D01*
X96610796Y-68154363D01*
X96629848Y-68118721D01*
X96655483Y-68087483D01*
X96686721Y-68061848D01*
X96722363Y-68042796D01*
X96761034Y-68031065D01*
X96807388Y-68026500D01*
X97883612Y-68026500D01*
X97929966Y-68031065D01*
X97929966Y-68031065D01*
G37*
G36*
X97929966Y-66156065D02*
X97968637Y-66167796D01*
X98004279Y-66186848D01*
X98035517Y-66212483D01*
X98061152Y-66243721D01*
X98080204Y-66279363D01*
X98091935Y-66318034D01*
X98096500Y-66364388D01*
X98096500Y-67015612D01*
X98091935Y-67061966D01*
X98080204Y-67100637D01*
X98061152Y-67136279D01*
X98035517Y-67167517D01*
X98004279Y-67193152D01*
X97968637Y-67212204D01*
X97929966Y-67223935D01*
X97883612Y-67228500D01*
X96807388Y-67228500D01*
X96761034Y-67223935D01*
X96722363Y-67212204D01*
X96686721Y-67193152D01*
X96655483Y-67167517D01*
X96629848Y-67136279D01*
X96610796Y-67100637D01*
X96599065Y-67061966D01*
X96594500Y-67015612D01*
X96594500Y-66364388D01*
X96599065Y-66318034D01*
X96610796Y-66279363D01*
X96629848Y-66243721D01*
X96655483Y-66212483D01*
X96686721Y-66186848D01*
X96722363Y-66167796D01*
X96761034Y-66156065D01*
X96807388Y-66151500D01*
X97883612Y-66151500D01*
X97929966Y-66156065D01*
X97929966Y-66156065D01*
G37*
G36*
X93074443Y-65399519D02*
X93140627Y-65406037D01*
X93253853Y-65440384D01*
X93310467Y-65457557D01*
X93449087Y-65531652D01*
X93466991Y-65541222D01*
X93502729Y-65570552D01*
X93604186Y-65653814D01*
X93653168Y-65713500D01*
X93716778Y-65791009D01*
X93716779Y-65791011D01*
X93800443Y-65947533D01*
X93800443Y-65947534D01*
X93851963Y-66117373D01*
X93869359Y-66294000D01*
X93851963Y-66470627D01*
X93817616Y-66583853D01*
X93800443Y-66640467D01*
X93760336Y-66715500D01*
X93716778Y-66796991D01*
X93687448Y-66832729D01*
X93604186Y-66934186D01*
X93509638Y-67011778D01*
X93466991Y-67046778D01*
X93466989Y-67046779D01*
X93310467Y-67130443D01*
X93253853Y-67147616D01*
X93140627Y-67181963D01*
X93074442Y-67188482D01*
X93008260Y-67195000D01*
X92919740Y-67195000D01*
X92853558Y-67188482D01*
X92787373Y-67181963D01*
X92674147Y-67147616D01*
X92617533Y-67130443D01*
X92461011Y-67046779D01*
X92461009Y-67046778D01*
X92418362Y-67011778D01*
X92323814Y-66934186D01*
X92240552Y-66832729D01*
X92211222Y-66796991D01*
X92167664Y-66715500D01*
X92127557Y-66640467D01*
X92110384Y-66583853D01*
X92076037Y-66470627D01*
X92058641Y-66294000D01*
X92076037Y-66117373D01*
X92127557Y-65947534D01*
X92127557Y-65947533D01*
X92211221Y-65791011D01*
X92211222Y-65791009D01*
X92274832Y-65713500D01*
X92323814Y-65653814D01*
X92425271Y-65570552D01*
X92461009Y-65541222D01*
X92478913Y-65531652D01*
X92617533Y-65457557D01*
X92674147Y-65440384D01*
X92787373Y-65406037D01*
X92853557Y-65399519D01*
X92919740Y-65393000D01*
X93008260Y-65393000D01*
X93074443Y-65399519D01*
X93074443Y-65399519D01*
G37*
G36*
X74532443Y-65399519D02*
X74598627Y-65406037D01*
X74711853Y-65440384D01*
X74768467Y-65457557D01*
X74907087Y-65531652D01*
X74924991Y-65541222D01*
X74960729Y-65570552D01*
X75062186Y-65653814D01*
X75111168Y-65713500D01*
X75174778Y-65791009D01*
X75174779Y-65791011D01*
X75258443Y-65947533D01*
X75258443Y-65947534D01*
X75309963Y-66117373D01*
X75327359Y-66294000D01*
X75309963Y-66470627D01*
X75275616Y-66583853D01*
X75258443Y-66640467D01*
X75218336Y-66715500D01*
X75174778Y-66796991D01*
X75145448Y-66832729D01*
X75062186Y-66934186D01*
X74967638Y-67011778D01*
X74924991Y-67046778D01*
X74924989Y-67046779D01*
X74768467Y-67130443D01*
X74711853Y-67147616D01*
X74598627Y-67181963D01*
X74532442Y-67188482D01*
X74466260Y-67195000D01*
X74377740Y-67195000D01*
X74311558Y-67188482D01*
X74245373Y-67181963D01*
X74132147Y-67147616D01*
X74075533Y-67130443D01*
X73919011Y-67046779D01*
X73919009Y-67046778D01*
X73876362Y-67011778D01*
X73781814Y-66934186D01*
X73698552Y-66832729D01*
X73669222Y-66796991D01*
X73625664Y-66715500D01*
X73585557Y-66640467D01*
X73568384Y-66583853D01*
X73534037Y-66470627D01*
X73516641Y-66294000D01*
X73534037Y-66117373D01*
X73585557Y-65947534D01*
X73585557Y-65947533D01*
X73669221Y-65791011D01*
X73669222Y-65791009D01*
X73732832Y-65713500D01*
X73781814Y-65653814D01*
X73883271Y-65570552D01*
X73919009Y-65541222D01*
X73936913Y-65531652D01*
X74075533Y-65457557D01*
X74132147Y-65440384D01*
X74245373Y-65406037D01*
X74311557Y-65399519D01*
X74377740Y-65393000D01*
X74466260Y-65393000D01*
X74532443Y-65399519D01*
X74532443Y-65399519D01*
G37*
G36*
X101863000Y-66779000D02*
X100961000Y-66779000D01*
X100961000Y-65777000D01*
X101863000Y-65777000D01*
X101863000Y-66779000D01*
X101863000Y-66779000D01*
G37*
G36*
X103763000Y-66779000D02*
X102861000Y-66779000D01*
X102861000Y-65777000D01*
X103763000Y-65777000D01*
X103763000Y-66779000D01*
X103763000Y-66779000D01*
G37*
G36*
X60143500Y-66715500D02*
X59241500Y-66715500D01*
X59241500Y-65713500D01*
X60143500Y-65713500D01*
X60143500Y-66715500D01*
X60143500Y-66715500D01*
G37*
G36*
X62043500Y-66715500D02*
X61141500Y-66715500D01*
X61141500Y-65713500D01*
X62043500Y-65713500D01*
X62043500Y-66715500D01*
X62043500Y-66715500D01*
G37*
G36*
X102813000Y-64779000D02*
X101911000Y-64779000D01*
X101911000Y-63777000D01*
X102813000Y-63777000D01*
X102813000Y-64779000D01*
X102813000Y-64779000D01*
G37*
G36*
X61093500Y-64715500D02*
X60191500Y-64715500D01*
X60191500Y-63713500D01*
X61093500Y-63713500D01*
X61093500Y-64715500D01*
X61093500Y-64715500D01*
G37*
G36*
X107134239Y-55811467D02*
X107448282Y-55873934D01*
X108039926Y-56119001D01*
X108329523Y-56312504D01*
X108572395Y-56474786D01*
X109025214Y-56927605D01*
X109025216Y-56927608D01*
X109380999Y-57460074D01*
X109626066Y-58051718D01*
X109667756Y-58261310D01*
X109751000Y-58679803D01*
X109751000Y-59320197D01*
X109724701Y-59452409D01*
X109626066Y-59948282D01*
X109380999Y-60539926D01*
X109133265Y-60910685D01*
X109025214Y-61072395D01*
X108572395Y-61525214D01*
X108572392Y-61525216D01*
X108039926Y-61880999D01*
X107448282Y-62126066D01*
X107134239Y-62188533D01*
X106820197Y-62251000D01*
X106179803Y-62251000D01*
X105865761Y-62188533D01*
X105551718Y-62126066D01*
X104960074Y-61880999D01*
X104427608Y-61525216D01*
X104427605Y-61525214D01*
X103974786Y-61072395D01*
X103866735Y-60910685D01*
X103619001Y-60539926D01*
X103373934Y-59948282D01*
X103275299Y-59452409D01*
X103249000Y-59320197D01*
X103249000Y-58679803D01*
X103332244Y-58261310D01*
X103373934Y-58051718D01*
X103619001Y-57460074D01*
X103974784Y-56927608D01*
X103974786Y-56927605D01*
X104427605Y-56474786D01*
X104670477Y-56312504D01*
X104960074Y-56119001D01*
X105551718Y-55873934D01*
X105865761Y-55811467D01*
X106179803Y-55749000D01*
X106820197Y-55749000D01*
X107134239Y-55811467D01*
X107134239Y-55811467D01*
G37*
G36*
X54234239Y-55811467D02*
X54548282Y-55873934D01*
X55139926Y-56119001D01*
X55429523Y-56312504D01*
X55672395Y-56474786D01*
X56125214Y-56927605D01*
X56125216Y-56927608D01*
X56480999Y-57460074D01*
X56726066Y-58051718D01*
X56767756Y-58261310D01*
X56851000Y-58679803D01*
X56851000Y-59320197D01*
X56824701Y-59452409D01*
X56726066Y-59948282D01*
X56480999Y-60539926D01*
X56233265Y-60910685D01*
X56125214Y-61072395D01*
X55672395Y-61525214D01*
X55672392Y-61525216D01*
X55139926Y-61880999D01*
X54548282Y-62126066D01*
X54234239Y-62188533D01*
X53920197Y-62251000D01*
X53279803Y-62251000D01*
X52965761Y-62188533D01*
X52651718Y-62126066D01*
X52060074Y-61880999D01*
X51527608Y-61525216D01*
X51527605Y-61525214D01*
X51074786Y-61072395D01*
X50966735Y-60910685D01*
X50719001Y-60539926D01*
X50473934Y-59948282D01*
X50375299Y-59452409D01*
X50349000Y-59320197D01*
X50349000Y-58679803D01*
X50432244Y-58261310D01*
X50473934Y-58051718D01*
X50719001Y-57460074D01*
X51074784Y-56927608D01*
X51074786Y-56927605D01*
X51527605Y-56474786D01*
X51770477Y-56312504D01*
X52060074Y-56119001D01*
X52651718Y-55873934D01*
X52965761Y-55811467D01*
X53279803Y-55749000D01*
X53920197Y-55749000D01*
X54234239Y-55811467D01*
X54234239Y-55811467D01*
G37*
G36*
X93272527Y-57488736D02*
X93372410Y-57508604D01*
X93654674Y-57625521D01*
X93908705Y-57795259D01*
X94124741Y-58011295D01*
X94294479Y-58265326D01*
X94411396Y-58547590D01*
X94415124Y-58566332D01*
X94471000Y-58847238D01*
X94471000Y-59152762D01*
X94437695Y-59320196D01*
X94411396Y-59452410D01*
X94294479Y-59734674D01*
X94124741Y-59988705D01*
X93908705Y-60204741D01*
X93654674Y-60374479D01*
X93372410Y-60491396D01*
X93272527Y-60511264D01*
X93072762Y-60551000D01*
X92767238Y-60551000D01*
X92567473Y-60511264D01*
X92467590Y-60491396D01*
X92185326Y-60374479D01*
X91931295Y-60204741D01*
X91715259Y-59988705D01*
X91545521Y-59734674D01*
X91428604Y-59452410D01*
X91402305Y-59320196D01*
X91369000Y-59152762D01*
X91369000Y-58847238D01*
X91424876Y-58566332D01*
X91428604Y-58547590D01*
X91545521Y-58265326D01*
X91715259Y-58011295D01*
X91931295Y-57795259D01*
X92185326Y-57625521D01*
X92467590Y-57508604D01*
X92567473Y-57488736D01*
X92767238Y-57449000D01*
X93072762Y-57449000D01*
X93272527Y-57488736D01*
X93272527Y-57488736D01*
G37*
G36*
X62272527Y-57488736D02*
X62372410Y-57508604D01*
X62654674Y-57625521D01*
X62908705Y-57795259D01*
X63124741Y-58011295D01*
X63294479Y-58265326D01*
X63411396Y-58547590D01*
X63415124Y-58566332D01*
X63471000Y-58847238D01*
X63471000Y-59152762D01*
X63437695Y-59320196D01*
X63411396Y-59452410D01*
X63294479Y-59734674D01*
X63124741Y-59988705D01*
X62908705Y-60204741D01*
X62654674Y-60374479D01*
X62372410Y-60491396D01*
X62272527Y-60511264D01*
X62072762Y-60551000D01*
X61767238Y-60551000D01*
X61567473Y-60511264D01*
X61467590Y-60491396D01*
X61185326Y-60374479D01*
X60931295Y-60204741D01*
X60715259Y-59988705D01*
X60545521Y-59734674D01*
X60428604Y-59452410D01*
X60402305Y-59320196D01*
X60369000Y-59152762D01*
X60369000Y-58847238D01*
X60424876Y-58566332D01*
X60428604Y-58547590D01*
X60545521Y-58265326D01*
X60715259Y-58011295D01*
X60931295Y-57795259D01*
X61185326Y-57625521D01*
X61467590Y-57508604D01*
X61567473Y-57488736D01*
X61767238Y-57449000D01*
X62072762Y-57449000D01*
X62272527Y-57488736D01*
X62272527Y-57488736D01*
G37*
G36*
X99551000Y-60551000D02*
X96449000Y-60551000D01*
X96449000Y-57449000D01*
X99551000Y-57449000D01*
X99551000Y-60551000D01*
X99551000Y-60551000D01*
G37*
G36*
X68551000Y-60551000D02*
X65449000Y-60551000D01*
X65449000Y-57449000D01*
X68551000Y-57449000D01*
X68551000Y-60551000D01*
X68551000Y-60551000D01*
G37*
G36*
X86951000Y-59951000D02*
X85049000Y-59951000D01*
X85049000Y-58049000D01*
X86951000Y-58049000D01*
X86951000Y-59951000D01*
X86951000Y-59951000D01*
G37*
G36*
X71737396Y-58085546D02*
X71910466Y-58157234D01*
X72066230Y-58261312D01*
X72198688Y-58393770D01*
X72302766Y-58549534D01*
X72374454Y-58722604D01*
X72411000Y-58906333D01*
X72411000Y-59093667D01*
X72374454Y-59277396D01*
X72302766Y-59450466D01*
X72198688Y-59606230D01*
X72066230Y-59738688D01*
X71910466Y-59842766D01*
X71737396Y-59914454D01*
X71553667Y-59951000D01*
X71366333Y-59951000D01*
X71182604Y-59914454D01*
X71009534Y-59842766D01*
X70853770Y-59738688D01*
X70721312Y-59606230D01*
X70617234Y-59450466D01*
X70545546Y-59277396D01*
X70509000Y-59093667D01*
X70509000Y-58906333D01*
X70545546Y-58722604D01*
X70617234Y-58549534D01*
X70721312Y-58393770D01*
X70853770Y-58261312D01*
X71009534Y-58157234D01*
X71182604Y-58085546D01*
X71366333Y-58049000D01*
X71553667Y-58049000D01*
X71737396Y-58085546D01*
X71737396Y-58085546D01*
G37*
G36*
X74951000Y-59951000D02*
X73049000Y-59951000D01*
X73049000Y-58049000D01*
X74951000Y-58049000D01*
X74951000Y-59951000D01*
X74951000Y-59951000D01*
G37*
G36*
X88817396Y-58085546D02*
X88990466Y-58157234D01*
X89146230Y-58261312D01*
X89278688Y-58393770D01*
X89382766Y-58549534D01*
X89454454Y-58722604D01*
X89491000Y-58906333D01*
X89491000Y-59093667D01*
X89454454Y-59277396D01*
X89382766Y-59450466D01*
X89278688Y-59606230D01*
X89146230Y-59738688D01*
X88990466Y-59842766D01*
X88817396Y-59914454D01*
X88633667Y-59951000D01*
X88446333Y-59951000D01*
X88262604Y-59914454D01*
X88089534Y-59842766D01*
X87933770Y-59738688D01*
X87801312Y-59606230D01*
X87697234Y-59450466D01*
X87625546Y-59277396D01*
X87589000Y-59093667D01*
X87589000Y-58906333D01*
X87625546Y-58722604D01*
X87697234Y-58549534D01*
X87801312Y-58393770D01*
X87933770Y-58261312D01*
X88089534Y-58157234D01*
X88262604Y-58085546D01*
X88446333Y-58049000D01*
X88633667Y-58049000D01*
X88817396Y-58085546D01*
X88817396Y-58085546D01*
G37*
M02*
